<svg width="456" height="150" xmlns="http://www.w3.org/2000/svg" xmlns:xlink="http://www.w3.org/1999/xlink" viewbox="0 0 456 150"><defs><path id="a" d="M.192.025h9.191v28.73H.192z"/><path id="c" d="M0 .218h81.64v79.437H0z"/></defs><g fill="none" fill-rule="evenodd"><path d="M224.86 38.852c0 2.811 1.325 5.668 3.161 7.763 1.838-2.095 3.162-4.952 3.162-7.763 0-2.81-1.325-5.668-3.162-7.763-1.835 2.095-3.16 4.952-3.16 7.763" fill="#FFF"/><g transform="translate(222.742 .237)"><mask id="b" fill="#fff"><use xlink:href="#a"/></mask><path d="M.818 8.932c1.197 6.633 2.603 13.232 4.018 19.822 1.445-6.866 2.899-13.741 4.077-20.658.19-1.122.444-2.28.469-3.423C9.446 1.875 6.835-.336 4.095.075 1.735.428 0 2.628.21 5.006c.116 1.316.376 2.626.61 3.926" fill="#FFF" mask="url(#b)"/></g><path d="M224.235 29.71a849.456 849.456 0 0 0-1.922-8.663c-.808-3.558-1.498-7.214-2.635-10.687-.747-2.276-3.385-3.418-5.52-2.218-2.022 1.139-2.394 3.627-1.255 5.508 3.38 5.583 7.48 10.799 11.332 16.06M205.67 24.466c-.377-.247-.746-.49.006.005.75.495.386.254.01.007 1 .655 2.221 1.066 3.315 1.53 1.813.771 3.638 1.514 5.465 2.25a709.45 709.45 0 0 0 7.406 2.94 577.729 577.729 0 0 0-8.652-8.602c-1.24-1.202-2.485-2.653-3.938-3.607-3.531-2.327-7.137 3.147-3.613 5.477M241.953 20.415a329.57 329.57 0 0 0-3.689 4.62 763.144 763.144 0 0 0-4.893 6.29 573.782 573.782 0 0 0 10.68-5.904c1.5-.855 3.241-1.645 4.565-2.773 3.22-2.744-1.032-7.736-4.254-4.997.344-.294.685-.584-.004.002-.686.585-.348.297-.005.005-.91.776-1.647 1.836-2.4 2.757M235.796 22.07a355.539 355.539 0 0 0 3.796-5.767c.71-1.108 1.566-2.245 2.073-3.467-.198.48-.388.944.007-.016.398-.968.203-.495.004-.011 1.855-4.54-5.175-7.436-7.05-2.897-.77 1.866-1.017 4.072-1.42 6.036a663.175 663.175 0 0 0-2.685 13.915 850.496 850.496 0 0 0 5.275-7.792M285.805 32.083c.45-.05.339-.038 0 0m25.354 11.649c3.72 4.17 6.775 8.858 9.947 13.441 2.574 3.692 6.51 10.788 11.81 10.546-.217-.527-1.23-.466-1.88-.75-1.201-.528-2.218-1.406-3.113-2.347-1.954-2.053-3.525-4.486-5.057-6.86-3.318-5.148-6.514-10.38-10.582-14.99-3.466-3.929-7.618-7.382-12.498-9.395-2.76-1.133-5.738-1.822-8.72-1.956-.855-.037-7.582.156-7.325.892 10.932-1.214 20.24 3.37 27.418 11.419M263.578 70.983c-.638-.406-1.994-.786-3.036-.624.41-.807 1.473-2.101 1.495-3.216.062-3.106-2.857-5.59-5.963-4.286-1.938.814-2.534 5.002.164 4.957.309-1.068-.841-.638-1.102-1.532-.309-1.082.628-2.204 1.678-2.342 2.52-.294 4.05 2.12 3.687 4.379-.948 5.908-8.231 5.569-11.788 2.377-3.226-2.895-3.475-7.452-2.033-11.833-.37-.078-.622-.171-1.12-.28a18.892 18.892 0 0 0-.685 2.921c-1.2 1.945-3.506 3.648-3.336 6.198.135 1.93 1.5 1.836 1.802 4.845-.015.447.447 1.108.574 1.525.12.402.839.314.73-.097-.559-2.112 1.18-3.851.901-6.043.808 1.841 2.178 3.35 4.068 4.47 3.044 1.803 7.341 1.728 9.756-.49.99-.98 3.322-.68 3.832-.286.708.547 1.266 1.332 1.463 2.216.243 1.088.125 2.092-.464 3.051-.391.637-1.219 1.298-2.044.973-.729-.221-1.103-.677-1.123-1.369l.408-.3c.459.15.654-.57.199-.718-1.745-.57-1.437 1.838-.612 2.61 1.642 1.539 3.842-.12 4.315-1.87.498-1.847-.067-4.156-1.766-5.236M399.603 103.811c-5.092-2.135-10.637-3.048-16.14-3.05a56.083 56.083 0 0 0-8.566.705c-.895.146-7.774 1.58-7.473 2.146 10.88-2.588 23.38-2.535 33.595 2.449 4.79 2.336 8.983 5.787 12.24 10.002 1.638 2.124 3.05 4.416 4.265 6.804.668 1.31 1.28 2.65 1.84 4.01.695 1.691.958 1.612.388-.143-3.288-10.122-10.187-18.792-20.15-22.923M332.044 56.399c.017-.89.042-1.796.2-2.723.06-.364.158-.739.28-1.111-.78.586-1.64 1.018-2.31 1.784-.566.642-.849 1.461-1.02 2.281-.522 2.497 1.327 4.688 1.17 7.193-.022.305.432.506.634.261 1.244-1.499 3.04-2.99 3.584-4.942.649-2.341-.455-4.168-.73-6.4a6.089 6.089 0 0 0-.52 1.197c-.256.794-.407 1.654-.546 2.525-.14.871-.262 1.762-.484 2.636-.208.892-.64 1.68-1.006 2.483.251-.849.565-1.687.638-2.55.095-.867.094-1.745.11-2.634M254.587 44.578c-.189-.608-.448-1.194-.699-1.795-.25-.599-.498-1.211-.663-1.878-.068-.26-.111-.54-.139-.825-.349.62-.798 1.162-1.022 1.87-.19.595-.139 1.226-.014 1.824.384 1.823 2.261 2.746 2.89 4.467.076.211.44.213.502-.01.392-1.368 1.156-2.89.948-4.356-.252-1.757-1.526-2.654-2.364-4.065-.034.305-.03.621.002.952.062.606.214 1.226.376 1.848.161.623.341 1.255.45 1.906.121.656.063 1.31.053 1.954-.08-.641-.116-1.294-.32-1.892" fill="#FFF"/><path d="M267.534 65.703c-1.14.118-2.508.005-3.54.602-1.237.715-1.524 1.937-2.328 2.987a3.67 3.67 0 0 0 .711-.287c.436-.23.853-.53 1.269-.836.416-.31.835-.633 1.29-.91.453-.288.96-.44 1.443-.627-.455.252-.933.475-1.318.808-.397.324-.757.694-1.13 1.062-.373.366-.756.736-1.205 1.06-.174.128-.37.245-.575.351.569.075 1.108.248 1.704.202.502-.037.958-.264 1.367-.537 1.248-.835 1.374-2.515 2.47-3.503.135-.12.027-.392-.158-.372M307.432 103.733c-.292.24-.6.427-.906.609-.306.181-.613.354-.894.558-.285.197-.515.471-.76.728.206-.287.395-.593.663-.842.26-.25.546-.47.821-.69.274-.221.543-.444.77-.689.122-.135.226-.273.312-.418-.83.347-1.683.324-2.367 1.013-.572.575-.733 1.495-1.01 2.224-.045.119.116.236.218.168.838-.55 1.966-.342 2.73-1.017.25-.223.48-.482.591-.806.133-.384.112-.769.162-1.156a2.993 2.993 0 0 1-.33.318M317.722 72.234c-2.404 2.87-9.288 2.138-8.293-2.61.381-1.853 3.227-3.536 4.398-1.29.412.79.111 2.028-.86 2.228-.803.164-1.727-.646-1.163-1.446-.926 1.069.799 2.034 1.726 1.504.757-.47 1.017-1.473.736-2.29-.708-2.046-3.655-1.868-4.736-.303-3.35 4.676 4.2 8.36 7.629 4.898-.444.568.115-.019.563-.69M311.22 82.301c.003.974 1.335.696 1.577 0 .181-.587-.139-1.226-.655-1.522-1.293-.743-2.744.683-2.596 1.986.377 3.953 5.984 2.435 6.178-.93.028.534.054-.033-.018-.593.05 2.578-3.858 5.315-5.49 2.4-.641-1.136.074-3.3 1.7-2.662.573.223.977 1.003.562 1.546-.342.449-1.19.446-1.258-.225" fill="#FFF"/><path d="M411.221 141.034c-.094.29-.21.628-.356 1.02 1.212-5.945 1.573-12.437-1.45-17.927-2.81-5.072-7.971-8.497-13.464-10.055-6.23-1.766-12.731-1.653-19.111-2.44-2.803-.304-5.57-.855-8.29-1.59 4.142 1.998 7.59 5.19 5.008 9.753-.041.085-.09.174-.148.27 1.365-6.594-4.46-9.3-11.484-12.233a66.985 66.985 0 0 1-3.238-1.37c6.423 1.85 12.936 3.177 19.622 3.495 4.003.191 8.035.26 12.015.75 7.297.896 14.491 3.672 18.953 9.802 4.378 6.013 4.233 13.737 1.943 20.525m-27.465-25.757c-3.926-.994-9.535-1.388-12.582-4.343 7.115 2.41 21.267.286 22.661 10.62.029.168.054.35.072.56-2.204-3.986-5.88-5.764-10.151-6.837m-42.886-14.89c-4.928-.614-10.016-2.029-14.14-4.895.768.76 1.578 1.483 2.446 2.154 2.604 2.094 5.592 3.624 8.693 4.834 3.19 1.215 6.803 1.418 9.825 3.05-3.432-.723-6.945-.498-10.358-1.39-3.646-.935-7.18-2.74-10.06-5.164a25.386 25.386 0 0 1-3.225-3.269c.82 2.976 1.237 6.371-.209 8.891.39-8.147-7.143-9.13-5.218-25.715 2.43 16.824 23.76 16.148 27.766 12.67-3.446 5.924-11.678 5.405-18.013 2.796 11.428 6.833 23.38 4.344 30.025 2.591 5.46-1.456 10.385-4.366 15.194-7.25-4.385 3.716-9.183 7.099-14.686 8.92-5.748 1.927-12.025 2.525-18.04 1.776m-39.047-22.48l-.637-1.017a8.124 8.124 0 0 0 1.73 1.357c-.364-.111-.73-.223-1.093-.34m-4.256 9.92c-1.585-2.809 1.114-5.519 3.913-5.59-2.42 1.28-4.037 2.67-3.913 5.59m2.175-10.652c-4.196-1.031-3.036-7.24-6.088-9.565 4.082 1.42 2.583 7.964 6.709 9.69a2.762 2.762 0 0 1-.621-.125m-12.384-.06c-2.429-.543-4.823-.776-7.307-.84 1.546-1.24 3.357-1.703 5.229-1.677a36.586 36.586 0 0 1-2.285-2.006c-2.418-2.29-5.214-5.411-8.721-5.82 1.403-.603 2.898-.447 4.344.099-2.68-3.442-5.162-7.105-7.512-10.722 7.046 5.43 11.604 14.222 18.841 19.39 1.842.675 3.58 1.627 5.011 2.599-2.562.254-5.122-.474-7.6-1.023M177.188 66.87c1.447-.546 2.942-.702 4.345-.1-3.507.41-6.303 3.532-8.721 5.821a36.591 36.591 0 0 1-2.285 2.006c1.872-.026 3.683.437 5.23 1.676-2.485.065-4.88.298-7.307.84-2.478.55-5.04 1.278-7.601 1.024 1.43-.972 3.169-1.924 5.01-2.599 7.237-5.168 11.796-13.96 18.842-19.39-2.35 3.617-4.833 7.28-7.512 10.722m-21.124 10.304a2.766 2.766 0 0 1-.62.124c4.125-1.725 2.627-8.268 6.708-9.69-3.052 2.326-1.892 8.535-6.088 9.566m-2.081.732c-.364.117-.729.229-1.093.34a8.136 8.136 0 0 0 1.73-1.357l-.637 1.017m4.256 9.92c.124-2.92-1.493-4.31-3.914-5.59 2.8.071 5.5 2.781 3.914 5.59m-26.275 16.772c-1.446-2.52-1.028-5.915-.21-8.89a25.35 25.35 0 0 1-3.224 3.268c-2.88 2.424-6.414 4.229-10.06 5.165-3.413.89-6.926.666-10.358 1.389 3.022-1.632 6.634-1.835 9.825-3.05 3.101-1.21 6.089-2.74 8.693-4.834a26.632 26.632 0 0 0 2.445-2.154c-4.124 2.866-9.211 4.281-14.14 4.894-6.014.75-12.29.151-18.04-1.776-5.501-1.821-10.3-5.204-14.685-8.92 4.809 2.884 9.733 5.794 15.194 7.25 6.645 1.753 18.597 4.242 30.025-2.59-6.335 2.608-14.566 3.127-18.012-2.796 4.005 3.477 25.336 4.153 27.765-12.671 1.925 16.584-5.608 17.568-5.218 25.715m-38.084 3.234c-7.023 2.932-12.849 5.64-11.484 12.232a3.845 3.845 0 0 1-.149-.269c-2.582-4.563.867-7.755 5.009-9.754-2.72.736-5.487 1.287-8.29 1.592-6.38.786-12.881.673-19.111 2.44-5.493 1.557-10.654 4.982-13.464 10.054-3.023 5.49-2.662 11.982-1.45 17.926-.146-.39-.262-.728-.356-1.019-2.29-6.788-2.435-14.512 1.942-20.525 4.463-6.13 11.657-8.906 18.954-9.802 3.98-.49 8.012-.559 12.015-.75 6.686-.318 13.199-1.646 19.622-3.496a67.013 67.013 0 0 1-3.238 1.371m-21.83 7.445c-4.27 1.073-7.946 2.851-10.151 6.837.018-.21.043-.392.072-.56 1.394-10.334 15.546-8.21 22.662-10.62-3.048 2.955-8.657 3.349-12.583 4.343m79.304-63.763c2.452-1.007 5.039-.99 6.885 1.094-3.841-.622-7.437 1.413-10.716 3.555a239.61 239.61 0 0 1-5.38 6.19c-2.5 2.768-5.362 5.27-8.848 6.661-.233.106-.547.23-.958.365 3.648-2.23 6.366-5.293 8.938-8.662 2.667-3.606 5.521-7.092 8.338-10.581 4.92-6.095 11.213-13.692 19.62-14.486-7.696 2.615-13.054 9.651-17.879 15.864M115.94 76.833c2.772-1.608 5.869.57 9.037-2.423-2.168 3.817-6.176 2.003-9.037 2.423m2.143-6.336c-.533-1.495-5.505-6.36-3.914-7.733-.406.956 1.097 2.392 1.64 3.098.898 1.17 2.143 2.64 2.258 4.2.018.091.03.234.016.435m70.345-25.623c-2.73-1.46-3.84-7.24-7.547-5.497 3.377-3.33 5.857 3.613 7.547 5.497m78.952 0c1.689-1.884 4.169-8.827 7.547-5.497-3.707-1.742-4.818 4.037-7.547 5.497m38.813 5.262c2.817 3.49 5.67 6.975 8.338 10.581 2.572 3.369 5.29 6.432 8.938 8.662a9.486 9.486 0 0 1-.958-.365c-3.486-1.39-6.348-3.893-8.85-6.662a241.125 241.125 0 0 1-5.378-6.189c-3.28-2.142-6.874-4.177-10.716-3.555 1.846-2.083 4.433-2.101 6.885-1.094-4.825-6.213-10.183-13.249-17.88-15.864 8.407.794 14.7 8.391 19.621 14.486m33.674 26.697c-2.861-.42-6.87 1.394-9.037-2.423 3.168 2.993 6.266.815 9.037 2.423m-2.128-6.771c.116-1.56 1.36-3.03 2.26-4.2.543-.706 2.045-2.142 1.639-3.098 1.59 1.373-3.381 6.238-3.913 7.733a1.714 1.714 0 0 1 .014-.435m55.94 37.133c-12.96-2.576-26.419-1.234-39.514-2.76 3.273-.274 6.462-.973 9.395-2.147 10.808-4.332 18.907-15.683 16.783-27.632-.983-5.53-4.65-10.383-9.71-12.828-4.92-2.37-11.275-2.571-15.426 1.416-3.355 3.216-4.762 9.413-1.542 12.866.925 4.04-1.813 9.512-6.48 7.374-2.175-.989-3.452-4.96-.36-5.775 1.086-.286 2.527.43 2.501 1.68-.022 1.035-1.276 1.946-2.104 1.03 1.057 1.437 2.726-.416 2.333-1.705-.366-1.063-1.527-1.663-2.614-1.545-2.715.3-3.318 3.976-1.694 5.744 4.332 4.878 10.134-1.3 8.869-6.368a7.124 7.124 0 0 0 1.783 1.145c2.4 1.088 5.172.783 6.529-1.737 1.051-1.945-.095-4.994-2.724-4.897v.194c0 1.066 2.172.887 2.142 2.392 0 1.081-.385 2.087-1.316 2.624-2.26 1.297-5.113-.641-5.94-2.795-1.938-5.061 3.472-9.615 8.085-9.556 5.51.395 10.4 4.047 11.882 9.452 1.264 4.614-.094 9.809-2.622 13.935-2.37 1.086-4.789 1.58-7.384.741-1.476-.47-3.233-1.267-4.829-.961-1.885.358-2.443 1.856-3.047 3.488-1.013 2.706-3.287 4.405-5.992 4.196 1.773-.745 2.497-2.66 2.415-4.89-.015-.275-.313-.476-.566-.32-1.335.82-2.974 1.58-4.302.179-.477-.507-.901-1.088-1.415-1.542-.694-.62-1.633-1.2-2.625-.91-1.251.372-1.93 1.267-2.727 2.244-1.283 1.557-3.146 2.19-5.18 1.37 4.136-3.905-3.206-13.46-7.954-9.48-.269.223.06.619.358.633 2.788.157 4.755 3.437 2.452 5.65-1.274 1.223-9.098 2.052-10.89-17.792-.88 1.312-7.848 9.496-15.057 8.602-1.303-.313-2.497-1.014-3.398-2.273-1.842-2.572-1.328-8.342 2.675-8.58 1.2-.067 2.422.664 2.528 1.953.081.901-.545 2.124-1.626 1.841-.484-.126-.656-.32-.887.365 2.028 1.193 3.518-1.372 2.893-3.115-.366-1.006-1.268-1.745-2.252-2.065-4.308-1.428-6.57 2.982-6.183 6.126-.594-1.298-1.23-2.619-2.083-3.749-1.454-1.93-3.63-3.876-6-2.19-.201.14-.283.52 0 .64 2.944 1.267 2.445 5.136 4.33 7.387a9.235 9.235 0 0 0 1.635 1.531c-5.044-2.472-9.2-6.591-13.016-10.625-4.085-4.323-9.005-10.077-14.714-13.447a22.53 22.53 0 0 0 4.234-5.41c.7 3.495 3.801 6.737 7.542 6.372a4.903 4.903 0 0 0 1.6-.45c-2.946 4.861 1.65 13.085 7.38 8.99 2.075-1.433 2.314-5.34-.396-6.28-1.084-.376-2.415-.031-3.04.972-.703 1.229.576 3.517 1.992 2.292-1.061.746-2.134-.481-1.914-1.546.266-1.287 1.909-1.685 2.955-1.137 2.974 1.557.741 5.325-1.719 5.83-5.43 1.135-6.892-5.507-4.744-9.395 1.626-.979 2.805-2.8 2.285-4.71-.582-2.124-4.286-3.622-4.972-.745 1.035.678 1.357-1.386 2.869-.626 1.588.783 1.596 2.668.716 3.988-1.938 2.907-5.836 1.774-7.737-.53-4.762-5.775 1.73-11.631 7.486-12.842a.371.371 0 0 0 .333.246c2.512.216 4.502 1.654 5.836 3.756.917 1.447 1.425 3.124 2.356 4.532.7 1.059 1.595 1.908 2.892 2.133.999.178 2.132.267 2.698 1.288.104.187.208.359.313.537-1.624-.253-3.63.745-4.285 2.155-.731 1.572-.955 4.315 1.087 4.964.217.074.484-.12.47-.358-.246-3.548 2.922-1.461 5.337-.455-3.646 1.752-1.134 10.465 3.048 7.67.307-.201.201-.693-.186-.693-2.11-.015-1.721-3.101-.269-3.831 1.745-.872 3.654-.187 5.189.812 1.715 1.118 3.191 3.067 4.97 4.201 3.922 4.04 8.784 7.446 14.059 9.014 1.297 2.095 3.488 4.406 5.86 4.89 3.017.62 6.395-1.103 9.137.7.35.232.783-.32.447-.58-1.02-.805-1.885-2.065-3.085-2.617-1.163-.53-2.393-.857-3.66-1.043-.843-.12-1.945-.202-3.004-.418 2.616.067 5.277-.38 7.931-1.475 5.314-2.192 9.726-6.694 11.031-12.389 1.282-5.553-.521-11.948-6.075-14.364-3.925-1.713-8.43-2-11.132 1.26-3.123 4.442-7.36 3.262-8.357 2.27-2.025-2.015-3.836-6.456-1.84-9.132 1.562-2.097 5.07-2.415 6.727-.451 1.328 1.412 1.184 5.491-.79 5.443-1.326-.032-2.215-1.118-1.66-2.414.186-.437-.456-.817-.644-.375-1.343 3.139 3.448 5.042 4.512 1.88.335-.992.297-1.754.185-2.86.781 1.477 2.094.959 2.207 1.972.051.425.581.507.738.104.506-1.371.588-2.973-.56-4.054-1.348-1.266-2.948-1.342-4.704-1.267-1.235-.708-2.823-.869-4.503-.135-5.074 2.215-4.207 7.338-2.426 10.73-.914-.646-1.603-1.536-2.589-2.18-.804-.53-1.856-.313-2.698-.075-.342.09-.373.641 0 .716 2.094.44 2.326 3.481 4.174 4.517 1.195.668 3.312.263 4.657-.097 2.523.743 5.674.336 7.194-1.09a7.201 7.201 0 0 0 0 1.947c.337 2.534 2.818 4.547 5.405 3.675 2.333-.782 2.616-5.27-.373-4.644-.082.977.559.522 1.111.954.596.463.537 1.417.223 2.02-.901 1.76-3.473 1.268-4.628.082-2.706-2.78-.09-7.52 3.13-8.4 3.965-1.029 8.304.79 10.353 4.338 1.916 3.324 1.655 7.685.143 11.114-1.937 4.403-6.123 8.079-10.778 8.868.266-.1.506-.502.715-.729.82-.879 1.661-1.707 2.384-2.668 1.902-2.512 1.134-4.98-1.438-6.59-.268-.171-.648.112-.544.418.328 1.029.544 2.795-1.29 3.056-.089.015-1.356.112-1.617.201-.388.134-.88.269-1.163.596-.47.552-.596 1.2-.447 1.909.224 1.073.753 2.041 1.029 3.1.145.556.098.996-.065 1.344-.01.003-.021.013-.032.013-6.21.694-11.844-3.097-16.033-7.278-7.447-7.417-12.105-17.373-20.46-23.925-4.45-3.489-10.436-6.254-16.206-5.277-2.772.47-5.366 1.78-7.337 3.736-1.14.012-2.752-.996-3.605-1.141-1.192-.209-2.624-.26-3.696.418-1.178.73-1.678 1.774-1.917 3.123-.365 1.983-.618 3.317-2.645 4.241-.314.141-.194.589.089.679 1.93.618 3.95 1.02 5.427-.672.893-1.02 1.013-2.519 2.057-3.458.751-.673 1.66-.947 2.612-1.124a11.945 11.945 0 0 0-1.726 4.317c-2.11 3.459-3.801 5.287-5.731 6.681-2.975-1.469-6.15-2.227-9.526-1.788-3.608.47-7.096 1.864-10.42 5.352.402.105.64.262 1.17.478 3.22-3.034 7.669-4.152 11.24-4.025 1.893.067 3.533.671 5.016 1.58-2.265 1.23-4.793 1.811-7.282 2.505-5.235 1.45-9.675.382-13.043-1.618.854-.95 1.112-3.266 1.14-4.144.066-2.802-2.423-6.15-5.435-5.747-.275.037-.551.403-.26.633 1.64 1.345 1.322 4.72 1.828 7.257-2.056-1.84-3.44-3.947-4.027-5.624-1.193-3.421-.858-7.99 1.334-10.987 2.035-2.862 6.35-3.816 9.347-1.886 2.504 1.618 2.773 7.499-1.23 6.954-1.4-.193-1.7-1.118-1.513-2.34.477-.768 1.372-.097 1.588-1.088-1.573-.984-2.923.686-2.878 2.132.068 2.266 2.624 3.286 4.57 2.84 1.966-.454 3.084-1.921 3.503-3.661 2.715 2.8 8.01 3.648 10.516.252 1.79-2.426 1.536-7.515-1.854-8.547-1.765-.537-3.699-.212-4.836 1.27-2.671 3.477 0 6.21 1.553 6.148 1.186-.048 1.739-.779 1.739-1.74 0-.96-.778-1.738-1.739-1.738-.633 0-1.182.342-1.486.848-.377-2.34 1.23-3.901 2.579-4.153 2.433-.455 4.494 1.374 4.384 3.746-.322 7.013-7.637 5.613-10.712 1.547-.162-2.128-.284-2.9-1.473-4.286-3.168-3.697-9.292-3.38-13.154-.86-3.928 2.572-5.649 7.529-5.553 12.09.076 3.455 1.632 6.791 4.078 9.533-1.216 1.317-4.845-1.342-6.403-1.028-1.269.26-2.034 1.021-2.356 1.99-.323-.969-1.088-1.73-2.357-1.99-1.558-.314-5.187 2.345-6.403 1.028 2.445-2.742 4.002-6.078 4.078-9.532.097-4.562-1.625-9.519-5.553-12.09-3.861-2.52-9.986-2.838-13.154.859-1.189 1.386-1.311 2.158-1.473 4.286-3.075 4.066-10.39 5.466-10.713-1.547-.109-2.372 1.953-4.2 4.385-3.746 1.35.252 2.956 1.814 2.58 4.153a1.733 1.733 0 0 0-1.487-.848 1.74 1.74 0 0 0-1.74 1.739c0 .96.554 1.69 1.74 1.739 1.553.062 4.224-2.671 1.553-6.149-1.138-1.481-3.07-1.806-4.836-1.269-3.39 1.032-3.644 6.121-1.854 8.547 2.505 3.396 7.801 2.547 10.516-.252.418 1.74 1.537 3.207 3.503 3.66 1.946.447 4.502-.573 4.57-2.839.045-1.446-1.305-3.116-2.878-2.132.216.991 1.11.32 1.589 1.088.185 1.222-.113 2.147-1.514 2.34-4.003.545-3.734-5.336-1.23-6.954 2.996-1.93 7.312-.976 9.347 1.886 2.192 2.997 2.527 7.566 1.334 10.987-.587 1.677-1.972 3.785-4.027 5.624.506-2.537.188-5.912 1.828-7.257.291-.23.015-.596-.26-.633-3.012-.402-5.501 2.945-5.434 5.747.027.878.284 3.193 1.139 4.144-3.368 2-7.808 3.069-13.043 1.618-2.49-.694-5.016-1.275-7.283-2.505 1.484-.909 3.124-1.513 5.017-1.58 3.57-.127 8.02.991 11.24 4.025.53-.216.768-.373 1.17-.478-3.324-3.488-6.812-4.882-10.42-5.352-3.376-.44-6.552.32-9.526 1.788-1.93-1.394-3.622-3.222-5.731-6.68a11.945 11.945 0 0 0-1.726-4.318c.952.177 1.86.451 2.612 1.124 1.044.94 1.163 2.437 2.057 3.458 1.476 1.692 3.497 1.29 5.427.672.283-.09.402-.538.09-.679-2.028-.924-2.281-2.258-2.647-4.241-.238-1.35-.738-2.393-1.915-3.123-1.073-.679-2.505-.627-3.697-.418-.854.145-2.465 1.153-3.605 1.141-1.97-1.957-4.565-3.267-7.338-3.736-5.769-.977-11.754 1.788-16.204 5.277-8.356 6.552-13.014 16.508-20.46 23.925-4.19 4.181-9.825 7.972-16.034 7.278-.01 0-.021-.01-.032-.013-.164-.348-.21-.788-.065-1.344.277-1.059.806-2.027 1.029-3.1.15-.709.022-1.357-.447-1.909-.284-.327-.775-.462-1.163-.596-.26-.09-1.528-.186-1.618-.2-1.833-.262-1.617-2.028-1.289-3.057.104-.306-.276-.59-.544-.417-2.572 1.61-3.34 4.077-1.439 6.589.723.961 1.566 1.789 2.385 2.668.208.227.45.628.715.729-4.655-.79-8.841-4.465-10.777-8.868-1.513-3.429-1.774-7.79.141-11.114 2.05-3.548 6.389-5.367 10.354-4.338 3.22.88 5.836 5.62 3.13 8.4-1.155 1.186-3.727 1.678-4.629-.082-.313-.603-.372-1.557.224-2.02.552-.432 1.193.023 1.11-.954-2.988-.626-2.705 3.862-.372 4.644 2.586.872 5.069-1.14 5.404-3.675a7.19 7.19 0 0 0 .001-1.947c1.52 1.426 4.671 1.833 7.194 1.09 1.345.36 3.462.765 4.657.097 1.848-1.036 2.08-4.077 4.174-4.517.372-.075.343-.626 0-.716-.843-.238-1.894-.454-2.699.075-.985.644-1.675 1.534-2.588 2.18 1.78-3.392 2.648-8.515-2.425-10.73-1.681-.734-3.269-.573-4.503.135-1.757-.075-3.358.001-4.706 1.267-1.147 1.08-1.065 2.683-.559 4.054.157.403.686.321.738-.104.113-1.013 1.426-.495 2.208-1.973-.113 1.107-.15 1.869.184 2.86 1.064 3.163 5.855 1.26 4.512-1.88-.188-.44-.83-.06-.643.376.554 1.296-.334 2.382-1.66 2.414-1.975.048-2.119-4.03-.79-5.443 1.656-1.964 5.165-1.646 6.727.45 1.995 2.677.185 7.118-1.841 9.133-.997.992-5.234 2.172-8.357-2.27-2.702-3.26-7.207-2.973-11.132-1.26-5.554 2.416-7.357 8.811-6.075 14.364 1.304 5.695 5.717 10.197 11.031 12.389a19.299 19.299 0 0 0 7.931 1.475c-1.059.216-2.161.298-3.004.418-1.267.186-2.497.514-3.66 1.043-1.2.552-2.064 1.812-3.085 2.617-.336.26.097.812.447.58 2.742-1.803 6.12-.08 9.138-.7 2.37-.484 4.561-2.795 5.86-4.89 5.274-1.568 10.137-4.973 14.058-9.014 1.779-1.134 3.255-3.083 4.97-4.2 1.536-1 3.443-1.685 5.188-.813 1.453.73 1.841 3.816-.268 3.83-.388 0-.492.493-.187.694 4.182 2.795 6.694-5.918 3.049-7.67 2.415-1.006 5.583-3.093 5.337.455-.015.238.253.432.47.358 2.042-.649 1.818-3.392 1.088-4.964-.656-1.41-2.661-2.408-4.286-2.155.105-.178.209-.35.313-.537.566-1.02 1.7-1.11 2.698-1.288 1.297-.225 2.192-1.074 2.892-2.133.932-1.408 1.44-3.085 2.355-4.532 1.335-2.102 3.325-3.54 5.837-3.756a.37.37 0 0 0 .333-.246c5.755 1.21 12.248 7.067 7.486 12.843-1.9 2.303-5.799 3.436-7.737.529-.88-1.32-.872-3.205.716-3.988 1.513-.76 1.833 1.304 2.87.626-.687-2.877-4.391-1.379-4.973.745-.52 1.91.66 3.731 2.285 4.71 2.148 3.888.687 10.53-4.745 9.395-2.459-.505-4.693-4.273-1.718-5.83 1.046-.548 2.69-.15 2.955 1.137.22 1.065-.852 2.292-1.915 1.546 1.417 1.225 2.696-1.063 1.992-2.292-.624-1.003-1.955-1.348-3.039-.972-2.71.94-2.47 4.847-.395 6.28 5.73 4.095 10.325-4.129 7.379-8.99a4.9 4.9 0 0 0 1.6.45c3.741.365 6.842-2.877 7.542-6.373a22.512 22.512 0 0 0 4.234 5.411c-5.71 3.37-10.629 9.124-14.714 13.447-3.817 4.034-7.972 8.153-13.016 10.625a9.232 9.232 0 0 0 1.635-1.531c1.885-2.25 1.386-6.12 4.33-7.387.283-.12.201-.5 0-.64-2.37-1.686-4.546.26-6 2.19-.854 1.13-1.49 2.45-2.083 3.749.388-3.144-1.875-7.554-6.183-6.126-.984.32-1.886 1.059-2.252 2.065-.626 1.743.865 4.308 2.892 3.115-.23-.686-.402-.491-.886-.365-1.081.283-1.707-.94-1.626-1.841.105-1.29 1.327-2.02 2.528-1.953 4.003.238 4.516 6.008 2.675 8.58-.901 1.259-2.094 1.96-3.399 2.273-7.208.894-14.177-7.29-15.056-8.602-1.792 19.844-9.616 19.015-10.89 17.792-2.303-2.213-.335-5.493 2.452-5.65.299-.014.626-.41.358-.633-4.748-3.98-12.09 5.575-7.954 9.48-2.034.82-3.898.187-5.18-1.37-.797-.977-1.475-1.872-2.728-2.244-.99-.29-1.93.29-2.624.91-.514.454-.938 1.035-1.415 1.542-1.327 1.402-2.967.641-4.302-.178-.253-.157-.551.044-.566.32-.082 2.229.641 4.144 2.415 4.89-2.705.208-4.98-1.491-5.993-4.197-.604-1.632-1.163-3.13-3.048-3.488-1.596-.306-3.355.492-4.831.961-2.596.84-5.018.345-7.388-.741-2.528-4.126-3.895-9.321-2.631-13.935 1.484-5.405 6.356-9.057 11.865-9.452 4.613-.06 9.991 4.495 8.053 9.556-.827 2.154-3.749 4.092-6.007 2.795-.932-.537-1.809-1.543-1.809-2.624-.03-1.505 1.516-1.326 1.516-2.392v-.194c-3.286-.097-3.149 2.952-2.097 4.897 1.356 2.52 4.575 2.825 6.974 1.737a7.077 7.077 0 0 0 2.02-1.361c-1.489 5.105 4.418 11.531 8.812 6.584 1.625-1.768 1.021-5.445-1.694-5.744-1.086-.118-2.248.482-2.614 1.545-.393 1.289 1.276 3.142 2.333 1.704-.828.917-2.082.006-2.104-1.028-.026-1.251 1.415-1.967 2.501-1.681 3.092.815 1.815 4.786-.36 5.775-4.777 2.188-7.533-3.595-6.41-7.655 2.92-3.499 1.565-9.454-1.701-12.585-4.152-3.987-10.462-3.786-15.381-1.416-5.062 2.445-8.705 7.297-9.688 12.828-2.125 11.949 5.985 23.3 16.794 27.632 2.933 1.174 6.128 1.873 9.4 2.146-13.094 1.527-26.55.185-39.511 2.761-12.028 2.446-21.736 11.679-21.905 24.416-.067 5.018.81 10.729 4.674 14.293 3.928 3.62 10.922 5.062 15.579 1.927 4.08-2.658 5.826-10.863.096-12.793-2.162-.727-5.194.116-5.383 2.77-.203 3.185 4.262 3.018 3.514.868-.858-.003-.586.849-1.357.827-1.105-.03-1.188-1.39-.8-2.145 1.126-2.187 4.437-.84 5.268.878 1.108 2.292.143 5.283-1.686 6.896-2.417 2.134-5.918 2.219-8.988 1.092-.818-2.744-4.845-4.089-4.13-6.593.254.142.514.238.82.358.223.089.477-.135.47-.358-.187-4.13-.388-8.035 1.937-11.666 2.259-3.532 5.815-6.506 9.825-7.848-1.14 2.512-.955 5.12 1.021 7.29.194.215.544.097.619-.165 1.028-3.317 5.805-2.996 8.326-4.465 3.078-1.795 4.59-6.522 8.422-6.79-.596 3.697 1.446 7.156 5.494 7.625 3.115.358 7.454-.7 5.672-4.666-.164-.365-.679-.149-.693.187-.09 2.027-1.64 3.354-3.407 1.87-1.505-1.259-1.409-3.883-.686-5.507 1.29-2.885 5.077-4.063 7.857-4.801 1.265-.337 8.493-1.396 9.271-3.454 1.3-.209 2.602-.445 3.894-.722-.546.467-1.064.975-1.537 1.545-.262.313.067.813.447.581 1.684-.991 3.45.045 5.039.715 1.103.463 2.139.545 3.324.523 1.29-.023 2.72-.284 3.615-1.171.112 1.051.41 1.953 1.178 2.855.194.231.537.082.619-.164.723-1.983 1.222-3.853 3.8-3.898 1.186-.023 2.252.149 3.236-.657 1.341-1.088 1.84-2.637 2.31-4.21-.044 1.178.053 2.325.687 3.474.857 1.55 2.616 2.422 4.233 2.944.29.097.507-.195.455-.455-.873-4.577 2.46-8.602 4.308-12.515 1.617-3.414 2.646-7.067 2.557-10.853-.053-2.504-.82-5.136-1.32-7.588-.158-.763-.32-1.735-.598-2.66 4.019 4.178 11.061 5.83 13.285 6 .693.372 1.275.909 1.64 1.796.953 2.408.498 5.023-1.76 6.53-2.072 1.385-6.141-.15-4.874-3.08.454-1.057 1.9-1.818 2.846-.871 1.074 1.073-.685 1.401.023 2.355 2.616-1.066-.656-5.106-2.974-2.333-1.341 1.612-1.22 3.151-.091 4.24-.796-.242-1.602-.359-2.41-.023-1.213.508-.856 1.367-2.727 2.217-.29.088-.616.531-.857.703-.233.165-.02.609.222.45 1.237-.821 2.737-.081 4.088-.74-1.01.923-1.682 2.135-1.99 3.595-.498 2.355.489 5.105 2.444 6.177.847.424 1.163 1.991 1.02 2.405-.197.575-.581 1.106-1.108 1.427-.646.394-1.32.535-2.066.366-.495-.113-1.101-.501-1.072-1.105-.017-.518.195-.858.636-1.022l.281.2c.005.327.512.294.507-.031-.014-1.246-1.498-.524-1.814.176-.633 1.394.916 2.448 2.146 2.37 1.299-.082 2.662-.949 2.987-2.279.123-.5.07-1.456-.26-2.092.608.088 1.674.49 2.396.262 2.013-.64 2.976-3.06 1.458-4.775-.947-1.072-3.773-.541-3.155 1.187.753-.036.226-.681.745-1.044.63-.436 1.556-.078 1.874.569.74 1.557-.48 3.07-2.015 3.329-4.011.68-5.382-4.085-4.103-7.071.97-2.264 3.143-3.43 5.658-3.773.706.109 1.451.071 2.186-.187 2.566-.896 3.905-3.039 4.042-5.382.08.186.153.372.246.56.537 1.073 1.665 2.042 2.075 3.212-.052.387-.016.79.162 1.23.165.402.69.328.743-.097a2.854 2.854 0 0 0-.096-1.155c.179-1.007 1.105-1.939 1.567-2.803.432-.798.399-1.633.1-2.452-.961-2.617-3.644-2.9-5.88-2.908-.047 0-.081.01-.122.016-.027-.038-.052-.082-.08-.12 2.505-.149 4.982-.771 7.379-1.734 2.304 1.946 4.727 1.056 7.387.117 1.588-.552 8.49-3.332 7.998.32-.06.418.425.649.678.283 1.342-1.877.679-5.381-1.416-5.948.544-.26 1.11-.447 1.774-.417.798.044 1.543.18 2.289-.216 1.207-.633 1.528-1.514 1.751-2.81.15-.887.477-1.647 1.2-2.206.187-.15.313-.612.268-.843-.648-3.13 2.289-5.307 5.18-5.448.27-.015.486-.314.321-.56-1.563-2.38-3.907-1.507-5.979-.386.118-.144.241-.282.36-.426 1.773-2.17 3.6-4.606 5.798-6.448 4.13 2.975 9.213 4.353 14.356 4.726 4.207.306 8.423-1.025 11.876-3.342.365 1.774 1.924 3.55 3.926 2.88.985-.328 1.715-.88 2.326-1.722.477-.67.917-1.371 1.476-1.983 1.363-1.46 3.756-.686 3.928 1.297.037.433.574.492.73.097.069-.172.124-.346.173-.52.048.174.103.348.171.52.157.395.694.336.731-.097.172-1.983 2.565-2.758 3.928-1.297.559.612 1 1.312 1.476 1.983.612.842 1.342 1.394 2.326 1.722 2.002.67 3.56-1.106 3.926-2.88 3.453 2.317 7.669 3.648 11.876 3.342 5.143-.373 10.226-1.751 14.355-4.726 2.2 1.842 4.026 4.279 5.8 6.448.118.144.241.282.359.426-2.072-1.121-4.416-1.995-5.98.387-.164.245.053.544.321.559 2.892.141 5.83 2.318 5.18 5.448-.044.231.082.693.269.843.723.559 1.05 1.319 1.2 2.206.223 1.296.544 2.177 1.751 2.81.746.395 1.49.26 2.288.216.665-.03 1.23.156 1.774.417-2.094.567-2.758 4.07-1.416 5.948.254.366.738.135.679-.283-.492-3.652 6.41-.872 7.998-.32 2.66.939 5.082 1.829 7.387-.117 2.397.963 4.874 1.585 7.378 1.735-.027.037-.052.08-.08.12-.04-.006-.074-.017-.12-.017-2.237.008-4.92.29-5.881 2.908-.299.82-.332 1.654.1 2.452.462.864 1.389 1.796 1.568 2.803-.113.372-.141.752-.097 1.155.052.425.578.5.743.097.178-.44.213-.843.162-1.23.41-1.17 1.538-2.14 2.075-3.213.093-.187.166-.373.245-.56.138 2.344 1.477 4.487 4.044 5.383.734.258 1.479.296 2.184.187 2.516.343 4.69 1.51 5.66 3.773 1.278 2.986-.093 7.75-4.104 7.07-1.535-.257-2.756-1.77-2.016-3.328.319-.647 1.245-1.005 1.875-.569.52.363-.009 1.008.745 1.044.618-1.728-2.208-2.259-3.155-1.187-1.519 1.715-.556 4.135 1.459 4.775.721.228 1.787-.174 2.396-.262-.332.636-.384 1.592-.26 2.092.324 1.33 1.687 2.197 2.986 2.28 1.23.077 2.779-.977 2.146-2.371-.316-.7-1.8-1.422-1.814-.176-.005.325.502.358.506.03l.282-.199c.442.164.653.504.636 1.022.03.604-.577.992-1.072 1.105-.747.17-1.42.028-2.066-.366-.527-.32-.911-.852-1.108-1.427-.143-.414.173-1.981 1.02-2.405 1.955-1.072 2.942-3.822 2.443-6.177-.307-1.46-.98-2.672-1.988-3.595 1.35.659 2.85-.081 4.087.74.24.159.455-.285.222-.45-.242-.172-.566-.615-.857-.703-1.871-.85-1.513-1.71-2.727-2.217-.808-.336-1.614-.22-2.41.023 1.128-1.089 1.25-2.628-.091-4.24-2.318-2.773-5.59 1.267-2.974 2.333.708-.954-1.051-1.282.022-2.355.947-.947 2.393-.186 2.847.872 1.268 2.93-2.802 4.464-4.874 3.079-2.259-1.507-2.714-4.122-1.76-6.53.366-.887.947-1.424 1.64-1.796 2.224-.17 9.266-1.822 13.285-6-.279.925-.44 1.897-.598 2.66-.5 2.452-1.268 5.084-1.32 7.588-.089 3.786.94 7.439 2.557 10.853 1.849 3.913 5.18 7.938 4.308 12.515-.052.26.164.552.455.455 1.617-.522 3.377-1.394 4.233-2.944.634-1.149.731-2.296.687-3.474.47 1.573.968 3.122 2.31 4.21.984.806 2.05.634 3.235.657 2.579.045 3.078 1.915 3.8 3.898.083.246.426.395.62.164.768-.902 1.066-1.804 1.178-2.855.894.887 2.325 1.148 3.615 1.17 1.185.023 2.22-.06 3.325-.522 1.587-.67 3.354-1.706 5.038-.715.38.232.708-.268.447-.58a12.77 12.77 0 0 0-1.538-1.546c1.294.277 2.595.513 3.895.722.778 2.058 8.006 3.117 9.271 3.454 2.78.738 6.567 1.916 7.856 4.8.723 1.625.82 4.25-.685 5.508-1.767 1.484-3.317.157-3.407-1.87-.014-.336-.529-.552-.693-.187-1.781 3.966 2.557 5.024 5.672 4.666 4.048-.47 6.09-3.928 5.494-7.625 3.831.268 5.344 4.995 8.423 6.79 2.52 1.47 7.297 1.148 8.325 4.465.075.262.425.38.619.164 1.975-2.168 2.162-4.777 1.02-7.289 4.011 1.342 7.567 4.316 9.826 7.848 2.325 3.63 2.124 7.536 1.937 11.666-.007.223.247.447.47.358.305-.12.566-.216.82-.358.715 2.504-3.312 3.849-4.13 6.593-3.07 1.127-6.571 1.042-8.988-1.092-1.829-1.613-2.794-4.604-1.686-6.896.832-1.718 4.142-3.065 5.269-.878.387.754.304 2.114-.801 2.145-.771.022-.5-.83-1.357-.827-.748 2.15 3.717 2.317 3.515-.868-.19-2.654-3.222-3.497-5.384-2.77-5.73 1.93-3.985 10.135.096 12.793 4.657 3.135 11.651 1.693 15.579-1.927 3.865-3.564 4.74-9.275 4.673-14.293-.169-12.737-9.879-21.97-21.907-24.416" fill="#FFF"/><path d="M338.466 89.814a.36.36 0 0 0 .194-.014c2.125-.769 3.235-3.243 2.728-5.42-.536-2.303-2.669-2.542-4.696-2.191-.298.052-.328.432-.164.618.627.716 1.625 1.335 2.005 2.23.545 1.274.76 3.07-.328 4.144-.26.253-.015.619.261.633M355.952 82.256c.91.574 2.14.417 2.848 1.297.209.268.626.038.634-.26.014-1.082.315-2.98-.87-3.418-1.16-.428-2.733-.434-3.665-1.988-.26 1.081.018 3.705 1.053 4.37M170.002 32.083c-.34-.038-.45-.05 0 0m-42.118 32.54c-.895.94-1.912 1.818-3.112 2.345-.65.285-1.664.224-1.881.751 5.3.242 9.236-6.854 11.81-10.546 3.172-4.583 6.228-9.27 9.947-13.441 7.178-8.05 16.486-12.633 27.418-11.42.257-.735-6.47-.928-7.325-.89-2.983.133-5.96.822-8.72 1.955-4.88 2.013-9.032 5.466-12.498 9.396-4.068 4.609-7.265 9.84-10.582 14.989-1.532 2.374-3.103 4.807-5.057 6.86M210.247 58.583c-.497.109-.75.202-1.12.28 1.442 4.381 1.193 8.938-2.033 11.833-3.557 3.192-10.84 3.53-11.788-2.377-.362-2.26 1.168-4.673 3.686-4.38 1.052.14 1.988 1.261 1.679 2.343-.26.894-1.41.465-1.102 1.532 2.697.045 2.102-4.142.164-4.957-3.106-1.305-6.025 1.18-5.963 4.286.022 1.115 1.085 2.41 1.495 3.216-1.042-.162-2.399.218-3.036.623-1.7 1.081-2.265 3.39-1.766 5.236.472 1.75 2.673 3.41 4.315 1.872.825-.773 1.132-3.18-.612-2.611-.455.148-.26.868.198.719l.41.3c-.02.691-.395 1.147-1.124 1.368-.825.325-1.652-.336-2.044-.973-.59-.959-.707-1.963-.465-3.051.197-.884.756-1.67 1.464-2.216.51-.394 2.842-.695 3.832.286 2.415 2.218 6.712 2.293 9.756.49 1.89-1.12 3.26-2.629 4.067-4.47-.279 2.192 1.46 3.931.902 6.043-.109.411.611.5.73.097.127-.417.59-1.078.574-1.525.301-3.009 1.667-2.915 1.801-4.845.17-2.55-2.135-4.253-3.335-6.198a18.922 18.922 0 0 0-.685-2.921M54.789 106.061c10.214-4.984 22.715-5.037 33.594-2.45.3-.565-6.579-1.999-7.473-2.145a56.083 56.083 0 0 0-8.566-.705c-5.503.002-11.049.915-16.14 3.05-9.962 4.131-16.86 12.801-20.149 22.923-.57 1.755-.307 1.834.388.143.56-1.36 1.171-2.7 1.84-4.01 1.215-2.388 2.627-4.68 4.265-6.804 3.257-4.215 7.45-7.666 12.24-10.002M123.02 56.464c-.138-.87-.288-1.731-.544-2.525a6.111 6.111 0 0 0-.522-1.196c-.274 2.23-1.378 4.058-.73 6.399.545 1.953 2.341 3.443 3.586 4.942.2.245.656.044.633-.261-.156-2.505 1.692-4.696 1.17-7.193-.171-.82-.454-1.64-1.02-2.281-.67-.766-1.53-1.198-2.31-1.784.122.372.22.747.28 1.11.158.928.183 1.834.2 2.724.016.89.015 1.767.11 2.634.073.863.387 1.701.638 2.55-.366-.803-.798-1.591-1.006-2.483-.222-.874-.345-1.765-.484-2.636M201.403 42.61c.162-.622.314-1.242.376-1.848a4.47 4.47 0 0 0 .001-.952c-.837 1.411-2.11 2.308-2.363 4.065-.209 1.465.556 2.988.948 4.355.063.224.426.222.5.011.63-1.72 2.508-2.644 2.892-4.467.125-.598.175-1.23-.014-1.824-.224-.708-.673-1.25-1.022-1.87a5.496 5.496 0 0 1-.138.825c-.166.667-.415 1.28-.664 1.878-.25.6-.51 1.187-.7 1.795-.204.598-.24 1.25-.32 1.892-.009-.644-.067-1.298.054-1.954.109-.651.289-1.283.45-1.906" fill="#FFF"/><path d="M191.951 70.115c.596.046 1.136-.127 1.705-.202a4.322 4.322 0 0 1-.575-.351c-.449-.324-.832-.694-1.205-1.06-.373-.368-.733-.738-1.13-1.062-.386-.333-.863-.556-1.318-.808.484.187.99.339 1.444.627.454.277.873.6 1.289.91.416.307.833.606 1.269.836.236.123.472.22.711.287-.804-1.05-1.091-2.272-2.328-2.987-1.032-.597-2.4-.484-3.54-.602-.185-.02-.293.253-.159.372 1.097.988 1.223 2.668 2.47 3.503.41.273.866.5 1.367.537M150.736 104.002c-.684-.689-1.537-.666-2.367-1.014.086.146.19.284.313.42.226.244.494.467.769.688.275.22.561.44.82.69.27.249.457.555.663.842-.244-.257-.474-.531-.76-.728-.28-.204-.587-.377-.893-.558a7.159 7.159 0 0 1-.906-.609 2.948 2.948 0 0 1-.33-.318c.05.387.029.772.162 1.155.111.325.34.584.591.807.764.675 1.891.468 2.73 1.018.102.067.263-.05.218-.17-.277-.727-.438-1.648-1.01-2.223M138.085 72.234c.448.673 1.007 1.259.563.69 3.429 3.463 10.979-.22 7.63-4.897-1.082-1.565-4.029-1.743-4.736.302-.282.818-.022 1.821.735 2.291.927.53 2.652-.435 1.726-1.504.564.8-.36 1.61-1.164 1.446-.97-.2-1.271-1.438-.86-2.228 1.172-2.246 4.017-.563 4.399 1.29.996 4.748-5.889 5.48-8.293 2.61M140.101 81.242c-.072.56-.045 1.127-.018.594.194 3.364 5.801 4.882 6.178.93.148-1.304-1.303-2.73-2.596-1.987-.516.296-.837.935-.655 1.522.241.696 1.574.974 1.577 0-.068.671-.915.674-1.258.225-.415-.543-.01-1.323.562-1.546 1.626-.637 2.341 1.526 1.7 2.662-1.632 2.915-5.54.179-5.49-2.4M119.28 82.807c.163-.186.133-.566-.165-.618-2.027-.35-4.16-.112-4.696 2.191-.507 2.177.603 4.652 2.728 5.42a.358.358 0 0 0 .194.014c.275-.014.522-.38.261-.633-1.09-1.074-.873-2.87-.328-4.145.38-.894 1.378-1.513 2.005-2.229M97.243 79.875c-1.185.437-.884 2.336-.87 3.417.008.299.426.53.634.26.708-.879 1.938-.722 2.847-1.296 1.036-.664 1.314-3.288 1.054-4.369-.932 1.554-2.505 1.56-3.665 1.988M453.213 114.304c-8.472-20.987-34.598-28.432-55.242-23.186 1.02-.352-.199-.09-3.584 1.055 1.44-.39 2.912-.721 4.406-.995-2.354.558-4.589 1.543-6.706 2.755 2.042-1.683 3.771-3.718 5.004-5.972 2.974-5.436 3.073-12.125-2.229-18.104 1.384 3.63 1.246 10.81-2.05 14.628 1.932-5.852-3.55-9.154-6.386-7.78 2.76 2.332 3.611 5.282 1.212 8.169.865-3.238-1.876-4.371-4.288-3.474 1.252 4.467.763 9.28-4.528 12.602-1.282.805-2.844 1.525-4.738 2.129.839-.05 1.669-.16 2.484-.339 1.635-.652 3.184-1.551 4.53-2.476.058-.04.11-.081.164-.12 2.803-2.004 4.415-5.077 4.87-8.468-.286 3.126-1.56 6.002-3.81 8.116-.374.353-.772.684-1.198.991-.392.283-.8.563-1.22.836.743-.343 1.46-.741 2.15-1.203a18.1 18.1 0 0 0 1.32-.972 20.666 20.666 0 0 0 3.3-3.364c.69-.876 1.966-2.406 2.79-4.802-.544 2.415-1.96 4.024-2.62 4.93a21.657 21.657 0 0 1-2.575 2.94 19.033 19.033 0 0 1-1.961 1.632 16.413 16.413 0 0 1-5.677 2.632c-.32.14-.644.273-.97.392 3.16-.289 6.271-1.634 8.782-3.456a21.438 21.438 0 0 0 2.42-2.057 23.398 23.398 0 0 0 2.702-3.18c.766-1.08 1.493-2.213 1.85-3.502.213-.768.475-1.995.358-3.675.094 1.356.29 2.382-.237 3.986-.421 1.277-1.197 2.47-1.946 3.57a23.78 23.78 0 0 1-2.025 2.569 21.88 21.88 0 0 1-3.08 2.827c-2.063 1.55-4.514 2.76-7.08 3.355 1.011-.011 2.02-.084 3.02-.26 2.801-.502 5.486-1.818 7.796-3.456a23.493 23.493 0 0 0 4.446-4.153c.48-.582.937-1.183 1.363-1.805 1.698-2.489 2.73-5.332 3.591-8.198-.817 3-1.826 5.96-3.556 8.57-.289.434-.594.857-.91 1.272a23.7 23.7 0 0 1-4.911 4.845c-2.355 1.716-5.106 3.107-7.988 3.634-1.91.348-3.846.354-5.778.258 4.579 1.483 9.532.693 13.79-1.53.076-.034.153-.07.23-.101 1.108-.458 2.258-.767 3.418-.99 1.188-.401 2.387-.768 3.61-1.068a29.405 29.405 0 0 1 5.4-.832c1.816-.103 3.63-.05 5.442-.084-1.81.114-3.625.142-5.423.326a29.043 29.043 0 0 0-5.293 1.057c-.213.063-.423.132-.636.198a34.236 34.236 0 0 1 4.725.008c2.51.18 5.015.572 7.416 1.33 1.524.481 2.943 1.198 4.31 2.002.796.467 1.575.963 2.349 1.46a68.227 68.227 0 0 0-2.43-1.404c-1.377-.748-2.796-1.406-4.3-1.826-2.397-.675-4.887-.983-7.37-1.08-2.393-.083-4.8.054-7.132.52a15.823 15.823 0 0 1 4.867.712c1.391.441 2.73 1.095 3.824 2.056-1.146-.897-2.502-1.466-3.89-1.825a15.504 15.504 0 0 0-4.259-.458 14.324 14.324 0 0 0-3.46.526c-.658.28-1.315.563-1.971.848 1.008-.303 2.111-.34 3.153-.37 1.379-.045 2.739-.117 4.09.26 2.832.792 6.304 2.578 7.547 5.353.08.168.265.193.395.069 1.48-1.468 1.338-3.298.465-4.955 1.19.83 1.805 2.237 2.87 3.244.118.112.239.215.36.313.88.705 1.877 1.073 3.023 1.258.212.035.323-.187.227-.355-.33-.58-.537-1.32-.74-2.021.395.394.8.793 1.295 1.026.809.387 1.641.546 2.539.603a12.11 12.11 0 0 0 2.82-.19c.896-.16 1.964-.487 2.75.151.234.188.511-.163.292-.35-2.297-1.94-2.12-4.443-5.43-4.892a6.574 6.574 0 0 0-.427-.046c.561-.555 1.187-1.018 1.989-1.054.099-.004.2-.006.305.004.18.014.364-.19.224-.359a.038.038 0 0 1-.01-.012c-.78-.939-1.617-1.79-2.873-1.977-.57-.086-1.22.024-1.819.256-.136-.503.38-.633.825-.625.114-.058.216-.224.105-.349-1.266-1.393-3.25-2.162-5.19-2.296a25.38 25.38 0 0 0-2.939-.02c19.187-1.876 40.58 5.64 48.303 24.35 4.006 9.706 3.733 22.945-5.19 29.943-3.821 2.997-9.649 5.144-14.174 2.443-1.975-1.18-4.158-3.787-3.647-6.26.333-1.612 3.535-4.434 4.406-1.722-.77-2.963-4.322.044-4.722 1.649-.632 2.54 1.4 5.327 3.368 6.71 4.53 3.184 10.657 1.331 14.85-1.553 10.107-6.951 10.698-21.312 6.478-31.767" fill="#FFF"/><g transform="translate(.082 69.638)"><mask id="d" fill="#fff"><use xlink:href="#c"/></mask><path d="M22.444 69.627c.87-2.712 4.073.11 4.406 1.721.51 2.474-1.672 5.082-3.647 6.261-4.525 2.7-10.353.554-14.174-2.443C.106 68.168-.167 54.929 3.84 45.223c7.712-18.685 29.058-26.206 48.225-24.357a25.29 25.29 0 0 0-2.819.027c-1.94.134-3.924.903-5.19 2.296-.111.125-.01.29.106.349.445-.008.96.123.824.625-.599-.232-1.249-.342-1.82-.256-1.255.186-2.093 1.039-2.872 1.977a.044.044 0 0 1-.01.012c-.14.17.045.373.224.359.105-.01.206-.008.305-.005.803.037 1.428.5 1.99 1.055-.15.011-.29.027-.427.046-3.31.449-3.134 2.951-5.43 4.892-.22.188.058.538.29.35.787-.639 1.855-.31 2.75-.15.929.167 1.883.243 2.82.19.899-.058 1.73-.217 2.54-.604.496-.233.9-.632 1.294-1.026-.203.702-.41 1.44-.738 2.02-.096.169.014.391.226.356 1.146-.186 2.142-.553 3.023-1.259.121-.097.242-.2.36-.312 1.065-1.007 1.68-2.414 2.87-3.244-.873 1.657-1.016 3.487.465 4.955.13.124.316.099.395-.069 1.243-2.775 4.715-4.56 7.548-5.353 1.35-.377 2.71-.305 4.09-.26 1.041.03 2.144.067 3.152.37-.655-.285-1.313-.569-1.971-.848a14.331 14.331 0 0 0-3.46-.525 15.492 15.492 0 0 0-4.26.457c-1.387.359-2.743.928-3.889 1.825 1.094-.96 2.433-1.615 3.823-2.057a15.848 15.848 0 0 1 4.867-.712c-2.33-.466-4.739-.602-7.132-.519-2.482.097-4.972.405-7.37 1.08-1.503.42-2.922 1.079-4.298 1.826a68.17 68.17 0 0 0-2.43 1.404 70.306 70.306 0 0 1 2.348-1.46c1.367-.803 2.785-1.52 4.31-2.002 2.402-.758 4.906-1.15 7.415-1.33 1.569-.105 3.15-.12 4.726-.007-.212-.067-.423-.136-.635-.2a29.064 29.064 0 0 0-5.294-1.056c-1.798-.184-3.613-.212-5.423-.326 1.812.033 3.626-.02 5.441.084 1.82.103 3.63.393 5.4.832 1.224.3 2.423.667 3.611 1.067 1.16.224 2.31.533 3.417.991.078.032.155.067.232.1 4.258 2.224 9.21 3.014 13.789 1.531-1.932.096-3.868.09-5.778-.258-2.882-.527-5.634-1.918-7.987-3.634a23.696 23.696 0 0 1-4.912-4.845 24.38 24.38 0 0 1-.91-1.272c-1.73-2.61-2.739-5.571-3.556-8.57.861 2.866 1.893 5.71 3.59 8.198.427.622.884 1.223 1.364 1.805a23.486 23.486 0 0 0 4.446 4.153c2.31 1.638 4.994 2.954 7.795 3.457 1 .175 2.01.248 3.021.259-2.567-.595-5.017-1.806-7.08-3.355a21.935 21.935 0 0 1-3.08-2.827 23.84 23.84 0 0 1-2.025-2.57c-.75-1.1-1.525-2.292-1.946-3.569-.528-1.604-.331-2.63-.237-3.986a10.65 10.65 0 0 0 .358 3.675c.357 1.29 1.084 2.421 1.85 3.502a23.341 23.341 0 0 0 2.702 3.18 21.368 21.368 0 0 0 2.42 2.057c2.511 1.822 5.622 3.167 8.782 3.456-.326-.12-.65-.251-.97-.392a16.413 16.413 0 0 1-5.677-2.632 19.032 19.032 0 0 1-1.961-1.631 21.605 21.605 0 0 1-2.575-2.94c-.66-.907-2.076-2.517-2.621-4.93.825 2.396 2.1 3.926 2.79 4.8a20.638 20.638 0 0 0 3.301 3.365c.425.344.866.668 1.32.972.69.462 1.408.86 2.15 1.203-.42-.273-.827-.553-1.22-.836a11.796 11.796 0 0 1-1.198-.99c-2.25-2.115-3.524-4.991-3.81-8.117.455 3.392 2.067 6.464 4.87 8.467.054.04.106.082.164.12 1.346.926 2.895 1.825 4.53 2.478a16.17 16.17 0 0 0 2.483.338c-1.893-.603-3.456-1.324-4.737-2.129-5.291-3.323-5.78-8.135-4.528-12.602-2.411-.897-5.153.236-4.288 3.474-2.4-2.887-1.549-5.836 1.211-8.17-2.834-1.373-8.317 1.929-6.384 7.781C59.617 11.029 59.479 3.85 60.863.218c-5.302 5.98-5.203 12.669-2.228 18.105 1.232 2.254 2.962 4.289 5.004 5.972-2.074-1.187-4.26-2.157-6.56-2.72 1.428.266 2.837.586 4.217.96-3.386-1.145-4.604-1.407-3.584-1.055-20.644-5.247-46.77 2.198-55.242 23.186-4.22 10.455-3.629 24.816 6.478 31.767 4.192 2.884 10.32 4.738 14.85 1.554 1.968-1.384 4-4.171 3.368-6.711-.4-1.605-3.952-4.612-4.722-1.649" fill="#FFF" mask="url(#d)"/></g></g></svg>
