<svg width="410" height="16" viewbox="0 0 410 16" xmlns="http://www.w3.org/2000/svg"><g fill="none" fill-rule="evenodd"><path d="M1.301 7.5h180" stroke="#FFF" opacity=".5" stroke-linecap="square"/><path d="M195.014 2.914c1.4-.985 3.724-.094 5.191 1.99.354.502.772 1.41 1.2 2.494-.295-1.128-.497-2.106-.51-2.721-.05-2.548 1.295-4.642 3.007-4.677 1.71-.034 3.139 2.004 3.19 4.553.024 1.173-.072 1.24-.393 2.704.381-1.086.756-1.996 1.086-2.507 1.382-2.143 3.668-3.127 5.106-2.2 1.438.928 1.484 3.416.102 5.559-1.382 2.142-8.77 7.88-8.77 7.88s-7.617-5.433-9.085-7.517c-1.468-2.083-1.523-4.572-.124-5.558" fill="#FFF"/><path d="M229 8h180" stroke="#FFF" opacity=".5" stroke-linecap="square"/></g></svg>
