<?xml version="1.0" encoding="UTF-8"?>
<svg width="64px" height="55px" viewBox="0 0 64 55" version="1.1" xmlns="http://www.w3.org/2000/svg" xmlns:xlink="http://www.w3.org/1999/xlink">
    <!-- Generator: Sketch 47.1 (45422) - http://www.bohemiancoding.com/sketch -->
    <title>beaver</title>
    <desc>Created with Sketch.</desc>
    <defs></defs>
    <g id="Page-1" stroke="none" stroke-width="1" fill="none" fill-rule="evenodd">
        <g id="Artboard-Copy-5" transform="translate(-668.000000, -2207.000000)" fill-rule="nonzero">
            <g id="Group-27" transform="translate(200.000000, 2207.000000)">
                <g id="beaver" transform="translate(468.000000, 0.000000)">
                    <path d="M63.9545157,50.1335748 C63.9545157,52.5619522 52.0078491,54.5306566 37.2713459,54.5306566 C22.5344403,54.5306566 10.5881761,52.5619522 10.5881761,50.1335748 C10.5881761,47.7056 22.5344403,45.7368956 37.2713459,45.7368956 C52.0078491,45.7368956 63.9545157,47.7056 63.9545157,50.1335748" id="Fill-59" fill="#45545E"></path>
                    <path d="M29.1756277,49.4374239 C34.713439,49.2969459 41.7361308,52.1290465 46.2624201,48.9958642 C47.2848101,48.288644 46.7349736,47.7963673 46.6649358,47.8700277 C42.3773384,52.4309333 36.5485082,48.6315874 28.3178667,48.2202164 C28.261917,48.2173987 29.170395,49.3718138 29.1756277,49.4374239" id="Fill-60" fill="#3E0000"></path>
                    <path d="M21.2882516,19.8049811 C17.9759497,16.0841258 12.7677987,16.4882516 10.240805,17.9352956 C6.72966038,19.9470692 0.179522013,27.3167296 4.31376101,31.1897358 C7.03959748,33.7436981 7.60191195,35.480956 11.5731321,37.8626415 C13.7249811,39.1531069 16.3530063,42.2110189 19.3255849,43.9245283 C20.8474969,44.8020126 23.2134843,46.0711447 23.4119245,47.7971321 C23.7387673,50.6409057 27.7107925,51.2092579 31.2460881,51.0168553 C31.9380126,50.9794214 30.0453836,49.5573333 30.6733082,49.472805 C31.7274969,49.3311195 35.1963774,50.2202767 35.8597233,50.303195 C39.1788679,50.7189937 41.6442767,50.9242767 43.4479497,50.9162264 C47.2766792,50.8997233 48.5373585,49.074717 49.1532075,48.4419623 C51.1436478,46.3951698 49.1725283,45.3087799 48.5478239,44.2203774 C48.3240252,43.8311447 48.8907673,43.1219119 49.0087044,42.815195 C49.9811824,40.2918239 50.6046792,39.4006541 52.1378616,37.146566 C53.3409811,35.3775094 53.0390943,37.7302138 54.0763774,34.7926541 C56.6520755,27.4990692 54.5666415,32.4250566 54.9095849,28.8688302 C55.0323522,27.5920503 59.4193711,26.2098113 55.9303648,20.224 C54.7880252,18.2633459 52.8024151,13.2564528 50.6332579,10.7125535 C48.3900377,8.08251572 49.4736101,10.304 47.4642516,9.70103145 C31.6465912,4.95818868 40.2362767,11.4765283 29.8111195,8.74304403 C24.96,7.47149686 24.4520252,7.1474717 23.512956,13.6396478 C23.0653585,16.7341887 23.0102138,15.4018616 21.2882516,19.8049811" id="Fill-61" fill="#F9F9F9"></path>
                    <path d="M39.9981887,42.1823195 C42.8274717,42.6178415 46.4786918,39.6215145 50.6093082,32.2273006 C49.0266164,51.9127346 23.0671698,51.2417409 18.0143899,35.6756528 C17.3844528,33.733917 18.554566,26.2962314 20.6556981,22.0178918 C26.5078742,10.104634 20.3356981,21.4044579 18.9912956,22.0038038 C18.0715472,22.4139673 16.7251321,22.0368101 16.4824151,22.5878541 C12.8738616,30.7818667 11.1035975,35.2976906 13.8797484,39.0495396 C16.4365283,42.5047346 20.8110692,43.8394767 21.3532579,44.2303195 C21.5042013,44.3381937 22.6159497,49.0464201 24.8378365,49.9613384 C26.3923522,50.6013384 28.3670943,51.2103447 29.7847547,50.873439 C30.4243522,50.7212881 30.4811069,49.6832 31.1533082,49.5757283 C32.7335849,49.3221434 34.9478239,49.7472 35.1217107,49.7584704 C36.3441509,49.8421937 41.4158491,51.5190742 44.6709937,50.8432503 C48.6216855,50.0229233 50.7743396,46.7693887 51.3112956,46.2203572 C52.0209308,45.4946214 46.6582138,44.1775899 47.4141384,43.3351245 C51.0480503,39.2858164 54.3905409,33.9375899 52.8199245,31.0157283 C52.7712201,30.9251623 57.1936604,28.1844327 57.2516226,24.7743195 C57.3115975,21.2498918 55.7747925,31.4480302 46.2987673,29.3231497 C43.3390692,28.6594013 43.4992704,35.4152252 41.9049057,35.3459925 C31.2660126,34.8790742 39.6580629,40.7417157 39.9981887,42.1823195" id="Fill-62" fill="#DCDCDC"></path>
                    <path d="M42.0748075,25.401278 C42.0973484,26.1241962 36.3695497,28.0498314 34.9233107,29.1668126 C33.5334239,30.241127 32.6237384,29.8092277 32.5404176,32.4300075 C32.5275371,32.8437937 33.9174239,36.8600956 34.2374239,37.5198189 C35.6313358,40.3945862 36.9620528,42.1101082 40.4969459,41.8645736 C41.509273,41.7949384 42.6097509,40.9987623 43.4171975,40.4368503 C44.5168704,39.6712654 47.8295748,33.5361208 49.0681157,31.8290516 C51.4071346,28.6036931 48.1705057,29.1148881 45.4716377,26.3644981 C45.0759648,25.9615799 42.6479899,25.401278 42.0748075,25.401278" id="Fill-63" fill="#FFFFFF"></path>
                    <path d="M42.0748075,25.401278 C42.0973484,25.8287497 37.2711849,28.4285987 35.8253484,29.0899321 C34.4354616,29.7255044 33.1131975,28.1178566 32.5404176,29.5608755 C31.540166,32.0810264 35.7404176,38.2745358 36.0600151,38.6645736 C35.533927,36.9599195 34.4576,34.4953157 35.2573987,33.043039 C36.0636377,31.5806994 40.677273,29.4763472 40.6559396,30.9841711 C40.6342038,32.5141333 40.2465811,35.3128252 39.7671849,39.2631145 C40.7795119,39.2220579 43.060166,31.7996679 43.6599145,31.1681208 C44.5873107,30.1912151 46.5069082,31.2598943 46.7258767,32.0846491 C46.9448453,32.9085987 45.9844428,35.2770013 43.5757887,39.0767497 C44.4854742,38.3345107 48.6048201,34.4075673 49.202556,32.3366239 C50.1404176,29.0863094 47.1191346,27.3579069 45.4716377,26.3644981 C45.0763673,26.1266113 42.6479899,25.401278 42.0748075,25.401278" id="Fill-64" fill="#EBEBEB"></path>
                    <path d="M24.2849006,7.90480503 C23.3063849,7.96759748 24.2985862,5.34722013 25.330234,4.42264151 C29.2555673,0.903849057 29.4234164,1.86948428 33.2461082,0.539572327 C34.8235673,-0.00865408805 39.4033912,0.952553459 40.8584855,1.6907673 C41.4038943,1.9672956 42.5023597,4.92256604 44.0113912,5.60724528 C45.9072403,6.46742138 47.2178314,8.95215094 44.0037434,9.43396226 C40.6133535,9.94233962 35.3319447,10.4817107 32.4909887,8.21313208 C30.5717937,6.6803522 31.7097057,9.69438994 29.1030138,8.55647799 C29.0981836,8.55486792 24.2933535,7.904 24.2849006,7.90480503" id="Fill-65" fill="#FFFFFF"></path>
                    <path d="M32.8197233,8.16386415 C32.2936352,8.19767547 34.5135094,7.44336101 35.0673711,6.9466566 C37.177761,5.0548327 37.4406038,6.17503396 39.4958491,5.45976352 C40.3435472,5.16552453 43.6864403,5.96129811 44.4685283,6.35858113 C44.7615597,6.50670692 44.7969811,6.97322264 45.6080503,7.3407195 C46.6272201,7.80321006 47.3513459,8.45810314 45.6233459,8.71732327 C43.8007547,8.99103396 40.4449811,10.2038138 38.9178365,8.98419119 C37.8861887,8.16024151 38.624,9.23495849 37.0960503,9.16934843 C36.4930818,9.14358742 27.2026164,7.93926038 32.8197233,8.16386415" id="Fill-66" fill="#F9F9F9"></path>
                    <path d="M14.6037132,18.1461736 C13.7330717,17.145117 5.35470692,30.123834 4.60441761,30.8576201 C3.00039245,32.4258214 5.36879497,33.2324629 8.12643019,35.5211673 C12.9602415,39.533444 12.0598138,39.1482365 15.5286943,40.7683623 C15.5460025,40.7204629 15.5451975,40.7035572 15.2400906,40.402878 C15.0690214,40.2342239 16.3224553,36.8261233 16.0024553,36.5149786 C15.6824553,36.2034314 15.0903547,38.2542491 14.3489208,39.5012428 C13.6843673,38.8624503 12.6571472,37.8843371 12.7086692,37.7575447 C13.7817761,35.1319346 16.7145057,28.6389535 16.2709333,28.3628277 C15.6808453,27.9961358 12.5392101,35.4044377 11.4693233,36.6091673 C11.0889459,37.0382491 10.0717887,36.4570164 9.74937358,36.1040101 C9.54972579,35.8858465 9.23817862,35.5642365 9.45312201,35.0973182 C11.1581786,31.3990038 17.9941031,19.564639 17.4458767,19.1838591 C16.9415245,18.8328654 10.9202918,29.9253937 8.41543648,33.2030792 C7.5456,34.3409912 6.43988931,32.4435321 5.90816604,32.0772428 C6.66328553,31.0061484 14.8331472,18.4102239 14.6037132,18.1461736" id="Fill-67" fill="#45545E"></path>
                    <path d="M39.9596277,22.5451472 C40.2003321,22.8369711 40.4221182,23.0639899 40.6430994,23.2873862 C40.4096403,22.6642918 40.3955522,21.9506314 40.608483,21.3194868 C39.8718792,21.581122 39.5031748,21.9916881 39.9596277,22.5451472" id="Fill-68" fill="#3E0000"></path>
                    <path d="M49.8334591,16.9680906 C49.9232201,16.9680906 50.008956,16.9837887 50.0890566,17.0119648 C49.8157484,16.7527447 49.4466415,16.5925434 49.0401006,16.5925434 C48.1992453,16.5925434 47.5185912,17.274405 47.5185912,18.1144553 C47.5185912,18.9553107 48.1992453,19.6363673 49.0401006,19.6363673 C49.8805535,19.6363673 50.5620126,18.9553107 50.5620126,18.1144553 C50.5620126,18.0657509 50.559195,18.0174491 50.5551698,17.9703547 C50.4541384,18.271839 50.1691572,18.4896 49.8334591,18.4896 C49.4132327,18.4896 49.0723019,18.1494742 49.0723019,17.7288453 C49.0723019,17.3086189 49.4132327,16.9680906 49.8334591,16.9680906" id="Fill-69" fill="#3E0000"></path>
                    <path d="M29.9238642,48.4464704 C29.7205937,48.2951245 29.3225057,48.0805836 29.2488453,48.1381434 C29.1417761,48.2226717 29.8349082,49.1790491 29.5128956,49.8967346 C29.190078,50.6140176 25.0268579,49.3871497 24.7825308,48.8731371 C24.5212981,48.3241057 25.3009711,46.5574642 25.1415748,46.0064201 C24.9817761,45.4553761 23.7210969,44.8101434 22.9547069,44.3947472 C16.6943799,41.0019421 4.27717233,31.0179421 4.88537358,27.4242818 C5.45815346,24.0403321 10.9710088,17.7965082 12.2417509,17.497439 C13.5124931,17.1983698 18.4497509,18.0166843 18.566078,17.6536151 C18.694883,17.2519044 11.9684428,14.6130113 10.5672855,15.0223698 C9.24300881,15.4083824 0.632392453,24.2202566 0.0636377358,27.468156 C-1.27754465,35.1328604 18.9404176,44.9920805 21.6099019,46.5570616 C22.3996377,47.0191497 21.0069333,48.8469736 21.6082918,49.8552755 C22.3976252,51.1763321 31.9050465,52.1302943 32.0926189,51.289439 C32.2455748,50.6047597 30.8190591,49.1110239 29.9238642,48.4464704" id="Fill-70" fill="#45545E"></path>
                    <path d="M41.4358541,41.0978214 C41.0667472,41.2857962 40.4134642,41.357444 39.7549484,41.3445635 C41.4688604,37.0497208 43.2596528,32.2227522 44.121439,26.4128403 C45.3845333,27.9275069 47.3053384,29.8523371 48.794244,30.6839346 C47.9280302,33.6995824 43.1296403,40.2352302 41.4358541,41.0978214 M38.9877535,41.2914314 C38.4882314,41.2318591 38.055527,41.125595 37.8345459,40.9899472 C36.5947975,40.2271799 33.9945459,35.1683623 33.3605836,31.7453686 C35.6009862,31.360161 39.9119296,28.6830289 41.970395,26.5963874 C41.5280302,31.3199094 40.2379673,36.4829786 38.9877535,41.2914314 M38.6766088,7.82224906 C36.7485585,7.8592805 34.8144704,7.97842516 33.3235522,8.07341887 C36.5408604,5.53112956 44.2268981,5.10164528 45.0303195,7.89188428 C43.4601057,7.88504151 41.1593258,7.77515472 38.6766088,7.82224906 M30.1984201,7.77515472 C29.4167346,6.89123019 28.0014893,4.90119245 27.134873,4.88146918 C26.7883069,4.87341887 25.9804579,5.37052579 25.0466214,6.07372075 C25.4704704,3.04237484 29.6832,1.33691572 33.6125585,1.00323019 C34.5681308,1.75553208 35.3775899,2.6136956 36.4502943,4.96599748 C34.623678,5.05253836 33.1569107,5.22441258 32.6585962,5.49450063 C31.7722566,5.97550692 30.8649862,6.86506667 30.1984201,7.77515472 M39.8946214,2.17978365 C40.3921308,2.61490314 41.3066465,3.81842516 41.9120302,4.93419874 C40.780156,4.89998491 39.5838792,4.89072704 38.4367094,4.90682767 C37.5636528,3.06048805 36.5634013,1.88353208 35.4902943,0.949293082 C37.3740679,1.0060478 39.0167346,1.41419874 39.8946214,2.17978365 M51.5824704,10.5911547 C51.5675774,9.6589283 53.1108226,8.73917987 52.9820176,7.56423648 C52.8954767,6.77047547 49.5578164,5.22924277 48.8035019,5.54199748 C48.2126088,5.78712956 47.858395,6.84131824 47.3568604,7.41611069 C47.5553006,6.64489057 47.6309736,5.88212327 47.3922818,5.58989686 C47.1914264,5.34395975 45.8836528,5.15517987 44.1198289,5.03764528 C43.4737912,3.57087799 42.0239296,1.97812327 41.0510491,1.0982239 C40.0451623,0.188135849 37.4734893,-0.0686691824 34.5798038,0.217116981 L34.5794013,0.217116981 C34.2839547,-0.00466918239 34.1680302,-0.0469333333 33.446722,0.0468528302 C32.7753258,0.133393711 32.7258164,0.299632704 32.8759547,0.442525786 C28.6386717,1.14290314 24.2351497,2.90390943 23.2679044,5.40755723 C23.0924075,5.86199748 22.9700428,6.6944 23.0163321,7.74778365 C21.709766,8.91266415 20.608483,10.0698969 20.596005,10.431356 C20.5682314,11.237595 21.9975648,12.3859723 22.1030239,12.9873308 C22.2080805,13.5886893 19.5305459,17.689117 17.9220931,23.3444629 C15.9445333,30.2955069 17.1235019,39.8938969 23.3145962,39.8427774 C26.6687597,39.8146013 25.8403824,34.7074818 23.5617409,34.8077082 C22.886722,34.8374943 23.2731371,38.9801862 21.7395522,38.2991296 C19.0205585,37.0907774 18.6478289,29.8909786 20.6161308,24.896966 C24.5833258,14.8324629 26.1140931,14.2930918 25.9921308,13.5733937 C25.8701686,12.8536956 24.3144453,11.6058969 24.2766088,11.1188528 C24.2327346,10.5541233 26.4972881,8.38778365 27.1791497,8.62567044 C27.7768855,8.83417358 28.7566088,11.1252931 29.5990742,11.2746264 C30.3449358,11.4070541 44.5698415,8.90501635 47.9928352,10.4522868 C51.4158289,11.9995572 56.4730365,23.3666013 56.0918541,24.5459723 C55.7102692,25.7249409 52.5287849,27.7616704 49.6556277,27.6260226 C47.6502943,27.5314314 45.0279044,25.7068277 43.9068981,24.730727 C43.9342692,24.7146264 43.9596277,24.690878 43.9865962,24.6727648 C43.6911497,24.7927145 43.3578667,24.8671799 42.9754767,24.8671799 C42.6164327,24.8671799 42.3040805,24.7975447 42.0215145,24.6912805 C40.3985711,26.048966 37.528634,27.8840352 34.9754767,28.0518843 C31.6362063,28.2700478 28.3379925,26.034073 27.7970113,25.0644126 C27.1847849,23.9667522 29.452156,19.775356 29.132961,19.5137208 C28.4897409,18.9860226 22.6584956,25.2149535 23.3037283,27.3990038 C23.7931874,29.0549535 27.4395774,30.7310289 30.3892126,31.4406642 C31.1362818,34.1693182 34.4405333,40.8003623 35.5591245,41.5289157 C36.7521811,42.3061736 40.2528604,42.5963874 41.7252629,41.9906013 C43.4061686,41.2990792 48.8562314,35.7834063 50.509766,31.0981233 C51.0374642,31.0627019 51.6661937,30.9347019 52.3387975,30.7386767 C51.7301937,39.9804377 43.0435019,46.3909031 43.3739673,47.002727 C43.710873,47.6262239 48.6823447,46.1236327 49.279678,46.7229786 C49.8319296,47.2768403 47.4208604,49.9294189 47.5677786,49.9918088 C47.7146969,50.0537962 53.5366843,46.1924629 53.0979421,44.6286893 C52.8411371,43.7141736 49.2442566,44.1855195 49.0349484,43.8180226 C48.8357031,43.4670289 55.2417409,38.976966 56.7306465,28.7715824 C57.7775899,28.1191044 58.5886591,27.4231547 58.8627723,26.816161 C59.7056403,24.9509031 51.5856906,10.8334692 51.5824704,10.5911547" id="Fill-71" fill="#45545E"></path>
                    <path d="M36.2338214,16.9673258 C36.3239849,16.9673258 36.4101233,16.9830239 36.4902239,17.012005 C36.2169157,16.7519799 35.8478088,16.5921811 35.4412679,16.5921811 C34.6008151,16.5921811 33.919356,17.2740428 33.919356,18.1144956 C33.919356,18.9545459 34.6008151,19.636005 35.4412679,19.636005 C36.2817208,19.636005 36.9627774,18.9545459 36.9627774,18.1144956 C36.9627774,18.0657912 36.9603623,18.0170868 36.9559346,17.9695899 C36.8726138,18.2195522 36.6629031,18.4119547 36.402073,18.4703195 C36.3477333,18.4827975 36.2917836,18.4888352 36.2338214,18.4888352 C35.8139975,18.4888352 35.4734692,18.1491119 35.4734692,17.728483 C35.4734692,17.5006591 35.5728906,17.2961811 35.7310792,17.1573132 C35.8655195,17.0389736 36.0414189,16.9673258 36.2338214,16.9673258" id="Fill-72" fill="#3E0000"></path>
                    <path d="M49.0610717,19.6123371 C49.8890465,19.6123371 50.5640654,18.9369157 50.5640654,18.1093434 C50.5640654,17.2813686 49.8890465,16.6055447 49.0610717,16.6055447 C48.2330969,16.6055447 47.5576755,17.2813686 47.5576755,18.1093434 C47.5576755,18.9369157 48.2330969,19.6123371 49.0610717,19.6123371" id="Fill-73" fill="#45545E"></path>
                    <path d="M49.0614742,18.9877535 C49.5457006,18.9877535 49.9397635,18.5932881 49.9397635,18.1090616 C49.9397635,17.6252377 49.5457006,17.2303698 49.0614742,17.2303698 C48.5772478,17.2303698 48.1823799,17.6252377 48.1823799,18.1090616 C48.1823799,18.5932881 48.5772478,18.9877535 49.0614742,18.9877535" id="Fill-74" fill="#000000"></path>
                    <path d="M49.8356327,18.0494491 C50.0799597,18.0494491 50.2788025,17.8506063 50.2788025,17.6062792 C50.2788025,17.3623547 50.0799597,17.1631094 49.8356327,17.1631094 C49.5917082,17.1631094 49.3920604,17.3623547 49.3920604,17.6062792 C49.3920604,17.8506063 49.5917082,18.0494491 49.8356327,18.0494491" id="Fill-75" fill="#FFFFFF"></path>
                    <path d="M35.4706516,19.6178516 C36.2986264,19.6178516 36.9736453,18.9424302 36.9736453,18.1148579 C36.9736453,17.286883 36.2986264,16.6110591 35.4706516,16.6110591 C34.6426767,16.6110591 33.9672553,17.286883 33.9672553,18.1148579 C33.9672553,18.9424302 34.6426767,19.6178516 35.4706516,19.6178516" id="Fill-76" fill="#45545E"></path>
                    <path d="M35.4710541,18.9932679 C35.9552805,18.9932679 36.3493434,18.599205 36.3493434,18.1145761 C36.3493434,17.6307522 35.9552805,17.2358843 35.4710541,17.2358843 C34.9868277,17.2358843 34.5919597,17.6307522 34.5919597,18.1145761 C34.5919597,18.599205 34.9868277,18.9932679 35.4710541,18.9932679" id="Fill-77" fill="#000000"></path>
                    <path d="M36.2452126,18.0549635 C36.4891371,18.0549635 36.6883824,17.8561208 36.6883824,17.6117937 C36.6883824,17.3678692 36.4891371,17.1686239 36.2452126,17.1686239 C36.0012881,17.1686239 35.8016403,17.3678692 35.8016403,17.6117937 C35.8016403,17.8561208 36.0012881,18.0549635 36.2452126,18.0549635" id="Fill-78" fill="#FFFFFF"></path>
                    <path d="M42.0351195,24.6893887 C41.9183899,24.6133132 42.4505157,23.9129358 42.5648302,23.4037535 C42.7165786,22.7283321 42.1486289,22.5963069 41.7469182,22.6804327 C40.998239,22.8374138 41.5207044,23.6814893 41.6861384,23.9986717 C41.8221887,24.2595019 41.728,24.4209107 41.2989182,23.9765333 C41.0835723,23.7535396 40.8988176,23.5458415 40.7056101,23.3506214 C40.4661132,23.1091119 40.2258113,22.866395 39.9649811,22.5500176 C38.3653836,20.6102943 46.8814088,20.4223195 45.9592453,22.2638289 C45.6215346,22.9372377 45.1984906,23.4222692 44.7203019,23.9753258 C44.0066415,24.800483 44.8068428,23.3622943 44.812478,23.0366591 C44.8197233,22.6405836 44.5874717,22.6933132 44.4296855,22.8438541 C44.0428679,23.2113509 44.8237484,24.8423447 43.1275472,24.9598792 C42.7290566,24.9876528 42.3168805,24.9043321 42.0351195,24.6893887" id="Fill-79" fill="#45545E"></path>
                    <path d="M13.164639,17.4307421 C16.2591799,17.6364277 18.3953308,18.2997736 21.4653182,19.3571824 C20.4755321,18.2172579 18.9685132,17.6130818 16.2044377,16.4337107 C15.0258717,15.930566 13.8299975,16.7388176 13.164639,17.4307421" id="Fill-80" fill="#45545E"></path>
                    <path d="M17.867673,36.5404176 C17.2321006,37.7044931 4.84991195,27.5091723 3.95994969,26.9532981 C2.05766038,25.7654742 4.62893082,23.3954616 6.83109434,20.5698013 C10.6924277,15.6164428 8.5530566,18.5773484 11.5944654,16.2524176 C11.6166038,16.287034 16.1344403,20.2667069 16.0044277,20.4244931 C15.8224906,20.6450717 11.0011572,17.1657258 10.7149686,17.4784805 C10.2162516,18.0218767 9.72477987,18.5757384 9.82581132,18.6828075 C11.6588679,20.6253484 16.9471195,24.2467824 16.4950943,24.7426818 C15.8748176,25.4237384 10.7173836,21.0008956 9.21438994,19.9434868 C7.91828931,19.0313862 7.34430189,21.3635623 7.57293082,21.6662541 C10.0298868,24.9133484 18.8985157,31.1978264 18.4456855,31.6864805 C18.0282767,32.1368956 10.279044,26.3724679 6.92608805,23.7746314 C5.79421384,22.8979522 5.41383648,25.0107572 4.97187421,25.4825057 C5.93952201,26.3672352 18.0351195,36.2337006 17.867673,36.5404176" id="Fill-81" fill="#45545E"></path>
                </g>
            </g>
        </g>
    </g>
</svg>