<?xml version="1.0" encoding="utf-8"?>
<!-- Generator: Adobe Illustrator 18.0.0, SVG Export Plug-In . SVG Version: 6.00 Build 0)  -->
<!DOCTYPE svg PUBLIC "-//W3C//DTD SVG 1.1//EN" "http://www.w3.org/Graphics/SVG/1.1/DTD/svg11.dtd">
<svg version="1.1" id="Layer_1" xmlns="http://www.w3.org/2000/svg" xmlns:xlink="http://www.w3.org/1999/xlink" x="0px" y="0px"
	 width="616px" height="90px" viewBox="0 0 616 90" enable-background="new 0 0 616 90" xml:space="preserve">
<path id="Dedicated-Theme-for" fill="#45545E" d="M149.4,19.8h7.2c1.9,0,3.6,0.4,5,1.2c1.5,0.8,2.6,1.9,3.4,3.2
	c0.8,1.4,1.2,2.9,1.2,4.7s-0.4,3.3-1.2,4.7c-0.8,1.4-2,2.5-3.4,3.2c-1.5,0.8-3.1,1.2-5,1.2h-7.2V19.8z M156.5,36.8
	c1.7,0,3.2-0.3,4.4-1c1.3-0.7,2.3-1.6,3-2.8c0.7-1.2,1-2.6,1-4.1c0-1.5-0.3-2.9-1-4.1c-0.7-1.2-1.7-2.1-3-2.8c-1.3-0.7-2.8-1-4.4-1
	h-5.8v15.8H156.5z M182,31.5h-11.7c0,1.1,0.3,2,0.8,2.8s1.2,1.5,2,1.9s1.8,0.7,2.9,0.7c0.9,0,1.7-0.2,2.5-0.5
	c0.8-0.3,1.4-0.8,1.9-1.4l0.8,0.9c-0.6,0.7-1.3,1.3-2.2,1.6c-0.9,0.4-1.9,0.6-2.9,0.6c-1.4,0-2.6-0.3-3.6-0.9s-1.9-1.4-2.5-2.4
	s-0.9-2.2-0.9-3.6c0-1.3,0.3-2.5,0.8-3.5c0.6-1,1.3-1.9,2.3-2.5s2.1-0.9,3.3-0.9c1.2,0,2.3,0.3,3.3,0.9s1.8,1.4,2.3,2.4
	c0.6,1,0.8,2.2,0.8,3.5L182,31.5z M175.5,25.5c-1,0-1.8,0.2-2.6,0.6c-0.8,0.4-1.4,1-1.8,1.8s-0.7,1.6-0.8,2.6h10.4
	c-0.1-1-0.3-1.8-0.8-2.6s-1.1-1.4-1.8-1.8C177.3,25.7,176.5,25.5,175.5,25.5z M198.1,18.7V38h-1.3v-3.2c-0.5,1.1-1.3,1.9-2.3,2.4
	c-1,0.6-2.1,0.9-3.3,0.9c-1.3,0-2.4-0.3-3.4-0.9s-1.8-1.4-2.4-2.4s-0.9-2.2-0.9-3.6c0-1.3,0.3-2.5,0.9-3.6s1.4-1.9,2.4-2.4
	s2.2-0.9,3.4-0.9c1.2,0,2.3,0.3,3.3,0.9c1,0.6,1.7,1.4,2.3,2.4v-8.9H198.1z M191.3,36.9c1,0,2-0.2,2.8-0.7c0.8-0.5,1.5-1.2,2-2
	c0.5-0.9,0.7-1.9,0.7-3c0-1.1-0.2-2.1-0.7-3s-1.1-1.5-2-2c-0.8-0.5-1.8-0.7-2.8-0.7s-2,0.2-2.8,0.7s-1.5,1.2-1.9,2s-0.7,1.9-0.7,3
	c0,1.1,0.2,2.1,0.7,3c0.5,0.9,1.1,1.5,1.9,2S190.3,36.9,191.3,36.9z M203.6,24.4h1.3V38h-1.3V24.4z M204.2,21.1
	c-0.3,0-0.5-0.1-0.8-0.3c-0.2-0.2-0.3-0.4-0.3-0.7s0.1-0.5,0.3-0.8c0.2-0.2,0.5-0.3,0.8-0.3c0.3,0,0.5,0.1,0.8,0.3
	c0.2,0.2,0.3,0.4,0.3,0.7s-0.1,0.5-0.3,0.8C204.8,21,204.5,21.1,204.2,21.1z M215.7,38.1c-1.3,0-2.5-0.3-3.5-0.9s-1.9-1.4-2.4-2.5
	s-0.9-2.2-0.9-3.5c0-1.3,0.3-2.5,0.9-3.6s1.4-1.9,2.4-2.4s2.2-0.9,3.5-0.9c1.1,0,2.1,0.2,3,0.6s1.6,1,2.2,1.9l-1,0.7
	c-0.5-0.7-1.1-1.2-1.8-1.5c-0.7-0.3-1.5-0.5-2.4-0.5c-1.1,0-2,0.2-2.8,0.7s-1.5,1.1-2,2c-0.5,0.9-0.7,1.9-0.7,3c0,1.1,0.2,2.1,0.7,3
	c0.5,0.9,1.1,1.5,2,2c0.8,0.5,1.8,0.7,2.8,0.7c0.9,0,1.7-0.2,2.4-0.5c0.7-0.3,1.3-0.8,1.8-1.5l1,0.7c-0.6,0.8-1.3,1.4-2.2,1.9
	C217.8,37.9,216.8,38.1,215.7,38.1z M229.4,24.3c1.7,0,3,0.4,3.9,1.3s1.4,2.1,1.4,3.8V38h-1.2v-2.4c-0.4,0.8-1.1,1.4-1.9,1.9
	c-0.8,0.4-1.8,0.7-3,0.7c-1.5,0-2.7-0.4-3.6-1.1c-0.9-0.7-1.3-1.6-1.3-2.8c0-1.1,0.4-2,1.2-2.7s2.1-1.1,3.9-1.1h4.7v-1.1
	c0-1.3-0.3-2.2-1-2.9c-0.7-0.7-1.7-1-3-1c-0.9,0-1.8,0.2-2.6,0.5c-0.8,0.3-1.5,0.7-2.1,1.2l-0.6-0.9c0.7-0.6,1.5-1.1,2.4-1.4
	C227.3,24.5,228.3,24.3,229.4,24.3z M228.6,37c1.1,0,2.1-0.3,2.9-0.8c0.8-0.5,1.4-1.3,1.8-2.3v-2.5h-4.6c-1.3,0-2.3,0.2-2.9,0.7
	c-0.6,0.5-0.9,1.2-0.9,2c0,0.9,0.3,1.6,1,2.1C226.5,36.8,227.4,37,228.6,37z M246.7,37.1c-0.3,0.3-0.7,0.6-1.2,0.7
	c-0.5,0.2-1,0.2-1.5,0.2c-1.2,0-2.1-0.3-2.7-1c-0.6-0.7-1-1.6-1-2.7v-8.9h-2.5v-1.1h2.5v-3h1.3v3h4.3v1.1h-4.3v8.7
	c0,0.9,0.2,1.6,0.6,2s1.1,0.7,1.9,0.7c0.8,0,1.6-0.3,2.1-0.8L246.7,37.1z M261.7,31.5h-11.7c0,1.1,0.3,2,0.8,2.8s1.2,1.5,2,1.9
	c0.9,0.5,1.8,0.7,2.9,0.7c0.9,0,1.7-0.2,2.5-0.5c0.8-0.3,1.4-0.8,1.9-1.4l0.8,0.9c-0.6,0.7-1.3,1.3-2.2,1.6
	c-0.9,0.4-1.9,0.6-2.9,0.6c-1.4,0-2.6-0.3-3.6-0.9c-1.1-0.6-1.9-1.4-2.5-2.4c-0.6-1-0.9-2.2-0.9-3.6c0-1.3,0.3-2.5,0.8-3.5
	c0.6-1,1.3-1.9,2.3-2.5s2.1-0.9,3.3-0.9s2.3,0.3,3.3,0.9s1.8,1.4,2.3,2.4c0.6,1,0.8,2.2,0.8,3.5L261.7,31.5z M255.3,25.5
	c-1,0-1.8,0.2-2.6,0.6s-1.4,1-1.8,1.8s-0.7,1.6-0.8,2.6h10.4c-0.1-1-0.3-1.8-0.8-2.6c-0.5-0.8-1.1-1.4-1.8-1.8
	S256.3,25.5,255.3,25.5z M277.9,18.7V38h-1.3v-3.2c-0.5,1.1-1.3,1.9-2.3,2.4c-1,0.6-2.1,0.9-3.3,0.9c-1.3,0-2.4-0.3-3.4-0.9
	s-1.8-1.4-2.4-2.4c-0.6-1-0.9-2.2-0.9-3.6c0-1.3,0.3-2.5,0.9-3.6c0.6-1,1.4-1.9,2.4-2.4s2.2-0.9,3.4-0.9c1.2,0,2.3,0.3,3.3,0.9
	c1,0.6,1.7,1.4,2.3,2.4v-8.9H277.9z M271.1,36.9c1,0,2-0.2,2.8-0.7s1.5-1.2,2-2c0.5-0.9,0.7-1.9,0.7-3c0-1.1-0.2-2.1-0.7-3
	c-0.5-0.9-1.1-1.5-2-2s-1.8-0.7-2.8-0.7c-1,0-2,0.2-2.8,0.7s-1.5,1.2-2,2c-0.5,0.9-0.7,1.9-0.7,3c0,1.1,0.2,2.1,0.7,3
	c0.5,0.9,1.1,1.5,2,2S270.1,36.9,271.1,36.9z M293.9,21h-6.6v-1.2h14.4V21h-6.6v17h-1.3V21z M311.3,24.3c1.7,0,3,0.5,4,1.5
	s1.5,2.4,1.5,4.3V38h-1.3v-7.8c0-1.5-0.4-2.7-1.2-3.5c-0.8-0.8-1.9-1.2-3.2-1.2c-1.6,0-2.9,0.5-3.8,1.4s-1.4,2.2-1.4,3.8V38h-1.3
	V18.7h1.3v8.6c0.5-0.9,1.2-1.7,2.1-2.2S310.1,24.3,311.3,24.3z M333.6,31.5H322c0,1.1,0.3,2,0.8,2.8c0.5,0.8,1.2,1.5,2,1.9
	s1.8,0.7,2.9,0.7c0.9,0,1.7-0.2,2.5-0.5c0.8-0.3,1.4-0.8,1.9-1.4l0.8,0.9c-0.6,0.7-1.3,1.3-2.2,1.6c-0.9,0.4-1.9,0.6-2.9,0.6
	c-1.4,0-2.6-0.3-3.6-0.9s-1.9-1.4-2.5-2.4c-0.6-1-0.9-2.2-0.9-3.6c0-1.3,0.3-2.5,0.8-3.5c0.6-1,1.3-1.9,2.3-2.5
	c1-0.6,2.1-0.9,3.3-0.9c1.2,0,2.3,0.3,3.3,0.9s1.8,1.4,2.3,2.4c0.6,1,0.8,2.2,0.8,3.5L333.6,31.5z M327.2,25.5c-1,0-1.8,0.2-2.6,0.6
	c-0.8,0.4-1.4,1-1.8,1.8c-0.5,0.8-0.7,1.6-0.8,2.6h10.4c-0.1-1-0.3-1.8-0.8-2.6c-0.5-0.8-1.1-1.4-1.8-1.8S328.1,25.5,327.2,25.5z
	 M354.6,24.3c1.7,0,3,0.5,4,1.5s1.4,2.4,1.4,4.3V38h-1.3v-7.8c0-1.5-0.4-2.7-1.1-3.5c-0.7-0.8-1.8-1.2-3.1-1.2
	c-1.5,0-2.7,0.5-3.6,1.4s-1.3,2.2-1.3,3.8V38h-1.3v-7.8c0-1.5-0.4-2.7-1.1-3.5c-0.7-0.8-1.8-1.2-3.1-1.2c-1.5,0-2.7,0.5-3.6,1.4
	s-1.3,2.2-1.3,3.8V38h-1.3V24.4h1.2v2.9c0.5-1,1.1-1.7,2-2.2s2-0.8,3.2-0.8c1.2,0,2.3,0.3,3.1,0.8c0.9,0.6,1.5,1.4,1.8,2.4
	c0.5-1,1.2-1.8,2.1-2.4S353.3,24.3,354.6,24.3z M376.8,31.5h-11.7c0,1.1,0.3,2,0.8,2.8c0.5,0.8,1.2,1.5,2,1.9s1.8,0.7,2.9,0.7
	c0.9,0,1.7-0.2,2.5-0.5c0.8-0.3,1.4-0.8,1.9-1.4l0.8,0.9c-0.6,0.7-1.3,1.3-2.2,1.6c-0.9,0.4-1.9,0.6-2.9,0.6c-1.4,0-2.6-0.3-3.6-0.9
	s-1.9-1.4-2.5-2.4s-0.9-2.2-0.9-3.6c0-1.3,0.3-2.5,0.8-3.5c0.6-1,1.3-1.9,2.3-2.5s2.1-0.9,3.3-0.9c1.2,0,2.3,0.3,3.3,0.9
	s1.8,1.4,2.3,2.4c0.6,1,0.8,2.2,0.8,3.5L376.8,31.5z M370.4,25.5c-1,0-1.8,0.2-2.6,0.6c-0.8,0.4-1.4,1-1.8,1.8
	c-0.5,0.8-0.7,1.6-0.8,2.6h10.4c-0.1-1-0.3-1.8-0.8-2.6c-0.5-0.8-1.1-1.4-1.8-1.8S371.3,25.5,370.4,25.5z M391.6,19.7
	c-1.7,0-2.5,0.9-2.5,2.7v2h4.3v1.1h-4.3V38h-1.3V25.5h-2.5v-1.1h2.5v-2.1c0-1.1,0.3-2.1,1-2.7c0.7-0.7,1.6-1,2.8-1
	c0.5,0,1,0.1,1.5,0.2c0.5,0.1,0.9,0.4,1.2,0.7l-0.5,1C393.2,20,392.5,19.7,391.6,19.7z M401.4,38.1c-1.3,0-2.4-0.3-3.5-0.9
	s-1.8-1.4-2.4-2.5c-0.6-1-0.9-2.2-0.9-3.5s0.3-2.5,0.9-3.5c0.6-1,1.4-1.9,2.4-2.5s2.2-0.9,3.5-0.9s2.4,0.3,3.5,0.9s1.8,1.4,2.4,2.5
	c0.6,1,0.9,2.2,0.9,3.5s-0.3,2.5-0.9,3.5c-0.6,1-1.4,1.9-2.4,2.5S402.7,38.1,401.4,38.1z M401.4,36.9c1,0,2-0.2,2.8-0.7
	s1.5-1.2,1.9-2c0.5-0.9,0.7-1.9,0.7-3c0-1.1-0.2-2.1-0.7-3c-0.5-0.9-1.1-1.5-1.9-2s-1.8-0.7-2.8-0.7s-2,0.2-2.8,0.7
	c-0.8,0.5-1.5,1.2-1.9,2c-0.5,0.9-0.7,1.9-0.7,3c0,1.1,0.2,2.1,0.7,3c0.5,0.9,1.1,1.5,1.9,2C399.4,36.7,400.4,36.9,401.4,36.9z
	 M413.5,27.4c0.4-1,1.1-1.7,2-2.3s2-0.8,3.2-0.8v1.3l-0.3,0c-1.5,0-2.7,0.5-3.5,1.4c-0.8,0.9-1.3,2.3-1.3,3.9V38h-1.3V24.4h1.2V27.4
	z M435.9,37.1c-0.3,0.3-0.7,0.6-1.2,0.7c-0.5,0.2-1,0.2-1.5,0.2c-1.2,0-2.1-0.3-2.7-1c-0.6-0.7-1-1.6-1-2.7v-8.9h-2.5v-1.1h2.5v-3
	h1.3v3h4.3v1.1h-4.3v8.7c0,0.9,0.2,1.6,0.6,2c0.4,0.5,1.1,0.7,1.9,0.7c0.8,0,1.6-0.3,2.1-0.8L435.9,37.1z M446.1,24.3
	c1.7,0,3,0.5,4,1.5s1.5,2.4,1.5,4.3V38h-1.3v-7.8c0-1.5-0.4-2.7-1.2-3.5c-0.8-0.8-1.9-1.2-3.2-1.2c-1.6,0-2.9,0.5-3.8,1.4
	s-1.4,2.2-1.4,3.8V38h-1.3V18.7h1.3v8.6c0.5-0.9,1.2-1.7,2.1-2.2S444.9,24.3,446.1,24.3z M468.4,31.5h-11.7c0,1.1,0.3,2,0.8,2.8
	c0.5,0.8,1.2,1.5,2,1.9s1.8,0.7,2.9,0.7c0.9,0,1.7-0.2,2.5-0.5c0.8-0.3,1.4-0.8,1.9-1.4l0.8,0.9c-0.6,0.7-1.3,1.3-2.2,1.6
	c-0.9,0.4-1.9,0.6-2.9,0.6c-1.4,0-2.6-0.3-3.6-0.9s-1.9-1.4-2.5-2.4c-0.6-1-0.9-2.2-0.9-3.6c0-1.3,0.3-2.5,0.8-3.5
	c0.6-1,1.3-1.9,2.3-2.5s2.1-0.9,3.3-0.9c1.2,0,2.3,0.3,3.3,0.9s1.8,1.4,2.3,2.4c0.6,1,0.8,2.2,0.8,3.5L468.4,31.5z M462,25.5
	c-1,0-1.8,0.2-2.6,0.6c-0.8,0.4-1.4,1-1.8,1.8c-0.5,0.8-0.7,1.6-0.8,2.6h10.4c-0.1-1-0.3-1.8-0.8-2.6c-0.5-0.8-1.1-1.4-1.8-1.8
	S463,25.5,462,25.5z M48,51.8L41.8,70h-1.4l-5.6-16.3L29.1,70h-1.4l-6.2-18.2h1.4l5.5,16.4l5.7-16.4h1.3l5.7,16.4l5.6-16.4H48z
	 M63.3,63.5H51.6c0,1.1,0.3,2,0.8,2.8c0.5,0.8,1.2,1.5,2,1.9c0.9,0.5,1.8,0.7,2.9,0.7c0.9,0,1.7-0.2,2.5-0.5
	c0.8-0.3,1.4-0.8,1.9-1.4l0.8,0.9c-0.6,0.7-1.3,1.3-2.2,1.6c-0.9,0.4-1.9,0.6-2.9,0.6c-1.4,0-2.6-0.3-3.6-0.9
	c-1.1-0.6-1.9-1.4-2.5-2.4c-0.6-1-0.9-2.2-0.9-3.6c0-1.3,0.3-2.5,0.8-3.5s1.3-1.9,2.3-2.5s2.1-0.9,3.3-0.9c1.2,0,2.3,0.3,3.3,0.9
	c1,0.6,1.8,1.4,2.3,2.4s0.8,2.2,0.8,3.5L63.3,63.5z M56.8,57.5c-1,0-1.8,0.2-2.6,0.6c-0.8,0.4-1.4,1-1.8,1.8
	c-0.5,0.8-0.7,1.6-0.8,2.6H62c-0.1-1-0.3-1.8-0.8-2.6c-0.5-0.8-1.1-1.4-1.8-1.8C58.6,57.7,57.8,57.5,56.8,57.5z M79.4,50.7V70h-1.3
	v-3.2c-0.5,1.1-1.3,1.9-2.3,2.4c-1,0.6-2.1,0.9-3.3,0.9c-1.3,0-2.4-0.3-3.4-0.9c-1-0.6-1.8-1.4-2.4-2.4c-0.6-1-0.9-2.2-0.9-3.6
	s0.3-2.5,0.9-3.6c0.6-1,1.4-1.9,2.4-2.4s2.2-0.9,3.4-0.9c1.2,0,2.3,0.3,3.3,0.9s1.7,1.4,2.3,2.4v-8.9H79.4z M72.6,68.9
	c1,0,2-0.2,2.8-0.7c0.8-0.5,1.5-1.2,1.9-2s0.7-1.9,0.7-3s-0.2-2.1-0.7-3s-1.1-1.5-1.9-2c-0.8-0.5-1.8-0.7-2.8-0.7
	c-1,0-2,0.2-2.8,0.7c-0.8,0.5-1.5,1.2-2,2s-0.7,1.9-0.7,3s0.2,2.1,0.7,3s1.1,1.5,2,2C70.7,68.7,71.6,68.9,72.6,68.9z M96.9,50.7V70
	h-1.3v-3.2c-0.5,1.1-1.3,1.9-2.3,2.4c-1,0.6-2.1,0.9-3.3,0.9c-1.3,0-2.4-0.3-3.4-0.9c-1-0.6-1.8-1.4-2.4-2.4c-0.6-1-0.9-2.2-0.9-3.6
	s0.3-2.5,0.9-3.6c0.6-1,1.4-1.9,2.4-2.4c1-0.6,2.2-0.9,3.4-0.9c1.2,0,2.3,0.3,3.3,0.9s1.7,1.4,2.3,2.4v-8.9H96.9z M90.2,68.9
	c1,0,2-0.2,2.8-0.7c0.8-0.5,1.5-1.2,1.9-2s0.7-1.9,0.7-3s-0.2-2.1-0.7-3s-1.1-1.5-1.9-2c-0.8-0.5-1.8-0.7-2.8-0.7
	c-1,0-2,0.2-2.8,0.7c-0.8,0.5-1.5,1.2-1.9,2s-0.7,1.9-0.7,3s0.2,2.1,0.7,3s1.1,1.5,1.9,2C88.2,68.7,89.1,68.9,90.2,68.9z
	 M102.4,56.4h1.3V70h-1.3V56.4z M103.1,53.1c-0.3,0-0.5-0.1-0.8-0.3s-0.3-0.4-0.3-0.7c0-0.3,0.1-0.5,0.3-0.8s0.5-0.3,0.8-0.3
	s0.5,0.1,0.8,0.3s0.3,0.4,0.3,0.7c0,0.3-0.1,0.5-0.3,0.8S103.4,53.1,103.1,53.1z M115.8,56.3c1.7,0,3,0.5,4,1.5c1,1,1.5,2.4,1.5,4.3
	V70H120v-7.8c0-1.5-0.4-2.7-1.2-3.5c-0.8-0.8-1.9-1.2-3.2-1.2c-1.6,0-2.9,0.5-3.8,1.4c-0.9,1-1.4,2.2-1.4,3.8V70h-1.3V56.4h1.2v2.9
	c0.5-1,1.2-1.7,2.1-2.2C113.5,56.6,114.6,56.3,115.8,56.3z M138.9,56.4v12.1c0,2.3-0.5,3.9-1.6,5c-1.1,1.1-2.7,1.6-4.9,1.6
	c-1.2,0-2.4-0.2-3.5-0.6c-1.1-0.4-2-0.9-2.7-1.6l0.7-1c0.7,0.6,1.5,1.1,2.4,1.5c1,0.3,2,0.5,3,0.5c1.8,0,3.1-0.4,4-1.3
	c0.9-0.9,1.3-2.2,1.3-4v-2.3c-0.6,1-1.3,1.8-2.3,2.3c-1,0.5-2.1,0.8-3.3,0.8c-1.3,0-2.4-0.3-3.4-0.8c-1-0.6-1.8-1.3-2.4-2.4
	c-0.6-1-0.9-2.1-0.9-3.4c0-1.3,0.3-2.4,0.9-3.4c0.6-1,1.4-1.8,2.4-2.3c1-0.6,2.2-0.8,3.4-0.8c1.2,0,2.4,0.3,3.4,0.8
	c1,0.6,1.8,1.3,2.3,2.3v-3.1H138.9z M132.1,68.3c1.1,0,2-0.2,2.9-0.7s1.5-1.1,2-1.9c0.5-0.8,0.7-1.8,0.7-2.8s-0.2-2-0.7-2.8
	s-1.1-1.5-2-1.9s-1.8-0.7-2.9-0.7s-2,0.2-2.8,0.7s-1.5,1.1-2,1.9s-0.7,1.8-0.7,2.8s0.2,2,0.7,2.8c0.5,0.8,1.1,1.5,2,1.9
	S131,68.3,132.1,68.3z M147.9,70.1c-1.1,0-2.1-0.2-3.1-0.5s-1.8-0.7-2.3-1.2l0.6-1c0.6,0.5,1.3,0.9,2.1,1.2c0.9,0.3,1.8,0.5,2.7,0.5
	c1.4,0,2.4-0.2,3-0.7c0.6-0.5,1-1.1,1-1.9c0-0.6-0.2-1-0.5-1.4c-0.4-0.3-0.8-0.6-1.3-0.7s-1.2-0.3-2.2-0.5c-1.1-0.2-1.9-0.4-2.6-0.6
	c-0.7-0.2-1.2-0.6-1.7-1.1c-0.5-0.5-0.7-1.2-0.7-2.1c0-1.1,0.4-2,1.3-2.7s2.2-1.1,3.8-1.1c0.9,0,1.7,0.1,2.6,0.4
	c0.8,0.2,1.5,0.6,2.1,1l-0.6,1c-0.6-0.4-1.2-0.7-1.9-0.9c-0.7-0.2-1.4-0.3-2.2-0.3c-1.3,0-2.2,0.2-2.9,0.7c-0.6,0.5-1,1.1-1,1.8
	c0,0.6,0.2,1.1,0.5,1.4s0.8,0.6,1.3,0.8c0.5,0.2,1.3,0.3,2.2,0.5c1.1,0.2,1.9,0.4,2.6,0.6c0.6,0.2,1.2,0.6,1.7,1.1
	c0.5,0.5,0.7,1.2,0.7,2c0,1.1-0.5,2-1.4,2.7C150.9,69.8,149.6,70.1,147.9,70.1z M168.1,56.3c1.7,0,3,0.4,3.9,1.3s1.4,2.1,1.4,3.8V70
	h-1.2v-2.4c-0.4,0.8-1.1,1.4-1.9,1.9s-1.8,0.7-3,0.7c-1.5,0-2.7-0.4-3.6-1.1c-0.9-0.7-1.3-1.6-1.3-2.8c0-1.1,0.4-2,1.2-2.7
	c0.8-0.7,2.1-1.1,3.9-1.1h4.7v-1.1c0-1.3-0.3-2.2-1-2.9c-0.7-0.7-1.7-1-3-1c-0.9,0-1.8,0.2-2.6,0.5c-0.8,0.3-1.5,0.7-2.1,1.2
	l-0.6-0.9c0.7-0.6,1.5-1.1,2.4-1.4S167.1,56.3,168.1,56.3z M167.4,69c1.1,0,2.1-0.3,2.9-0.8c0.8-0.5,1.4-1.3,1.8-2.3v-2.5h-4.6
	c-1.3,0-2.3,0.2-2.9,0.7c-0.6,0.5-0.9,1.2-0.9,2c0,0.9,0.3,1.6,1,2.1C165.3,68.8,166.2,69,167.4,69z M185.3,56.3c1.7,0,3,0.5,4,1.5
	c1,1,1.5,2.4,1.5,4.3V70h-1.3v-7.8c0-1.5-0.4-2.7-1.2-3.5c-0.8-0.8-1.9-1.2-3.2-1.2c-1.6,0-2.9,0.5-3.8,1.4s-1.4,2.2-1.4,3.8V70
	h-1.3V56.4h1.2v2.9c0.5-1,1.2-1.7,2.1-2.2C183,56.6,184.1,56.3,185.3,56.3z M208.3,50.7V70H207v-3.2c-0.5,1.1-1.3,1.9-2.3,2.4
	c-1,0.6-2.1,0.9-3.3,0.9c-1.3,0-2.4-0.3-3.4-0.9c-1-0.6-1.8-1.4-2.4-2.4c-0.6-1-0.9-2.2-0.9-3.6s0.3-2.5,0.9-3.6
	c0.6-1,1.4-1.9,2.4-2.4s2.2-0.9,3.4-0.9c1.2,0,2.3,0.3,3.3,0.9s1.7,1.4,2.3,2.4v-8.9H208.3z M201.5,68.9c1,0,2-0.2,2.8-0.7
	s1.5-1.2,1.9-2s0.7-1.9,0.7-3s-0.2-2.1-0.7-3s-1.1-1.5-1.9-2s-1.8-0.7-2.8-0.7s-2,0.2-2.8,0.7s-1.5,1.2-1.9,2s-0.7,1.9-0.7,3
	s0.2,2.1,0.7,3s1.1,1.5,1.9,2S200.5,68.9,201.5,68.9z M245.2,51.8L239,70h-1.4L232,53.7L226.3,70h-1.4l-6.2-18.2h1.4l5.5,16.4
	l5.7-16.4h1.3l5.7,16.4l5.6-16.4H245.2z M260.4,63.5h-11.7c0,1.1,0.3,2,0.8,2.8c0.5,0.8,1.2,1.5,2,1.9s1.8,0.7,2.9,0.7
	c0.9,0,1.7-0.2,2.5-0.5c0.8-0.3,1.4-0.8,1.9-1.4l0.8,0.9c-0.6,0.7-1.3,1.3-2.2,1.6c-0.9,0.4-1.9,0.6-2.9,0.6c-1.4,0-2.6-0.3-3.6-0.9
	c-1.1-0.6-1.9-1.4-2.5-2.4c-0.6-1-0.9-2.2-0.9-3.6c0-1.3,0.3-2.5,0.8-3.5s1.3-1.9,2.3-2.5s2.1-0.9,3.3-0.9s2.3,0.3,3.3,0.9
	s1.8,1.4,2.3,2.4c0.6,1,0.8,2.2,0.8,3.5L260.4,63.5z M254,57.5c-1,0-1.8,0.2-2.6,0.6c-0.8,0.4-1.4,1-1.8,1.8
	c-0.5,0.8-0.7,1.6-0.8,2.6h10.4c-0.1-1-0.3-1.8-0.8-2.6c-0.5-0.8-1.1-1.4-1.8-1.8S255,57.5,254,57.5z M276.6,50.7V70h-1.3v-3.2
	c-0.5,1.1-1.3,1.9-2.3,2.4c-1,0.6-2.1,0.9-3.3,0.9c-1.3,0-2.4-0.3-3.4-0.9c-1-0.6-1.8-1.4-2.4-2.4c-0.6-1-0.9-2.2-0.9-3.6
	s0.3-2.5,0.9-3.6c0.6-1,1.4-1.9,2.4-2.4s2.2-0.9,3.4-0.9c1.2,0,2.3,0.3,3.3,0.9s1.7,1.4,2.3,2.4v-8.9H276.6z M269.8,68.9
	c1,0,2-0.2,2.8-0.7c0.8-0.5,1.5-1.2,1.9-2c0.5-0.9,0.7-1.9,0.7-3s-0.2-2.1-0.7-3c-0.5-0.9-1.1-1.5-1.9-2c-0.8-0.5-1.8-0.7-2.8-0.7
	s-2,0.2-2.8,0.7c-0.8,0.5-1.5,1.2-1.9,2c-0.5,0.9-0.7,1.9-0.7,3s0.2,2.1,0.7,3c0.5,0.9,1.1,1.5,1.9,2
	C267.8,68.7,268.8,68.9,269.8,68.9z M294.1,50.7V70h-1.3v-3.2c-0.5,1.1-1.3,1.9-2.3,2.4c-1,0.6-2.1,0.9-3.3,0.9
	c-1.3,0-2.4-0.3-3.4-0.9c-1-0.6-1.8-1.4-2.4-2.4c-0.6-1-0.9-2.2-0.9-3.6s0.3-2.5,0.9-3.6c0.6-1,1.4-1.9,2.4-2.4s2.2-0.9,3.4-0.9
	c1.2,0,2.3,0.3,3.3,0.9c1,0.6,1.7,1.4,2.3,2.4v-8.9H294.1z M287.4,68.9c1,0,2-0.2,2.8-0.7s1.5-1.2,2-2c0.5-0.9,0.7-1.9,0.7-3
	s-0.2-2.1-0.7-3c-0.5-0.9-1.1-1.5-2-2s-1.8-0.7-2.8-0.7c-1,0-2,0.2-2.8,0.7s-1.5,1.2-2,2c-0.5,0.9-0.7,1.9-0.7,3s0.2,2.1,0.7,3
	c0.5,0.9,1.1,1.5,2,2S286.3,68.9,287.4,68.9z M299.6,56.4h1.3V70h-1.3V56.4z M300.3,53.1c-0.3,0-0.5-0.1-0.8-0.3
	c-0.2-0.2-0.3-0.4-0.3-0.7c0-0.3,0.1-0.5,0.3-0.8c0.2-0.2,0.5-0.3,0.8-0.3c0.3,0,0.5,0.1,0.8,0.3c0.2,0.2,0.3,0.4,0.3,0.7
	c0,0.3-0.1,0.5-0.3,0.8C300.8,53,300.5,53.1,300.3,53.1z M313,56.3c1.7,0,3,0.5,4,1.5c1,1,1.5,2.4,1.5,4.3V70h-1.3v-7.8
	c0-1.5-0.4-2.7-1.2-3.5c-0.8-0.8-1.9-1.2-3.2-1.2c-1.6,0-2.9,0.5-3.8,1.4s-1.4,2.2-1.4,3.8V70h-1.3V56.4h1.2v2.9
	c0.5-1,1.2-1.7,2.1-2.2C310.7,56.6,311.8,56.3,313,56.3z M336.1,56.4v12.1c0,2.3-0.5,3.9-1.6,5c-1.1,1.1-2.7,1.6-4.9,1.6
	c-1.2,0-2.4-0.2-3.5-0.6c-1.1-0.4-2-0.9-2.7-1.6l0.7-1c0.7,0.6,1.5,1.1,2.4,1.5c1,0.3,2,0.5,3,0.5c1.8,0,3.1-0.4,4-1.3
	c0.9-0.9,1.3-2.2,1.3-4v-2.3c-0.6,1-1.3,1.8-2.3,2.3c-1,0.5-2.1,0.8-3.3,0.8c-1.3,0-2.4-0.3-3.4-0.8c-1-0.6-1.8-1.3-2.4-2.4
	c-0.6-1-0.9-2.1-0.9-3.4c0-1.3,0.3-2.4,0.9-3.4c0.6-1,1.4-1.8,2.4-2.3c1-0.6,2.2-0.8,3.4-0.8c1.2,0,2.4,0.3,3.4,0.8
	c1,0.6,1.8,1.3,2.3,2.3v-3.1H336.1z M329.3,68.3c1.1,0,2-0.2,2.9-0.7s1.5-1.1,2-1.9c0.5-0.8,0.7-1.8,0.7-2.8s-0.2-2-0.7-2.8
	c-0.5-0.8-1.1-1.5-2-1.9s-1.8-0.7-2.9-0.7s-2,0.2-2.8,0.7s-1.5,1.1-2,1.9c-0.5,0.8-0.7,1.8-0.7,2.8s0.2,2,0.7,2.8
	c0.5,0.8,1.1,1.5,2,1.9S328.2,68.3,329.3,68.3z M355.2,51.8c2.3,0,4.1,0.5,5.4,1.6c1.3,1.1,2,2.6,2,4.5c0,1.9-0.6,3.4-2,4.5
	c-1.3,1.1-3.1,1.6-5.4,1.6H350v6h-1.3V51.8H355.2z M355.2,62.8c1.9,0,3.4-0.4,4.4-1.3s1.5-2.1,1.5-3.6c0-1.6-0.5-2.8-1.5-3.7
	c-1-0.9-2.5-1.3-4.4-1.3H350v9.9H355.2z M366.9,50.7h1.3V70h-1.3V50.7z M378.3,56.3c1.7,0,3,0.4,3.9,1.3s1.4,2.1,1.4,3.8V70h-1.2
	v-2.4c-0.4,0.8-1.1,1.4-1.9,1.9s-1.8,0.7-3,0.7c-1.5,0-2.7-0.4-3.6-1.1s-1.3-1.6-1.3-2.8c0-1.1,0.4-2,1.2-2.7s2.1-1.1,3.9-1.1h4.7
	v-1.1c0-1.3-0.3-2.2-1-2.9c-0.7-0.7-1.7-1-3-1c-0.9,0-1.8,0.2-2.6,0.5c-0.8,0.3-1.5,0.7-2.1,1.2l-0.6-0.9c0.7-0.6,1.5-1.1,2.4-1.4
	S377.2,56.3,378.3,56.3z M377.5,69c1.1,0,2.1-0.3,2.9-0.8c0.8-0.5,1.4-1.3,1.8-2.3v-2.5h-4.6c-1.3,0-2.3,0.2-2.9,0.7
	c-0.6,0.5-0.9,1.2-0.9,2c0,0.9,0.3,1.6,1,2.1C375.4,68.8,376.3,69,377.5,69z M395.5,56.3c1.7,0,3,0.5,4,1.5c1,1,1.5,2.4,1.5,4.3V70
	h-1.3v-7.8c0-1.5-0.4-2.7-1.2-3.5c-0.8-0.8-1.9-1.2-3.2-1.2c-1.6,0-2.9,0.5-3.8,1.4s-1.4,2.2-1.4,3.8V70h-1.3V56.4h1.2v2.9
	c0.5-1,1.2-1.7,2.1-2.2C393.1,56.6,394.2,56.3,395.5,56.3z M413,56.3c1.7,0,3,0.5,4,1.5c1,1,1.5,2.4,1.5,4.3V70h-1.3v-7.8
	c0-1.5-0.4-2.7-1.2-3.5c-0.8-0.8-1.9-1.2-3.2-1.2c-1.6,0-2.9,0.5-3.8,1.4s-1.4,2.2-1.4,3.8V70h-1.3V56.4h1.2v2.9
	c0.5-1,1.2-1.7,2.1-2.2C410.6,56.6,411.7,56.3,413,56.3z M435.3,63.5h-11.7c0,1.1,0.3,2,0.8,2.8c0.5,0.8,1.2,1.5,2,1.9
	s1.8,0.7,2.9,0.7c0.9,0,1.7-0.2,2.5-0.5c0.8-0.3,1.4-0.8,1.9-1.4l0.8,0.9c-0.6,0.7-1.3,1.3-2.2,1.6c-0.9,0.4-1.9,0.6-2.9,0.6
	c-1.4,0-2.6-0.3-3.6-0.9c-1.1-0.6-1.9-1.4-2.5-2.4c-0.6-1-0.9-2.2-0.9-3.6c0-1.3,0.3-2.5,0.8-3.5c0.6-1,1.3-1.9,2.3-2.5
	s2.1-0.9,3.3-0.9c1.2,0,2.3,0.3,3.3,0.9s1.8,1.4,2.3,2.4c0.6,1,0.8,2.2,0.8,3.5L435.3,63.5z M428.8,57.5c-1,0-1.8,0.2-2.6,0.6
	c-0.8,0.4-1.4,1-1.8,1.8c-0.5,0.8-0.7,1.6-0.8,2.6H434c-0.1-1-0.3-1.8-0.8-2.6c-0.5-0.8-1.1-1.4-1.8-1.8S429.8,57.5,428.8,57.5z
	 M440.6,59.4c0.4-1,1.1-1.7,1.9-2.3c0.9-0.5,2-0.8,3.2-0.8v1.3l-0.3,0c-1.5,0-2.7,0.5-3.5,1.4s-1.3,2.3-1.3,3.9V70h-1.3V56.4h1.2
	V59.4z M467.5,60.6c1.3,0.2,2.3,0.8,3,1.5c0.7,0.8,1,1.8,1,3c0,1.5-0.6,2.7-1.7,3.6c-1.1,0.8-2.8,1.2-5,1.2h-8.1V51.8h7.6
	c2,0,3.5,0.4,4.6,1.2s1.7,2,1.7,3.4c0,1-0.3,1.9-0.8,2.6C469.2,59.8,468.4,60.3,467.5,60.6z M458,52.9v7.3h6.2
	c1.6,0,2.8-0.3,3.7-0.9c0.9-0.6,1.3-1.5,1.3-2.7c0-1.2-0.4-2.1-1.3-2.7s-2.1-0.9-3.7-0.9H458z M464.8,68.9c1.8,0,3.1-0.3,4-0.9
	c0.9-0.6,1.4-1.6,1.4-2.8c0-1.3-0.5-2.2-1.4-2.8s-2.2-0.9-4-0.9H458v7.5H464.8z M487.7,56.4V70h-1.2v-2.9c-0.5,1-1.1,1.7-2,2.2
	c-0.9,0.5-1.9,0.8-3.1,0.8c-1.8,0-3.2-0.5-4.2-1.5s-1.5-2.4-1.5-4.3v-7.9h1.3v7.8c0,1.5,0.4,2.7,1.2,3.5c0.8,0.8,1.9,1.2,3.3,1.2
	c1.5,0,2.7-0.5,3.6-1.4s1.3-2.2,1.3-3.8v-7.2H487.7z M496.7,70.1c-1.1,0-2.1-0.2-3.1-0.5s-1.8-0.7-2.3-1.2l0.6-1
	c0.6,0.5,1.3,0.9,2.1,1.2c0.9,0.3,1.8,0.5,2.7,0.5c1.4,0,2.4-0.2,3-0.7c0.6-0.5,1-1.1,1-1.9c0-0.6-0.2-1-0.5-1.4
	c-0.4-0.3-0.8-0.6-1.3-0.7c-0.5-0.2-1.2-0.3-2.2-0.5c-1.1-0.2-1.9-0.4-2.6-0.6s-1.2-0.6-1.7-1.1c-0.5-0.5-0.7-1.2-0.7-2.1
	c0-1.1,0.4-2,1.3-2.7s2.2-1.1,3.8-1.1c0.9,0,1.7,0.1,2.6,0.4s1.5,0.6,2.1,1l-0.6,1c-0.6-0.4-1.2-0.7-1.9-0.9
	c-0.7-0.2-1.4-0.3-2.2-0.3c-1.3,0-2.2,0.2-2.9,0.7s-1,1.1-1,1.8c0,0.6,0.2,1.1,0.5,1.4c0.4,0.3,0.8,0.6,1.3,0.8s1.3,0.3,2.2,0.5
	c1.1,0.2,1.9,0.4,2.6,0.6s1.2,0.6,1.7,1.1c0.5,0.5,0.7,1.2,0.7,2c0,1.1-0.5,2-1.4,2.7C499.7,69.8,498.4,70.1,496.7,70.1z
	 M505.7,56.4h1.3V70h-1.3V56.4z M506.3,53.1c-0.3,0-0.5-0.1-0.8-0.3s-0.3-0.4-0.3-0.7c0-0.3,0.1-0.5,0.3-0.8s0.5-0.3,0.8-0.3
	s0.5,0.1,0.8,0.3s0.3,0.4,0.3,0.7c0,0.3-0.1,0.5-0.3,0.8S506.6,53.1,506.3,53.1z M519.1,56.3c1.7,0,3,0.5,4,1.5c1,1,1.5,2.4,1.5,4.3
	V70h-1.3v-7.8c0-1.5-0.4-2.7-1.2-3.5c-0.8-0.8-1.9-1.2-3.2-1.2c-1.6,0-2.9,0.5-3.8,1.4c-0.9,1-1.4,2.2-1.4,3.8V70h-1.3V56.4h1.2v2.9
	c0.5-1,1.2-1.7,2.1-2.2C516.7,56.6,517.8,56.3,519.1,56.3z M541.4,63.5h-11.7c0,1.1,0.3,2,0.8,2.8c0.5,0.8,1.2,1.5,2,1.9
	c0.9,0.5,1.8,0.7,2.9,0.7c0.9,0,1.7-0.2,2.5-0.5c0.8-0.3,1.4-0.8,1.9-1.4l0.8,0.9c-0.6,0.7-1.3,1.3-2.2,1.6
	c-0.9,0.4-1.9,0.6-2.9,0.6c-1.4,0-2.6-0.3-3.6-0.9c-1.1-0.6-1.9-1.4-2.5-2.4c-0.6-1-0.9-2.2-0.9-3.6c0-1.3,0.3-2.5,0.8-3.5
	s1.3-1.9,2.3-2.5c1-0.6,2.1-0.9,3.3-0.9c1.2,0,2.3,0.3,3.3,0.9c1,0.6,1.8,1.4,2.3,2.4s0.8,2.2,0.8,3.5L541.4,63.5z M535,57.5
	c-1,0-1.8,0.2-2.6,0.6s-1.4,1-1.8,1.8c-0.5,0.8-0.7,1.6-0.8,2.6h10.4c-0.1-1-0.3-1.8-0.8-2.6c-0.5-0.8-1.1-1.4-1.8-1.8
	C536.8,57.7,535.9,57.5,535,57.5z M548.9,70.1c-1.1,0-2.1-0.2-3.1-0.5c-1-0.3-1.8-0.7-2.3-1.2l0.6-1c0.6,0.5,1.3,0.9,2.1,1.2
	c0.9,0.3,1.8,0.5,2.7,0.5c1.4,0,2.4-0.2,3-0.7c0.7-0.5,1-1.1,1-1.9c0-0.6-0.2-1-0.5-1.4c-0.4-0.3-0.8-0.6-1.3-0.7
	c-0.5-0.2-1.2-0.3-2.2-0.5c-1.1-0.2-1.9-0.4-2.6-0.6c-0.7-0.2-1.2-0.6-1.7-1.1c-0.5-0.5-0.7-1.2-0.7-2.1c0-1.1,0.4-2,1.3-2.7
	c0.9-0.7,2.2-1.1,3.8-1.1c0.9,0,1.7,0.1,2.6,0.4s1.5,0.6,2.1,1l-0.6,1c-0.6-0.4-1.2-0.7-1.9-0.9c-0.7-0.2-1.4-0.3-2.2-0.3
	c-1.3,0-2.2,0.2-2.9,0.7c-0.6,0.5-1,1.1-1,1.8c0,0.6,0.2,1.1,0.5,1.4c0.4,0.3,0.8,0.6,1.3,0.8s1.3,0.3,2.2,0.5
	c1.1,0.2,1.9,0.4,2.6,0.6s1.2,0.6,1.7,1.1c0.5,0.5,0.7,1.2,0.7,2c0,1.1-0.5,2-1.4,2.7C551.9,69.8,550.6,70.1,548.9,70.1z
	 M561.3,70.1c-1.1,0-2.1-0.2-3.1-0.5c-1-0.3-1.8-0.7-2.3-1.2l0.6-1c0.6,0.5,1.3,0.9,2.1,1.2c0.9,0.3,1.8,0.5,2.7,0.5
	c1.4,0,2.4-0.2,3-0.7c0.7-0.5,1-1.1,1-1.9c0-0.6-0.2-1-0.5-1.4c-0.4-0.3-0.8-0.6-1.3-0.7c-0.5-0.2-1.2-0.3-2.2-0.5
	c-1.1-0.2-1.9-0.4-2.6-0.6c-0.7-0.2-1.2-0.6-1.7-1.1c-0.5-0.5-0.7-1.2-0.7-2.1c0-1.1,0.4-2,1.3-2.7c0.9-0.7,2.2-1.1,3.8-1.1
	c0.9,0,1.7,0.1,2.6,0.4c0.8,0.2,1.5,0.6,2.1,1l-0.6,1c-0.6-0.4-1.2-0.7-1.9-0.9c-0.7-0.2-1.4-0.3-2.2-0.3c-1.3,0-2.2,0.2-2.9,0.7
	c-0.6,0.5-1,1.1-1,1.8c0,0.6,0.2,1.1,0.5,1.4s0.8,0.6,1.3,0.8s1.3,0.3,2.2,0.5c1.1,0.2,1.9,0.4,2.6,0.6c0.7,0.2,1.2,0.6,1.7,1.1
	c0.5,0.5,0.7,1.2,0.7,2c0,1.1-0.5,2-1.4,2.7C564.3,69.8,563,70.1,561.3,70.1z M581.8,63.5h-11.7c0,1.1,0.3,2,0.8,2.8
	c0.5,0.8,1.2,1.5,2,1.9c0.9,0.5,1.8,0.7,2.9,0.7c0.9,0,1.7-0.2,2.5-0.5c0.8-0.3,1.4-0.8,1.9-1.4l0.8,0.9c-0.6,0.7-1.3,1.3-2.2,1.6
	c-0.9,0.4-1.9,0.6-2.9,0.6c-1.4,0-2.6-0.3-3.6-0.9c-1.1-0.6-1.9-1.4-2.5-2.4c-0.6-1-0.9-2.2-0.9-3.6c0-1.3,0.3-2.5,0.8-3.5
	s1.3-1.9,2.3-2.5c1-0.6,2.1-0.9,3.3-0.9c1.2,0,2.3,0.3,3.3,0.9c1,0.6,1.8,1.4,2.3,2.4s0.8,2.2,0.8,3.5L581.8,63.5z M575.3,57.5
	c-1,0-1.8,0.2-2.6,0.6s-1.4,1-1.8,1.8c-0.5,0.8-0.7,1.6-0.8,2.6h10.4c-0.1-1-0.3-1.8-0.8-2.6c-0.5-0.8-1.1-1.4-1.8-1.8
	C577.1,57.7,576.3,57.5,575.3,57.5z M589.3,70.1c-1.1,0-2.1-0.2-3.1-0.5c-1-0.3-1.8-0.7-2.3-1.2l0.6-1c0.6,0.5,1.3,0.9,2.1,1.2
	c0.9,0.3,1.8,0.5,2.7,0.5c1.4,0,2.4-0.2,3-0.7c0.7-0.5,1-1.1,1-1.9c0-0.6-0.2-1-0.5-1.4c-0.4-0.3-0.8-0.6-1.3-0.7
	c-0.5-0.2-1.2-0.3-2.2-0.5c-1.1-0.2-1.9-0.4-2.6-0.6c-0.7-0.2-1.2-0.6-1.7-1.1c-0.5-0.5-0.7-1.2-0.7-2.1c0-1.1,0.4-2,1.3-2.7
	c0.9-0.7,2.2-1.1,3.8-1.1c0.9,0,1.7,0.1,2.6,0.4c0.8,0.2,1.5,0.6,2.1,1l-0.6,1c-0.6-0.4-1.2-0.7-1.9-0.9c-0.7-0.2-1.4-0.3-2.2-0.3
	c-1.3,0-2.2,0.2-2.9,0.7c-0.6,0.5-1,1.1-1,1.8c0,0.6,0.2,1.1,0.5,1.4s0.8,0.6,1.3,0.8s1.3,0.3,2.2,0.5c1.1,0.2,1.9,0.4,2.6,0.6
	s1.2,0.6,1.7,1.1c0.5,0.5,0.7,1.2,0.7,2c0,1.1-0.5,2-1.4,2.7C592.3,69.8,591,70.1,589.3,70.1z"/>
</svg>
