<?xml version="1.0" encoding="UTF-8"?>
<svg width="129px" height="1990px" viewBox="0 0 129 1990" version="1.1" xmlns="http://www.w3.org/2000/svg" xmlns:xlink="http://www.w3.org/1999/xlink">
    <!-- Generator: Sketch 46.2 (44496) - http://www.bohemiancoding.com/sketch -->
    <title>ruler</title>
    <desc>Created with Sketch.</desc>
    <defs></defs>
    <g id="Page-1" stroke="none" stroke-width="1" fill="none" fill-rule="evenodd">
        <g id="ruler" fill-rule="nonzero" fill="#000000">
            <path d="M15.688,509.624 C16.9893398,510.200003 17.9919965,510.999995 18.696,512.024 C19.4000035,513.048005 19.752,514.221327 19.752,515.544 C19.752,517.080008 19.3840037,518.429328 18.648,519.592 C17.9119963,520.754672 16.8666734,521.650664 15.512,522.28 C14.1573266,522.909336 12.584009,523.224 10.792,523.224 C9.3413261,523.224 7.8320078,522.973336 6.264,522.472 C4.6959922,521.970664 3.3146726,521.314671 2.12,520.504 L4.072,516.728 C5.0106714,517.496004 6.013328,518.093331 7.08,518.52 C8.146672,518.946669 9.2026614,519.16 10.248,519.16 C11.506673,519.16 12.498663,518.86667 13.224,518.28 C13.949337,517.69333 14.312,516.898672 14.312,515.896 C14.312,514.914662 13.9546702,514.162669 13.24,513.64 C12.5253298,513.117331 11.464007,512.856 10.056,512.856 C9.2666627,512.856 8.2266731,512.872 6.936,512.904 C5.6453269,512.936 4.6693366,512.984 4.008,513.048 L4.008,500.6 L18.728,500.6 L18.728,504.824 L8.68,504.824 L8.68,508.76 L11.176,508.76 C12.8826752,508.76 14.3866602,509.047997 15.688,509.624 Z M39.496,503.352 C41.1813418,505.314676 42.024,508.130648 42.024,511.8 C42.024,515.448018 41.1813418,518.258657 39.496,520.232 C37.8106582,522.205343 35.4000157,523.192 32.264,523.192 C29.1066509,523.192 26.6800085,522.205343 24.984,520.232 C23.2879915,518.258657 22.44,515.448018 22.44,511.8 C22.44,508.130648 23.2879915,505.314676 24.984,503.352 C26.6800085,501.389324 29.1066509,500.408 32.264,500.408 C35.4000157,500.408 37.8106582,501.389324 39.496,503.352 Z M28.744,506.072 C27.9973296,507.266673 27.624,509.175987 27.624,511.8 C27.624,514.40268 27.9973296,516.306661 28.744,517.512 C29.4906704,518.717339 30.663992,519.32 32.264,519.32 C33.8213411,519.32 34.9733296,518.717339 35.72,517.512 C36.4666704,516.306661 36.84,514.40268 36.84,511.8 C36.84,509.175987 36.4666704,507.266673 35.72,506.072 C34.9733296,504.877327 33.8213411,504.28 32.264,504.28 C30.663992,504.28 29.4906704,504.877327 28.744,506.072 Z M62.056,503.352 C63.7413418,505.314676 64.584,508.130648 64.584,511.8 C64.584,515.448018 63.7413418,518.258657 62.056,520.232 C60.3706582,522.205343 57.9600157,523.192 54.824,523.192 C51.6666509,523.192 49.2400085,522.205343 47.544,520.232 C45.8479915,518.258657 45,515.448018 45,511.8 C45,508.130648 45.8479915,505.314676 47.544,503.352 C49.2400085,501.389324 51.6666509,500.408 54.824,500.408 C57.9600157,500.408 60.3706582,501.389324 62.056,503.352 Z M51.304,506.072 C50.5573296,507.266673 50.184,509.175987 50.184,511.8 C50.184,514.40268 50.5573296,516.306661 51.304,517.512 C52.0506704,518.717339 53.223992,519.32 54.824,519.32 C56.3813411,519.32 57.5333296,518.717339 58.28,517.512 C59.0266704,516.306661 59.4,514.40268 59.4,511.8 C59.4,509.175987 59.0266704,507.266673 58.28,506.072 C57.5333296,504.877327 56.3813411,504.28 54.824,504.28 C53.223992,504.28 52.0506704,504.877327 51.304,506.072 Z M83.192,506.728 C84.418673,507.464004 85.367997,508.503993 86.04,509.848 C86.712003,511.192007 87.048,512.738658 87.048,514.488 C87.048,516.216009 86.717337,517.735993 86.056,519.048 C85.394663,520.360007 84.461339,521.378663 83.256,522.104 C82.050661,522.829337 80.648008,523.192 79.048,523.192 C77.8533274,523.192 76.7920046,522.962669 75.864,522.504 C74.9359954,522.045331 74.1520032,521.378671 73.512,520.504 L73.512,529.208 L68.584,529.208 L68.584,505.784 L73.512,505.784 L73.512,508.312 C74.1306698,507.437329 74.9039954,506.770669 75.832,506.312 C76.7600046,505.853331 77.7999942,505.624 78.952,505.624 C80.552008,505.624 81.965327,505.991996 83.192,506.728 Z M80.872,517.768 C81.661337,516.882662 82.056,515.736007 82.056,514.328 C82.056,512.941326 81.661337,511.805338 80.872,510.92 C80.082663,510.034662 79.058673,509.592 77.8,509.592 C76.541327,509.592 75.512004,510.034662 74.712,510.92 C73.911996,511.805338 73.512,512.941326 73.512,514.328 C73.512,515.75734 73.911996,516.909329 74.712,517.784 C75.512004,518.658671 76.541327,519.096 77.8,519.096 C79.058673,519.096 80.082663,518.653338 80.872,517.768 Z M88.584,505.784 L94.216,505.784 L97.384,511 L100.744,505.784 L106.12,505.784 L100.648,514.168 L106.504,523 L100.84,523 L97.384,517.368 L93.608,523 L88.168,523 L94.12,514.2 L88.584,505.784 Z" id="500px"></path>
            <path d="M19.56,3.352 C21.2453418,5.3146765 22.088,8.1306483 22.088,11.8 C22.088,15.4480182 21.2453418,18.2586568 19.56,20.232 C17.8746582,22.2053432 15.4640157,23.192 12.328,23.192 C9.1706509,23.192 6.7440085,22.2053432 5.048,20.232 C3.3519915,18.2586568 2.504,15.4480182 2.504,11.8 C2.504,8.1306483 3.3519915,5.3146765 5.048,3.352 C6.7440085,1.38932352 9.1706509,0.408 12.328,0.408 C15.4640157,0.408 17.8746582,1.38932352 19.56,3.352 Z M8.808,6.072 C8.0613296,7.2666726 7.688,9.1759869 7.688,11.8 C7.688,14.4026797 8.0613296,16.3066606 8.808,17.512 C9.5546704,18.7173394 10.727992,19.32 12.328,19.32 C13.8853411,19.32 15.0373296,18.7173394 15.784,17.512 C16.5306704,16.3066606 16.904,14.4026797 16.904,11.8 C16.904,9.1759869 16.5306704,7.2666726 15.784,6.072 C15.0373296,4.8773274 13.8853411,4.28 12.328,4.28 C10.727992,4.28 9.5546704,4.8773274 8.808,6.072 Z M40.696,6.728 C41.9226728,7.4640037 42.8719966,8.5039933 43.544,9.848 C44.2160034,11.1920067 44.552,12.7386579 44.552,14.488 C44.552,16.2160086 44.2213366,17.7359934 43.56,19.048 C42.8986634,20.3600066 41.9653394,21.378663 40.76,22.104 C39.5546606,22.829337 38.152008,23.192 36.552,23.192 C35.3573274,23.192 34.2960046,22.962669 33.368,22.504 C32.4399954,22.045331 31.6560032,21.378671 31.016,20.504 L31.016,29.208 L26.088,29.208 L26.088,5.784 L31.016,5.784 L31.016,8.312 C31.6346698,7.437329 32.4079954,6.770669 33.336,6.312 C34.2640046,5.853331 35.3039942,5.624 36.456,5.624 C38.056008,5.624 39.4693272,5.9919963 40.696,6.728 Z M38.376,17.768 C39.1653373,16.8826622 39.56,15.736007 39.56,14.328 C39.56,12.9413264 39.1653373,11.8053378 38.376,10.92 C37.5866627,10.0346622 36.562673,9.592 35.304,9.592 C34.045327,9.592 33.016004,10.0346622 32.216,10.92 C31.415996,11.8053378 31.016,12.9413264 31.016,14.328 C31.016,15.7573405 31.415996,16.909329 32.216,17.784 C33.016004,18.658671 34.045327,19.096 35.304,19.096 C36.562673,19.096 37.5866627,18.6533378 38.376,17.768 Z M46.088,5.784 L51.72,5.784 L54.888,11 L58.248,5.784 L63.624,5.784 L58.152,14.168 L64.008,23 L58.344,23 L54.888,17.368 L51.112,23 L45.672,23 L51.624,14.2 L46.088,5.784 Z" id="0px"></path>
            <path d="M16.52,801.992 C17.9066736,803.069339 18.6,804.525324 18.6,806.36 C18.6,807.341338 18.3386693,808.242663 17.816,809.064 C17.2933307,809.885337 16.5840045,810.541331 15.688,811.032 C16.946673,811.522669 17.938663,812.269328 18.664,813.272 C19.389337,814.274672 19.752,815.415994 19.752,816.696 C19.752,818.018673 19.389337,819.170662 18.664,820.152 C17.938663,821.133338 16.90934,821.890664 15.576,822.424 C14.24266,822.957336 12.680009,823.224 10.888,823.224 C9.1173245,823.224 7.56534,822.962669 6.232,822.44 C4.89866,821.917331 3.869337,821.170672 3.144,820.2 C2.418663,819.229328 2.056,818.09334 2.056,816.792 C2.056,815.511994 2.4399962,814.354672 3.208,813.32 C3.9760038,812.285328 5.0213267,811.522669 6.344,811.032 C5.3626618,810.498664 4.5893362,809.805338 4.024,808.952 C3.4586638,808.098662 3.176,807.170672 3.176,806.168 C3.176,804.397324 3.8693264,802.989339 5.256,801.944 C6.6426736,800.898661 8.5093216,800.376 10.856,800.376 C13.2453453,800.376 15.1333264,800.914661 16.52,801.992 Z M8.312,804.584 C7.703997,805.064002 7.4,805.741329 7.4,806.616 C7.4,807.469338 7.703997,808.135998 8.312,808.616 C8.920003,809.096002 9.7786611,809.336 10.888,809.336 C11.9973389,809.336 12.855997,809.101336 13.464,808.632 C14.072003,808.162664 14.376,807.490671 14.376,806.616 C14.376,805.741329 14.072003,805.064002 13.464,804.584 C12.855997,804.103998 11.9973389,803.864 10.888,803.864 C9.7786611,803.864 8.920003,804.103998 8.312,804.584 Z M7.864,813.944 C7.1493298,814.477336 6.792,815.245328 6.792,816.248 C6.792,817.250672 7.1493298,818.029331 7.864,818.584 C8.5786702,819.138669 9.5866602,819.416 10.888,819.416 C12.1893398,819.416 13.202663,819.144003 13.928,818.6 C14.653337,818.055997 15.016,817.282672 15.016,816.28 C15.016,815.277328 14.653337,814.504003 13.928,813.96 C13.202663,813.415997 12.1893398,813.144 10.888,813.144 C9.5866602,813.144 8.5786702,813.410664 7.864,813.944 Z M39.784,803.352 C41.4693418,805.314676 42.312,808.130648 42.312,811.8 C42.312,815.448018 41.4693418,818.258657 39.784,820.232 C38.0986582,822.205343 35.6880157,823.192 32.552,823.192 C29.3946509,823.192 26.9680085,822.205343 25.272,820.232 C23.5759915,818.258657 22.728,815.448018 22.728,811.8 C22.728,808.130648 23.5759915,805.314676 25.272,803.352 C26.9680085,801.389324 29.3946509,800.408 32.552,800.408 C35.6880157,800.408 38.0986582,801.389324 39.784,803.352 Z M29.032,806.072 C28.2853296,807.266673 27.912,809.175987 27.912,811.8 C27.912,814.40268 28.2853296,816.306661 29.032,817.512 C29.7786704,818.717339 30.951992,819.32 32.552,819.32 C34.1093411,819.32 35.2613296,818.717339 36.008,817.512 C36.7546704,816.306661 37.128,814.40268 37.128,811.8 C37.128,809.175987 36.7546704,807.266673 36.008,806.072 C35.2613296,804.877327 34.1093411,804.28 32.552,804.28 C30.951992,804.28 29.7786704,804.877327 29.032,806.072 Z M62.344,803.352 C64.0293418,805.314676 64.872,808.130648 64.872,811.8 C64.872,815.448018 64.0293418,818.258657 62.344,820.232 C60.6586582,822.205343 58.2480157,823.192 55.112,823.192 C51.9546509,823.192 49.5280085,822.205343 47.832,820.232 C46.1359915,818.258657 45.288,815.448018 45.288,811.8 C45.288,808.130648 46.1359915,805.314676 47.832,803.352 C49.5280085,801.389324 51.9546509,800.408 55.112,800.408 C58.2480157,800.408 60.6586582,801.389324 62.344,803.352 Z M51.592,806.072 C50.8453296,807.266673 50.472,809.175987 50.472,811.8 C50.472,814.40268 50.8453296,816.306661 51.592,817.512 C52.3386704,818.717339 53.511992,819.32 55.112,819.32 C56.6693411,819.32 57.8213296,818.717339 58.568,817.512 C59.3146704,816.306661 59.688,814.40268 59.688,811.8 C59.688,809.175987 59.3146704,807.266673 58.568,806.072 C57.8213296,804.877327 56.6693411,804.28 55.112,804.28 C53.511992,804.28 52.3386704,804.877327 51.592,806.072 Z M83.48,806.728 C84.706673,807.464004 85.655997,808.503993 86.328,809.848 C87.000003,811.192007 87.336,812.738658 87.336,814.488 C87.336,816.216009 87.005337,817.735993 86.344,819.048 C85.682663,820.360007 84.749339,821.378663 83.544,822.104 C82.338661,822.829337 80.936008,823.192 79.336,823.192 C78.1413274,823.192 77.0800046,822.962669 76.152,822.504 C75.2239954,822.045331 74.4400032,821.378671 73.8,820.504 L73.8,829.208 L68.872,829.208 L68.872,805.784 L73.8,805.784 L73.8,808.312 C74.4186698,807.437329 75.1919954,806.770669 76.12,806.312 C77.0480046,805.853331 78.0879942,805.624 79.24,805.624 C80.840008,805.624 82.253327,805.991996 83.48,806.728 Z M81.16,817.768 C81.949337,816.882662 82.344,815.736007 82.344,814.328 C82.344,812.941326 81.949337,811.805338 81.16,810.92 C80.370663,810.034662 79.346673,809.592 78.088,809.592 C76.829327,809.592 75.800004,810.034662 75,810.92 C74.199996,811.805338 73.8,812.941326 73.8,814.328 C73.8,815.75734 74.199996,816.909329 75,817.784 C75.800004,818.658671 76.829327,819.096 78.088,819.096 C79.346673,819.096 80.370663,818.653338 81.16,817.768 Z M88.872,805.784 L94.504,805.784 L97.672,811 L101.032,805.784 L106.408,805.784 L100.936,814.168 L106.792,823 L101.128,823 L97.672,817.368 L93.896,823 L88.456,823 L94.408,814.2 L88.872,805.784 Z" id="800px"></path>
            <path d="M0.776,1000.6 L10.344,1000.6 L10.344,1023 L5.288,1023 L5.288,1004.888 L0.776,1004.888 L0.776,1000.6 Z M32.136,1003.352 C33.8213418,1005.31468 34.664,1008.13065 34.664,1011.8 C34.664,1015.44802 33.8213418,1018.25866 32.136,1020.232 C30.4506582,1022.20534 28.0400157,1023.192 24.904,1023.192 C21.7466509,1023.192 19.3200085,1022.20534 17.624,1020.232 C15.9279915,1018.25866 15.08,1015.44802 15.08,1011.8 C15.08,1008.13065 15.9279915,1005.31468 17.624,1003.352 C19.3200085,1001.38932 21.7466509,1000.408 24.904,1000.408 C28.0400157,1000.408 30.4506582,1001.38932 32.136,1003.352 Z M21.384,1006.072 C20.6373296,1007.26667 20.264,1009.17599 20.264,1011.8 C20.264,1014.40268 20.6373296,1016.30666 21.384,1017.512 C22.1306704,1018.71734 23.303992,1019.32 24.904,1019.32 C26.4613411,1019.32 27.6133296,1018.71734 28.36,1017.512 C29.1066704,1016.30666 29.48,1014.40268 29.48,1011.8 C29.48,1009.17599 29.1066704,1007.26667 28.36,1006.072 C27.6133296,1004.87733 26.4613411,1004.28 24.904,1004.28 C23.303992,1004.28 22.1306704,1004.87733 21.384,1006.072 Z M54.696,1003.352 C56.3813418,1005.31468 57.224,1008.13065 57.224,1011.8 C57.224,1015.44802 56.3813418,1018.25866 54.696,1020.232 C53.0106582,1022.20534 50.6000157,1023.192 47.464,1023.192 C44.3066509,1023.192 41.8800085,1022.20534 40.184,1020.232 C38.4879915,1018.25866 37.64,1015.44802 37.64,1011.8 C37.64,1008.13065 38.4879915,1005.31468 40.184,1003.352 C41.8800085,1001.38932 44.3066509,1000.408 47.464,1000.408 C50.6000157,1000.408 53.0106582,1001.38932 54.696,1003.352 Z M43.944,1006.072 C43.1973296,1007.26667 42.824,1009.17599 42.824,1011.8 C42.824,1014.40268 43.1973296,1016.30666 43.944,1017.512 C44.6906704,1018.71734 45.863992,1019.32 47.464,1019.32 C49.0213411,1019.32 50.1733296,1018.71734 50.92,1017.512 C51.6666704,1016.30666 52.04,1014.40268 52.04,1011.8 C52.04,1009.17599 51.6666704,1007.26667 50.92,1006.072 C50.1733296,1004.87733 49.0213411,1004.28 47.464,1004.28 C45.863992,1004.28 44.6906704,1004.87733 43.944,1006.072 Z M77.256,1003.352 C78.9413418,1005.31468 79.784,1008.13065 79.784,1011.8 C79.784,1015.44802 78.9413418,1018.25866 77.256,1020.232 C75.5706582,1022.20534 73.1600157,1023.192 70.024,1023.192 C66.8666509,1023.192 64.4400085,1022.20534 62.744,1020.232 C61.0479915,1018.25866 60.2,1015.44802 60.2,1011.8 C60.2,1008.13065 61.0479915,1005.31468 62.744,1003.352 C64.4400085,1001.38932 66.8666509,1000.408 70.024,1000.408 C73.1600157,1000.408 75.5706582,1001.38932 77.256,1003.352 Z M66.504,1006.072 C65.7573296,1007.26667 65.384,1009.17599 65.384,1011.8 C65.384,1014.40268 65.7573296,1016.30666 66.504,1017.512 C67.2506704,1018.71734 68.423992,1019.32 70.024,1019.32 C71.5813411,1019.32 72.7333296,1018.71734 73.48,1017.512 C74.2266704,1016.30666 74.6,1014.40268 74.6,1011.8 C74.6,1009.17599 74.2266704,1007.26667 73.48,1006.072 C72.7333296,1004.87733 71.5813411,1004.28 70.024,1004.28 C68.423992,1004.28 67.2506704,1004.87733 66.504,1006.072 Z M98.392,1006.728 C99.618673,1007.464 100.567997,1008.50399 101.24,1009.848 C101.912003,1011.19201 102.248,1012.73866 102.248,1014.488 C102.248,1016.21601 101.917337,1017.73599 101.256,1019.048 C100.594663,1020.36001 99.661339,1021.37866 98.456,1022.104 C97.250661,1022.82934 95.848008,1023.192 94.248,1023.192 C93.053327,1023.192 91.992005,1022.96267 91.064,1022.504 C90.135995,1022.04533 89.352003,1021.37867 88.712,1020.504 L88.712,1029.208 L83.784,1029.208 L83.784,1005.784 L88.712,1005.784 L88.712,1008.312 C89.33067,1007.43733 90.103995,1006.77067 91.032,1006.312 C91.960005,1005.85333 92.999994,1005.624 94.152,1005.624 C95.752008,1005.624 97.165327,1005.992 98.392,1006.728 Z M96.072,1017.768 C96.861337,1016.88266 97.256,1015.73601 97.256,1014.328 C97.256,1012.94133 96.861337,1011.80534 96.072,1010.92 C95.282663,1010.03466 94.258673,1009.592 93,1009.592 C91.741327,1009.592 90.712004,1010.03466 89.912,1010.92 C89.111996,1011.80534 88.712,1012.94133 88.712,1014.328 C88.712,1015.75734 89.111996,1016.90933 89.912,1017.784 C90.712004,1018.65867 91.741327,1019.096 93,1019.096 C94.258673,1019.096 95.282663,1018.65334 96.072,1017.768 Z M103.784,1005.784 L109.416,1005.784 L112.584,1011 L115.944,1005.784 L121.32,1005.784 L115.848,1014.168 L121.704,1023 L116.04,1023 L112.584,1017.368 L108.808,1023 L103.368,1023 L109.32,1014.2 L103.784,1005.784 Z" id="1000px"></path>
            <path d="M0.776,1500.6 L10.344,1500.6 L10.344,1523 L5.288,1523 L5.288,1504.888 L0.776,1504.888 L0.776,1500.6 Z M28.264,1509.624 C29.5653398,1510.2 30.5679965,1510.99999 31.272,1512.024 C31.9760035,1513.04801 32.328,1514.22133 32.328,1515.544 C32.328,1517.08001 31.9600037,1518.42933 31.224,1519.592 C30.4879963,1520.75467 29.4426734,1521.65066 28.088,1522.28 C26.7333266,1522.90934 25.160009,1523.224 23.368,1523.224 C21.9173261,1523.224 20.4080078,1522.97334 18.84,1522.472 C17.2719922,1521.97066 15.8906726,1521.31467 14.696,1520.504 L16.648,1516.728 C17.5866714,1517.496 18.589328,1518.09333 19.656,1518.52 C20.722672,1518.94667 21.7786614,1519.16 22.824,1519.16 C24.082673,1519.16 25.074663,1518.86667 25.8,1518.28 C26.525337,1517.69333 26.888,1516.89867 26.888,1515.896 C26.888,1514.91466 26.5306702,1514.16267 25.816,1513.64 C25.1013298,1513.11733 24.040007,1512.856 22.632,1512.856 C21.8426627,1512.856 20.8026731,1512.872 19.512,1512.904 C18.2213269,1512.936 17.2453366,1512.984 16.584,1513.048 L16.584,1500.6 L31.304,1500.6 L31.304,1504.824 L21.256,1504.824 L21.256,1508.76 L23.752,1508.76 C25.4586752,1508.76 26.9626602,1509.048 28.264,1509.624 Z M52.072,1503.352 C53.7573418,1505.31468 54.6,1508.13065 54.6,1511.8 C54.6,1515.44802 53.7573418,1518.25866 52.072,1520.232 C50.3866582,1522.20534 47.9760157,1523.192 44.84,1523.192 C41.6826509,1523.192 39.2560085,1522.20534 37.56,1520.232 C35.8639915,1518.25866 35.016,1515.44802 35.016,1511.8 C35.016,1508.13065 35.8639915,1505.31468 37.56,1503.352 C39.2560085,1501.38932 41.6826509,1500.408 44.84,1500.408 C47.9760157,1500.408 50.3866582,1501.38932 52.072,1503.352 Z M41.32,1506.072 C40.5733296,1507.26667 40.2,1509.17599 40.2,1511.8 C40.2,1514.40268 40.5733296,1516.30666 41.32,1517.512 C42.0666704,1518.71734 43.239992,1519.32 44.84,1519.32 C46.3973411,1519.32 47.5493296,1518.71734 48.296,1517.512 C49.0426704,1516.30666 49.416,1514.40268 49.416,1511.8 C49.416,1509.17599 49.0426704,1507.26667 48.296,1506.072 C47.5493296,1504.87733 46.3973411,1504.28 44.84,1504.28 C43.239992,1504.28 42.0666704,1504.87733 41.32,1506.072 Z M74.632,1503.352 C76.3173418,1505.31468 77.16,1508.13065 77.16,1511.8 C77.16,1515.44802 76.3173418,1518.25866 74.632,1520.232 C72.9466582,1522.20534 70.5360157,1523.192 67.4,1523.192 C64.2426509,1523.192 61.8160085,1522.20534 60.12,1520.232 C58.4239915,1518.25866 57.576,1515.44802 57.576,1511.8 C57.576,1508.13065 58.4239915,1505.31468 60.12,1503.352 C61.8160085,1501.38932 64.2426509,1500.408 67.4,1500.408 C70.5360157,1500.408 72.9466582,1501.38932 74.632,1503.352 Z M63.88,1506.072 C63.1333296,1507.26667 62.76,1509.17599 62.76,1511.8 C62.76,1514.40268 63.1333296,1516.30666 63.88,1517.512 C64.6266704,1518.71734 65.799992,1519.32 67.4,1519.32 C68.9573411,1519.32 70.1093296,1518.71734 70.856,1517.512 C71.6026704,1516.30666 71.976,1514.40268 71.976,1511.8 C71.976,1509.17599 71.6026704,1507.26667 70.856,1506.072 C70.1093296,1504.87733 68.9573411,1504.28 67.4,1504.28 C65.799992,1504.28 64.6266704,1504.87733 63.88,1506.072 Z M95.768,1506.728 C96.994673,1507.464 97.943997,1508.50399 98.616,1509.848 C99.288003,1511.19201 99.624,1512.73866 99.624,1514.488 C99.624,1516.21601 99.293337,1517.73599 98.632,1519.048 C97.970663,1520.36001 97.037339,1521.37866 95.832,1522.104 C94.626661,1522.82934 93.224008,1523.192 91.624,1523.192 C90.429327,1523.192 89.368005,1522.96267 88.44,1522.504 C87.511995,1522.04533 86.728003,1521.37867 86.088,1520.504 L86.088,1529.208 L81.16,1529.208 L81.16,1505.784 L86.088,1505.784 L86.088,1508.312 C86.70667,1507.43733 87.479995,1506.77067 88.408,1506.312 C89.336005,1505.85333 90.375994,1505.624 91.528,1505.624 C93.128008,1505.624 94.541327,1505.992 95.768,1506.728 Z M93.448,1517.768 C94.237337,1516.88266 94.632,1515.73601 94.632,1514.328 C94.632,1512.94133 94.237337,1511.80534 93.448,1510.92 C92.658663,1510.03466 91.634673,1509.592 90.376,1509.592 C89.117327,1509.592 88.088004,1510.03466 87.288,1510.92 C86.487996,1511.80534 86.088,1512.94133 86.088,1514.328 C86.088,1515.75734 86.487996,1516.90933 87.288,1517.784 C88.088004,1518.65867 89.117327,1519.096 90.376,1519.096 C91.634673,1519.096 92.658663,1518.65334 93.448,1517.768 Z M101.16,1505.784 L106.792,1505.784 L109.96,1511 L113.32,1505.784 L118.696,1505.784 L113.224,1514.168 L119.08,1523 L113.416,1523 L109.96,1517.368 L106.184,1523 L100.744,1523 L106.696,1514.2 L101.16,1505.784 Z" id="1500px"></path>
            <path d="M19.048,1978.776 L19.048,1983 L2.216,1983 L2.216,1979.512 L10.504,1970.968 C11.2506704,1970.22133 11.8426645,1969.49067 12.28,1968.776 C12.7173355,1968.06133 12.936,1967.43734 12.936,1966.904 C12.936,1966.2 12.6640027,1965.65067 12.12,1965.256 C11.5759973,1964.86133 10.8240048,1964.664 9.864,1964.664 C8.9039952,1964.664 7.8800054,1964.90933 6.792,1965.4 C5.7039946,1965.89067 4.6480051,1966.57333 3.624,1967.448 L1.64,1963.672 C4.5840147,1961.47466 7.5706515,1960.376 10.6,1960.376 C12.0933408,1960.376 13.4159942,1960.616 14.568,1961.096 C15.7200058,1961.576 16.6159968,1962.248 17.256,1963.112 C17.8960032,1963.976 18.216,1964.98399 18.216,1966.136 C18.216,1967.26667 17.8426704,1968.43999 17.096,1969.656 C16.3493296,1970.87201 15.2933402,1972.18399 13.928,1973.592 L8.776,1978.776 L19.048,1978.776 Z M38.664,1963.352 C40.3493418,1965.31468 41.192,1968.13065 41.192,1971.8 C41.192,1975.44802 40.3493418,1978.25866 38.664,1980.232 C36.9786582,1982.20534 34.5680157,1983.192 31.432,1983.192 C28.2746509,1983.192 25.8480085,1982.20534 24.152,1980.232 C22.4559915,1978.25866 21.608,1975.44802 21.608,1971.8 C21.608,1968.13065 22.4559915,1965.31468 24.152,1963.352 C25.8480085,1961.38932 28.2746509,1960.408 31.432,1960.408 C34.5680157,1960.408 36.9786582,1961.38932 38.664,1963.352 Z M27.912,1966.072 C27.1653296,1967.26667 26.792,1969.17599 26.792,1971.8 C26.792,1974.40268 27.1653296,1976.30666 27.912,1977.512 C28.6586704,1978.71734 29.831992,1979.32 31.432,1979.32 C32.9893411,1979.32 34.1413296,1978.71734 34.888,1977.512 C35.6346704,1976.30666 36.008,1974.40268 36.008,1971.8 C36.008,1969.17599 35.6346704,1967.26667 34.888,1966.072 C34.1413296,1964.87733 32.9893411,1964.28 31.432,1964.28 C29.831992,1964.28 28.6586704,1964.87733 27.912,1966.072 Z M61.224,1963.352 C62.9093418,1965.31468 63.752,1968.13065 63.752,1971.8 C63.752,1975.44802 62.9093418,1978.25866 61.224,1980.232 C59.5386582,1982.20534 57.1280157,1983.192 53.992,1983.192 C50.8346509,1983.192 48.4080085,1982.20534 46.712,1980.232 C45.0159915,1978.25866 44.168,1975.44802 44.168,1971.8 C44.168,1968.13065 45.0159915,1965.31468 46.712,1963.352 C48.4080085,1961.38932 50.8346509,1960.408 53.992,1960.408 C57.1280157,1960.408 59.5386582,1961.38932 61.224,1963.352 Z M50.472,1966.072 C49.7253296,1967.26667 49.352,1969.17599 49.352,1971.8 C49.352,1974.40268 49.7253296,1976.30666 50.472,1977.512 C51.2186704,1978.71734 52.391992,1979.32 53.992,1979.32 C55.5493411,1979.32 56.7013296,1978.71734 57.448,1977.512 C58.1946704,1976.30666 58.568,1974.40268 58.568,1971.8 C58.568,1969.17599 58.1946704,1967.26667 57.448,1966.072 C56.7013296,1964.87733 55.5493411,1964.28 53.992,1964.28 C52.391992,1964.28 51.2186704,1964.87733 50.472,1966.072 Z M83.784,1963.352 C85.469342,1965.31468 86.312,1968.13065 86.312,1971.8 C86.312,1975.44802 85.469342,1978.25866 83.784,1980.232 C82.098658,1982.20534 79.6880157,1983.192 76.552,1983.192 C73.3946509,1983.192 70.9680085,1982.20534 69.272,1980.232 C67.5759915,1978.25866 66.728,1975.44802 66.728,1971.8 C66.728,1968.13065 67.5759915,1965.31468 69.272,1963.352 C70.9680085,1961.38932 73.3946509,1960.408 76.552,1960.408 C79.6880157,1960.408 82.098658,1961.38932 83.784,1963.352 Z M73.032,1966.072 C72.2853296,1967.26667 71.912,1969.17599 71.912,1971.8 C71.912,1974.40268 72.2853296,1976.30666 73.032,1977.512 C73.7786704,1978.71734 74.951992,1979.32 76.552,1979.32 C78.1093411,1979.32 79.2613296,1978.71734 80.008,1977.512 C80.75467,1976.30666 81.128,1974.40268 81.128,1971.8 C81.128,1969.17599 80.75467,1967.26667 80.008,1966.072 C79.2613296,1964.87733 78.1093411,1964.28 76.552,1964.28 C74.951992,1964.28 73.7786704,1964.87733 73.032,1966.072 Z M104.92,1966.728 C106.146673,1967.464 107.095997,1968.50399 107.768,1969.848 C108.440003,1971.19201 108.776,1972.73866 108.776,1974.488 C108.776,1976.21601 108.445337,1977.73599 107.784,1979.048 C107.122663,1980.36001 106.189339,1981.37866 104.984,1982.104 C103.778661,1982.82934 102.376008,1983.192 100.776,1983.192 C99.581327,1983.192 98.520005,1982.96267 97.592,1982.504 C96.663995,1982.04533 95.880003,1981.37867 95.24,1980.504 L95.24,1989.208 L90.312,1989.208 L90.312,1965.784 L95.24,1965.784 L95.24,1968.312 C95.85867,1967.43733 96.631995,1966.77067 97.56,1966.312 C98.488005,1965.85333 99.527994,1965.624 100.68,1965.624 C102.280008,1965.624 103.693327,1965.992 104.92,1966.728 Z M102.6,1977.768 C103.389337,1976.88266 103.784,1975.73601 103.784,1974.328 C103.784,1972.94133 103.389337,1971.80534 102.6,1970.92 C101.810663,1970.03466 100.786673,1969.592 99.528,1969.592 C98.269327,1969.592 97.240004,1970.03466 96.44,1970.92 C95.639996,1971.80534 95.24,1972.94133 95.24,1974.328 C95.24,1975.75734 95.639996,1976.90933 96.44,1977.784 C97.240004,1978.65867 98.269327,1979.096 99.528,1979.096 C100.786673,1979.096 101.810663,1978.65334 102.6,1977.768 Z M110.312,1965.784 L115.944,1965.784 L119.112,1971 L122.472,1965.784 L127.848,1965.784 L122.376,1974.168 L128.232,1983 L122.568,1983 L119.112,1977.368 L115.336,1983 L109.896,1983 L115.848,1974.2 L110.312,1965.784 Z" id="2000px"></path>
        </g>
    </g>
</svg>