<svg xmlns="http://www.w3.org/2000/svg" width="147" height="52"><path fill="#5F9191" d="M64.1 23l2.9-7.1h.9l2.8 7.1h-1.2l-.8-1.9H66l-.7 1.9h-1.2zm3.3-5.9l-1.2 3.1h2.3l-1.1-3.1zm8.2 5.9v-7.1h1.1V22h3.8v1h-4.9zm9.9 0v-7.1h1.1V23h-1.1zm10.9-5.4c-.1-.1-.2-.2-.3-.2-.1-.1-.3-.2-.4-.2-.2-.1-.4-.1-.6-.2-.2 0-.4-.1-.7-.1-.4 0-.8.1-1 .3s-.3.4-.3.7c0 .2 0 .3.1.4l.3.3c.1.1.3.2.6.2s.5.1.8.2c.3.1.7.2 1 .3s.5.2.7.4c.2.1.4.3.5.6.1.2.2.5.2.8 0 .4-.1.7-.2.9-.1.3-.3.5-.6.6-.2.2-.5.3-.8.4-.3.1-.6.1-1 .1-.5 0-1.1-.1-1.6-.2-.5-.2-1-.4-1.4-.7l.5-1c.1.1.2.2.4.3.2.1.3.2.6.3.2.1.5.2.7.2s.5.1.8.1c.4 0 .8-.1 1-.2.2-.2.4-.4.4-.7 0-.2 0-.3-.1-.4-.1-.1-.2-.2-.4-.3-.2-.1-.4-.2-.6-.2-.2-.1-.5-.1-.8-.2-.4-.1-.7-.2-.9-.3s-.5-.2-.7-.4-.3-.3-.4-.5c-.1-.2-.1-.4-.1-.7 0-.3.1-.7.2-.9.1-.3.3-.5.5-.7s.5-.3.8-.4c.3-.1.6-.1 1-.1.5 0 .9.1 1.3.2s.8.3 1.1.6l-.6.7zM67.3 30.9h1.1l.9 2.4.9-2.4h1.1L70 34.1l1.1 2.6 2.2-5.8h1.2l-3 7.1h-1l-1.3-3.2-1.3 3.2h-1L64 30.9h1.2l2.2 5.8 1-2.6-1.1-3.2zM84.2 37v1h-4.9v-7.1h4.8v1h-3.7v2h3.2v.9h-3.2V37h3.8zm5.2 1v-7.1h2.5c.6 0 1.1.1 1.5.3.4.2.8.4 1.1.8s.5.7.7 1.1c.1.4.2.9.2 1.4 0 .5-.1 1-.2 1.5-.2.4-.4.8-.7 1.1-.3.3-.7.5-1.1.7-.4.2-.9.3-1.4.3h-2.6zm4.8-3.6c0-.4-.1-.7-.2-1s-.3-.6-.5-.8c-.2-.2-.4-.4-.7-.5-.3-.1-.6-.2-1-.2h-1.4V37h1.4c.4 0 .7-.1 1-.2s.5-.3.7-.5c.2-.2.3-.5.4-.8.3-.4.3-.7.3-1.1zm6.4 3.6v-7.1h2.5c.6 0 1.1.1 1.5.3.4.2.8.4 1.1.8s.5.7.7 1.1c.1.4.2.9.2 1.4 0 .5-.1 1-.2 1.5-.2.4-.4.8-.7 1.1-.3.3-.7.5-1.1.7-.4.2-.9.3-1.4.3h-2.6zm4.8-3.6c0-.4-.1-.7-.2-1s-.3-.6-.5-.8c-.2-.2-.4-.4-.7-.5-.3-.1-.6-.2-1-.2h-1.4V37h1.4c.4 0 .7-.1 1-.2s.5-.3.7-.5c.2-.2.3-.5.4-.8s.3-.7.3-1.1zm6.3 3.6v-7.1h1.1V38h-1.1zm7.9-5v5h-1.1v-7.1h.9l4.1 5.1v-5.1h1.1V38h-.9l-4.1-5zm15.4 4.1c-.6.6-1.3.9-2 .9-.5 0-.9-.1-1.3-.3-.4-.2-.8-.5-1.1-.8-.3-.3-.5-.7-.7-1.2-.2-.4-.3-.9-.3-1.4 0-.5.1-.9.3-1.4.2-.4.4-.8.7-1.1.3-.3.6-.6 1.1-.8.4-.2.9-.3 1.3-.3.7 0 1.2.1 1.7.4.5.3.8.7 1 1.1l-.9.6c-.2-.4-.5-.7-.8-.9-.3-.2-.7-.3-1.1-.3-.3 0-.6.1-.9.2-.3.1-.5.3-.7.6s-.3.5-.4.8-.2.6-.2 1 .1.7.2 1 .3.6.5.8c.2.2.4.4.7.6.3.1.6.2.9.2.7 0 1.4-.3 1.9-1V35h-1.5v-.8h2.4V38h-.8v-.9zm10.5-4.5c-.1-.1-.2-.2-.3-.2-.1-.1-.3-.2-.4-.2s-.4-.1-.6-.2-.4-.1-.7-.1c-.4 0-.8.1-1 .3-.2.2-.3.4-.3.7 0 .2 0 .3.1.4l.3.3c.1.1.3.2.6.2.2.1.5.1.8.2.3.1.7.2 1 .3.3.1.5.2.7.4.2.2.4.3.5.6.1.2.2.5.2.8 0 .4-.1.7-.2 1s-.3.5-.6.6c-.2.2-.5.3-.8.4-.3.1-.6.1-1 .1-.5 0-1.1-.1-1.6-.2s-1-.4-1.4-.7l.5-1c.1.1.2.2.4.3.2.1.3.2.6.3.2.1.5.2.7.2.3.1.5.1.8.1.4 0 .8-.1 1-.2.2-.2.4-.4.4-.7 0-.2 0-.3-.1-.5-.1-.1-.2-.2-.4-.3-.2-.1-.4-.2-.6-.2-.2-.1-.5-.1-.8-.2-.4-.1-.7-.2-.9-.3-.3-.1-.5-.2-.7-.4-.2-.1-.3-.3-.4-.5-.1-.2-.1-.4-.1-.7 0-.3.1-.7.2-.9s.3-.5.5-.7c.2-.2.5-.3.8-.4s.6-.1 1-.1c.5 0 .9.1 1.3.2s.8.3 1.1.6l-.6.7z"/><path fill="#BB946A" d="M44.1 27.7c-1.5 1.1-2.8 2.7-4.1 3.8-.5-2-1.7-3.7-3.5-4.6-.3-.2-.7-.3-1-.4.3-.1.7-.2 1-.4 1.9-.9 3.1-2.7 3.5-4.6 1.3 1 2.6 2.7 4.1 3.8 2.5 1.9 5.9 1.6 6.9-1.5.7-2.2-.5-5-2.8-5.4-.8-.1-1.7-.1-2.6.5-.6.4-1 .9-1 1.5 0 .7.5 1.2 1.2 1.2S47 21 47 20.4s-.3-.9-.7-1.1c1.4-.5 2.8-.2 3.6 1.3 1.7 3.1-1.1 6.1-4.1 4.7-2-.9-3.8-3.4-5.6-4.7.3-2.2-.2-5.2.6-7.3 1.2-3.1 5.2-3 6.3.4.5 1.6-.3 2.9-1.6 3.5.2-.4.1-.9-.3-1.3s-1.2-.5-1.7 0-.5 1.2 0 1.7c.4.4 1.1.5 1.7.4 1-.2 1.7-.9 2.2-1.5 1.3-1.9.2-4.7-1.9-5.8-2.9-1.6-5.6.7-6 3.8-.3 1.8 0 3.9-.2 5.5-1.7-1.1-3.8-1.4-5.8-.8-.4.1-.7.3-1 .4.2-.3.3-.7.4-1 .6-2 .3-4-.8-5.8 1.6-.2 3.7.1 5.5-.2 3-.4 5.4-3 3.8-6-1.1-2-3.9-3.2-5.8-1.9-.7.4-1.3 1.1-1.5 2.2-.1.6 0 1.3.4 1.7.5.5 1.2.5 1.7 0s.4-1.3 0-1.7c-.4-.4-.9-.4-1.3-.3.6-1.3 1.9-2.1 3.5-1.6 3.4 1 3.5 5.1.4 6.3-2.1.8-5.1.3-7.3.6-1.3-1.8-3.8-3.6-4.7-5.6-1.3-3 1.6-5.8 4.7-4.1 1.5.8 1.9 2.2 1.3 3.6-.2-.4-.5-.7-1.1-.7-.6 0-1.2.5-1.2 1.2s.5 1.2 1.2 1.2c.5 0 1.1-.4 1.5-1 .8-1 .8-2 .6-2.7-.4-2.3-3.2-3.5-5.4-2.8-3.2 1-3.4 4.5-1.5 6.9 1.1 1.5 2.7 2.8 3.8 4.1-2 .5-3.7 1.7-4.6 3.5-.2.3-.3.7-.4 1-.1-.3-.2-.7-.4-1-.9-1.9-2.7-3.1-4.6-3.5 1-1.3 2.7-2.6 3.8-4.1 1.7-2.5 1.5-6-1.7-6.9-2.2-.7-5 .5-5.4 2.8-.1.8-.1 1.7.5 2.6.3.6.9 1 1.5 1 .7 0 1.2-.5 1.2-1.2S20 5 19.4 5s-.9.3-1.1.7c-.6-1.4-.3-2.9 1.2-3.7 3.1-1.7 6.1 1.1 4.7 4.1-.9 2-3.4 3.8-4.7 5.6-2.2-.3-5.2.2-7.3-.6-3.1-1.2-3-5.2.4-6.3 1.6-.5 2.9.3 3.5 1.6-.4-.2-.9-.1-1.3.3s-.5 1.2 0 1.7 1.2.5 1.7 0c.5-.3.6-1 .5-1.6-.2-1-.9-1.7-1.5-2.2-1.9-1.3-4.7-.2-5.8 1.9-1.6 2.9.7 5.6 3.8 6 1.8.3 3.9 0 5.5.2-1.1 1.7-1.4 3.8-.8 5.8.1.4.3.7.4 1-.3-.2-.7-.3-1-.4-2-.6-4-.3-5.8.8-.2-1.6.1-3.7-.2-5.5-.4-3-3-5.4-6-3.8-2 1.1-3.2 3.9-1.9 5.8.4.7 1.1 1.3 2.2 1.5.6.1 1.3 0 1.7-.4.5-.5.5-1.2 0-1.7s-1.3-.4-1.7 0c-.4.4-.4.9-.3 1.3-1.3-.6-2.1-1.9-1.6-3.5 1-3.4 5.1-3.5 6.3-.4.8 2.1.3 5.1.6 7.3-1.8 1.3-3.6 3.8-5.6 4.7-3 1.3-5.8-1.6-4.1-4.7.8-1.5 2.2-1.9 3.6-1.3-.4.2-.7.5-.7 1.1 0 .6.5 1.2 1.2 1.2s1.2-.5 1.2-1.2c0-.5-.4-1.1-1-1.5-.8-.8-1.7-.8-2.5-.6-2.3.4-3.5 3.2-2.8 5.4 1 3.2 4.5 3.4 6.9 1.5 1.5-1.1 2.8-2.7 4.1-3.8.5 2 1.7 3.7 3.5 4.6.3.2.7.3 1 .4-.3.1-.7.2-1 .4-1.9.9-3.1 2.7-3.5 4.6-1.3-1-2.6-2.7-4.1-3.8C4.6 25.6 1.2 25.9.2 29c-.7 2.2.5 5 2.8 5.4.8.1 1.7.1 2.6-.5.6-.4 1-.9 1-1.5 0-.7-.5-1.2-1.2-1.2s-1.2.6-1.2 1.2.3.9.7 1.1c-1.4.5-2.8.2-3.6-1.3-1.7-3.1 1.1-6.1 4.1-4.7 2 .9 3.8 3.4 5.6 4.7-.3 2.2.2 5.2-.6 7.3-1.2 3.1-5.2 3-6.3-.4-.5-1.6.3-2.9 1.6-3.5-.2.4-.1.9.3 1.3s1.2.5 1.7 0 .5-1.2 0-1.7c-.4-.2-1.1-.3-1.7-.2-1 .2-1.7.9-2.2 1.5-1.3 1.9-.2 4.7 1.9 5.8 2.9 1.6 5.6-.7 6-3.8.3-1.8 0-3.9.2-5.5 1.7 1.1 3.8 1.4 5.8.8.4-.1.7-.3 1-.4-.2.3-.3.7-.4 1-.6 2-.3 4 .8 5.8-1.6.2-3.7-.1-5.5.2-3 .4-5.4 3-3.8 6 1.1 2 3.9 3.2 5.8 1.9.7-.4 1.3-1.1 1.5-2.2.1-.6 0-1.3-.4-1.7-.5-.5-1.2-.5-1.7 0s-.4 1.3 0 1.7c.4.4.9.4 1.3.3-.6 1.3-1.9 2.1-3.5 1.6-3.4-1-3.5-5.1-.4-6.3 2.1-.8 5.1-.3 7.3-.6 1.3 1.8 3.8 3.6 4.7 5.6 1.3 3-1.6 5.8-4.7 4.1-1.5-.8-1.9-2.2-1.3-3.6.2.4.5.7 1.1.7.6 0 1.2-.5 1.2-1.2s-.5-1.2-1.2-1.2c-.5 0-1.1.4-1.5 1-.6.9-.6 1.9-.5 2.6.4 2.3 3.2 3.5 5.4 2.8 3.2-1 3.4-4.5 1.5-6.9-1.1-1.5-2.7-2.8-3.8-4.1 2-.5 3.7-1.7 4.6-3.5.2-.3.3-.7.4-1 .1.3.2.7.4 1 .9 1.9 2.7 3.1 4.6 3.5-1 1.3-2.7 2.6-3.8 4.1-1.9 2.5-1.6 5.9 1.5 6.9 2.2.7 5-.5 5.4-2.8.1-.8.1-1.7-.5-2.6-.3-.6-.9-1-1.5-1-.7 0-1.2.5-1.2 1.2s.6 1.2 1.2 1.2.9-.3 1.1-.7c.5 1.4.2 2.8-1.3 3.6-3.1 1.7-6.1-1.1-4.7-4.1.9-2 3.4-3.8 4.7-5.6 2.2.3 5.2-.2 7.3.6 3.1 1.2 3 5.2-.4 6.3-1.6.5-2.9-.3-3.5-1.6.4.2.9.1 1.3-.3s.5-1.2 0-1.7-1.2-.5-1.7 0c-.4.4-.5 1.1-.4 1.7.2 1 .9 1.7 1.5 2.2 1.9 1.3 4.7.2 5.8-1.9 1.6-2.9-.7-5.6-3.8-6-1.8-.3-3.9 0-5.5-.2 1.1-1.7 1.4-3.8.8-5.8-.1-.4-.3-.7-.4-1 .3.2.7.3 1 .4 2 .6 4 .3 5.8-.8.2 1.6-.1 3.7.2 5.5.4 3 3 5.4 6 3.8 2-1.1 3.2-3.9 1.9-5.8-.4-.7-1.1-1.3-2.2-1.5-.6-.1-1.3 0-1.7.4-.5.5-.5 1.2 0 1.7s1.3.4 1.7 0c.4-.4.4-.9.3-1.3 1.3.6 2.1 1.9 1.6 3.5-1 3.4-5.1 3.5-6.3.4-.8-2.1-.3-5.1-.6-7.3 1.8-1.3 3.6-3.8 5.6-4.7 3-1.3 5.8 1.6 4.1 4.7-.8 1.5-2.2 1.9-3.6 1.3.4-.2.7-.5.7-1.1 0-.6-.5-1.2-1.2-1.2s-1.2.5-1.2 1.2c0 .5.4 1.1 1 1.5.9.6 1.9.6 2.6.5 2.3-.4 3.5-3.2 2.8-5.4-.9-3.2-4.4-3.4-6.9-1.5zm-10.9-7.6c.8-.3 1.6-.5 2.4-.5 1.3 0 2.5.4 3.6 1.2-.3 1.3-.8 2.4-1.7 3.4-.6.6-1.3 1.1-2.1 1.4-1.9.7-3.9.2-5.6-.9.4-2 1.5-3.8 3.4-4.6zm-11.7 6.3v.9c-.6-.4-1.3-.7-2-.9.7-.2 1.4-.5 2-.9v.9zm-.2-4.3c.6.3 1.3.6 2 .8-.2.2-.4.5-.6.7-.2.2-.4.4-.7.6-.1-.8-.4-1.5-.7-2.1zm.8 6.6c.2.2.5.4.7.6s.4.4.6.7c-.7.2-1.4.4-2 .8.2-.7.5-1.4.7-2.1zm1.2 0c-.3-.3-.7-.6-1.1-.9.1-.5.1-.9.1-1.4 0-.5 0-.9-.1-1.4.4-.3.7-.6 1.1-.9.3-.3.6-.7.9-1.1.5.1.9.1 1.4.1.5 0 .9 0 1.4-.1.3.4.6.7.9 1.1.3.3.7.6 1.1.9-.1.5-.1.9-.1 1.4 0 .5 0 .9.1 1.4-.4.3-.7.6-1.1.9-.3.3-.6.7-.9 1.1-.5-.1-.9-.1-1.4-.1-.5 0-.9 0-1.4.1-.3-.4-.6-.7-.9-1.1zm4.6-5.9c.7-.2 1.4-.4 2-.8-.3.6-.6 1.3-.8 2-.2-.2-.5-.4-.7-.6-.1-.1-.3-.3-.5-.6zm.6 6.5c.2-.2.4-.4.7-.6.2.7.4 1.4.8 2-.6-.3-1.3-.6-2-.8.1-.2.3-.4.5-.6zm1.2-2.9v-.9c.6.4 1.3.7 2 .9-.7.2-1.4.5-2 .9v-.9zm-3.2-9.8c.3-.8.8-1.5 1.4-2.1.9-1 2.1-1.5 3.4-1.7.7 1.1 1.2 2.3 1.2 3.6 0 .8-.2 1.7-.5 2.4-.8 1.9-2.6 2.9-4.6 3.3-1.1-1.6-1.6-3.6-.9-5.5zm-.9 3.7c.2.7.5 1.4.9 2h-1.8c.4-.7.7-1.3.9-2zM20 12.8c1.3.3 2.4.8 3.4 1.7.6.6 1.1 1.3 1.4 2.1.7 1.9.2 3.9-.9 5.6-1.9-.4-3.7-1.5-4.6-3.3-.3-.8-.5-1.6-.5-2.4 0-1.5.4-2.6 1.2-3.7zm-6.3 11.3c-1-.9-1.5-2.1-1.7-3.4 1.1-.7 2.3-1.2 3.6-1.2.8 0 1.7.2 2.4.5 1.9.8 2.9 2.6 3.3 4.6-1.6 1.1-3.7 1.6-5.6.9-.7-.3-1.4-.8-2-1.4zm4.3 8.6c-.8.3-1.6.5-2.4.5-1.3 0-2.5-.4-3.6-1.2.3-1.3.8-2.4 1.7-3.4.6-.6 1.3-1.1 2.1-1.4 1.9-.7 3.9-.2 5.6.9-.4 2-1.5 3.8-3.4 4.6zm6.7 3.5c-.3.8-.8 1.5-1.4 2.1-.9 1-2.1 1.5-3.4 1.7-.7-1.1-1.2-2.3-1.2-3.6 0-.8.2-1.7.5-2.4.8-1.9 2.6-2.9 4.6-3.3 1.1 1.6 1.7 3.6.9 5.5zm.9-3.7c-.2-.7-.5-1.4-.9-2h1.8c-.4.6-.7 1.3-.9 2zm5.7 7.5c-1.3-.3-2.4-.8-3.4-1.7-.6-.6-1.1-1.3-1.4-2.1-.7-1.9-.2-3.9.9-5.6 1.9.4 3.7 1.5 4.6 3.3.3.8.5 1.6.5 2.4-.1 1.5-.5 2.6-1.2 3.7zm4.3-6.8c-.8 0-1.7-.2-2.4-.5-1.9-.8-2.9-2.6-3.3-4.6 1.6-1.1 3.7-1.6 5.6-.9.8.3 1.5.8 2.1 1.4 1 .9 1.5 2.1 1.7 3.4-1.2.8-2.3 1.2-3.7 1.2z"/></svg>