<?xml version="1.0" encoding="UTF-8"?>
<svg width="180px" height="120px" viewBox="0 0 180 120" version="1.1" xmlns="http://www.w3.org/2000/svg" xmlns:xlink="http://www.w3.org/1999/xlink">
    <!-- Generator: Sketch 47.1 (45422) - http://www.bohemiancoding.com/sketch -->
    <title>Vamtam-logo-presentation</title>
    <desc>Created with Sketch.</desc>
    <defs>
        <polygon id="path-1" points="1.33398438 21.3427734 78.3652344 17.1650391 78.3652344 21.1350927 154.916992 17.1650391 154.916992 0.693518855 0.907282514 0.693518855"></polygon>
        <linearGradient x1="21.1425781%" y1="100%" x2="83.9344774%" y2="-4.15132328%" id="linearGradient-3">
            <stop stop-color="#782ED2" offset="0%"></stop>
            <stop stop-color="#F26878" offset="51.5027105%"></stop>
            <stop stop-color="#FF9A4A" offset="100%"></stop>
        </linearGradient>
    </defs>
    <g id="Page-1" stroke="none" stroke-width="1" fill="none" fill-rule="evenodd">
        <g id="Vamtam-logo-presentation">
            <g id="logo" transform="translate(17.000000, 21.000000)">
                <g id="Group-5" transform="translate(0.000000, 57.000000)">
                    <mask id="mask-2" fill="white">
                        <use xlink:href="#path-1"></use>
                    </mask>
                    <g id="Path-3"></g>
                    <path d="M20.3627018,12.0912281 L22.3187018,12.0912281 L17.6027018,20.4912281 L15.6347018,20.4912281 L13.7267018,12.0912281 L15.7667018,12.0912281 L16.9907018,18.4872281 L20.3627018,12.0912281 Z M28.1187018,20.4912281 L27.7347018,18.8592281 L23.8467018,18.8592281 L22.9227018,20.4912281 L20.9667018,20.4912281 L26.0067018,12.0912281 L27.9507018,12.0912281 L30.1587018,20.4912281 L28.1187018,20.4912281 Z M24.7227018,17.3352281 L27.3867018,17.3352281 L26.6067018,14.0112281 L24.7227018,17.3352281 Z M41.0467018,12.0912281 L43.1107018,12.0912281 L41.4787018,20.4912281 L39.8107018,20.4912281 L40.9387018,14.7312281 L37.5427018,19.6392281 L36.3547018,19.6392281 L34.9027018,14.6952281 L33.7627018,20.4912281 L32.0827018,20.4912281 L33.7147018,12.0912281 L35.7907018,12.0912281 L37.3987018,17.3352281 L41.0467018,12.0912281 Z M52.2107018,12.0912281 L51.8987018,13.6992281 L49.3307018,13.6992281 L47.9507018,20.4912281 L46.0547018,20.4912281 L47.4227018,13.6992281 L44.8667018,13.6992281 L45.1787018,12.0912281 L52.2107018,12.0912281 Z M57.8547018,20.4912281 L57.4707018,18.8592281 L53.5827018,18.8592281 L52.6587018,20.4912281 L50.7027018,20.4912281 L55.7427018,12.0912281 L57.6867018,12.0912281 L59.8947018,20.4912281 L57.8547018,20.4912281 Z M54.4587018,17.3352281 L57.1227018,17.3352281 L56.3427018,14.0112281 L54.4587018,17.3352281 Z M70.7827018,12.0912281 L72.8467018,12.0912281 L71.2147018,20.4912281 L69.5467018,20.4912281 L70.6747018,14.7312281 L67.2787018,19.6392281 L66.0907018,19.6392281 L64.6387018,14.6952281 L63.4987018,20.4912281 L61.8187018,20.4912281 L63.4507018,12.0912281 L65.5267018,12.0912281 L67.1347018,17.3352281 L70.7827018,12.0912281 Z M85.7547018,12.0912281 L85.4427018,13.6992281 L82.8747018,13.6992281 L81.4947018,20.4912281 L79.5987018,20.4912281 L80.9667018,13.6992281 L78.4107018,13.6992281 L78.7227018,12.0912281 L85.7547018,12.0912281 Z M93.8467018,12.0912281 L95.7427018,12.0912281 L94.0627018,20.4912281 L92.1667018,20.4912281 L92.8267018,17.1672281 L89.0227018,17.1672281 L88.3627018,20.4912281 L86.4667018,20.4912281 L88.1467018,12.0912281 L90.0427018,12.0912281 L89.3467018,15.5952281 L93.1507018,15.5952281 L93.8467018,12.0912281 Z M105.058702,13.6632281 L100.558702,13.6632281 L100.186702,15.4872281 L104.242702,15.4872281 L103.930702,17.0592281 L99.8747018,17.0592281 L99.5027018,18.9072281 L104.122702,18.9072281 L103.822702,20.4912281 L97.2947018,20.4912281 L98.9747018,12.0912281 L105.370702,12.0912281 L105.058702,13.6632281 Z M115.322702,12.0912281 L117.386702,12.0912281 L115.754702,20.4912281 L114.086702,20.4912281 L115.214702,14.7312281 L111.818702,19.6392281 L110.630702,19.6392281 L109.178702,14.6952281 L108.038702,20.4912281 L106.358702,20.4912281 L107.990702,12.0912281 L110.066702,12.0912281 L111.674702,17.3352281 L115.322702,12.0912281 Z M126.366702,13.6632281 L121.866702,13.6632281 L121.494702,15.4872281 L125.550702,15.4872281 L125.238702,17.0592281 L121.182702,17.0592281 L120.810702,18.9072281 L125.430702,18.9072281 L125.130702,20.4912281 L118.602702,20.4912281 L120.282702,12.0912281 L126.678702,12.0912281 L126.366702,13.6632281 Z M131.746702,11.9352281 C132.322705,11.9352281 132.882699,12.0192272 133.426702,12.1872281 C133.970704,12.3552289 134.4427,12.5792267 134.842702,12.8592281 L133.954702,14.4312281 C133.5467,14.1672268 133.110704,13.9572289 132.646702,13.8012281 C132.182699,13.6452273 131.778703,13.5672281 131.434702,13.5672281 C131.0907,13.5672281 130.814703,13.6352274 130.606702,13.7712281 C130.398701,13.9072288 130.294702,14.0952269 130.294702,14.3352281 C130.294702,14.6072294 130.4207,14.8172273 130.672702,14.9652281 C130.924703,15.1132288 131.318699,15.2712272 131.854702,15.4392281 C132.366704,15.5992289 132.7887,15.7552273 133.120702,15.9072281 C133.452703,16.0592288 133.736701,16.2852266 133.972702,16.5852281 C134.208703,16.8852296 134.326702,17.2712257 134.326702,17.7432281 C134.326702,18.3432311 134.168703,18.8592259 133.852702,19.2912281 C133.5367,19.7232302 133.108704,20.051227 132.568702,20.2752281 C132.028699,20.4992292 131.426705,20.6112281 130.762702,20.6112281 C130.082698,20.6112281 129.426705,20.4892293 128.794702,20.2452281 C128.162699,20.0012269 127.626704,19.6712302 127.186702,19.2552281 L128.098702,17.7072281 C128.482704,18.09123 128.938699,18.3992269 129.466702,18.6312281 C129.994704,18.8632292 130.486699,18.9792281 130.942702,18.9792281 C131.358704,18.9792281 131.684701,18.8992289 131.920702,18.7392281 C132.156703,18.5792273 132.274702,18.3552295 132.274702,18.0672281 C132.274702,17.8752271 132.206702,17.7132287 132.070702,17.5812281 C131.934701,17.4492274 131.762703,17.3432285 131.554702,17.2632281 C131.346701,17.1832277 131.058704,17.0872286 130.690702,16.9752281 C130.154699,16.8152273 129.716703,16.6572289 129.376702,16.5012281 C129.0367,16.3452273 128.752703,16.1072297 128.524702,15.7872281 C128.296701,15.4672265 128.202702,15.0512306 128.242702,14.5392281 C128.266702,14.0192255 128.4307,13.56323 128.734702,13.1712281 C129.038703,12.7792261 129.450699,12.4752292 129.970702,12.2592281 C130.490704,12.043227 131.082698,11.9352281 131.746702,11.9352281 Z" id="VamTam-Themes" fill="#000000" mask="url(#mask-2)"></path>
                </g>
                <path d="M62.702055,29.1435733 C65.5599597,29.1435733 65.9821183,33.535751 62.6547127,33.5360275 L52.1951515,33.5360275 C50.0333743,33.5360275 49.1338711,35.1104878 48.7220774,36.0045712 C48.3102836,36.8986546 44.0371531,46.5552527 42.0756702,50.6214797 C40.6397146,53.5978871 36.69798,54.0264058 35.0712546,50.4951358 C34.6084768,49.490467 14.7037116,6.44259188 13.2215342,3.13055761 C12.0183681,0.441672359 16.0519859,-1.36169989 17.2582335,1.3269089 C17.5406063,1.95586365 36.6864946,43.439784 37.2509601,44.6653473 C37.8252303,45.9119218 39.3188931,45.9055631 39.8707528,44.7358455 C40.1887024,44.0621037 45.8804203,31.5839178 46.5869128,30.1252957 C46.8359499,29.6113498 47.2180497,29.1435733 48.0287511,29.1435733 L62.702055,29.1435733 Z M126.790286,49.7204848 C127.970601,52.6360782 123.832638,53.970473 122.736891,51.5796478 C120.946397,47.6735303 105.316394,13.8349434 105.16686,13.5150637 C104.581603,12.2642237 103.049573,12.3657028 102.488959,13.5051364 C101.465459,15.5854576 85.6447578,49.9692189 85.2515995,50.8491639 C84.2104581,53.1798737 80.2223095,54.2972467 78.5259043,50.621939 C76.0972277,45.360469 61.6472599,14.0549986 61.3327893,13.3735997 C60.8819454,12.3968635 59.3126725,12.2391297 58.7680194,13.4248907 C58.1505593,14.7686613 54.2430586,23.2959378 54.2430586,23.2959378 C52.851603,25.8745544 48.9146995,23.9323881 50.285433,21.2608409 C52.6340218,16.682976 58.5577189,3.3235854 58.7593386,2.88981746 C59.3006313,1.72611709 60.8113785,1.71039886 61.3162677,2.80405661 C62.2196357,4.76138961 80.380525,44.1063199 80.5779442,44.5337454 C81.0937544,45.6511184 82.6215833,46.0873681 83.3462939,44.5174757 C84.0617636,42.9674378 102.08656,4.09736342 102.553085,2.90360538 C102.977886,1.81656584 104.542959,1.6458714 105.093493,2.81977483 C105.964097,4.67673178 126.448093,48.8752854 126.790286,49.7204848 Z" fill="url(#linearGradient-3)" fill-rule="nonzero"></path>
            </g>
        </g>
    </g>
</svg>