<svg width="129" height="1990" xmlns="http://www.w3.org/2000/svg"><g fill-rule="nonzero" fill="#000"><path d="M15.688 509.624c1.301.576 2.304 1.376 3.008 2.4.704 1.024 1.056 2.197 1.056 3.52 0 1.536-.368 2.885-1.104 4.048-.736 1.163-1.781 2.059-3.136 2.688-1.355.63-2.928.944-4.72.944-1.45 0-2.96-.25-4.528-.752-1.568-.501-2.95-1.157-4.144-1.968l1.952-3.776a11.456 11.456 0 0 0 3.008 1.792c1.067.427 2.123.64 3.168.64 1.259 0 2.25-.293 2.976-.88.725-.587 1.088-1.381 1.088-2.384 0-.981-.357-1.733-1.072-2.256-.715-.523-1.776-.784-3.184-.784-.79 0-1.83.016-3.12.048s-2.267.08-2.928.144V500.6h14.72v4.224H8.68v3.936h2.496c1.707 0 3.21.288 4.512.864zm23.808-6.272c1.685 1.963 2.528 4.779 2.528 8.448 0 3.648-.843 6.459-2.528 8.432-1.685 1.973-4.096 2.96-7.232 2.96-3.157 0-5.584-.987-7.28-2.96-1.696-1.973-2.544-4.784-2.544-8.432 0-3.67.848-6.485 2.544-8.448 1.696-1.963 4.123-2.944 7.28-2.944 3.136 0 5.547.981 7.232 2.944zm-10.752 2.72c-.747 1.195-1.12 3.104-1.12 5.728 0 2.603.373 4.507 1.12 5.712.747 1.205 1.92 1.808 3.52 1.808 1.557 0 2.71-.603 3.456-1.808.747-1.205 1.12-3.11 1.12-5.712 0-2.624-.373-4.533-1.12-5.728-.747-1.195-1.899-1.792-3.456-1.792-1.6 0-2.773.597-3.52 1.792zm33.312-2.72c1.685 1.963 2.528 4.779 2.528 8.448 0 3.648-.843 6.459-2.528 8.432-1.685 1.973-4.096 2.96-7.232 2.96-3.157 0-5.584-.987-7.28-2.96C45.848 518.259 45 515.448 45 511.8c0-3.67.848-6.485 2.544-8.448 1.696-1.963 4.123-2.944 7.28-2.944 3.136 0 5.547.981 7.232 2.944zm-10.752 2.72c-.747 1.195-1.12 3.104-1.12 5.728 0 2.603.373 4.507 1.12 5.712.747 1.205 1.92 1.808 3.52 1.808 1.557 0 2.71-.603 3.456-1.808.747-1.205 1.12-3.11 1.12-5.712 0-2.624-.373-4.533-1.12-5.728-.747-1.195-1.899-1.792-3.456-1.792-1.6 0-2.773.597-3.52 1.792zm31.888.656c1.227.736 2.176 1.776 2.848 3.12.672 1.344 1.008 2.89 1.008 4.64 0 1.728-.33 3.248-.992 4.56-.661 1.312-1.595 2.33-2.8 3.056-1.205.725-2.608 1.088-4.208 1.088-1.195 0-2.256-.23-3.184-.688a6.404 6.404 0 0 1-2.352-2v8.704h-4.928v-23.424h4.928v2.528a6.145 6.145 0 0 1 2.32-2c.928-.459 1.968-.688 3.12-.688 1.6 0 3.013.368 4.24 1.104zm-2.32 11.04c.79-.885 1.184-2.032 1.184-3.44 0-1.387-.395-2.523-1.184-3.408-.79-.885-1.813-1.328-3.072-1.328-1.259 0-2.288.443-3.088 1.328-.8.885-1.2 2.021-1.2 3.408 0 1.43.4 2.581 1.2 3.456.8.875 1.83 1.312 3.088 1.312 1.259 0 2.283-.443 3.072-1.328zm7.712-11.984h5.632L97.384 511l3.36-5.216h5.376l-5.472 8.384 5.856 8.832h-5.664l-3.456-5.632L93.608 523h-5.44l5.952-8.8-5.536-8.416zM19.56 3.352c1.685 1.963 2.528 4.779 2.528 8.448 0 3.648-.843 6.459-2.528 8.432-1.685 1.973-4.096 2.96-7.232 2.96-3.157 0-5.584-.987-7.28-2.96-1.696-1.973-2.544-4.784-2.544-8.432 0-3.67.848-6.485 2.544-8.448C6.744 1.389 9.171.408 12.328.408c3.136 0 5.547.981 7.232 2.944zM8.808 6.072c-.747 1.195-1.12 3.104-1.12 5.728 0 2.603.373 4.507 1.12 5.712.747 1.205 1.92 1.808 3.52 1.808 1.557 0 2.71-.603 3.456-1.808.747-1.205 1.12-3.11 1.12-5.712 0-2.624-.373-4.533-1.12-5.728-.747-1.195-1.899-1.792-3.456-1.792-1.6 0-2.773.597-3.52 1.792zm31.888.656c1.227.736 2.176 1.776 2.848 3.12.672 1.344 1.008 2.89 1.008 4.64 0 1.728-.33 3.248-.992 4.56-.661 1.312-1.595 2.33-2.8 3.056-1.205.725-2.608 1.088-4.208 1.088-1.195 0-2.256-.23-3.184-.688a6.404 6.404 0 0 1-2.352-2v8.704h-4.928V5.784h4.928v2.528a6.145 6.145 0 0 1 2.32-2c.928-.459 1.968-.688 3.12-.688 1.6 0 3.013.368 4.24 1.104zm-2.32 11.04c.79-.885 1.184-2.032 1.184-3.44 0-1.387-.395-2.523-1.184-3.408-.79-.885-1.813-1.328-3.072-1.328-1.259 0-2.288.443-3.088 1.328-.8.885-1.2 2.021-1.2 3.408 0 1.43.4 2.581 1.2 3.456.8.875 1.83 1.312 3.088 1.312 1.259 0 2.283-.443 3.072-1.328zm7.712-11.984h5.632L54.888 11l3.36-5.216h5.376l-5.472 8.384L64.008 23h-5.664l-3.456-5.632L51.112 23h-5.44l5.952-8.8-5.536-8.416zM16.52 801.992c1.387 1.077 2.08 2.533 2.08 4.368 0 .981-.261 1.883-.784 2.704a5.735 5.735 0 0 1-2.128 1.968c1.259.49 2.25 1.237 2.976 2.24.725 1.003 1.088 2.144 1.088 3.424 0 1.323-.363 2.475-1.088 3.456-.725.981-1.755 1.739-3.088 2.272-1.333.533-2.896.8-4.688.8-1.77 0-3.323-.261-4.656-.784-1.333-.523-2.363-1.27-3.088-2.24-.725-.97-1.088-2.107-1.088-3.408 0-1.28.384-2.437 1.152-3.472.768-1.035 1.813-1.797 3.136-2.288-.981-.533-1.755-1.227-2.32-2.08a4.941 4.941 0 0 1-.848-2.784c0-1.77.693-3.179 2.08-4.224 1.387-1.045 3.253-1.568 5.6-1.568 2.39 0 4.277.539 5.664 1.616zm-8.208 2.592c-.608.48-.912 1.157-.912 2.032 0 .853.304 1.52.912 2 .608.48 1.467.72 2.576.72 1.11 0 1.968-.235 2.576-.704.608-.47.912-1.141.912-2.016s-.304-1.552-.912-2.032c-.608-.48-1.467-.72-2.576-.72-1.11 0-1.968.24-2.576.72zm-.448 9.36c-.715.533-1.072 1.301-1.072 2.304s.357 1.781 1.072 2.336c.715.555 1.723.832 3.024.832s2.315-.272 3.04-.816c.725-.544 1.088-1.317 1.088-2.32s-.363-1.776-1.088-2.32c-.725-.544-1.739-.816-3.04-.816s-2.31.267-3.024.8zm31.92-10.592c1.685 1.963 2.528 4.779 2.528 8.448 0 3.648-.843 6.459-2.528 8.432-1.685 1.973-4.096 2.96-7.232 2.96-3.157 0-5.584-.987-7.28-2.96-1.696-1.973-2.544-4.784-2.544-8.432 0-3.67.848-6.485 2.544-8.448 1.696-1.963 4.123-2.944 7.28-2.944 3.136 0 5.547.981 7.232 2.944zm-10.752 2.72c-.747 1.195-1.12 3.104-1.12 5.728 0 2.603.373 4.507 1.12 5.712.747 1.205 1.92 1.808 3.52 1.808 1.557 0 2.71-.603 3.456-1.808.747-1.205 1.12-3.11 1.12-5.712 0-2.624-.373-4.533-1.12-5.728-.747-1.195-1.899-1.792-3.456-1.792-1.6 0-2.773.597-3.52 1.792zm33.312-2.72c1.685 1.963 2.528 4.779 2.528 8.448 0 3.648-.843 6.459-2.528 8.432-1.685 1.973-4.096 2.96-7.232 2.96-3.157 0-5.584-.987-7.28-2.96-1.696-1.973-2.544-4.784-2.544-8.432 0-3.67.848-6.485 2.544-8.448 1.696-1.963 4.123-2.944 7.28-2.944 3.136 0 5.547.981 7.232 2.944zm-10.752 2.72c-.747 1.195-1.12 3.104-1.12 5.728 0 2.603.373 4.507 1.12 5.712.747 1.205 1.92 1.808 3.52 1.808 1.557 0 2.71-.603 3.456-1.808.747-1.205 1.12-3.11 1.12-5.712 0-2.624-.373-4.533-1.12-5.728-.747-1.195-1.899-1.792-3.456-1.792-1.6 0-2.773.597-3.52 1.792zm31.888.656c1.227.736 2.176 1.776 2.848 3.12.672 1.344 1.008 2.89 1.008 4.64 0 1.728-.33 3.248-.992 4.56-.661 1.312-1.595 2.33-2.8 3.056-1.205.725-2.608 1.088-4.208 1.088-1.195 0-2.256-.23-3.184-.688a6.404 6.404 0 0 1-2.352-2v8.704h-4.928v-23.424H73.8v2.528a6.145 6.145 0 0 1 2.32-2c.928-.459 1.968-.688 3.12-.688 1.6 0 3.013.368 4.24 1.104zm-2.32 11.04c.79-.885 1.184-2.032 1.184-3.44 0-1.387-.395-2.523-1.184-3.408-.79-.885-1.813-1.328-3.072-1.328-1.259 0-2.288.443-3.088 1.328-.8.885-1.2 2.021-1.2 3.408 0 1.43.4 2.581 1.2 3.456.8.875 1.83 1.312 3.088 1.312 1.259 0 2.283-.443 3.072-1.328zm7.712-11.984h5.632L97.672 811l3.36-5.216h5.376l-5.472 8.384 5.856 8.832h-5.664l-3.456-5.632L93.896 823h-5.44l5.952-8.8-5.536-8.416zM.776 1000.6h9.568v22.4H5.288v-18.112H.776v-4.288zm31.36 2.752c1.685 1.963 2.528 4.779 2.528 8.448 0 3.648-.843 6.459-2.528 8.432-1.685 1.973-4.096 2.96-7.232 2.96-3.157 0-5.584-.987-7.28-2.96-1.696-1.973-2.544-4.784-2.544-8.432 0-3.67.848-6.485 2.544-8.448 1.696-1.963 4.123-2.944 7.28-2.944 3.136 0 5.547.981 7.232 2.944zm-10.752 2.72c-.747 1.195-1.12 3.104-1.12 5.728 0 2.603.373 4.507 1.12 5.712.747 1.205 1.92 1.808 3.52 1.808 1.557 0 2.71-.603 3.456-1.808.747-1.205 1.12-3.11 1.12-5.712 0-2.624-.373-4.533-1.12-5.728-.747-1.195-1.899-1.792-3.456-1.792-1.6 0-2.773.597-3.52 1.792zm33.312-2.72c1.685 1.963 2.528 4.779 2.528 8.448 0 3.648-.843 6.459-2.528 8.432-1.685 1.973-4.096 2.96-7.232 2.96-3.157 0-5.584-.987-7.28-2.96-1.696-1.973-2.544-4.784-2.544-8.432 0-3.67.848-6.485 2.544-8.448 1.696-1.963 4.123-2.944 7.28-2.944 3.136 0 5.547.981 7.232 2.944zm-10.752 2.72c-.747 1.195-1.12 3.104-1.12 5.728 0 2.603.373 4.507 1.12 5.712.747 1.205 1.92 1.808 3.52 1.808 1.557 0 2.71-.603 3.456-1.808.747-1.205 1.12-3.11 1.12-5.712 0-2.624-.373-4.533-1.12-5.728-.747-1.195-1.899-1.792-3.456-1.792-1.6 0-2.773.597-3.52 1.792zm33.312-2.72c1.685 1.963 2.528 4.779 2.528 8.448 0 3.648-.843 6.459-2.528 8.432-1.685 1.973-4.096 2.96-7.232 2.96-3.157 0-5.584-.987-7.28-2.96-1.696-1.973-2.544-4.784-2.544-8.432 0-3.67.848-6.485 2.544-8.448 1.696-1.963 4.123-2.944 7.28-2.944 3.136 0 5.547.981 7.232 2.944zm-10.752 2.72c-.747 1.195-1.12 3.104-1.12 5.728 0 2.603.373 4.507 1.12 5.712.747 1.205 1.92 1.808 3.52 1.808 1.557 0 2.71-.603 3.456-1.808.747-1.205 1.12-3.11 1.12-5.712 0-2.624-.373-4.533-1.12-5.728-.747-1.195-1.899-1.792-3.456-1.792-1.6 0-2.773.597-3.52 1.792zm31.888.656c1.227.736 2.176 1.776 2.848 3.12.672 1.344 1.008 2.89 1.008 4.64 0 1.728-.33 3.248-.992 4.56-.661 1.312-1.595 2.33-2.8 3.056-1.205.725-2.608 1.088-4.208 1.088-1.195 0-2.256-.23-3.184-.688a6.404 6.404 0 0 1-2.352-2v8.704h-4.928v-23.424h4.928v2.528a6.145 6.145 0 0 1 2.32-2c.928-.459 1.968-.688 3.12-.688 1.6 0 3.013.368 4.24 1.104zm-2.32 11.04c.79-.885 1.184-2.032 1.184-3.44 0-1.387-.395-2.523-1.184-3.408-.79-.885-1.813-1.328-3.072-1.328-1.259 0-2.288.443-3.088 1.328-.8.885-1.2 2.021-1.2 3.408 0 1.43.4 2.581 1.2 3.456.8.875 1.83 1.312 3.088 1.312 1.259 0 2.283-.443 3.072-1.328zm7.712-11.984h5.632l3.168 5.216 3.36-5.216h5.376l-5.472 8.384 5.856 8.832h-5.664l-3.456-5.632-3.776 5.632h-5.44l5.952-8.8-5.536-8.416zM.776 1500.6h9.568v22.4H5.288v-18.112H.776v-4.288zm27.488 9.024c1.301.576 2.304 1.376 3.008 2.4.704 1.024 1.056 2.197 1.056 3.52 0 1.536-.368 2.885-1.104 4.048-.736 1.163-1.781 2.059-3.136 2.688-1.355.63-2.928.944-4.72.944-1.45 0-2.96-.25-4.528-.752-1.568-.501-2.95-1.157-4.144-1.968l1.952-3.776a11.456 11.456 0 0 0 3.008 1.792c1.067.427 2.123.64 3.168.64 1.259 0 2.25-.293 2.976-.88.725-.587 1.088-1.381 1.088-2.384 0-.981-.357-1.733-1.072-2.256-.715-.523-1.776-.784-3.184-.784-.79 0-1.83.016-3.12.048s-2.267.08-2.928.144V1500.6h14.72v4.224H21.256v3.936h2.496c1.707 0 3.21.288 4.512.864zm23.808-6.272c1.685 1.963 2.528 4.779 2.528 8.448 0 3.648-.843 6.459-2.528 8.432-1.685 1.973-4.096 2.96-7.232 2.96-3.157 0-5.584-.987-7.28-2.96-1.696-1.973-2.544-4.784-2.544-8.432 0-3.67.848-6.485 2.544-8.448 1.696-1.963 4.123-2.944 7.28-2.944 3.136 0 5.547.981 7.232 2.944zm-10.752 2.72c-.747 1.195-1.12 3.104-1.12 5.728 0 2.603.373 4.507 1.12 5.712.747 1.205 1.92 1.808 3.52 1.808 1.557 0 2.71-.603 3.456-1.808.747-1.205 1.12-3.11 1.12-5.712 0-2.624-.373-4.533-1.12-5.728-.747-1.195-1.899-1.792-3.456-1.792-1.6 0-2.773.597-3.52 1.792zm33.312-2.72c1.685 1.963 2.528 4.779 2.528 8.448 0 3.648-.843 6.459-2.528 8.432-1.685 1.973-4.096 2.96-7.232 2.96-3.157 0-5.584-.987-7.28-2.96-1.696-1.973-2.544-4.784-2.544-8.432 0-3.67.848-6.485 2.544-8.448 1.696-1.963 4.123-2.944 7.28-2.944 3.136 0 5.547.981 7.232 2.944zm-10.752 2.72c-.747 1.195-1.12 3.104-1.12 5.728 0 2.603.373 4.507 1.12 5.712.747 1.205 1.92 1.808 3.52 1.808 1.557 0 2.71-.603 3.456-1.808.747-1.205 1.12-3.11 1.12-5.712 0-2.624-.373-4.533-1.12-5.728-.747-1.195-1.899-1.792-3.456-1.792-1.6 0-2.773.597-3.52 1.792zm31.888.656c1.227.736 2.176 1.776 2.848 3.12.672 1.344 1.008 2.89 1.008 4.64 0 1.728-.33 3.248-.992 4.56-.661 1.312-1.595 2.33-2.8 3.056-1.205.725-2.608 1.088-4.208 1.088-1.195 0-2.256-.23-3.184-.688a6.404 6.404 0 0 1-2.352-2v8.704H81.16v-23.424h4.928v2.528a6.145 6.145 0 0 1 2.32-2c.928-.459 1.968-.688 3.12-.688 1.6 0 3.013.368 4.24 1.104zm-2.32 11.04c.79-.885 1.184-2.032 1.184-3.44 0-1.387-.395-2.523-1.184-3.408-.79-.885-1.813-1.328-3.072-1.328-1.259 0-2.288.443-3.088 1.328-.8.885-1.2 2.021-1.2 3.408 0 1.43.4 2.581 1.2 3.456.8.875 1.83 1.312 3.088 1.312 1.259 0 2.283-.443 3.072-1.328zm7.712-11.984h5.632l3.168 5.216 3.36-5.216h5.376l-5.472 8.384 5.856 8.832h-5.664l-3.456-5.632-3.776 5.632h-5.44l5.952-8.8-5.536-8.416zM19.048 1978.776V1983H2.216v-3.488l8.288-8.544c.747-.747 1.339-1.477 1.776-2.192.437-.715.656-1.339.656-1.872 0-.704-.272-1.253-.816-1.648-.544-.395-1.296-.592-2.256-.592-.96 0-1.984.245-3.072.736-1.088.49-2.144 1.173-3.168 2.048l-1.984-3.776c2.944-2.197 5.93-3.296 8.96-3.296 1.493 0 2.816.24 3.968.72 1.152.48 2.048 1.152 2.688 2.016.64.864.96 1.872.96 3.024 0 1.13-.373 2.304-1.12 3.52-.747 1.216-1.803 2.528-3.168 3.936l-5.152 5.184h10.272zm19.616-15.424c1.685 1.963 2.528 4.779 2.528 8.448 0 3.648-.843 6.459-2.528 8.432-1.685 1.973-4.096 2.96-7.232 2.96-3.157 0-5.584-.987-7.28-2.96-1.696-1.973-2.544-4.784-2.544-8.432 0-3.67.848-6.485 2.544-8.448 1.696-1.963 4.123-2.944 7.28-2.944 3.136 0 5.547.981 7.232 2.944zm-10.752 2.72c-.747 1.195-1.12 3.104-1.12 5.728 0 2.603.373 4.507 1.12 5.712.747 1.205 1.92 1.808 3.52 1.808 1.557 0 2.71-.603 3.456-1.808.747-1.205 1.12-3.11 1.12-5.712 0-2.624-.373-4.533-1.12-5.728-.747-1.195-1.899-1.792-3.456-1.792-1.6 0-2.773.597-3.52 1.792zm33.312-2.72c1.685 1.963 2.528 4.779 2.528 8.448 0 3.648-.843 6.459-2.528 8.432-1.685 1.973-4.096 2.96-7.232 2.96-3.157 0-5.584-.987-7.28-2.96-1.696-1.973-2.544-4.784-2.544-8.432 0-3.67.848-6.485 2.544-8.448 1.696-1.963 4.123-2.944 7.28-2.944 3.136 0 5.547.981 7.232 2.944zm-10.752 2.72c-.747 1.195-1.12 3.104-1.12 5.728 0 2.603.373 4.507 1.12 5.712.747 1.205 1.92 1.808 3.52 1.808 1.557 0 2.71-.603 3.456-1.808.747-1.205 1.12-3.11 1.12-5.712 0-2.624-.373-4.533-1.12-5.728-.747-1.195-1.899-1.792-3.456-1.792-1.6 0-2.773.597-3.52 1.792zm33.312-2.72c1.685 1.963 2.528 4.779 2.528 8.448 0 3.648-.843 6.459-2.528 8.432-1.685 1.973-4.096 2.96-7.232 2.96-3.157 0-5.584-.987-7.28-2.96-1.696-1.973-2.544-4.784-2.544-8.432 0-3.67.848-6.485 2.544-8.448 1.696-1.963 4.123-2.944 7.28-2.944 3.136 0 5.547.981 7.232 2.944zm-10.752 2.72c-.747 1.195-1.12 3.104-1.12 5.728 0 2.603.373 4.507 1.12 5.712.747 1.205 1.92 1.808 3.52 1.808 1.557 0 2.71-.603 3.456-1.808.747-1.205 1.12-3.11 1.12-5.712 0-2.624-.373-4.533-1.12-5.728-.747-1.195-1.899-1.792-3.456-1.792-1.6 0-2.773.597-3.52 1.792zm31.888.656c1.227.736 2.176 1.776 2.848 3.12.672 1.344 1.008 2.89 1.008 4.64 0 1.728-.33 3.248-.992 4.56-.661 1.312-1.595 2.33-2.8 3.056-1.205.725-2.608 1.088-4.208 1.088-1.195 0-2.256-.23-3.184-.688a6.404 6.404 0 0 1-2.352-2v8.704h-4.928v-23.424h4.928v2.528a6.145 6.145 0 0 1 2.32-2c.928-.459 1.968-.688 3.12-.688 1.6 0 3.013.368 4.24 1.104zm-2.32 11.04c.79-.885 1.184-2.032 1.184-3.44 0-1.387-.395-2.523-1.184-3.408-.79-.885-1.813-1.328-3.072-1.328-1.259 0-2.288.443-3.088 1.328-.8.885-1.2 2.021-1.2 3.408 0 1.43.4 2.581 1.2 3.456.8.875 1.83 1.312 3.088 1.312 1.259 0 2.283-.443 3.072-1.328zm7.712-11.984h5.632l3.168 5.216 3.36-5.216h5.376l-5.472 8.384 5.856 8.832h-5.664l-3.456-5.632-3.776 5.632h-5.44l5.952-8.8-5.536-8.416z"/></g></svg>