<svg width="491" height="442" xmlns="http://www.w3.org/2000/svg"><path d="M479.951 104.798c.07-1.94 2.517-4.063 4.597-3.816 2.337.279 2.558 2.166 2.603 3.975.06 2.45-1.599 4.13-3.779 3.992-1.932-.122-3.498-2.021-3.421-4.151zm-468.89.284c-.233 1.974-1.062 3.674-3.512 3.857-2.172.162-3.783-1.608-3.683-4.075.072-1.809.322-3.693 2.695-3.884 2.15-.172 4.474 1.94 4.5 4.102zM475.376 80.77c.058 1.999-1 2.838-2.91 2.821-2.198-.02-4.4-1.878-4.264-3.761.174-2.395 2.053-2.655 3.877-2.711 2.14-.066 3.303 1.302 3.297 3.651zM19.099 83.584c-2.567.019-3.564-.93-3.451-2.884.121-2.101.852-3.735 3.362-3.585 1.835.11 3.872.391 3.758 2.783-.117 2.465-2.002 3.448-3.669 3.686zm460.588 10.49c-.026 2.51-1.739 2.665-3.472 2.75-2.086.103-3.111-.943-3.107-3 .006-2.3 1.32-3.601 3.476-3.585 2.43.018 2.866 2.008 3.103 3.835zm-461.762-.575c-.066 2.5-1.166 3.451-3.217 3.327-1.753-.107-3.501-.324-3.342-2.712.133-1.995.726-3.915 3.158-3.874 2.177.037 3.393 1.407 3.401 3.26zM5.617 115.923c.206-1.727.834-3.352 3.068-3.462 1.729-.084 3.233.607 3.29 2.539.066 2.193-1.255 3.502-3.46 3.624-1.666.092-2.812-.667-2.898-2.701zm476.84 2.756c-2.26-.401-3.513-1.608-3.416-3.644.1-2.108 1.728-2.786 3.563-2.541 2.16.289 2.847 1.946 2.742 3.887-.102 1.916-1.559 2.218-2.888 2.298zM359.08 12.9c-2.11-.185-3.722-1.261-3.87-3.336-.11-1.54 1.447-2.213 2.888-2.197 2.24.026 3.421 1.474 3.588 3.533.136 1.687-1.347 1.82-2.606 2zm-227.152-.003c-1.262-.18-2.74-.322-2.597-2.007.174-2.056 1.36-3.504 3.598-3.522 1.438-.011 2.994.654 2.879 2.204-.157 2.078-1.768 3.147-3.88 3.325zm-8.69-7.47c-1.84-.333-3.047-1.11-2.805-3.106.192-1.583 1.11-2.533 2.71-2.279 1.687.267 3.325.892 3.078 3.121-.202 1.816-1.453 2.34-2.983 2.264zm244.214.032c-1.723-.152-2.745-.974-2.67-2.766.087-2.05 1.713-2.505 3.251-2.65 1.813-.17 2.581 1.057 2.564 2.749-.02 2.076-1.553 2.43-3.145 2.667zM490.998 315.73c.038 1.672-.487 2.596-2.14 2.618-1.954.025-2.95-.988-3.008-2.825-.055-1.679.837-2.906 2.573-2.92 2.112-.016 2.179 1.854 2.575 3.127zM0 315.694c.469-1.362.576-3.245 2.728-3.088 1.715.126 2.557 1.369 2.434 3.055-.136 1.87-1.227 2.76-3.142 2.68-1.716-.072-2.023-1.16-2.02-2.647zm45.882 121.204c1.49.219 2.585.78 2.416 2.395-.17 1.647-1.059 2.764-2.848 2.705-1.451-.046-2.41-.86-2.33-2.379.087-1.722 1.182-2.572 2.762-2.72zm14.799-.377c-.045 2.212-.954 3.237-2.896 3.233-1.567-.005-1.945-.983-1.793-2.297.19-1.638.655-3.243 2.672-3.217 1.497.02 2.147 1.11 2.017 2.281zm375.726-1.859c-.045 1.372-.722 2.083-2.125 2.083-1.795 0-2.67-.888-2.63-2.674.03-1.306.587-2.315 1.998-2.21 1.617.118 2.633 1.088 2.757 2.801zM67.8 432.2c-1.379-.263-2.325-.896-2.218-2.471.105-1.529.703-2.628 2.44-2.565 1.502.057 2.272.874 2.17 2.408-.098 1.504-.647 2.613-2.392 2.628zm355.087-2.365c-1.576-.043-2.841-.266-2.755-1.976.079-1.562 1.221-2.055 2.59-2.006 1.363.05 2.961.218 2.905 1.998-.054 1.695-1.597 1.895-2.74 1.984zM4.632 304.11c1.556.123 2.065 1.02 2.026 2.316-.042 1.348-.42 2.484-2.073 2.498-1.605.013-2.155-.923-2.09-2.395.065-1.461.804-2.27 2.137-2.42zm481.677.009c1.482.147 2.157 1.015 2.213 2.459.058 1.496-.557 2.383-2.143 2.344-1.659-.04-1.993-1.21-2.022-2.543-.029-1.307.52-2.177 1.952-2.26zm-38.242 131.08c-.214 1.06-.225 2.444-1.886 2.586-1.14.097-1.756-.647-1.726-1.694.042-1.406.546-2.77 2.137-2.949 1.138-.127 1.457.905 1.475 2.056zM375.03 43.343c-.168 1.581-.402 3.218-2.604 3.007-1.716-.163-3.323-.614-3.274-2.894.05-2.18 1.288-3.257 3.303-3.318 2.06-.06 2.49 1.468 2.575 3.205zm-253.168.047c.123 2.314-1.504 2.782-3.226 2.96-2.179.224-2.565-1.341-2.61-3.007-.045-1.702.444-3.224 2.496-3.204 2.028.022 3.259 1.129 3.34 3.251zM38.609 257.008c1.907.472 3.688 1.18 3.556 3.553-.081 1.46-1.001 2.786-2.597 2.415-1.9-.441-3.722-1.434-3.703-3.854.014-1.761 1.169-2.243 2.744-2.114zm414.052-.027c1.697-.017 2.575.75 2.493 2.25-.128 2.331-1.814 3.464-3.81 3.741-1.802.25-2.626-1.26-2.496-2.826.19-2.283 2.053-2.864 3.813-3.165zm-1.185 16.048c-1.951-.005-3.187-.957-3.404-2.897-.224-2.01 1.298-2.46 2.814-2.523 2.004-.083 3.109 1.105 3.2 3.046.081 1.703-1.016 2.368-2.61 2.374zm-411.76 0c-1.565.05-2.779-.5-2.786-2.206-.007-1.906.998-3.223 3.03-3.208 1.482.011 3.085.326 2.987 2.348-.094 1.946-1.282 2.966-3.23 3.066zm96.336 132.846c.146-1.653.528-3.106 2.232-3.111 1.939-.006 2.705 1.442 2.639 3.206-.05 1.34-.146 2.99-2.075 2.878-1.827-.105-2.696-1.375-2.796-2.973zm9.46-5.282c.076-1.896.41-3.164 2.244-3.105 1.577.05 2.501.83 2.445 2.513-.052 1.51-.566 2.61-2.319 2.642-1.709.034-2.448-.825-2.37-2.05zm188.378-2.485c-.371 1.443-.484 2.9-2.457 2.683-1.398-.153-2.54-.582-2.36-2.21.152-1.394 1.075-2.232 2.545-2.223 1.244.007 2.275.358 2.272 1.75zm-173.649-.088c-.176 1.362-.833 2.572-2.42 2.588-1.565.014-2.099-1.328-1.996-2.598.111-1.369.846-2.695 2.445-2.704 1.57-.01 1.941 1.257 1.971 2.714zm192.765 6.9c-.085 1.287-.664 2.19-2.063 2.255-1.248.06-1.962-.585-1.978-1.87-.015-1.258.35-2.407 1.783-2.48 1.274-.061 2.154.674 2.258 2.094zm-10.961-4.72c-1.312-.093-1.817-.89-1.758-2.094.062-1.256.789-1.906 2.034-1.812 1.233.092 1.89.832 1.794 2.076-.097 1.228-.828 1.845-2.07 1.83z" fill="#FFF" fill-rule="evenodd"/></svg>