<svg width="598" height="572" xmlns="http://www.w3.org/2000/svg"><path d="M526.726 378c-.84 2.703-1.32 4.833.682 7 1.296-2.34.184-4.28-.682-7zm-456.19 8c1.855-2.51 1.737-4.665.806-7-1.54 2.975-1.676 3.904-.806 7zm416.106-171c-1.558 2.147-3.81 3.116-4.642 6 2.627-1.62 6.138-1.623 4.642-6zM531 386.756l.71.244c1.038-1.328 2.078-2.654 3.29-4.202l-4-.798v4.756zM67 387v-5l-3 .799L67 387zm49-167c-1.349-2.298-3.07-3.47-4.736-5-1.198 3.835 1.907 3.894 4.736 5zm442.154 76c2.638-3.595 2.615-3.71-1.154-6 .092 2.087.485 3.97 1.154 6zM39.83 296A21.541 21.541 0 0 0 41 290c-3.766 2.277-3.787 2.382-1.17 6zM474 443c-5.54 2.563-6.441 5.07-2.879 7 .444-2.58 1.203-4.993 2.879-7zm-350 0c1.959 1.884 2.33 4.512 3.221 7 3.013-3.316 2.364-4.68-3.221-7zm79.046-431c-.262 5.828.37 6.356 7.954 7-2.256-2.712-4.878-4.758-7.954-7zm191.732 0c-2.707 1.887-5.11 3.905-7.778 7 1.937-.567 2.976-.94 4.045-1.171 3.835-.824 4.355-1.571 3.733-5.829zM320 69c1.07 3.96 3.312 7.439 3.955 12 2.313-3.145 2.141-5.951 1.932-8.99-2.976.677-4.917-.299-5.887-3.01zm168.245 149c1.657-.941 4.095-.242 3.716-2.844-.291-1.997-1.242-3.895-2.007-6.156-2.406 2.815-2.051 5.642-1.709 9zm-379.653 0c.802-4.73.506-6.454-1.648-9-.443 1.416-.872 2.739-1.266 4.076-1.235 4.175-1.066 4.451 2.914 4.924zM444 535.4c-4.143-1.17-7.391-2.843-11-4.4 1.978 6.573 3.622 7.259 11 4.4zm-290 .046c7.085 2.991 10.11 1.745 11-4.446-3.514 1.842-7.012 3.204-11 4.446zM86 189.125c5.976 3.017 8.423-2.528 12-5.125-4.165 1.063-8.37 2.016-12 5.125zM291.08 86c-.795 7.412 4.498 9.878 8.92 13l-8.92-13zM512 189.285c-3.66-3.042-7.778-3.943-12-5.285 4.426 5.844 6.953 6.975 12 5.285zM178.473 490c-2.29 4.237-1.903 7.16 1.112 9 1.333-3.15 2.805-6.315-1.112-9zm239.698 9c3.446-2.513 3.75-5.617.88-9-3.9 3.625-3.914 3.768-.88 9zM40.053 267c-.566 5.409 3.568 9.33 4.067 15 1.266-1.783 2.37-2.976 1.654-4.372-1.822-3.538-2.829-7.513-5.72-10.628zm517.669-1c-1.521 5.429-6.422 9.159-4.114 15 1.746-3.154 2.406-6.784 4.487-9.694 1.196-1.673 1.337-2.963-.373-5.306zM203 41.527c-4.95-6.414-4.067-6.637-9-3.756 2.311 4.284 3.615 4.826 9 3.756zm201-4.152c-4.744-2.47-5.892-1.915-9 4.155 5.368 1.09 6.67.507 9-4.155zm-207 4.917c-3.904-5.832-4.047-5.84-12 .708 3.93-.233 7.712-.455 12-.708zm204-.07L414 43c-2.036-1.394-3.259-2.263-4.514-3.085-4.41-2.89-4.79-2.805-8.486 2.308zM79 196c3.173-2.359 8.806.582 11-4.119-5.225-1.944-8.918-.714-11 4.119zm440 0c-2.713-5.155-5.048-5.973-11-4.045 2.47 4.472 7.752 1.759 11 4.045zm16.668 145c.62-3.765 2.193-7.018 2.332-11-2.644 1.12-5.042 1.642-7 3.308 1.288 2.408 2.516 4.709 3.763 6.998.09.167.327.26.905.694zM62.67 341l4.33-8.254c-2.357-1.252-4.304-2.216-7-2.746.88 3.626 1.66 6.845 2.67 11zM373 506c-.194-8.362-2.894-12.027-10-14 3.581 4.435 6.608 8.85 10 14zm-138-14c-7.484 2.071-11.145 7.172-9.684 13 2.924-4.357 5.864-8.61 9.684-13zm82-416c-1.324 1.89-2.525 3.87-3.997 5.647-2.692 3.248-2.74 4.617.28 8.353 2.34-4.418 3.148-9.124 3.717-14zm245 214.852c2.745 1.761 5.443 2.644 9 3.148-1.81-3.293-2.614-6.465-5.273-9-1.759 1.766-2.62 3.711-3.727 5.852zm-527-.118c-1.057-2.093-1.815-4.011-3.472-5.734-2.214 2.788-3.366 5.644-4.528 9 3.08-.78 5.683-1.375 8-3.266zM226 92.23c-1.716-.304-3.392-.55-5.04-.901-3.861-.823-4.633-.274-4.96 3.639 5.694 1.826 7.257 1.415 10-2.738zm-8-2c3.691.176 6.443 2.283 10 1.653-.78-2.376-1.167-4.434-1.241-6.573-4.095-1.194-6.308 1.189-8.759 4.92zM345.157 478c1.767-1.76 3.225-2.766 5.047-3.005 2.106-.276 1.476-2.027 1.679-3.302.159-.992.372-2.048-.989-2.452-1.333-.398-2.786-.398-3.562.735-1.438 2.1-2.803 4.353-2.175 8.024zM86 196c-3.664.113-6.516 1.193-10 1.964 2.168 2.495 2.091 5.445 3.9 8.036 1.347-3.858 4.178-6.247 6.1-10zm426 .02c1.797 3.607 4.42 6.112 5.992 9.98 1.147-3.185 2.014-5.592 3.008-8.358-2.99-.425-5.655-1.824-9-1.622zM253.852 478c.648-3.55-.941-5.942-2.726-8.113-.911-1.11-2.601-1.05-4.08-.52-1.526.547-.96 1.708-.863 2.667.127 1.248-.388 2.921 1.79 3.147 2.115.217 3.67 1.43 5.88 2.819zM389.271 42c3.595-.144 6.604-2.897 7.729-6.975-3.174-.147-6.136.325-9 1.99.434 1.698.83 3.253 1.27 4.985zM209 36.861c-3.073-1.271-5.844-2.292-9-1.677 2.023 4.963 4.462 7.071 7.73 6.792L209 36.86zM525.564 398c1.6-3.028 2.477-6.302 2.435-9.663-.028-2.138-2.804-2.275-3.55-4.337L522 386.849c2.287 3.403 3.367 7.083 3.564 11.151zM73.023 384c-.894 2.698-5.16 2.957-3.734 6.693.97 2.543.895 5.451 3.06 8.307-.338-4.927 1.387-8.648 3.651-12.254-.945-.87-1.749-1.612-2.977-2.746zM259 520c3.806 9.087 7.374 12.28 13 11.981-3.282-4.808-7.74-8.179-13-11.981zm79 1c-4.549 2.972-8.894 6.155-12 10.996 7.79.179 9.25-6.113 12-10.996zM319.846 74c-.98 5.76-2.21 10.896-3.846 16 1.704-2.13 3.815-3.724 5.88-5.369.58-.464 1.292-.936 1.083-1.793-.692-2.826-.97-5.799-3.117-8.838zM514 286c1.777-.95 7.152-6.784 6.997-8.156-.262-2.326-1.22-4.567-1.885-6.844-1.079 5.199-4.109 9.523-5.112 15zM316.51 27c.167 5.13-2.73 10.602 3.687 14 1.832-5 .499-10.53-3.687-14zM98 120c-.276-2.423-.599-4.449-.71-6.484-.117-2.117-.027-4.244-.027-6.516-7.215 4.207-7.052 8.264.737 13zm402 1c7.742-5.359 7.883-9.65 1.052-14-.054 4.55.316 8.981-1.052 14zM84 286c-1.043-5.618-3.937-9.933-4.868-15-.927 2.265-2.695 5.099-1.956 6.54 1.532 2.99 2.973 6.526 6.824 8.46zm393 105c1.182 5.638.278 11.405 1.354 17 1.37-2.15 4.125-3.83 3.574-6.273-.864-3.827-2.582-7.484-4.928-10.727zm-356 0c-1.905 1.918-2.683 4.416-3.722 6.742-2.156 4.827-1.806 6.132 2.765 10.258.356-5.855.127-11.44.957-17zm92-280c1.883-4.725 5.269-8.571 8-13.146L214.805 97c-1.378 4.782-1.42 9.36-1.805 14zM109.382 413c-2.184 4.34-1.9 6.972 1.72 9.058 3.545 2.04 6.816 4.29 9.898 6.942-.957-3.22-3.952-4.918-6.057-7.24-2.294-2.53-3.827-5.466-5.56-8.76zM477 429c3.059-2.878 6.599-4.972 10.03-7.258 3.59-2.39 3.773-5.195 1.368-8.742-1.571 2.944-2.957 5.893-5.147 8.39-2.154 2.454-5.051 4.36-6.251 7.61zm-92-318c-.535-4.666-.37-9.33-1.864-14l-6.136.904c3.024 4.468 5.906 8.537 8 13.096zm114 99.371c-2.21-2.614-4.056-5.223-5.364-8.371-3.594 4.94-.271 8.806.592 13 2.644-.73 3.219-2.945 4.772-4.629zM103.43 215c3.217-7.25 3.324-8.8.822-13-1.325 3.177-3.346 5.778-5.252 8.458 1.447 1.596 2.013 3.838 4.43 4.542zm17.79 195c1.247-3.866 2.59-7.537 5.78-10.034-1.636-2.573-3.008-4.85-5.198-6.966-1.23 5.876-.715 11.442-.581 17zm354.934-17c-2.14 1.8-3.31 3.941-4.795 5.79-.474.592-.496 1.296.04 1.73 2.984 2.425 3.975 6.076 5.44 9.48.066-5.587.587-11.131-.685-17zm96.763-98c1.38-3.009.59-5.83 1.013-8.523.443-2.83-1.267-3.68-3.687-4.336-1.02-.277-1.703-.17-2.343.552-.574.647-1.27 1.362-.669 2.182 2.24 3.05 2.945 6.814 5.686 10.125zm-548.076 0c2.325-3.284 2.812-6.875 4.511-9.783.56-.954 1.017-1.892.219-2.951-.562-.743-1.149-1.752-2.135-1-1.06.804-3.155.137-3.24 2.118-.16 3.718-.568 7.51.645 11.616zm362.05-261c1.921-2.074 3.474-4.045 4.109-7-5.086.029-9.802.361-14 3.176 3.684.07 6.642 1.794 9.89 3.824zM207 27.006c.755 2.993 2.05 5.217 4.314 6.994 2.996-2.012 6.04-3.621 9.686-3.842-4.29-2.676-8.92-3.222-14-3.152zM25 276.268c2.493 1.167 5.015 3.128 7.183.2 1.743-2.352 2.94-5.108 4.817-8.468-3.151 1.834-5.405 3.524-8.062 3.747-2.94.245-3.79 1.834-3.938 4.521zM561 269c1.109 2.462 2.405 4.761 3.619 7.088 1.333 2.555 3.533 2.484 8.381.179-1.266-1.054-.087-3.434-2.498-3.771-3.405-.476-6.367-1.946-9.502-3.496zM89.508 121.595c-1.889 4.525 1.94 4.412 4.151 5.827 2.626 1.678 3.303-.724 4.467-1.787 1.387-1.268 1.021-2.993-.379-3.966-2.639-1.832-5.323-3.584-7.602-6.669-2.027 6.827 4.639 6.21 6.791 9.321-3.015.101-5.034-1.527-7.428-2.726zm418.235.13c-2.36 1.2-4.262 2.955-7.153 2.74 1.487-1.838 3.513-2.119 5.006-3.294 2.201-1.733 2.433-2.745.931-5.171-1.687 2.201-3.72 3.903-5.944 5.404-1.821 1.228-2.09 2.698-.707 4.829 2.378 3.668 4.637.578 6.768.013 2.129-.565 1.12-2.678 1.099-4.52zM327 526.4l.577.601c4.405-4.459 9.546-8.024 14.423-12.305-2.091-1.076-3.85.27-5.413-.367-2.404-.977-3.659.37-4.62 2.173-1.734 3.257-3.32 6.595-4.967 9.898zM271 526c-1.02-2.113-1.984-4.254-3.072-6.332-3.209-6.137-4.047-6.48-11.928-4.8 5.008 3.903 10.038 7.3 15 11.132zM379 27c3.472-.48 6.152-.966 8.855-1.197 5.205-.444 6.254-1.488 6.136-6.803-5.873.77-10.816 2.906-14.991 8zm-160 0c-4.054-5.07-8.802-7.264-15-8 .938 2.612.177 5.999 3.099 6.458 3.663.574 7.444.864 11.901 1.542zm178.09 521a43575.6 43575.6 0 0 1-3.95 10.475c-.2.533-.22 1.075.171 1.511 2.189 2.426 3.826 5.242 5.689 8.014-.351-6.597.774-13.22-1.91-20zm-196.223 0c-2.568 6.94-1.65 13.488-1.867 20 1.932-2.673 3.398-5.516 5.62-7.847.506-.533.437-1.162.194-1.798-1.248-3.266-2.49-6.534-3.947-10.355zM372 108.712L383 112c-2.696-5.346-5.538-9.446-9.352-14 .001 4.17-.241 7.283-1.648 10.712zM215 112c4.134-1.445 7.65-1.926 11-3.59-1.402-3.202-1.464-6.416-1.685-10.41-3.743 4.596-6.784 8.563-9.315 14zm82-54.61A44.466 44.466 0 0 1 305.991 68c.015-4.574-1.256-8.996 1.009-13.202-4.103-1.572-7.381-.879-10 2.593zM357.6 70c1.237-1.837-.622-9.277-2.515-10.558-1.975-1.336-5.568.413-9.085 4.475 4.108 1.645 8.108 3.435 11.6 6.083zm-117.382 1c3.476-3.035 7.51-4.783 11.782-6.87-1.979-1.446-3.558-2.464-4.869-3.922-1.846-2.054-4.391-1.386-5.49 1.225-.72 1.71-1.248 3.529-2.128 5.14-.882 1.617-.614 2.874.705 4.427zm59.333-49c2.188-4.287 1.926-5.89-.975-8.818-1.692-1.71-3.147-3.67-4.782-5.445C292.589 6.43 291.27 5.24 290 4c2.092 6.751 3.822 13.541 9.55 18zM308 72.642c.802 3.283.855 6.387 2.947 9.358 3.002-4.264 6.226-7.866 8.053-12.284L315.733 67c-2.307 2.149-4.398 4.518-7.733 5.642zM348.673 504c-5.703 1.308-9.487 4.671-12.673 9 4.67-.429 9.442.79 14-1.599-1.017-2.362-.514-4.748-1.327-7.401zM262 512.692c-3.95-4.087-7.412-7.73-12.853-8.692-.762 2.525-.274 4.88-1.147 6.95 2.664 1.702 8.943 2.549 14 1.742zM479 192c1.662-.752 2.925-1.461 4.266-1.894a19.791 19.791 0 0 1 4.199-.86c4.454-.414 4.767-.764 4.441-5.818-2.604.052-5.271.305-7.671-1.255-.739-.48-1.372.125-1.826.75-1.879 2.596-3.12 5.45-3.409 9.077zm-360 0c-.471-3.663-1.585-6.44-3.44-8.93-.521-.695-1.22-1.438-2.106-.867-2.45 1.58-5.205 1.182-8.454 1.23 1.147 2.034-.253 5.128 2.528 5.42 3.87.404 7.602.916 11.472 3.147zm345.157 273c-2.484 2.89-4.139 5.813-6.685 8.012-.545.47-.596 1.156-.266 1.781 1.681 3.162 3.021 6.469 4.287 10.207 3.655-6.475 4.286-12.83 2.664-20zm-326.598 19a49.038 49.038 0 0 1 4.032-9.672c.372-.68.684-1.47.026-2.064-2.533-2.29-4.418-5.105-6.787-8.264-1.577 7.383-1.033 13.705 2.73 20zM36.922 290c2.186-1.985 5.15-3.39 5.077-6.035-.116-4.165-2.013-8.027-4.098-11.965-4.367 6.048-3.038 11.777-.98 18zm523.276-18c-.334.406-.69.68-.834 1.042-.92 2.307-1.887 4.603-2.66 6.959-1.65 5.037-.491 7.547 4.456 9.999 1.99-6.054 3.234-12.064-.962-18zM435 537.207c-2.634-5.836-6.5-9.92-13-12.207.568 1.64 1.012 2.872 1.419 4.117.416 1.271.837 2.543 1.18 3.832 1.427 5.355 1.506 5.421 7.481 4.767.856-.094 1.7-.293 2.92-.509zm-272 .115c2.494.759 4.866.736 7.253.612.972-.05 1.506-.517 1.746-1.45.971-3.772 1.967-7.537 3.001-11.484-5.918 2.386-9.75 6.443-12 12.322zM196.895 563l1.09-.155c-1.218-7.56 2.46-14.72 1.97-22.845-2.29 3.097-4.433 5.467-7.145 7.322-.58.397-.985.82-.734 1.553 1.608 4.707 3.214 9.415 4.82 14.125zm203.208-.145l1.04.145c1.593-4.75 3.185-9.5 4.781-14.249.191-.573.018-1.037-.487-1.363-2.904-1.872-4.945-4.58-7.424-7.388-.25 8.03 3.15 15.225 2.09 22.855zM516 341.007c1.593 1.458 3.248 2.935 4.514 4.821.273.409 1.014.99 1.165.883 2.883-2.012 5.389.034 8.321 1.289-1.2-3.613-2.798-6.298-4.63-8.792-3.556-4.844-7.137-4.17-9.37 1.8zm-433-.082c-1.944-4.84-4.506-6.15-7.74-3.764-3.46 2.554-5.07 6.41-7.26 10.839 3.408-1.338 5.76-3.451 8.71-1.432.561.386 1.192-.328 1.565-.871 1.298-1.887 3.054-3.33 4.725-4.772zM462 485c4.11-2.346 9.544-8.545 10.704-11.79.254-.708.599-1.471-.203-1.927-2.64-1.508-4.287-4.12-7.218-6.283.212 7.037.54 13.602-3.283 20zm-329.594-21c-2.755 2.38-4.404 4.922-6.903 6.463-.764.473-.509 1.24-.204 1.938 2.1 4.818 5.694 8.32 9.701 11.599-3.11-6.147-2.825-12.755-2.594-20zM76.323 257c-2.192 5.657-3.806 10.635-7.323 14.725L76.22 277c2.477-6.493 2.235-12.713.103-20zM529 271.702c-3.555-4.138-5.127-9.157-7.282-14.702-2.212 7.178-2.392 13.448.072 20l7.21-5.298zM283.573 73c-.644 5.443-1.034 10.256.453 15.068 1.213 3.925 2.59 4.953 6.974 4.932-.817-6.948-2.823-13.55-7.427-20zM315 48.693c-1.605-2.164-2.186-4.667-2.363-7.693-4.995 3.835-10.044 6.568-15.637 8.402 6.111 1.487 12.184 5.374 18-.709zM302.902 102c.393-4.042.586-7.172 1.039-10.263.298-2.041-.55-2.95-2.133-3.99-3.797-2.493-8.422-3.409-11.808-6.747 3.367 7.316 8.437 13.406 12.902 21zm7.84-47.9c-3.373-.614-4.26 1.706-4.58 4.06-.568 4.162.506 8.238.957 12.84 4.774-2.577 8.505-5.226 7.794-11.385-2.717-.538-4.304-2.356-4.17-5.515zm39.8 459.9c-9.392 1.2-11.102 9.819-15.542 15.966 5.17 1.742 5.818 1.535 8.143-2.578 2.154-3.814 4.45-7.531 7.05-11.05.57-.77 1.297-1.453.348-2.338zM263 529.318c-1.706-2.877-3.615-5.401-4.791-8.231-2.052-4.934-6.393-6.346-10.573-8.087-1.348 1.335-.215 2.013.313 2.827 2.2 3.394 4.483 6.739 6.557 10.209 2.666 4.457 2.59 4.502 8.494 3.282zM80 319c-4.987-8.35-14.387-10.336-22-5.143 6.611 4.304 14.03 4.718 22 5.143zm437-1.28c8.258 1.148 19.666-1.39 23-4.728-1.713-.575-3.41-1.202-5.146-1.71-1.598-.469-3.016-1.676-4.875-1.153-4.82 1.351-8.395 4.449-12.979 7.59zM95.618 189c-2.033.919-3.11 2.243-3.199 4.198-.184 4.009-.497 8.024-.401 12.028.07 2.867.43 5.795 2.322 8.774 2.7-3.19 6.167-5.07 3.957-10.15-1.94-4.456-1.836-9.68-2.679-14.85zm408.206 25c.302-.46.523-.686.62-.958 2.474-6.923 1.38-14.025.873-21.076-.105-1.466-1.112-2.652-2.725-2.966-1.34 6.128-.83 12.437-3.471 18.107-.26.56-.065 1.079.252 1.503 1.374 1.84 2.508 3.914 4.45 5.39zM141.815 472c1.763-3.458 2.568-6.723 2.01-10.208-.156-.977.015-2.341-.993-2.82-2.982-1.412-5.334-3.933-8.797-4.972-.356 7.274 1.991 13.13 7.78 18zm314.43 0c5.685-4.887 8.116-10.79 7.712-18-9.665 2.809-12.42 9.105-7.712 18zM177 521.884c-2.385-.384-4.23-.243-5.609-.984-3.857-2.073-6.121-.293-8.54 2.574A55.138 55.138 0 0 1 151 534c9.494-1.781 17.589-6.39 26-12.116zM447 534c-5.728-3.483-9.983-8.446-14.52-13.086-.437-.446-.897-1.123-1.566-.852-2.843 1.153-5.816 1.812-8.914 2.247 7.738 5.496 15.686 10.04 25 11.691zm30-109c11.263-10.05 12.53-13.807 6.213-21-1.088 1.455-2.18 2.862-3.212 4.31-.828 1.162-2.31 1.924-2.21 3.657.234 4.124.169 8.25-.791 13.033zm-356 0c-1.782-7.731 1.456-15.872-6.626-21-.944 2.908-4.623 5.146-2.938 9.076 1.918 4.47 4.906 8.2 9.564 11.924zM99.97 206c4.295-7.353 5.107-14.448 2.675-22-5.16 1.114-6.102 2.422-5.473 7.338.318 2.48.514 4.982.943 7.44.383 2.197.172 4.567 1.854 7.222zm398.212 0c1.87-4.764 1.862-9.75 2.611-14.584.765-4.934-.487-6.535-5.479-7.416-2.387 7.806-1.575 15.135 2.868 22zM477 440.336c-.383-1.804-1.06-2.59-2.873-2.264C465.78 439.58 456.814 448.55 455 458c3.266-3.125 7.72-3.845 9.643-7.432 2.752-5.134 6.67-8.48 12.357-10.232zm-356-.077c4.769 1.462 9.048 3.883 11.218 8.402 2.26 4.707 7.096 5.597 10.782 8.339-1.283-3.137-3.005-5.927-4.567-8.802-3.059-5.637-8.009-8.543-14.1-10.016-1.94-.468-3.017-.12-3.333 2.077zM124.774 470c9.63-6.336 10.173-12.951 4.893-21-4.238 5.038-7.124 17.069-4.893 21zm343.385-21c-6.035 10.334-2.962 16.525 5.311 21 1.77-3.997-1.119-15.704-5.311-21zM303.142 17c-.348 1.986-.207 4.054-.982 5.934-.331.801-.133 1.48.458 2.014 3.814 3.438 8.308 5.927 12.004 10.052 1.175-10.646.19-13.831-11.48-18zM50.032 324c-.534 12.84 5.594 18.328 10.84 21 .68-5.26-1.521-10.055-2.368-15.039-.077-.445-.528-.934-.941-1.204-2.463-1.603-4.968-3.148-7.53-4.757zM548 323c-4.88 3.456-10.014 5.36-10.05 12.151-.015 3.093-1.571 6.162-.669 9.849 3.578-2.165 5.48-5.535 7.775-8.47 2.98-3.814 1.347-8.625 2.944-13.53zM110.224 127c1.579-3.546.79-7.14-2.747-12.083-1.435 2.535-2.363 5.33-4.804 7.453.194-4.087 5.892-6.756 1.687-11.614-.589 1.28-.868 2.07-1.298 2.767-.44.71-.435 1.856-1.673 2.05 1.47-6.729 1.47-6.729-1.925-8.573-.958 5.053-.439 11.145 1.614 18.203 3.13-.2 6.136.855 9.146 1.797zm380.132-13.316c-1.958 4.206-4.648 7.617-2.655 12.316 2.83-.878 5.498-1.904 8.39-1.826.548.014 1.089-.178 1.225-.775 1.301-5.702 2.284-11.425 1.255-17.399-4.668 2.134-2.6 5.572-1.71 9.052-2.04-1.359-1.88-3.52-3.465-4.913-3.869 4.582 1.876 7.255 1.936 11.247-2.383-2.13-3.288-4.854-4.976-7.702zM409.78 536c.956-2.226 1.316-3.957 1.197-5.664-.281-4.046-2.414-7.171-5.844-9.54-2.89-1.994-5.105.29-7.536 1.088-1.187.39-2.299.981-3.598 1.548 5.209 4.222 10.8 7.621 15.78 12.568zM204 524.143c-4.868-.972-8.77-6.15-13.493-.653-3.716 4.324-4.639 9.283-1.996 13.51 4.552-4.732 10.06-8.25 15.489-12.857zM531.017 279c-.235 6.296 2.057 11.147 3.113 16.222.073.353.428.782.76.922 3.838 1.625 7.413 3.733 11.11 5.856-4.506-7.657-5.997-17.148-14.983-23zm-464.228 0c-8.813 5.713-10.275 15.315-14.789 23 1.91-.805 3.396-2.203 5.15-2.78 5.436-1.787 8.078-5.437 8.714-11.034.319-2.802 1.644-5.486.925-9.186zM106 152.854c-2.116-1.744-4.115-3.377-6.1-5.03-1.637-1.366-2.844-.985-4.037.784-3.69 5.472-1.722 13.39 4.34 16.392.686-1.501 3.255-2.434 2.71-3.887-1.499-3.986.548-6.054 3.087-8.259zm386-.026c1.74 1.768 4.252 3.197 3.496 5.612-1.077 3.437.747 4.837 2.594 6.56 5.815-3.725 7.56-10.606 4.243-16.046-1.23-2.018-2.52-2.666-4.432-1.021-1.883 1.62-3.818 3.171-5.901 4.895zM191.42 547c5.992-3.642 11.624-14.299 11.58-22-3.126 2.813-6.195 5.493-9.175 8.277-5.82 5.433-5.8 5.456-2.97 13.04.07.185.26.323.565.683zm214.94 1c.911-2.82 1.691-5.256 2.49-7.687.3-.914.167-1.666-.565-2.33-4.635-4.197-9.256-8.41-14.285-12.983 1.39 9.517 4.794 17.159 12.36 23zM38 326c-1.737 2.044-3.19 4.474-5.271 6.048-3.902 2.947-4.544 6.976-4.585 11.332-.023 2.469-.62 5.059.797 7.62 2.095-2.548 4.033-4.838 5.888-7.191 1.163-1.474 2.396-3.094 2.402-4.999.01-4.29.604-8.505.769-12.81zm522-1c.304 9.728.755 18.966 9.535 25 .688-3.337.535-6.819.044-10.272-.243-1.714.162-3.758-1.17-5.074-2.968-2.929-5.69-6.084-8.409-9.654zM284 90c-3.945-6.896-1.359-14.056-1.74-21h-4.138c-1.364 3.153-1.364 3.153-4.811 3.842C271.533 83.285 277.69 89.029 284 90zm3.27-86c-1.506 7.088-2.476 13.308-2.233 19.663 4.583 1.71 8.982 1.84 13.963.039-6.253-5.188-8.183-12.433-11.73-19.702zm-7.937 48.094c1.495-3.667 6.184-5.605 4.545-10.094-3.926 1.032-5.821 3.138-6.136 6.882-.275 3.262-.649 6.475-2.42 9.368-.526.857-.48 1.805-.412 2.757.165 2.32.03 4.616-.656 6.86-.391 1.278-.53 2.457 1.095 3.133 2.405-1.327.132-3.782 1.28-5.376 1.878-.022 2.543 2.264 4.423 1.846 2.167-3.649-.358-6.723-1.657-10.01 2.44-.48 4.879 1.826 6.335-.887.736-1.371-.202-2.635-.786-3.846-1.283-2.657-3.4-.43-5.61-.633zM322.703 71c.986-.168 1.397-.885 1.277-1.399-.875-3.709-.078-7.7-1.237-11.217-1.07-3.238-1.914-6.404-2.195-9.797-.311-3.756-2.429-6.079-5.825-6.587-1.279 4.407 3.009 6.432 4.358 9.928-4.463-.535-6.018.157-6.079 3.052-.108 5.143 3.87 1.616 6.019 2.68-1.205 3.2-3.892 6.222-1.46 9.752 1.763.133 2.409-1.885 4.025-1.701 1.074 1.615-.982 3.89 1.117 5.289zM28 306.997c-1.724-4.164-5.644-7.128-5.717-12.131-.004-.28-.224-.707-.45-.811-4.063-1.877-7.868-4.762-12.832-3.897-.055 3.409 1.873 5.57 3.58 7.836 3.944 5.23 8.613 9.127 15.419 9.003zm561-16.844c-3.536-.628-8.356.736-12.332 3.043-2.048 1.189-1.37 3.164-1.759 4.853-.093.4-.235.885-.518 1.131-2.392 2.075-2.947 5.382-5.391 7.82 4.897-.611 9.239-1.469 12.46-5.074 3.07-3.44 6.787-6.478 7.54-11.773zM36.15 294c-2.702.996-5.44 1.944-8.126 3.02-1.48.592-2.652 1.354-1.651 3.381 2.83 5.745 7.032 9.82 13.384 11.599.83-7.009-.488-13.543-3.608-18zm525.508-1c-3.325 5.71-4.111 11.713-3.436 18 6.243-1.712 10.198-5.552 13.108-10.733 1.328-2.364.635-3.53-1.661-4.351-2.545-.909-5.08-1.847-8.011-2.916zM304 74c-.216-9.122-9.813-19.453-17.207-18.985-.31 2.688-2.266 3.945-4.793 4.664 6.523 6.192 15.988 7.017 22 14.321zM157 465.128c-1.896-4.12-3.54-8.242-5.637-12.109-2.401-4.431-7.368-6.803-11.363-5.785.607 1.138 1.136 2.278 1.79 3.335 1.955 3.16 3.984 6.38 3.864 10.238-.095 3.004 1.408 4.155 3.804 4.756 2.446.615 4.886.674 7.542-.435zm284 .18c3.278 1.044 6.423.937 9.583-.525 1.133-.525 1.65-1.154 1.638-2.367-.04-4.29 1.65-7.981 3.97-11.5.768-1.166 1.836-2.3 1.808-3.886-7.67-.497-12.927 5.157-16.999 18.277zM230 18.167c-2.285-2.935-4.966-4.21-8.658-4.782v8.908c-.67-.61-.852-1.215-.874-1.822a32.859 32.859 0 0 1 .03-3.44c.309-4.531.034-4.81-4.758-4.511-.407 2.238.29 4.47.491 7.203-1.64-2.858-.044-6.463-2.593-7.915-2.35-1.34-5.417-.771-8.638-.038 6.224 5.245 11.427 10.918 16.93 17.229.047-8.674 1.655-9.773 8.07-10.832zm146.565-4.954c-3.7.995-6.56 2.018-8.565 5.08 2.915.196 5.282.721 6.875 2.823 1.595 2.105.897 4.735 1.32 7.883 5.512-6.42 10.838-11.964 16.805-17.055-6.629-2.048-9.044-.9-10.391 4.758-.662-1.444.522-3.087-.485-4.464-4.787.426-4.748.423-4.531 5.144.077 1.66.326 3.39-1.028 4.923v-9.092zM110 445.714c-6.648-.605-12.344-1.37-17.458-4.42-1.408-.838-2.344.253-2.88 1.557-2.221 5.405 1.388 13.111 7.223 15.149 2.468-5.542 7.21-8.82 13.115-12.285zM501.159 458c2.769-1.698 4.443-4.086 6.276-6.306 2.49-3.017 1.526-6.285.408-9.414-.577-1.617-2.041-1.52-3.464-.71-2.982 1.697-6.226 2.748-9.633 3.223-2.13.296-4.319.209-6.746 1.069 2.93 1.605 5.316 3.3 7.638 5.105 2.379 1.85 3.775 4.384 5.52 7.033zM417.25 76c-2.19.53-3.26 1.887-4.31 3.207-3.067 3.855-3.988 16.724-1.546 20.96 1.327 2.3 3.236 2.477 4.772.294.718-1.02 1.208-2.256 1.568-3.464 2.064-6.947 1.386-13.838-.484-20.997zm-235.49 0c-1.97 7.631-2.61 14.848-.222 22.067.594 1.792 1.307 3.982 3.63 3.932 2.411-.051 2.785-2.315 3.193-4.176 1.192-5.435.62-10.833-.947-16.07-.766-2.558-2.667-4.51-5.653-5.753zm63.687 440c-3.663 3.746-7.463 6.448-12.448 7.032 2.69 6.322 13.012 9.762 22 7.011-2.831-4.814-6.099-9.265-9.552-14.043zM342 530.398c8.896 1.762 18.979-.231 22-7.472-5.111-.425-8.776-3.578-12.421-6.926-3.358 4.836-6.73 9.259-9.579 14.398zM3 329.042c5.266.624 10.112 2.259 14.362-1.048 3.926-3.053 7.446-6.61 11.638-10.39-5.062.531-9.785-1.754-14.048.203-4.839 2.222-9.06 5.599-11.952 11.235zm567-11.3c3.56 3.266 6.933 6.284 10.218 9.394 3.28 3.106 10.732 3.86 14.782 1.396-5.49-8.553-9.417-13.496-25-10.79zM288 39.984c.762 2.1 2.424 3.528 3.42 5.357 1.493 2.742 3.67 3.058 6.472 2.31 4.185-1.118 7.765-3.358 11.394-5.578 7.508-4.593 7.527-4.563.586-10.01-.13-.103-.385-.045-.581-.061-5.496 6.002-10.687 7.967-21.291 7.982zM210 59c-8.372 3.472-14.476 14.758-12.687 22.262.805 3.381 4.695 4.833 7.613 2.817 1.523-1.052 2.71-2.406 3.644-3.988.94-1.593 1.166-2.906.278-4.868C206.5 70.03 205.727 64.643 210 59zm179.028 0c3.334 4.996 3.112 10.301.764 15.153-2.013 4.16.184 6.344 2.428 8.834 1.515 1.683 3.358 2.618 5.706 1.574 2.245-.997 3.068-2.8 3.074-5.141.013-5.76-1.89-10.925-5.037-15.617-1.62-2.417-4.08-3.915-6.935-4.803zM425 537.469c-1.56-4.681-2.625-9.275-4.627-13.581-.298-.64-.768-1.383-1.37-1.684-3.27-1.635-6.35-3.668-9.88-4.77-1.514-.474-3.224-1.01-4.123 1.063.465 1.071 1.577 1.435 2.33 2.161 2.94 2.837 4.954 6.117 4.946 10.255-.012 5.573-.05 5.548 5.817 6.693 2.148.419 4.264.675 6.907-.137zm-251 .045c3.844 1.12 7.21.089 10.617-.931 1.947-.584 2.505-1.68 2.175-3.528-.78-4.372.899-8.06 3.707-11.324 1.012-1.176 2.335-2.102 3.501-3.127-1.034-2.206-2.733-1.646-4.245-1.168-3.53 1.117-6.619 3.135-9.885 4.788-.598.303-1.062 1.056-1.351 1.7-1.944 4.325-3.157 8.872-4.519 13.59zM92 376c-11.5 5.958-21.945 17.604-16.529 27 3.226-4.18 7.04-7.728 10.806-11.285C90.83 387.413 91.19 381.973 92 376zm430.712 27c4.907-9.592-4.971-21.327-16.712-27 .813 5.26.947 10.335 4.614 14.327 3.87 4.213 8.283 7.933 12.098 12.673zm-34.598-38.035l.55-.113c.482 1.663.981 3.322 1.443 4.991.47 1.699.377 3.678 1.862 4.915 4.802 4.002 9.688 7.903 15.031 12.242-.502-2.947-1.066-5.185-1.227-7.451-.246-3.49-1.58-5.928-4.912-7.723-3.55-1.911-6.668-4.587-9.982-6.92-3.865-2.723-7.468-5.818-11.879-7.906 2.384 4.826 4.87 9.527 9.114 13.727v-5.762zM118 357c-.36.19-.742.348-1.075.577-7.7 5.277-14.71 11.511-22.746 16.323-.634.379-1.22.85-1.349 1.65-.584 3.628-1.16 7.259-1.83 11.45 4.533-3.665 8.549-7.012 12.678-10.212 2.125-1.645 3.273-3.69 3.69-6.289.3-1.875.773-3.727 1.92-5.95.488 2.359-.456 4.1.332 6.218 3.857-4.083 6.287-8.726 8.38-13.767zm90.353-313.772c-6.38-1.265-9.942 3.056-14.454 5.045l5.804-5.005c-3.362.45-5.739.898-8.165.8-2.485-.1-4.956.088-7.538.712 6.206 7.25 25.17 12.644 32 6.63-2.946-1.83-5.706-3.805-7.476-7.045L199.8 51.44c2.334-3.837 5.478-5.499 8.554-8.211zM382 51.478c7.338 5.978 26.366.332 32-6.588-4.856-1.388-9.85-.21-14.85-.983l4.978 4.448c-9.886-5.844-9.903-5.851-13.98-4.867 2.452 2.592 5.9 4.034 7.899 7.752-3.243-2.255-5.444-4.95-8.622-6.568-1.766 3.054-4.406 4.936-7.425 6.807zM157.843 94c-3.414 7.172-3.424 14.51-1.76 21.962.238 1.061 1.08 2.029 1.782 2.926 1.068 1.363 2.389 2.53 4.251 1.967 1.752-.53 2.058-2.26 2.365-3.801 1.352-6.781-.08-13.197-2.655-19.423-.656-1.59-1.821-2.803-3.983-3.631zm282.348 0c-2.22.772-3.409 2.093-4.094 3.798-2.35 5.846-3.816 11.856-2.735 18.236.33 1.949.358 4.34 2.732 4.872 2.586.579 3.838-1.624 5.138-3.399.365-.499.69-1.101.808-1.702 1.465-7.385 1.546-14.649-1.849-21.805zm-199.426-1.285C238.155 80.908 246.918 74.457 253 66c-10.104 4.105-17.598 10.407-23.237 18.88-1.55 2.328-.628 4.671 1.768 6.329 2.932 2.029 6.099 2.011 9.234 1.506zM521.908 220.8c.375-1.174-.495-1.814-.875-2.63-1.194-2.563-2.89-5.023-3.209-7.828-.814-7.18-5.492-11.717-10.18-17.342.225 7.28.934 13.723-1.482 19.892-.56 1.424.424 2.123 1.53 2.623 3.097 1.4 6.162 2.883 9.314 4.137 1.546.616 3.056 1.826 4.902 1.148zM90.14 194c-9.626 6.299-9.517 17.64-15.14 27 5.904-1.255 10.342-3.601 14.945-5.512 1.92-.797 2.523-1.964 1.69-3.9-1.476-3.423-1.627-7.04-1.51-10.698.077-2.327.015-4.657.015-6.89zm173.501 285c-2.53 11.977 2.26 26.332 17.359 28-4.472-6.117-6.636-12.85-8.344-20.003-.9-3.77-4.58-6.889-9.015-7.997zm70.872 0c-4.55.904-9.31 5.76-9.902 9.83-.544 3.738-1.597 7.338-3.34 10.688-1.297 2.493-2.782 4.888-4.271 7.482 15.653-2.331 19.518-16.123 17.513-28zm6.738-392c3.474-10.806-5.746-26.408-15.148-25.992C324.97 69.52 333.397 84.126 341.25 87zm-56.04-61.787c-.62 3.739.248 6.9.982 10.08.363 1.577 1.388 2.23 2.896 2.465 6.307.974 11.921-1.108 17.205-4.144 2.434-1.397 2.175-3.173-.212-4.766a69.23 69.23 0 0 1-4.11-2.955c-.887-.69-1.75-1.148-2.896-.738-4.525 1.615-9.085 1.644-13.864.058zM481.636 201.82c3.2-1.638 6.61-2.521 10.365-3.164l-.853-8.655c-3.445.184-6.538.687-9.6 1.569-1.861.535-2.603 1.542-2.544 3.626.219 7.77 2.79 15.198 2.636 23.805 5.168-5.609 7.046-12.026 9.901-18.42-3.807.225-6.74 1.608-9.905 1.24zM106 198.351c3.821.738 7.263 1.387 10.277 3.553l-9.946-1.811c3.063 6.4 4.835 12.767 9.832 17.907.29-2.864.527-5.126.746-7.387.513-5.289 2.166-10.423 2.053-15.79-.02-.97.363-2.162-.932-2.717-3.606-1.543-7.35-2.115-11.254-2.106l-.776 8.35zM297 53.674c-6.4-2.952-9.904-8.73-12.704-14.782-2.899-6.263-1.855-13.297-1.813-20.892-4.694 4.24-7.638 8.49-7.477 14.224.11 3.86 2.566 7.3 1.736 11.536 2.795-1.026 4.7-4.55 6.863-2.35 2.53 2.571.274 5.748-1.084 8.44 8.595 6.932 11.347 7.7 14.479 3.824zm263 259.31c2.67 1.743 5.099 2.728 7.835 2.898 6.152.382 12.246-.186 18.271-1.356 3.391-.657 6.638-1.94 9.362-4.128 2.33-1.872 1.972-3.327-.872-4.236-2.148-.686-4.332-1.046-6.622-1.151-4.025-.186-7.478 2.094-11.261 2.41-5.979.5-10.94 3.477-16.713 5.563zm-522 .123c-2.001-.906-3.751-1.55-5.362-2.459-4.516-2.544-9.697-2.587-14.416-4.284-4.535-1.631-9.004-1.857-13.564-.364-1.075.352-2.537.44-2.651 1.887-.097 1.226.842 2.186 1.83 2.888a14.81 14.81 0 0 0 1.893 1.163c8.43 4.237 17.41 4.466 26.474 3.747 1.944-.155 3.773-1.17 5.796-2.578zm483 16.064c3.26-1.16 5.737-.573 7.905 1.237.959.8 1.851.697 2.933.233 2.821-1.213 5.792-2.132 8.512-3.522 5.122-2.62 10.181-5.43 10.65-12.007-10.146-1.089-25.517 5.909-30 14.059zM155 92.254c-1.529-5.989-11.484-14.171-16.802-14.254-2.554-.037-6.258 2.613-6.929 5.11-.808 3.002.223 5.363 2.815 7.021 6.642 4.251 13.728 2.675 20.916 2.123zM78 328.987c-4.08-7.997-21.181-15.676-30-13.662 1.026 2.683 1.503 5.53 4.03 7.534 4.705 3.732 10.306 5.697 15.785 7.93.756.309 1.467.312 2.087-.217 2.306-1.97 4.931-2.649 8.098-1.585zM451.604 93c3.678-.159 7.308-.367 10.563-2.438 3.495-2.227 4.668-5.126 3.237-8.237-1.557-3.384-5.761-5.194-9.184-3.911-5.814 2.177-10.028 6.34-13.57 11.317-1.345 1.893-.48 2.674 1.464 2.81 2.495.173 4.993.307 7.49.459zm-146.458-6c.542-3.126.97-6.012.826-8.95-.042-.82.21-1.856-.61-2.33-2.976-1.72-5.009-4.633-8.221-6.035-4.886-2.13-9.96-3.916-14.105-7.685-.697 9.843 8.698 20.39 22.11 25zM52.358 276c-7.362 3.37-12.897 21.527-9.157 34 8.514-6.725 15.932-24.916 9.157-34zm502.134 34c2.043-16.125-2.279-31.702-9.311-34-6.11 10.483 1.788 28.069 9.311 34zM373 519.687c-4.572-4.122-7.228-9.249-11.142-13.44-1.804-1.932-3.715-3.666-6.337-4.504-4.821-1.543-5.772-.882-5.47 3.874.006.103.013.207.013.31.075 11 11.464 18.155 22.936 13.76zm-148-.147c8.59 3.594 16.65.18 20.507-6.182 2.06-3.397 1.805-7.133 2.453-10.745.276-1.538-.923-1.662-2.008-1.601-3.327.184-6.23 1.28-8.67 3.686-4.53 4.467-7.26 10.334-12.282 14.842zm296.157-223.118c-.352.8-.033 1.26.187 1.738 4.297 9.352 19.32 16.228 29.228 14.6 1.708-.28 1.803-1.38.714-2.5-1.633-1.679-3.305-3.35-5.126-4.796-7.343-5.827-14.939-11.002-25.003-9.042zM524.99 171c2.963-1.305 3.777-3.887 3.973-6.593.398-5.474-2.51-9.636-5.834-13.54-.67-.787-1.74-1.127-2.641-.643-4.48 2.405-9.186 3.853-14.488 3.415v5.745c7.351 2.253 13.815 5.828 18.99 11.616zm-451.904 0c5.142-5.954 11.617-9.42 18.914-11.73-.186-1.91.2-3.832-.606-5.826-4.782.676-9.047-.824-13.138-2.987-1.456-.77-2.694-.577-3.694.65-2.455 3.013-4.6 6.225-5.342 10.172-.779 4.145.509 7.5 3.866 9.721zM78 296.327c-5.2-.624-9.758-.461-14.091 1.43-6.31 2.753-11.845 6.591-16.793 11.227-.602.565-1.426 1.109-.997 2.069.422.946 1.409.706 2.246.796 8.263.874 15.375-2.152 21.988-6.328 3.358-2.12 6.15-5 7.647-9.194zM90.887 256c0-2.544.289-4.99-.057-7.344-.942-6.424-2.467-12.571-9.244-15.61-3.653-1.638-3.854-1.63-5.48 2.043-.418.946-1.254 1.7-1.741 2.625-.856 1.629-2.116 3.089-.785 5.242 4.03 6.51 9.606 10.846 17.307 13.044zm416.444 0c7.322-2.165 12.868-6.23 16.85-12.543 1.028-1.628 1.074-2.913.218-4.38-1.163-1.995-2.741-3.75-3.307-6.087-.208-.852-.945-1.17-1.761-.893-3.884 1.32-7.646 3.045-9.451 6.958-2.436 5.28-3.466 10.9-2.549 16.945zM522 249c-2.959 2.364-5.757 4.64-9.262 6.01-6.152 2.406-6.442 2.834-5.056 9.18 1.737 7.966 2.348 15.921.872 23.979-.096.523-.419 1.203.714 1.831 8.098-12.576 8.27-27.386 12.732-41zM89.22 290c-.462-5.45-.965-10.86-.372-16.265.474-4.324 1.236-8.626 2.05-12.906.413-2.174-.438-3.488-2.332-4.306-4.49-1.94-9.014-3.814-12.566-7.523 4.467 13.716 4.62 28.593 13.22 41zM41 254.19c-4.232-.539-8.002-1.285-11.623-2.806-2.654-1.115-4.671.32-5.655 2.72-1.318 3.218-1.956 6.627-1.644 10.086.468 5.163 3.071 6.803 8.103 5.246 2.06-.637 4.056-1.46 6.111-2.112.918-.291 1.508-.805 1.782-1.647 1.188-3.656 2.378-7.314 2.926-11.486zm516 .132c.446 4.303 1.707 8.148 2.94 11.998.238.744.758 1.246 1.561 1.502 2.987.955 5.965 1.945 8.937 2.945 1.69.569 2.66.107 3.65-1.506 3.289-5.351 1.737-10.583-.207-15.738-.72-1.911-2.823-3.09-4.832-2.245-3.819 1.606-7.763 2.552-12.049 3.044zM11 339.874c10.964 1.626 28.555-12.81 29-23.798-7.284-1.418-27.662 17.389-29 23.798zM587 339c-.388-2.91-2.527-4.354-4.077-6.138-6.319-7.276-13.406-13.573-22.558-17.2-1.184-.468-2.274-1.25-3.365.06 4.667 14.387 16.333 22.687 30 23.278zM123.1 131.066c-5.98-.315-7.988-2.42-7.782-7.911.058-1.526.544-2.878 1.194-4.203 1.877-3.821 4.397-7.097 7.712-9.732.775-.617 2.039-1.17 1.728-2.386-.765-2.972-1.059-6.163-3.145-8.834-3.655 2.234-6.938 4.542-9.492 7.783-1.698 2.154-3.418 4.493-3.31 7.313.173 4.484 1.84 8.834 1.378 13.418-.027.257.209.63.429.814 2.952 2.465 5.344 5.46 7.462 8.672 2.362-1.07 3.375-2.74 3.825-4.934zM474.07 98c-1.735 2.147-1.83 4.57-2.671 6.683-.852 2.145-.33 3.51 1.447 4.82 3.42 2.523 5.842 5.951 7.67 9.807 3.08 6.499.242 11.581-6.734 11.882.546 2.237 1.445 4.06 3.678 4.808 4.164-5.217 9.86-9.415 8.52-17.248-.049-.285.103-.627.22-.916 1.88-4.627.211-8.453-2.591-12.004-2.567-3.254-5.854-5.58-9.539-7.832zM43.381 355c7.044-11.928 7.577-34.523.966-41-6.633 8.222-7.255 34.692-.965 41zm511.366 0c6.215-6.847 5.445-33.66-1.177-41-6.593 7.2-5.925 30.51 1.177 41zM455 104.396c2.133 3.413 3.896 6.697 6.102 9.649 3.448 4.615 7.1 9.087 10.855 13.457 1.986 2.31 5.801 3.214 7.176 1.872 2.133-2.085 2.242-4.726 1.308-7.443-.208-.602-.51-1.178-.82-1.737-4.248-7.629-10.704-12.596-18.77-15.609-1.739-.65-3.516-.822-5.851-.189zm-311-.216c-1.154-.075-2.006-.214-2.85-.172-7.788.376-20.986 11.188-22.833 18.76-.612 2.51-.509 5.276 1.861 6.63 2.545 1.456 5.299.06 6.892-1.95 5.874-7.401 12.64-14.18 16.93-23.268zM478 359c.058 9.66.845 19.116 5.036 27.949.485 1.02.98 1.924 2.31 1.707 6.69-1.086 13.343.364 20.654.344-4.326-3.65-8.472-6.729-12.108-10.338-3.307-3.283-7.072-4.798-11.53-5.06-.931-.056-2.035.074-2.477-1.337 2.53-.378 4.834.229 7.827.347-4.237-4.34-6.57-9.225-9.712-13.612zM314 524.647c.013 1.64 1.162 2.232 1.83 3.099 2.478 3.23 5.81 6.233 6.256 10.343.714 6.588 5.528 8.762 10.228 11.32 1.185.646 2.473 1.1 3.671 1.723 1.342.698 2.768 1.363 4.096.348 1.394-1.067.883-2.776.521-4.102-.944-3.454-2.648-6.593-4.614-9.567-3.913-5.924-4.588-6.102-11.08-3.183-.83.374-1.713 1.096-2.54.138-.662-.768-.097-1.589.22-2.346 1.077-2.561 2.316-5.064 3.089-8.42-4.063 1.526-7.843 1.468-11.677.647zM271.537 524c1.05 2.599 1.946 4.61 2.67 6.676.459 1.315 2.151 2.722.873 4.012-1.359 1.373-2.66-.52-4.004-.909-1.976-.574-3.969-2.316-5.995-.485-4.456 4.028-7.256 9.093-8.806 14.8-.305 1.125-.643 2.625.71 3.478 1.325.833 2.642.294 3.962-.298a83.114 83.114 0 0 0 10.977-5.932c1.256-.808 2.134-1.617 2.355-3.124.78-5.299 3.458-9.669 6.917-13.688.978-1.135 2.334-2.1 2.804-4.134-4.182 1.155-8.072.691-12.463-.396zM92 389c7.169-.032 13.78-1.408 20.433-.378 1.272.195 1.935-.366 2.463-1.469 4.257-8.9 5.145-18.408 5.103-28.153-2.936 4.596-5.735 9.205-9.71 13.907 3.157-.605 5.456-1.05 8.04-.499-.936 1.31-2.057 1.091-3.062 1.22-2.733.351-5.686.44-7.869 2.197C102.28 379.94 97.396 384.349 92 389zm69.732-331.988c-5.083.074-8.294 5.334-5.953 9.862 1.945 3.758 5.041 6.237 9.222 6.958 3.618.624 7.302.924 10.972 1.152 2.728.17 3.67-1.015 2.589-3.39-2.682-5.89-7.345-10.107-12.547-13.734-1.177-.82-2.784-.9-4.283-.848zm263.913 17.612c.003.03.007.062.012.092 2.393-.298 4.804-.507 7.18-.92 3.105-.538 5.694-2.077 7.715-4.48 3.146-3.745 3.255-7.339.353-10.341-2.463-2.547-7.409-2.699-10.677-.056-3.5 2.83-6.597 6.11-9.341 9.664-1.117 1.448-2.444 3.38-1.641 5.109.968 2.086 3.318 1.067 5.14 1.006.42-.012.84-.05 1.26-.074zM484 389.076c3.284 4.211 6.285 7.291 10.092 9.624 8.258 5.06 17.689 4.91 26.908 6.3-4.526-6.294-8.629-13.295-16.848-14.848-6.263-1.184-12.752-1.26-20.152-1.076zM77 405c13.56-1.837 27.349-2.4 36-15.387-16.02-2.728-31.486 3.87-36 15.387zm483-4.738c-3.212-.425-5.666-.823-8.136-1.064-11.387-1.11-21.025 2.436-28.87 10.641-.547.573-1.317 1.148-.85 2.134.49 1.027 1.402 1.051 2.4 1.02 7.06-.223 14.025-1.012 20.712-3.392 5.37-1.913 10.232-4.63 14.744-9.339zm-522 .11c.384.619.495.926.712 1.124.695.633 1.41 1.253 2.156 1.831 9.355 7.262 20.412 9.196 31.954 9.605 1.148.041 2.45.386 3.04-.994.535-1.248-.613-1.887-1.303-2.572-10.183-10.13-22.505-12.156-36.559-8.994zm504.698-151.117c-6.613 2.018-11.965.449-15.912-5.255-6.15 10.227-.845 18.526 3.698 27 8.741-3.603 13.845-12.624 12.214-21.745zM67.338 271c8.029-14.104 8.169-17.757 3.769-27-3.935 5.855-9.306 7.258-15.66 5.357-2.117 8.33 3.528 18.525 11.89 21.643zm362.316 206c6.435-7.426 9.672-15.235 5.428-24.686-1.73-3.85-4.655-7.041-5.79-11.314-9.856 9.314-6.883 25.713.362 36zm-261.427-1c7.85-10.91 9.968-27.217.448-35-2.108 5.978-6.968 10.757-7.599 17.435-.663 7.032 3.098 12.105 7.15 17.565zM222 519.339c-6.173-7.32-13.507-11.708-22.41-13.144-2.912-.47-6.322-.262-8.276 2.565-1.208 1.749 1.272 6.755 3.96 8.614 2.43 1.683 5.197 2.864 7.99 3.636 6.239 1.726 12.405 1.21 18.736-1.671zm154-.376c8.474 5.506 22.352 2.977 28.545-3.195 1.21-1.205 1.78-2.819 2.238-4.477.72-2.604-.38-3.748-2.807-4.642-4.31-1.586-8.128.095-12.067 1.215-6.586 1.873-11.223 6.425-15.909 11.099zM299.489 529c-1.853 5.774-3.577 10.686-5.004 15.688-2.1 7.37-1.994 14.765.456 22.058.565 1.683.909 4.09 2.81 4.246 2.031.164 2.949-2.212 3.685-3.847 3.087-6.861 2.76-14.377 3.56-21.675.031-.288-.125-.63-.266-.904-2.405-4.63-3.927-9.591-5.241-15.566zM502 459.717c-.013 2.413.83 3.52 1.59 4.585 1.684 2.37 2.187 5.14 3.031 7.82.739 2.344-1.519 5.171.796 6.993 2.106 1.658 5.097.704 7.576 1.555.583.2 1.22.304 1.838.328 3.8.138 8.222-5.591 6.944-8.9-2.483-6.433-7.385-10.8-12.816-14.554-3.457-2.39-3.742-2.094-6.294 1.512 5.325 6.52 5.325 6.52 4.707 7.798-2.194-2.337-4.053-5.024-7.372-7.137zm-413.704 6.937c-.445-3.962 3.98-4.91 5.194-7.835-3.145-3.471-3.524-3.739-7.258-.791-4.577 3.612-9.069 7.315-11.643 12.907-1.354 2.939-.124 4.78 1.192 6.832 1.285 2.005 3.034 3.536 5.71 3.182 2.497-.331 4.998-.68 7.465-1.177 1.55-.313 3.033-.7 2.627-3.028-.787-4.51.516-8.627 2.94-12.467.722-1.144 1.781-2.251 1.394-4.48-3.133 2.078-5.076 4.69-7.621 6.857zm161.482 33.758c3.596-4.422 6.201-8.944 4.868-14.72-.313-1.35-.44-3.186-2.682-2.57-2.029.56-4.268.893-5.974 1.993-8.846 5.709-15.796 13.132-19.96 22.857-1.086 2.534-1.503 5.161-.305 8.028 1.615-1.58 2.958-3.129 3.95-4.981 1.797-3.354 4.235-6.236 7.008-8.826 3.542-3.306 9.07-4.106 13.095-1.78zm98.61.137c1.874-2.06 3.958-1.81 6.093-1.52 6.676.902 9.874 5.976 13.168 10.848 1.4 2.072 2.611 4.248 4.681 6.123 1.14-3.003.715-5.73-.448-8.35-2.709-6.103-6.408-11.602-11.408-16.055-3.888-3.463-7.693-7.093-13.168-8.38-2.8-.656-3.57.183-4.04 2.587-1.122 5.728 1.445 10.132 5.122 14.747zM452 490.132c-11.37-5.563-15.515-5.489-25.8.1-1.968 1.067-3.517 2.15-3.26 4.787.173 1.757-.922 3.16-2.225 4.36-.703.647-1.998.997-1.66 2.176 6.134 1.588 12.065 2.375 18.066-.359 5.722-2.608 10.284-6.554 14.879-11.064zm-272 11.194c-.041-.138-.03-.533-.22-.684-2.42-1.943-4.21-4.163-3.856-7.52.101-.956-.71-1.445-1.408-1.956-8.912-6.518-17.78-6.89-27.516-.993 9.196 9.119 18.95 16.184 33 11.153zm319-334.87c3.353 6.492 3.779 9.235 2.47 15.654 7.23 3.787 18.332 2.17 21.254-7.468.495-1.63.358-3.05-.686-4.169-4.227-4.529-9.454-7.485-15.346-9.283-1.875-.572-3.028.144-3.349 2.215 3.466 2.774 6.789 5.633 8.805 9.677-2.97-1.932-4.778-5.233-8.337-7.022.123 2.282 1.605 3.708 2.278 6.257-2.26-2.64-3.586-4.96-4.88-7.557-.677.736-1.72.563-2.209 1.696zm-406.47 5.242c.043-1.92 1.513-3.35 1.585-5.627-3.525 1.812-5.328 5.128-8.345 7.018 2.13-4.077 5.57-6.984 8.876-9.748-.61-2.721-2.39-2.579-4.055-1.991-5.371 1.89-10.29 4.61-14.326 8.702-1.36 1.38-1.551 2.97-.916 4.976 3.037 9.588 14.71 10.773 21.41 6.924-1.25-2.528-1.134-5.258-.696-8.004.438-2.757 1.793-5.181 2.937-7.669-.806-.744-1.55-1.268-2.334-1.169-.614 1.083-1.095 2.02-1.657 2.905-.795 1.248-1.649 2.457-2.478 3.683zM89 453.896c-.564-2.3-1.424-3.638-3.944-3.386-7.025.7-13.874.106-20.233-3.284-.935-.498-1.583-.089-2.323.415-4.945 3.37-5.817 7.179-2.605 12.183 1.703 2.653 4.046 4.715 7.138 5.592 3.056.867 6.314 1.045 8.685-1.429 3.85-4.017 8.03-7.528 13.282-10.09zm420 .958a39.876 39.876 0 0 1 12.369 9.454c1.397 1.586 2.94 2.36 4.918 2.616 6.374.824 13.502-5.207 13.711-11.627.105-3.245-4.697-8.282-7.026-7.129-6.262 3.101-12.816 3.928-19.648 3.227-2.335-.238-3.988.415-4.324 3.459zm-205 63.3c6.474 4.02 12.848 7.648 20.858 4.868 1.463-.507 2.313-1.067 2.946-2.422 2.268-4.856 5.636-8.82 9.572-12.307.742-.656 2.077-1.029 1.47-2.462-.503-1.186-1.548-1.746-2.777-1.812-2.973-.158-5.744.691-8.6 1.5-8.628 2.444-15.737 7.801-23.469 12.636zm-11 .018c-7.761-5.026-14.974-10.235-23.597-12.716-2.862-.824-5.647-1.635-8.624-1.421-1.225.088-2.248.709-2.681 1.943-.442 1.262.715 1.625 1.397 2.217 3.977 3.45 7.333 7.425 9.656 12.254.617 1.284 1.326 2.03 2.855 2.559 8.037 2.781 14.5-.752 20.994-4.836zM206.76 558c2.278-3.106 4.127-6.572 6.828-9.09 4.609-4.295 5.573-9.609 5.392-15.396-.1-3.16-1.523-6.053-3.323-8.541-1.302-1.797-3.572-.526-5.383-.668-3.81-.299-4.379.41-3.057 4.13 1.897 5.333 3.2 10.884 5.648 16.02.416.871 1.17 1.807.225 3.317-3.65-5.948-4.57-12.802-7.46-18.654-4.812 9.723-5.233 19.263 1.13 28.882zm178.075-10.991c-.794-1.215-.297-1.998.06-2.689 2.136-4.118 3.185-8.63 4.753-12.952 2.698-7.439 2.65-7.407-5.17-7.361-1.52.009-2.308.644-2.955 1.826-2.756 5.033-3.25 10.19-1.502 15.73 1.152 3.65 3.899 6.032 6.026 8.91 1.646 2.226 3.498 4.3 5.33 6.527 5.873-10.113 6.122-19.609.91-28.177-2.883 5.8-3.705 12.485-7.452 18.186zM94.6 147.73c-1.916-2.268-4.615-3.656-5.86-6.325 1.662.8 3.087 1.838 4.422 2.976 1.507 1.286 2.947 2.531 4.838.35-2.676-3.977-5.2-8.057-4.285-12.997.499-2.69-.9-3.313-3.056-3.6-10.01-1.334-17.08 7.417-13.881 16.836 1.628 4.795 5.776 5.382 9.761 6.434 4.758 1.257 5.817.74 8.06-3.674zm408.49.224c1.421 1.11 1.138 2.973 2.58 3.73 2.397 1.256 11.933-1.496 13.579-3.87 2.603-3.75 2.257-11.09-.727-15.765-2.845-4.455-7.272-4.224-11.661-3.89-2.044.155-3.163 1.16-2.599 3.574.557 2.386-.102 4.727-.887 7.032-.769 2.254-2.33 4.095-3.375 6.438 4.64 2.277 5.786-3.61 9.92-3.705l-6.83 6.456zM298.915 517c1.394-1.49 1.404-1.487 1.645-2.926 1.548-9.238 2.606-18.553 5.496-27.538 1.771-5.508.776-11.25-.738-16.742-.92-3.34-3.186-3.68-5.411-1.05-1.867 2.208-3.098 4.703-3.693 7.627-2.37 11.662-.86 23.184 1.046 34.69.33 1.992.127 4.229 1.655 5.939zm-147.588-74c4.207-3.39 8.35-7.026 11.371-11.743 1.58-2.463 2.765-5.133 2.125-8.124-1.66-7.756-8.002-12.01-13.205-18.133-.41 4.893-.608 8.886-2.075 12.539-3.477 8.666-3.844 17.072 1.784 25.461zm295.461 1c4.846-7.673 5.367-15.407 2.298-23.544-1.284-3.405-2.038-6.974-2.393-10.625-.115-1.173.163-2.5-.791-3.831-3.706 3.905-7.366 7.503-10.275 11.721-2.696 3.91-3.664 8.204-1.239 12.707 2.997 5.566 7.607 9.595 12.4 13.572zm40.25-275.177c3.15-2.435 5.022-4.692 5.846-7.682.508-1.847 2.121-3.631-.094-5.467-2.228-1.847-4.828-2.013-7.351-1.236-4.327 1.335-5.397 3.035-5.417 7.513-.009 2.223-.062 4.45.038 6.67.36 8.012 6.116 13.36 14.226 13.283.64-.006 1.282-.007 1.92.047 3.394.281 4.477-.595 4.741-4.005.475-6.116-2.308-10.98-6.241-15.741-1.78 2.875-2.886 6.08-7.669 6.618zm-382.616-6.56c-3.1 3.547-5.308 7.258-6.049 11.648-1.133 6.704.09 8.085 6.789 8.089.322.001.645-.07.965-.056 5.15.221 8.363-2.459 10.83-6.651 2.5-4.247 1.993-8.82 2.014-13.354.025-5.46-4.785-9.027-10.178-7.638-3.055.786-3.974 2.743-3.04 5.696 1.059 3.342 2.642 6.293 5.546 8.495-3.52-.604-3.763-.829-6.877-6.23zM224 519c-.132-3.24-.426-5.416-1.538-7.42-2.813-5.062-6.407-9.124-11.389-12.48-7-4.715-14.365-6.533-22.507-6.014-4.266.27-5.412 1.482-6.34 5.744-.796 3.645.555 7.322 3.43 8.872 1.793.965 3.457 1.567 5.401-.353 2.281-2.255 5.55-3.034 8.606-2.428 4.948.982 9.952 1.994 14.198 5.153 3.384 2.517 6.402 5.45 10.139 8.926zm150-1c1.413-.081 1.894-.872 2.445-1.442 5.237-5.424 11.185-9.518 18.756-11.194 4.54-1.005 8.59-.768 12.243 2.246.576.477 1.032.972 1.884.979 3.22.028 6.229-3.107 6.61-6.964.437-4.416-1.474-7.893-4.915-8.295-5.391-.634-10.729-.456-15.962 1.44-4.452 1.615-8.455 4.076-11.97 6.996-4.917 4.083-8.664 9.195-9.091 16.234zM343 35.902c-.099-3.117-.76-6.657-4.703-8.277-3.826-1.57-7.052.018-9.887 2.538-5.6 4.977-8.134 17.049-5.14 23.905 1.09 2.495 2.486 3.595 5.402 2.521 7.145-2.628 14.385-12.606 14.328-20.687zm.857 51.838c6.025 3.713 12.797 5.13 19.843 3.73 5.693-1.13 6.847-5.33 3.232-9.918-1.235-1.57-2.63-3.02-4.014-4.467C355.817 69.665 346.97 65.23 337 62c5.79 7.824 9.163 15.886 6.857 25.74zM297.787 519c-18.278 7.88-25.862 25.89-23.304 42.743.141.94.48 1.934 1.59 2.204 1.178.286 1.755-.65 2.327-1.39 2.026-2.618 4.008-5.27 6-7.913 5.438-7.216 10.13-14.804 12.101-23.728.836-3.79 1.978-7.564 1.285-11.916zm2.39 0c-.563 4.074.333 7.782 1.063 11.446 2.575 12.903 11.178 22.459 18.697 32.59 1.243 1.674 2.932 1.095 3.273-1.175.47-3.133 1.032-6.379.68-9.479-1.381-12.104-6.394-22.347-16.653-29.59-2.056-1.452-4.126-2.936-7.06-3.792zM271.985 64.307c.128-3.267-.573-4.593-2.518-4.256-4.506.78-9.42 1.047-12.929 4.303-5.313 4.933-9.779 10.645-13.125 17.142-.97 1.884-1.622 3.872-1.351 6.041.345 2.77 1.91 3.95 4.574 3.28 12.99-3.265 20.68-12.017 24.946-24.249.305-.875.333-1.845.403-2.261zm231.013 70.172c.086-5.046-3.243-8.564-7.033-8.477-3.786.088-7.21 1.364-10.07 3.934-4.91 4.414-7.922 10.145-10.379 16.172-.955 2.341-.524 4.842.795 7.072.555.94 1.411 2.112 2.41 1.754 3.906-1.398 7.897-2.48 11.84-3.724 1.976-.624 3.531-2.593 5.308-3.909 4.693-3.476 6.055-8.69 7.13-12.822zm-400.14-8.476c-4.643-.128-8.288 3.332-7.817 7.55.606 5.432 2.614 10.323 7.092 13.795 1.674 1.299 3.515 2.41 5.029 3.874.862.834 1.583 1.206 2.719 1.06 2.18-.283 4.084.403 5.975 1.56 3.86 2.36 6.313 1.074 7.038-3.505.31-1.957-.093-3.765-.769-5.631-1.038-2.864-2.875-5.226-4.33-7.82-3.4-6.07-8.145-10.32-14.936-10.883zM296 515c-.7-5.263-1.303-10.176-2.014-15.073-1.636-11.29-7.192-20.97-12.945-30.542-1.19-1.98-2.77-1.793-3.868.281-.539 1.015-.894 2.162-1.139 3.292-2.486 11.482-.556 22.092 6.512 31.637 3.413 4.612 7.761 8.06 13.454 10.405zm7.01-.04c-.062-.005.164.083.321.012 17.529-7.937 22.94-30 17.83-44.759-.353-1.021-.846-2.066-2.033-2.199-1.396-.158-1.9 1.052-2.502 2.046-8.341 13.737-13.684 28.458-13.615 44.9zM275.813 45.802c.947-6.779-1.83-12.531-5.09-18.1-1.4-2.393-3.195-4.542-5.513-6.17-2.69-1.889-7.576-2.068-8.823-.339-4.671 6.474-4.52 17.004.52 23.394 3.507 4.451 7.521 8.453 11.948 12.015 2.778 2.235 4.27 1.8 5.984-1.394 1.628-3.034.705-6.281.974-9.406zM329 26.846c.367-.147.739-.283 1.098-.445 8.1-3.647 14.86.588 14.973 9.508.111 8.687-4.244 15.002-10.912 20.028-1.013.764-2.573.97-2.984 2.585 3.521 1.158 7.107 1.678 10.36 3.248.83.4 1.576.23 2.405-.146 6.09-2.763 10.83-12.435 9.262-18.98-.42-1.756-1.266-2.904-3.303-2.51-.87.168-1.8.194-2.177-.764-.399-1.012.625-1.413 1.143-2.036 2.63-3.163 5.508-6.165 7.78-9.57 3.54-5.305-.283-12.885-6.558-12.763-8.921.176-16.041 4.293-21.087 11.845zm181.633 421.885c8.066.626 15.7.419 22.896-3.475 8.629-4.67 10.163-17.858 2.605-23.923-3.176-2.548-6.903-2.538-10.67-2.134-2.77.299-2.086 3.139-3.264 4.627-.721.913-1.188 2.02-1.838 2.993-3.353 5.003-7.793 8.98-12.362 12.802 2.097 2.89 2.078 2.824 5.198 1.913 4.626-1.35 8.384-4.422 13.073-6.713-3.557 4.716-6.504 6.484-15.63 9.596-.354 1.328-.204 2.687-.008 4.314zM90 439.6c-.443-.39-.755-.671-1.075-.944-5.957-5.062-11.68-10.313-14.365-17.974-.55-1.567-1.92-1.504-3.166-1.611-6.84-.596-12.015 2.543-13.816 8.336-1.903 6.13 1.078 14.42 6.225 17.43 7.341 4.293 15.295 4.63 23.69 3.799-.1-1.545.35-2.992-.25-4.442-6-1.467-11.331-3.928-15.088-8.985 4.229 1.984 8.002 4.804 12.497 6.285 2.31.762 4.148.854 5.348-1.894zM478.101 443c-4.655 3.089-5.65 7.354-4.852 12.226 1.238 7.543 6.379 12.817 11.081 18.307 3.779 4.413 8.963 6.483 14.346 8.154 2.157.67 4.099.369 5.015-1.924.85-2.133 1.634-4.377 1.171-6.73-1.535-7.797-5.24-14.543-10.688-20.257-4.448-4.668-11.253-5.617-16.073-9.776zm-358.198 0c-2.89 1.876-5.584 3.672-8.597 4.943-10.912 4.602-15.064 14.22-18.065 24.613-.596 2.059.015 4.14.74 6.151 1.102 3.058 2.352 3.86 5.472 2.925 13.209-3.958 20.962-13.32 24.953-25.996 1.524-4.84.147-9.335-4.503-12.636zm-38.997-76.776c-.869 3.782-3.506 6.495-5.64 9.739 2.567.266 4.164-.944 5.783-2.095 4.557-3.24 7.122-7.877 9.124-12.898.728-1.823 1.567-3.392 3.914-3.505 4.374-.212 6.584-3.29 8.474-6.65.885-1.572.332-3.031-.777-4.326-5.172-6.043-17.294-5.97-22.51.13-1.38 1.614-2.66 3.38-5.163 1.468-.946-.722-2.088.046-2.951.55-3.018 1.764-5.03 4.223-5.824 7.774-.753 3.36.117 6.682-.282 9.993-.404 3.354 1.52 5.364 4.17 7.629-.366-2.883-1.15-5.323.326-8.205.838 3.511.657 6.728 2.665 9.454 4.15-2.058 5.568-6.367 8.691-9.058zm447.697 8.753c3.099-2.778 4.817-5.226 4.242-8.87-.212-1.342.116-2.767.147-4.156.115-5.168-.954-9.824-5.613-12.804-1.048-.669-2.382-1.735-3.473-.935-2.717 1.995-3.97.052-5.39-1.682-5.034-6.14-17.675-6.016-22.49.234-.812 1.056-1.258 2.183-.902 3.578.823 3.235 4.945 7.15 8.332 7.43 2.246.186 3.436 1.282 4.165 3.262 1.111 3.02 2.374 6.023 4.347 8.526 2.707 3.435 5.563 6.878 10.962 7.44-2.527-3.534-5.039-6.394-6.412-10.988 3.703 3.515 5.026 8.145 9.292 10.047 1.836-2.86 1.726-6.103 2.674-9.808 1.2 3.179.678 5.582.119 8.726zm-421.315 46.088c-3.44-6.753-13.267-12.995-20.347-13.064-8.452-.084-13.652 8.03-9.461 15.303 5.04 8.749 12.203 15.608 21.808 18.978 6.458 2.267 13.506 5.698 19.35-2.25 2.701-3.672 3.383-6.157.468-9.783-3.565-4.436-8.61-6.123-13.816-7.396-2.749-.672-3.757-1.207-5.189-4.271 2.216 1.447 4.057 3.583 7.187 2.483zm392.317-2.53c-1.878 2.35-3.246 3.85-5.978 4.448-5.168 1.13-10.212 2.92-13.693 7.455-2.736 3.566-2.6 6.456.6 9.487.93.88 1.964 1.706 2.67 2.75 1.403 2.069 3.42 2.491 5.594 2.274 14.703-1.465 25.382-9.307 32.711-21.79 3.942-6.715-.34-14.211-8.06-15.093-7.161-.82-18.665 6.137-21.497 12.998 2.318.303 2.318.303 7.653-2.53zm33.64-219.83c5.939 2.578 9.27 6.924 10.402 13.155.336-3.075 2.862-6.413-1.79-8.393-1.39-.592-1.298-2.334-.41-3.65.829-1.228 1.993-2.054 3.493-1.48 1.598.613 1.765 1.893 1.144 3.417-.299.73-.754 1.56.208 2.542 1.412-1.546 3.31-2.848 4.114-4.648 2.46-5.516 4.993-10.99 7.55-16.463 2.257-4.835.873-7.206-4.32-7.905-12.045-1.62-18.633 3.774-21.03 16.542-.429 2.29-1.047 3.535-3.366 3.671-1.731.102-3.002 1.155-3.948 2.418-6.091 8.118-7.783 14.336-.459 22.673 10.117-3.157 10.467-3.197 13.222-1.353-3.72.799-7.488.717-10.76 2.688-1.55.93-2.02 1.922-1.313 3.644 1.108 2.694 2.687 5.041 4.601 7.2 2.637 2.975 5.478 5.742 8.855 8.279-1.518.747-2.268-.063-2.993-.51-6.173-3.812-10.762-9.03-13.268-16.09-2.497 1.581-1.55 3.48-1.094 5.062 1.473 5.111 4.137 9.717 6.54 14.405 1.905 3.721 6.786 5.69 10.878 4.929 6.066-1.127 7.61-3.276 6.907-9.5-.413-3.657-1.592-6.998-3.585-10.1-2.513-3.906-4.01-7.747-2.297-12.781 1.876-5.513.202-10.688-4.439-14.605-1.001-.847-2.307-1.457-2.843-3.148zM59.387 240.461l-.463-.636c1.924-1.763 3.938-3.442 5.748-5.313 1.835-1.897 3.643-3.866 5.16-6.016 3.937-5.578 2.887-8.002-3.883-9.307-1.95-.377-3.928-.6-5.892-.892 4.72-2.248 8.851-.33 12.92 1.425 7.205-8.305 6.125-13.567.137-22.188-1.16-1.668-2.771-2.883-5.003-3.02-1.734-.105-2.703-1.085-2.698-2.89.01-3.304-1.45-6.147-2.914-8.961-3.923-7.54-13.878-10.813-21.618-7.176-.989.465-2.043.877-1.861 2.218.28 2.071.14 4.236 1.35 6.116 2.767 4.302 4.608 9.037 6.413 13.784.966 2.548 3.11 3.925 5.486 6.139-.227-1.451-.209-2.205-.472-2.841-.619-1.5-.524-2.808 1.083-3.429 1.653-.639 2.872.289 3.688 1.674.813 1.383.557 2.649-.724 3.646-2.993 2.331-3.309 4.021-1.175 8.414.66-6.694 4.176-10.786 10.154-13.493-.729 1.693-1.952 2.365-2.954 3.195-4.68 3.875-6.395 9.025-4.52 14.519 1.705 5 .298 8.854-2.268 12.727-2.736 4.132-3.824 8.662-3.795 13.533.008 1.3.126 2.647 1.284 3.433 4.92 3.335 11.081 4.616 15.483-.853 4.044-5.026 6.758-11.156 8.226-17.618.26-1.14.366-2.361-1.726-3.144-1.118 3.716-3.004 7.079-5.718 9.897-2.77 2.879-5.72 5.521-9.448 7.057zM371.606 33.675c1.914-3.137 1.851-5.672 1.95-8.208.103-2.672-.716-4.563-3.496-5.26-2.909-.73-9.104.59-9.93 2.173-.137.26-.17.62-.131.92.507 4.035-1.909 6.801-4.166 9.633-1.242 1.558-2.874 2.807-3.833 4.86 3.279 1.665 3.052 5.164 4.028 8.227 1.803-1.153 3.718-1.696 3.506-4.258-.101-1.224 1.035-1.843 2.181-1.859 1.006-.013 1.862.54 2.203 1.548.405 1.192-.041 1.998-1.22 2.536-2.227 1.016-3.728 3.11-6.046 4.062-1.498.616-1.592 1.99-1.306 3.805 4.777-1.801 9.65-.073 14.272-1.616 1.16-.387 1.963.567 2.397 1.638.615 1.52-.396 2.42-1.374 3.243-.942.792-2.355.87-2.768-.204-1.041-2.698-3.124-2.01-5.015-1.898-2.223.133-4.43.62-6.65.657-2.075.035-3.103.848-3.258 2.972 4.09.769 7.818 2.218 11.156 4.599.982.7 2.025 1.05 3.281.907 1.938-.22 3.364.5 3.681 2.602.195 1.299-.519 2.047-1.768 2.15-1.762.149-3.959.734-4.605-1.605-.994-3.595-4.087-3.565-6.957-5.115 1.048 2.968 1.39 5.608 2.785 7.45 1.667 2.2 1.422 3.249-.49 4.042 2.128 2.325 4.723 4.408 6.331 7.083 2.804 4.663 6.565 4.642 11.177 3.826 3.796-.671 5.852-3.134 8.009-5.78 5.127-6.291 4.486-14.228-1.564-19.599-2.042-1.814-4.46-3.08-7.023-4.636 2.668-1.778 5.166-3.146 7.311-4.936 5.158-4.3 4.166-10.885-1.826-13.943-3.272-1.668-6.528-1.215-10.842-.016zM239.99 60.71c-2.688 1.08-5.8 1.183-6.803 4.82-.609 2.214-2.992 1.528-4.747 1.31-1.321-.164-1.753-1.16-1.478-2.355.434-1.887 1.805-2.517 3.611-2.351.984.089 1.913.063 2.751-.538 3.569-2.552 7.567-4.151 11.904-5.027-.44-1.796-1.094-2.854-3.017-2.876-2.014-.023-4.02-.5-6.037-.597-2.276-.112-4.802-1.098-6.232 2.003-.465 1.01-1.883.686-2.792-.147-.984-.904-1.815-1.852-1.06-3.312.54-1.046 1.337-1.74 2.559-1.361 4.63 1.43 9.463-.068 14.122 1.473.16-1.77.064-3.117-1.326-3.675-2.334-.938-3.849-3.025-6.072-4.056-1.165-.542-1.672-1.304-1.29-2.51.32-1.016 1.171-1.576 2.182-1.589 1.156-.014 2.304.582 2.234 1.8-.153 2.68 1.736 3.3 3.572 4.196 1.315-5.39 1.315-5.39 3.928-8.637-1.51-1.74-3.094-3.458-4.55-5.278-1.664-2.078-3.663-4.282-3.359-7.02.331-2.985-1.382-3.628-3.455-4.332-1.96-.667-3.993-.788-6.008-.517-2.654.356-4.225 1.757-4.185 4.667.036 2.81-.002 5.608 1.574 8.61-2.136-.355-3.666-.741-5.215-.84-5.683-.369-10.498 3.922-10.498 9.193 0 3.624 2.702 5.292 5.07 7.252 1.653 1.368 3.98 1.793 5.428 3.621-1.904 1.198-3.693 2.153-5.295 3.357-6.386 4.798-7.786 9.434-5.441 16.991.766 2.464 2.639 4.086 4.138 5.978 3.425 4.327 8.395 3.982 13.187 4.036.694.007 1.124-.558 1.496-1.083 2.67-3.755 6.187-6.712 9.59-10.003-1.26-.766-3.142-1.456-1.742-3.227 1.843-2.334 1.845-5.358 3.256-7.976zM375.46 504c4.896-5.582 4.421-11.717 5.149-17.54.176-1.414.197-2.62-1.019-3.75-1.335-1.239-1.56-2.9-.035-4.171 1.381-1.15 3.229-1.71 4.614-.222 1.362 1.465 2.141 4.074.428 5.152-4.03 2.534-1.492 6.082-2.306 9.095 2.134-2.344 3.937-4.8 5.646-7.322 1.046-1.545 3.146-2.317 3.281-4.525.128-2.105 1.407-3.022 3.4-2.949 1.414.053 2.058.978 2.052 2.345-.009 1.935-.861 3.465-2.843 3.646-4.075.369-4.788 3.682-6.27 6.422 2.204-1.112 4.9-1.365 6.3-3.542 1.45-2.25 3.396-1.353 5.082-.877 1.172.329 1.077 1.708.596 2.757-.894 1.956-2.432 2.701-4.431 1.83-1.161-.505-2.025-.187-2.997.325-1.598.846-3.17 1.788-4.855 2.422-4.536 1.709-6.055 5.726-7.872 9.573 4.301-4.044 9.631-6.303 14.732-8.914 6.06-3.1 12.522-3.123 19.03-2.074 1.451.235 2.158.075 3.198-1.063 3.023-3.309 2.852-7.167 2.422-11.104-.514-4.705-2.34-8.75-7.089-10.497-4.72-1.738-9.003-.57-12.64 2.914-1.477 1.415-2.993 2.792-4.49 4.186.239-2.383 1.54-3.977 3.004-5.456 3.312-3.347 3.067-5.63-.931-8.378-4.808-3.306-14.793-2.968-19.318.67-1.381 1.113-2.092 2.45-2.187 4.356-.148 2.985.593 6.068-.656 9.821-1.177-2.784-1.158-4.9-1.14-6.986.046-4.565-3.316-8.148-7.912-8.343-7.189-.302-10.64 2.86-11.167 10.723-.185 2.754-.86 4.318-3.88 4.638-2.222.236-3.752 1.705-4.356 4.122 3.984 1.36 8.036 2.171 11.062 5.486.704-1.994 0-4.173 2.419-4.238 1.962-.053 2.767 1.415 3.167 3.042 1.084 4.425 5.62 4.735 8.287 7.296-.47-2.357-.55-4.692-3.307-5.744-1.408-.537-2.075-2.259-1.244-3.811.762-1.42 2.3-1.508 3.678-1.136 1.617.435 1.565 1.802 1.314 3.126-.137.723-.464 1.43-.087 2.17 2.535 4.956 3.93 10.238 4.17 16.525zM252 481.087c-.828-2.316-2.196-3.831-4.168-3.99-3.387-.268-3.955-2.082-4.188-5.016-.613-7.694-4.576-10.971-11.779-10.242-4.057.41-7.263 4.024-7.237 7.964.016 2.143.27 4.374-1.208 6.827-1.16-3.382-.372-6.44-.573-9.408-.109-1.6-.578-2.823-1.727-3.886-3.83-3.543-14.191-4.496-18.688-1.727-1.554.957-2.962 2.009-3.88 3.647-.948 1.692-1.03 2.996.758 4.323 2.085 1.545 3.711 3.558 4.406 6.188-2.3-1.66-4.287-3.646-6.521-5.305-5.88-4.36-13.533-2.467-16.612 4.094-1.81 3.859-1.912 8.01-1.086 12.084.673 3.322 3.47 4.815 6.702 4.508 6.188-.585 12.33-.528 18.047 2.473 4.961 2.604 10.106 4.899 14.39 8.97-1.793-7.481-7.882-9.84-13.622-12.593-.766-.367-1.408-.112-2.125.154-2.048.76-3.535.057-4.414-1.882-.475-1.049-.546-2.404.638-2.719 1.686-.449 3.56-1.294 5.075.9 1.442 2.086 3.922 2.745 6.888 3.817-2.167-3.416-3.359-6.599-7.54-6.913-1.622-.122-2.2-1.816-2.192-3.431.006-1.034.378-1.891 1.466-2.182 1.349-.36 3.028-.129 3.346 1.097 1.273 4.927 5.873 7.59 7.922 11.946.32.681.643 1.625 2.15 1.409-1.328-2.988 1.034-6.76-3.043-9.205-1.436-.86-.68-3.502.657-4.836 1.426-1.423 3.247-.89 4.612.275 1.503 1.28 1.248 2.923-.094 4.142-1.233 1.12-1.146 2.338-.985 3.73.353 3.033.629 6.075.956 9.11.318 2.972 2.086 5.217 3.856 7.59.578-5.61 1.997-10.841 4.463-15.793.243-.49.078-1.226-.025-1.827-.239-1.41-.487-2.886 1.315-3.375 1.37-.373 2.946-.27 3.64 1.175.809 1.684.034 3.296-1.56 3.957-2.672 1.105-2.653 3.314-2.886 5.57 2.988-2.77 7.727-3.586 8.722-8.52.389-1.925 3.107-2.525 3.985-1.196.582.877.669 2.077 1.097 3.54 3.014-3.334 7.067-4.066 11.062-5.444zm300.192-283.221c2.024.343 3.39-.499 4.667-1.653 1.028-.93 2.066-.886 3.07.083.619.597 1.285 1.197.785 2.17-.581 1.13-1.544 1.728-2.814 1.65-.619-.04-1.224-.273-1.837-.41-2.816-.633-10.008 4.109-10.427 6.939-.338 2.277-.545 4.575-.875 7.414 1.761-2.063 4.831-2.722 3.08-6.213-.624-1.245.182-2.45 1.505-3.078 1.024-.485 2.048-.675 2.855.337.95 1.191.617 2.407-.206 3.492-2.33 3.074-4.283 6.45-7.22 9.165 3.736-1.43 8.215-.052 11.237-3.769 1.112-1.367 2.918-.851 4.261.304.911.783 1.233 1.825.502 2.814-1.076 1.453-2.68 2.427-4.387 1.622-3.894-1.837-7.003.73-10.571 1.402 4.913 2.264 8.578 5.937 12.472 9.283.92.79 2.13 1.806.814 3.158-1.03 1.06-2.43 1.446-3.711.47-1.257-.958-2.455-2.135-1.962-3.978.21-.786.368-1.416-.38-1.95-3.906-2.797-8.12-5.006-13.05-7.412 1.55 5.004 4.682 8.373 5.927 12.593 1.493 5.056 3.017 10.181-1.095 14.82 1.6 2.372 3.942 3.346 6.354 4.067 9.443 2.826 20.154-2.073 25.11-9.074 5.314-7.51 2.214-16.984-7.58-17.771-3.62-.29-7.599-.851-11.352-3.53 3.065-.405 5.367.39 7.71.812 6.76 1.22 13.034.582 17.764-5.17 3.797-4.616 2.41-12.08-2.73-14.83-3.456-1.848-7.1-2.465-10.943-1.19-3.286 1.091-6.597 2.103-9.91 3.112-.604.184-1.324.656-2.017-.258 2.033-1.786 4.433-2.678 6.813-3.234 4.723-1.102 7.642-4.41 10.414-7.943 1.262-1.613 1.722-3.514 1.359-5.677-.56-3.336-2.856-4.503-5.7-5.006-3.91-.693-8.337-.91-10.815 2.286-3.161 4.076-5.385 8.974-7.117 14.153zM51.194 220.948c-3.778-.358-7.14-3.215-11.213-1.122-1.352.694-3.077-.48-3.877-2.035-.575-1.118-.008-2.053.925-2.74 1.33-.978 3.03-1.331 4.034-.069 2.989 3.76 7.473 2.352 11.212 3.746-2.981-2.696-4.902-6.112-7.24-9.19-.822-1.082-1.152-2.308-.179-3.495.824-1.006 1.845-.792 2.862-.306 1.329.636 2.107 1.852 1.483 3.1-1.758 3.512 1.347 4.14 3.055 6.166-.73-7.111-.761-7.085-4.567-11.319-2.18-2.424-4.543-3.97-7.962-2.753-1.502.535-2.673-.187-3.406-1.544-.522-.966.183-1.57.8-2.165 1.158-1.117 2.245-.867 3.315.146 1.191 1.127 2.568 1.679 4.497 1.51-1.885-5.249-4.524-9.805-7.08-14.399-.283-.51-.856-1.026-1.398-1.19-3.54-1.072-7.1-1.91-10.807-.674-3.941 1.313-5.828 5.05-3.966 8.778 2.215 4.433 5.672 7.69 10.435 9.297 2.695.909 5.415 1.728 7.51 3.87-4.146-.813-8.105-2.102-12.101-3.255-4.553-1.314-8.893-.593-12.37 2.626-5.56 5.146-3.473 13.96 3.904 17.495 4.611 2.208 9.356 2.002 14.168.937 3.859-.855 3.86-.85 5.934-.037-3.427 1.992-7.242 2.514-10.882 3.052-4.462.66-7.871 2.224-9.414 6.662-1.53 4.405-.474 8.694 2.428 11.9 5.592 6.175 12.624 9.72 21.201 8.958 3.803-.338 7.305-1.557 10.057-5.032-2.856-1.659-2.798-4.223-2.834-6.804-.07-5.079 1.823-9.504 4.277-13.779 1.07-1.863 2.008-3.805 3.005-5.712-4.287 1.118-7.762 3.203-11.225 5.307-1.425.867-2.697 1.535-2.144 3.88.383 1.624-1.094 3.18-2.859 3.697-1.31.385-2.724-.082-3.177-1.395-.62-1.797 1.164-2.42 2.161-3.433 3.35-3.403 7.191-6.11 11.438-8.679zm426.159 166.244c5.59 9.75 9.766 19.321 14.792 29 5.179-6.79 12.286-9.807 20.538-10.623-3.273-.05-6.309-1.005-9.393-1.72-11.094-2.577-18.988-8.89-23.214-19.621-3.445-8.747-4.24-17.882-4.192-27.152.006-1.096-.45-2.35 1.127-3.651 7.836 3.457 13.968 9.75 21 14.676 7.158 5.013 15.354 8.546 21.309 15.516l2.1-5.136c-7.648-3.003-12.477-8.47-15.207-15.887-.749-2.037-1.856-3.01-4.17-3.608-4.58-1.182-7.754-4.53-8.819-9.147-.971-4.217 2.478-6.12 5.403-8.074.866-.58 1.778-1.001 2.305-2.07 4.027-8.158 8.126-10.151 17.602-8.385-.163-4.917 4.24-7.122 6.657-10.891-1.202 0-2.129.057-3.045-.012-1.916-.143-4.527.814-5.383-1.493-1.008-2.717 1.734-3.769 3.464-5.008 2.625-1.882 5.378-3.585 8.215-5.456-3.562-2.962-6.798-6.015-8.611-10.205-1.12-2.583-.522-3.502 2.313-3.657 3.352-.184 6.711-.257 10.162.148-.354-4.617-2.586-8.571-2.694-12.96-.034-1.35-.487-2.974.9-3.778 1.278-.74 2.684-.022 3.906.652 1.705.94 2.92 2.424 4.183 3.859.798.906 1.107 2.298 2.52 2.675.473-2.237.88-4.41 1.406-6.555.353-1.44.86-2.86 1.873-3.993 1.395-1.563 2.8.378 4.6.276-3.029-7.25-5.306-14.268-2.082-21.796.719-1.68-.754-2.01-2.052-2.22-.218 1.972-.3 3.776-.63 5.534-1.398 7.434-5.892 12.528-12.4 16-4.07 2.17-8.214 4.53-10.478 8.54-2.762 4.888-7.578 7.283-11.33 10.934-.554.54-1.229.95-2.004.66-.966-.359-1.04-1.285-.976-2.139a93.3 93.3 0 0 1 .534-5.374c1.25-9.417-.977-18.565-2.125-27.796-.69-5.537-.37-10.904 1.35-16.31 1.92-6.037 6.286-9.036 11.785-11.018 1.012-.365 1.32-1.096.977-1.994-.634-1.663-.005-3.297.129-4.93-6.751-3.079-14.08-4.733-19.445-10.604-3.981 6.279-10.909 7.54-16.845 10.393-2.822 1.358-3.825.515-3.765-2.719a70.224 70.224 0 0 0-1.225-14.543c-1.705-8.933-2.576-17.732 4.327-25.41-5.78-6.122-5.603-13.49-4.639-21.014.136-1.064.303-1.869-.864-2.709-3.802-2.73-4.93-6.83-3.263-11.18.902-2.355 1.942-4.656 2.954-7.062-2.4-1.817-3.991-3.988-4.448-6.863-.143-.9-.856-1.397-1.411-2.04-5.672-6.573-11.51-13.015-15.837-20.633-2.568-4.523-5.655-8.631-10.764-11.93 1.938 4.944 1.566 9.504 1.417 14.013-.14 4.245-1.22 8.231-5.073 10.778-3.498 2.313-6.981 1.045-8.304-2.898-.653-1.946-.872-3.967-.802-5.961.27-7.654.465-15.38 7.532-20.873-5.907-4.369-11.757-8.706-17.622-13.02-.572-.42-1.081-1.054-2.018-.912.39 3.13.885 6.245 1.141 9.38.396 4.849-.302 9.542-2.805 13.8-1.01 1.717-2.5 2.887-4.697 2.682-2.13-.2-3.128-1.681-3.702-3.461-1.487-4.597-1.775-9.296-1.383-14.122.413-5.078 2.428-9.054 7.284-11.727-5.264-3.474-10.143-6.612-16.08-9.185.708 1.642 1.15 2.593 1.532 3.566 1.645 4.178 3.064 8.443 1.996 12.984-1.277 5.427-7.09 7.12-10.998 3.23-1.783-1.773-3.288-3.826-5.139-6.015-2.046 2.893-4.69 4.986-8.666 5.69 9.318 8.546 7.715 19.477 9.391 30.372-5.326-1.781-9.587-3.345-13.931-4.626-7.946-2.344-13.355-7.533-16.947-14.781-.525-1.058-1.188-1.257-2.164-1.46-10.11-2.116-18.744-6.545-24.437-15.616-.517-.824-.821-1.974-2.272-2.371-.007 5.09-2.646 8.55-6.597 11.276-2.028 1.397-3.48 3.394-4.842 5.432-.571.855-.93 1.98-2.295 1.878-1.636-.123-1.514-1.553-1.876-2.576-1.271-3.584-2.492-7.185-3.733-10.78-1.85 9.516-2.802 18.88-3.313 28.467-.684-.31-.93-.349-1.046-.492a6.605 6.605 0 0 1-.68-1.057c-3.74-7.082-9.214-11.84-17.097-14.129-8.365-2.428-15.503-7.224-14.744-18.6.01-.153-.184-.32-.339-.573-.25.175-.577.285-.7.508-5.897 10.653-15.03 16.65-26.897 18.702-.822.143-1.243.534-1.579 1.313-5.712 13.224-18.379 15.312-31.042 19.384 1.93-10.883.102-21.964 9.685-30.383-4.319-.437-6.756-2.89-8.941-5.566-1.69 2.072-3.082 3.803-4.499 5.511-1.963 2.368-4.416 3.259-7.369 2.195-2.95-1.064-4.211-3.453-4.448-6.391-.119-1.461.09-2.956.237-4.427.357-3.585 1.96-6.808 3.558-10.848-5.893 3.011-11.027 5.766-16.069 9.52 3.852 1.949 6.063 4.763 6.844 8.633 1.066 5.293.803 10.559-.507 15.756-.545 2.161-1.296 4.426-4.036 4.734-2.945.33-4.447-1.627-5.522-3.936-1.877-4.031-2.497-8.311-2.077-12.72.29-3.065.739-6.116 1.186-9.734-6.86 5.035-13.238 9.72-19.905 14.615 1.792 1.205 3.424 2.273 4.27 4.02 3.493 7.212 4.516 14.78 2.633 22.575-1.013 4.187-4.865 5.377-8.445 2.903-2.384-1.648-3.801-3.973-4.331-6.797-1.087-5.78-.984-11.547.568-17.713-2.437 1.793-4.532 3.282-6.113 5.411-4.851 6.537-8.533 13.899-14.149 19.905-2.307 2.47-4.447 5.132-6.55 7.747-2.027 2.52-2.07 6.447-5.396 8.145.62 1.489 1.11 2.66 1.594 3.831.526 1.273 1.112 2.527 1.559 3.827 1.402 4.081.197 8.158-3.33 10.634-.973.684-1.212 1.305-1.056 2.337 1.167 7.73 1.192 15.243-4.428 21.428 4.825 6.302 6.177 11.856 5.093 19.33-.972 6.702-2.364 13.354-2.116 20.2.14 3.836-1.01 4.61-4.56 2.86-5.693-2.807-12.313-4.11-16.097-10.126-5.448 6.036-12.868 7.53-19.388 10.665.154 1.142.676 2.311.365 3.185-.988 2.769.383 3.651 2.685 4.527 4.647 1.763 8.003 4.817 9.696 9.78 1.83 5.368 2.08 10.737 1.594 16.296-.627 7.171-2.947 14.142-2.497 21.429.241 3.913.586 7.819.786 11.733.08 1.529-.43 3.843-2.268 2.233-3.323-2.912-7.716-4.597-10.088-8.596-2.722-4.591-6.525-8.023-11.22-10.522-2.624-1.397-5.118-2.985-7.306-5.043-4.946-4.646-6.703-10.575-6.848-17.251-2.042.388-2.663 1.247-1.908 3.123 2.228 5.531 1.563 10.981-.555 16.4-.576 1.475-1.316 2.971-1.275 4.793 3.475-1.64 4.06-1.37 5.48 1.884 1.136 2.602 1.155 5.479 2.046 8.564 1.995-2.25 3.32-4.59 5.45-6.17 1.477-1.095 3.2-2.3 4.933-1.415 1.805.92.953 2.982.903 4.62-.126 4.122-2.456 7.814-2.504 12.161 3.024-.41 5.863-.35 8.704-.245 4.627.168 5.226 1.218 2.903 5.327-1.941 3.432-4.831 6.06-7.74 8.587 3.33 2.242 6.507 4.312 9.601 6.498 1.29.912 2.715 2.01 2.101 3.896-.596 1.838-2.381 1.472-3.797 1.572-1.5.105-3.014.023-4.93.023 3.066 3.652 6.68 6.331 7.117 10.994 7.422-2.164 14.347.695 16.868 6.981.699 1.744 1.748 2.74 3.22 3.662 6.408 4.01 6.833 8.153 1.49 13.583-1.817 1.845-3.73 3.537-6.488 3.622-1.624.051-2.133 1.14-2.587 2.367-2.88 7.766-7.632 13.824-15.698 16.84l2.15 5.037c3.311-3.527 6.793-6.478 10.752-8.736 7.489-4.274 14.356-9.406 21.088-14.75 2.744-2.177 5.612-4.173 8.728-5.8 2.035-1.064 2.862-.561 2.907 1.791.14 7.242-.445 14.419-2.038 21.472-2.495 11.057-8.391 19.549-18.955 24.406-2.544 1.169-5.273 1.538-7.921 2.267-2.535.697-5.079 1.253-7.758 1.38 8.286.782 15.25 4.022 20.35 10.576 5.174-9.735 9.196-19.356 14.994-29.13 2.132 4.537 4.748 7.542 7.307 10.59 3.357 4.004 6.172 8.361 8.289 13.126 4.129 9.292.61 18.79-8.47 23.287-1.09.54-2.49.682-3.283 2.308 5.274 1.543 10.19 3.628 13.309 8.43.146.225.55.425.817.404 3.813-.3 7.144 1.318 11.155 3.282-.862-2.756-1.496-4.728-2.093-6.712-1.711-5.684-3.734-11.357-2.282-17.426 1.598-6.68 3.944-13.192 4.032-20.196.023-1.831 1.255-2.072 2.529-.681 3.58 3.907 7.36 7.653 10.669 11.78 4.966 6.195 4.947 11.953.323 18.366-2.615 3.629-5.707 6.814-9.314 9.502-1.11.829-2.711 1.54-2.06 3.498 1.69 5.08 4.014 9.878 6.544 15.484.602-4.103 1.115-7.342 2.495-10.358 2.202-4.813 6.491-8.694 5.813-14.893 1.09.403 1.605.43 1.816.697 3.374 4.246 6.924 8.539 7.797 14.024 1.388 8.723-1.199 16.764-5.45 24.292-.968 1.712-1.645 3.454-.636 5.063 1.772 2.825 3.558 5.695 5.913 8.094 1.519-.808 1.681-1.97 1.544-3.333-.28-2.761-.043-5.502.483-8.226 1.486-7.691 7.207-11.838 14.949-10.807.933.125 1.864.27 2.86.415 2.618-5.844 6.855-9.288 13.368-8.875 5.703.363 11.494.829 15.087 6.282 8.343-6.758 15.78-5.674 20.74 2.97 2.64-.42 5.428-.466 6.896 2.313 1.326 2.51 2.468 5.221 1.85 8.21-.273 1.324-.051 2.44.562 3.643 2.481 4.862 2.602 9.77-.151 14.578-1.201 2.097-2.575 4.094-4.087 6.476 2.4.437 4.871 3.282 6.366 2.038 3.126-2.602 6.287-2.93 10.137-2.437-6.288-6.226-6.018-13.929-5.693-21.618.127-3.023 1.52-3.753 4.46-2.87 2.66.801 4.36 3.043 6.836 4.5.2-3.504.586-6.666 1.45-9.723.716-2.53 1.326-5.523 4.478-5.978 3.03-.437 3.935 2.502 5.165 4.461 3.485 5.553 6.555 11.342 9.082 17.929.85-2.049.72-3.736.875-5.377.564-5.92.92-11.877 5.331-16.596 2.93-3.136 6.732-2.725 8.417 1.132.501 1.146.774 2.427.94 3.675.335 2.548.527 5.116.84 8.29.833-1.45 1.332-2.355 1.866-3.237 1.705-2.806 3.271-5.713 5.18-8.373 2.084-2.905 4.721-2.662 6.464.475.71 1.276 1.217 2.727 1.515 4.16.618 2.968 1.033 5.978 1.595 9.362 2.21-2.128 4.303-4.046 7.117-4.885 2.04-.608 3.66-.036 3.78 2.047.358 6.225.998 12.56-2.444 18.287-.886 1.477-1.967 2.839-3.224 4.629 2.983-.449 5.487-.934 7.9.413 1.294.723 2.037 3.164 4.186 1.543 1.31-.988 3.264-.823 4.418-2.34-.407-.547-.716-.967-1.03-1.381-.32-.421-.663-.828-.97-1.26-4.115-5.788-5.556-11.868-1.86-18.425.712-1.267.152-2.467.224-3.696.403-6.968 2.235-11.026 9.067-10.036 1.407-4.401 4.851-6.332 9.198-7.128 4.602-.841 8.274.775 11.03 4.448 9.024-9.898 22.565-8.685 28.796 2.345.966-.133 1.997-.286 3.033-.413 6.785-.833 11.527 1.933 13.986 8.33 1.275 3.315 1.455 6.825 1.231 10.346-.095 1.488-.303 2.98 1.774 3.72 1.838-2.58 3.731-5.118 5.486-7.748.952-1.428.961-3.133.033-4.53-3.117-4.692-4.404-9.99-5.773-15.361-2.49-9.772 2.036-17.034 7.819-23.978.194-.235.768-.153 1.217-.226.857 2.186.308 4.62 1.551 6.533 3.508 5.391 6.696 10.901 7.302 17.621 2.18-4.404 3.904-8.827 5.877-13.134 1.05-2.291.518-3.744-1.458-5.082-3.548-2.404-6.425-5.535-8.99-8.926-5.15-6.808-5.15-12.8.257-19.394 3.221-3.928 6.844-7.525 10.275-11.283.438-.481.854-1 1.576-.844.904.196 1.077.977 1.081 1.726.04 6.562 2.064 12.708 3.78 18.944 1.87 6.8-.497 13.186-2.458 19.581-.495 1.615-1.566 3.16-1.1 5.265 3.341-1.628 6.47-3.238 10.13-2.953.447.035 1.133-.255 1.365-.614 3.077-4.758 7.975-6.686 13.049-8.23-.323-1.232-1.201-1.472-1.97-1.753-11.094-4.051-14.176-16.457-8.414-26.698 4.024-7.157 9.969-12.814 14.51-20.689zm89.456-3.146c-10.025-1.721-18.498 1.594-26.05 8.06-2.696 2.305-4.746 5.33-7.871 7.153.104-1.443 1.344-2.087 2.147-3.006 9.543-10.918 22.04-17.626 34.407-24.521.824-.46 1.896-.627 2.47-1.732-9.578 1.215-19.17 1.946-24.736 11.674.818-3.452 3.457-5.31 6.008-8.109-5.942 1.41-10.07 4.701-14.366 7.675-4.637 3.211-6.895 7.575-6.598 13.298.054 1.062.509 2.427-1.04 3.481-.16-2.11.18-3.967-.596-6.352L526 404l7.005-4.857c.48 2.294 1.882.706 2.654.47 5.588-1.708 11.19-3.049 17.1-2.095 9.21 1.489 9.927 1.05 13.175-7.78.478-1.294.844-2.637 1.407-3.89.416-.931-.136-1.353-.653-1.884.604-.109 1.3.001 1.631-.735 1.848-4.138 4.279-7.96 6.681-11.796l-.531-.598-24.085 13.455.313.71c1.682-.486 3.34-1.105 5.052-1.434 3.707-.71 7.466-1.795 11.06.48zm-535.53.63c5.587-2.982 10.92-.234 16.598.24l-24.327-13.3-.55.586c2.51 3.858 4.906 7.776 6.957 11.883.162.327.927.36 1.41.53-.228.436-.988.596-.777 1.243 1.395 4.313 2.946 8.557 5.685 12.268.678.92 1.601.962 2.575.76 8.413-1.747 16.703-1.581 24.816 1.5.856.324 1.681.587 1.788-.774L72 404c-1.557-3.82-2.251-7.746-4.395-12.067l-.476 6.89c-1.278-1.732-.928-3.123-.903-4.409.05-2.58-.19-5.192-1.683-7.274-4.654-6.482-11.452-9.942-18.84-12.54 1.98 2.436 4.57 4.347 5.454 7.439-7.948-8.396-14.608-11.398-25.234-11.005 1.051.577 1.872 1.03 2.695 1.478 7.272 3.96 14.65 7.783 21.401 12.567 5.845 4.141 11.48 8.614 15.55 14.646-3.163-1.8-5.224-4.807-7.963-7.078-7.651-6.349-16.194-9.716-26.327-7.971zm218.683-345.75c.574-1.64.102-3.357.338-5.01.872-6.085 1.365-12.34 6.73-16.877-2.085-.629-4.064-1.42-6.119-1.809-6.716-1.273-11.357 2.845-10.877 9.495.19 2.617 1.92 4.376 3.434 6.251 2.148 2.662 4.327 5.298 6.494 7.944.372 1.33-.696 1.404-1.395 1.267-3.473-.676-3.903 1.58-4.094 4.072-.56 7.373 3.001 12.65 8.72 16.783.744.537 1.716 1.349 2.6.743 3.361-2.303 7.578-1.953 11.207-3.479-.192-.425-.227-.666-.366-.784-6.118-5.196-12.346-10.29-15.684-17.91-.137-.312-.65-.46-.988-.686zM133.56 408.59c-1.27-3.087-3.053-5.839-5.715-8.59-4.539 6.732-6.116 13.648-5.808 21.07 3.144-4.912 6.874-9.173 11.631-12.58-1.552 2.66-3.896 4.714-5.868 7.052-4.614 5.474-6.803 11.475-4.563 18.458 13.36-6.115 17.401-15.984 10.323-25.41zm330.86.274c-7.048 9.663-3.003 19.88 10.286 26.136 2.213-7.18.05-13.351-4.544-18.974-1.963-2.402-4.29-4.517-5.823-7.238 4.83 3.456 8.392 8.042 11.659 12.972.064-7.719-1.29-14.936-5.954-21.76-2.559 3.058-4.426 5.747-5.624 8.864zM79.164 334.355c2.376.171 3.3 2.02 4.343 3.735.473.775.622 1.941 1.965 1.698 3.1-.56 6.271-.24 9.528-.388-2.837-6.82-9.76-8.868-15.828-5.004-.532-2.425-2.19-3.904-4.466-4.322-2.172-.398-3.711.861-5.027 2.674-1.575 2.171-3.014 4.42-4.143 6.812-2.786 5.9-4.537 12.021-2.912 19.44.778-3.302 1.87-5.804 2.358-8.266 1.243-6.256 4.365-11.267 8.767-15.572 1.359-1.328 3.347-2.36 5.415-.807zm439.074-.012c2.466-1.658 4.332-.111 6.042 1.345 2.61 2.224 4.108 5.31 5.55 8.353.802 1.689 2.466 2.935 2.478 5.03.008 1.558 1.602 7.484 2.369 8.929 1.4-9.618-1.885-17.712-7.197-25.268-1.273-1.81-2.773-3.056-4.893-2.657-2.222.419-3.839 1.885-4.356 4.281-5.918-3.843-13.862-1.28-15.231 5.227 2.764 0 5.474-.165 8.151.064 1.515.131 2.24-.256 2.891-1.601.86-1.773 1.86-3.569 4.196-3.703zM175.03 512.525c-3.676.129-4.65 3.48-7.03 5.458 7.571 3.858 13.92 1.782 20.377-2.853-1.563-.15-2.76-.185-3.925-.396-3.21-.58-6.652-.205-9.505-2.313 5.006.033 9.896.756 15.053 2.472-1.28-1.557-.13-4.253-2.37-4.992-3.256-1.07-6.713-1.308-10.043-.046-1.205.455-2.672.844-2.557 2.67zm247.87-.04c-1.19-2.66-4.665-3.917-9.263-3.352-4.889.599-5.011.726-5.637 5.562 4.797-1.53 9.824-2.253 14.973-2.296-4.092 2.573-8.943 1.834-13.615 2.772 7.802 5.432 14.811 6.307 20.642 2.494-2.522-1.645-3.36-5.185-7.1-5.18zm124.866-245.262c1.072-4.964 4.381-8.614 8.238-12.166-2.564-1.353-4.868-1.367-7.135-2.057-2.044 4.768-2.413 9.427-1.099 14.221 1.193 3.089 2.384 6.178 3.773 9.779 1.515-3.623 2.413-6.776 4.073-9.488 1.99-3.245 1.637-6.192.189-9.37-1.424.323-2.094 1.501-2.98 2.41-1.969 2.018-2.774 4.876-5.06 6.67zm-497.513-.174c-3.006-2.62-3.893-7.053-7.853-9.076-.652 2.009-1.887 4.139-1.197 5.845 1.663 4.116 3.594 8.145 5.326 13.182l3.72-9.957c1.29-4.73.908-9.324-1.067-14.043-2.215.817-4.637.498-6.912 2.346 4.082 3.152 6.822 6.938 7.983 11.703zm181.548-162.23c.392.1.953.423 1.15.268 3.346-2.652 5.912-5.91 8.049-10.673-4.61 1.214-7.943-.423-11.2-2.414-.17.256-.338.511-.508.765.863 4.051 1.726 8.1 2.58 12.14-2.751-2.815-2.125-7.043-3.916-10.36-2.586 2.687-2.599 8.908-.093 13.455 1.466-.874 3.576-.797 3.938-3.18zm135.308.07c.45 2.49 2.49 2.546 4.243 3.111 2.398-6.302 2.163-11.317-.599-13.239-1.478 3.333-1.021 7.402-3.736 10.24a36173 36173 0 0 0 2.594-12.21l-.534-.791c-3.255 2.243-6.773 3.343-11.077 2.81 1.914 4.225 4.384 7.15 7.122 9.874.612.609 1.255.75 1.987.205zm4.783-13.148c2.645 4.57 5.39 5.35 10.108 2.877-1.102-4.297-1.181-4.311-5.277-3.44-1.613.342-3.277.443-4.918.655 1.935-1.934 4.93-1.2 7.099-2.598-2.356-3.851-3.875-4.637-7.855-4.07-.206 1.264-.14 2.689-.694 3.82-.919 1.876.07 2.357 1.537 2.756zm-263.404 20.545c1.94-7.147 6.725-11.372 12.342-14.811 3.193-1.955 4.081-1.609 5.409 1.88.86 2.258 1.478 4.608 2.279 7.157 2.009-1.065 3.906-2.177 5.895-3.093 1.82-.84 3.74-2.06 5.73-1.675 5.851 1.127 8.193-3.61 11.718-6.633-3.387.353-6.697.32-10.006.31-3.55-.012-6.64-1.293-9.308-3.565-3.15-2.68-4.066-6.707-2.381-10.034 1.812-3.576 6.72-6.07 10.35-5.122 6.543 1.71 11.569 5.604 15.482 11.027.556.769 1.075 1.564 1.739 2.53 5.988-3.896 11.457-8.289 16.857-13.316-2.277 0-4.558.084-6.831-.017-4.784-.215-8.866-1.99-11.937-5.76-3.34-4.099-3.654-8.663-.904-12.257 2.619-3.422 7.968-5.104 12.057-2.62 6.344 3.855 11.902 8.783 14.54 16.45l28.573-16.465c-3.348-.178-5.808-.253-8.257-.45-7.91-.636-14.506-4.188-20.37-9.308-.812-.71-1.828-1.709-.48-2.564 4.459-2.82 8.118-6.756 13.046-8.952 4.136-1.842 8.311-2.294 13.418-1.096-4.35-7.208-5.15-14.65-6.266-22.051-.338-2.243.205-2.899 2.24-3.018 7.287-.426 14.359.463 21.19 3.164 2.528 1 4.784 2.278 6.335 4.57 1.705 2.523 4.76 1.952 6.893 3.388 4.904-8.148 10.698-8.323 20.978-4.241 5.205 2.065 9.587 5.404 12.694 10.223.491.763.823 1.737 2.15 2.256 1.106-5.24 4.265-9.062 8.408-12.181.692-.52 1.192-1.228 1.26-2.13.3-4.022 2-7.803 1.98-11.888-.013-2.424 1.364-2.342 2.918-1.315 3.107 2.053 6.034 4.35 8.449 7.2 2.998 3.536 6.583 6.211 10.745 8.279 8.199 4.073 11.687 7.892 15.266 16.137 1.006-.462 1.077-1.528 1.472-2.343 4.637-9.572 12.643-14.66 22.747-16.567 5.578-1.054 10.36.556 12.803 6.441 3.291-.91 6.541-1.373 8.491-4.55.845-1.375 2.386-2.068 3.857-2.705 7.242-3.134 14.817-4.257 22.665-3.727 1.796.12 2.529.642 2.178 2.8-1.205 7.4-1.798 14.929-6.48 22.39 5.63-1.552 10.163-.767 14.543 1.42 4.5 2.247 7.97 5.91 12.184 8.543.956.598.49 1.544-.18 2.16-1.636 1.503-3.13 3.189-5.148 4.227-6.533 3.362-13.125 6.506-20.808 5.69-.69-.072-1.399.049-2.29.63l27.866 16.084c2.06-7.455 7.824-11.79 13.417-16.015 3.812-2.88 9.952-1.63 12.77 1.721 3.068 3.645 2.924 8.266-.425 12.5-3.02 3.817-7.079 5.65-11.855 5.92-2.305.13-4.625.023-7.074.363 5.25 4.775 10.896 8.878 16.802 13.036 3.623-5.535 7.98-10.007 14.064-12.583 3.912-1.657 7.42-1.893 10.95 1.078 4.414 3.718 4.611 9.293.193 13.128-4.836 4.199-10.595 3.682-16.339 3.254-.735-.056-1.46-.244-2.196-.335-.194-.025-.405.08-1.204.262 3.84 2.828 5.948 7.388 11.668 6.638 3.244-.425 6.097 1.514 8.91 2.998 1.015.535 1.991 1.138 3.259 1.869.649-2.218 1.162-4.227 1.826-6.185 1.585-4.679 2.66-5.051 6.75-2.41 5.263 3.4 9.628 7.566 11.54 14.504 2.854-2.963 5.347-5.512 7.794-8.105 1.314-1.392 2.392-1.52 4.038-.215 9.115 7.223 9.864 11.772 9.248 21.19.4.803 1.252.78 1.926.84 5.437.477 8.444 2.88 10.195 10.466.739 3.2 1.14 6.507-.494 9.643-.65 1.25-.131 1.971.814 2.957 3.973 4.142 7.088 8.793 6.806 14.877-.142 3.04-.87 5.933-3.968 7.437-.881.428-1.14 1.105-1.392 1.955-1.894 6.408-5.638 10.868-12.979 11.991 4.71 2.597 7.92 6.554 10.994 10.968 2.148-1.827 3.975-3.675 6.732-3.74.744-.02 1.006-.7 1.088-1.368.417-3.404 1.88-6.48 3.241-9.89-2.418-.427-5.623.588-5.864-3.19-.115-1.802.99-2.758 2.575-3.13 2.624-.617 3.947.837 4.573 3.645 4.545-5.502 10.434-6.986 16.727-6.376 7.335.712 8.774 1.753 9.775 8.326 5.73-1.369 11.944-2.831 15.845 3.048 3.48 5.243.313 9.826-3.975 14.068 7.831.836 13.552 3.609 14.343 11.602.691 6.986-2.838 11.163-11.85 14.743 4.075 3.594 6.416 7.711 5.163 13.358-1.16 5.228-4.395 8.78-8.677 11.623 5.588 5.435 6.759 14.32 2.874 20.847-1.029 1.73-1.308 3.263-.856 5.34 1.121 5.157 2.217 10.374 1.32 15.932 2.21-.1 3.854-1.029 5.55-1.748 2.062-.875 4.128-1.621 6.44-1.49 3.164.18 3.919 1.128 3.097 4.273-.8 3.061-2.618 5.527-4.728 7.81-.85.92-1.68 1.86-2.797 3.1 3.75.921 7.424.166 10.756 1.514 1.525.618 3.59.595 3.959 2.67.383 2.148-1.074 3.584-2.586 4.79-2.746 2.187-6.07 3.236-10.137 4.426 4.476 2.611 7.864 5.387 10.333 9.168 2.277 3.487 1.753 4.995-2.367 5.997-2.784.678-5.652.04-8.823.333 1.285 2.453 3.574 3.882 4.377 6.39.607 1.896-.006 2.561-1.671 2.866-1.617.297-3.183.015-4.688-.546-3.546-1.318-7.44-1.395-11.173-3.72.717 4.4 1.035 8.192.489 11.965-.252 1.733-.935 3.403-1.58 5.65-4.126-3.127-5.897-7.614-9.338-11.086-1.003 3.061-1.05 6.287-2.733 8.96-.563.897-.98 1.892-1.595 2.747-1.62 2.247-3.117 2.18-4.138-.333-1.986-4.881-4.77-9.518-4.895-15.016-.01-.47-.314-.933-.582-1.673-3.063 3.096-5.143 6.823-8.918 8.801-.805.422-.6 1.273-.497 2.006 1.108 7.905-.596 15.359-3.693 22.532 3.512 3.137 3.626 3.753 1.09 6.381.401.871.831 1.802 1.512 3.274 12.513-11.396 28.276-11.712 43.242-14.156.775 1.375.297 1.827-.134 2.302-4.7 5.18-8.388 11.093-10.344 17.721-5.19 17.584-18.349 24.437-34.993 26.895-3.137.463-6.321.597-9.636.897-.985 2.543.483 2.565 2.446 2.504 9.534-.301 15.386 4.707 15.972 13.784.316 4.888-1.879 9.041-4.515 12.973-.521.778-1.115 1.512-1.888 2.555 5.033 3.708 6.513 8.386 3.182 13.812-3.447 5.618-8.393 8.553-16.163 6.997 3.251 4.031 2.775 7.496.422 10.954-2.261 3.327-4.71 4.602-8.672 3.657-2.703-.646-5.536-.12-8.152-1.182-.897-.365-1.35.227-1.796.867-1.745 2.498-4.135 2.615-6.801 1.877-8.152-2.254-14.93-6.42-19.475-13.774-.598-.968-1.417-1.803-2.396-3.028-1.917 4.964-3.557 9.687-7.041 13.33-3.379 3.532-6.645 7.232-11.302 9.688 2.634-9.364-5.74-15.475-6.144-24.165-3.7 2.508-7.375 2.84-11.21 1.928-1.028-.244-1.798-.106-2.465.85-4.424 6.35-8.894 12.665-13.336 19.001-.089.13-.011.373-.011 1.345 9.736-7.029 19.283-5.752 28.803.325-.89 2.02-3.123 3.207-4.77 4.867-4.152 4.182-8.863 7.524-14.614 9.293-3.845 1.182-7.583 1.588-11.555.529-4.389-1.172-5.053-.71-6.902 3.408 6.434.413 10.356 4.71 14.37 8.985 5.28 5.624 10.099 11.762 17.07 15.573 1.667.912 1.45 2.449.335 3.79-.769.928-1.885 1.39-3.004 1.718-8.97 2.62-18.09 3.262-27.366 2.121-1.96-.242-3.575-1.155-5.556-2.573L399.9 571.856c-1.97.331-2.509-.84-2.927-1.882-2.314-5.742-6.693-9.986-10.425-14.718-3.105-3.937-6.8-7.396-8.203-12.64-1.54-5.748-1.48-11.049 1.415-16.27.408-.736.706-1.535 1.041-2.311.03-.073-.041-.19.006-.003-4.301-4.465-8.902-1.42-13.358-.91-.361.04-.71.713-.956 1.152-3.68 6.597-9.627 8.938-16.79 8.797-3.815-.075-7.623-.47-11.436-.684-1.127-.064-2.28-.508-3.807.266 3.31 3.34 5.43 7.303 7.193 11.467.492 1.163.922 2.372 1.203 3.601.428 1.879.814 3.902-.999 5.284-1.83 1.397-3.86 1.444-5.994.422-3.61-1.728-7.16-3.553-10.942-6.358 1.288 5.216.098 9.69-.013 14.195-.044 1.75-.667 3.126-2.433 3.689-1.871.599-3.366-.111-4.418-1.656-3.572-5.244-7.915-9.92-11.716-15.389-.218 2.22-.414 4.446-.658 6.663-.578 5.273-1.051 10.583-4.594 14.949-2.862 3.528-5.035 3.328-7.06-.829-2.467-5.058-3.363-10.453-3.027-16.066.067-1.125.009-2.258.009-4.155-3.509 4.72-6.563 8.838-9.633 12.944-.697.932-1.408 1.862-2.186 2.725-1.061 1.179-2.444 1.221-3.817.745-1.308-.456-2.127-1.481-2.16-2.872-.109-4.737-1.464-9.44-.077-14.846-3.7 2.511-7.06 4.415-10.555 6.083-2.206 1.053-4.317 1.306-6.3-.17-2.092-1.56-1.578-3.834-.975-5.853 1.617-5.407 4.309-10.274 8.132-14.548-1.274-.891-2.434-.358-3.538-.301-4.13.215-8.259.708-12.387.694-6.79-.025-12.447-2.45-15.871-8.703-.52-.948-1.069-1.47-2.173-1.474-.842-.004-1.864.074-2.494-.35-3.567-2.398-6.522-.234-9.928 1.111 1.083 2.376 2.493 4.557 3.085 6.94 1.58 6.355.57 12.48-3.257 17.816-3.208 4.47-6.856 8.626-10.369 12.872-2.176 2.631-4.105 5.385-5.383 8.58-.418 1.043-.923 2.207-2.75 2.074-4.48-11.218-7.955-22.92-12.075-34.409-8.439 4.098-16.878 2.73-25.238 1.737-3.023-.358-6.104-.86-8.941-2.16-1.395-.638-2.68-1.418-2.718-3.18-.034-1.59 1.3-2.001 2.396-2.641 4.554-2.66 8.032-6.546 11.629-10.29 1.834-1.913 3.61-3.887 5.396-5.845 3.56-3.899 7.4-7.322 13.088-7.643-.685-3.19-2.45-4.536-5.485-3.71-10.307 2.813-18.407-1.522-25.841-7.937-2.306-1.988-4.433-4.185-7.237-6.854 5.49-1.5 9.728-4.639 15.068-4.91 5.323-.27 9.699 2.534 14.792 4.016-.858-1.24-1.706-2.484-2.575-3.714-3.547-5.023-7.129-10.02-10.627-15.077-.804-1.163-1.533-1.83-3.094-1.452-3.738.903-7.355.584-10.732-1.804a53.984 53.984 0 0 1-4.646 12.235c-1.85 3.534-2.907 7.258-1.411 11.27-2.395.09-5.77-2.617-11.608-9.063-3.412-3.769-5.196-8.41-7.086-13.496-3.077 4.082-5.79 7.99-9.523 11.01-4.249 3.435-9.24 5.06-14.441 6.19-1.518.329-3.043-.105-3.987-1.435-1.053-1.481-2.086-1.824-3.963-1.31-2.628.72-5.421.894-8.158 1.14-5.73.515-10.858-6.892-8.436-12.091.348-.747.626-1.527 1.075-2.634-7.509 1.313-12.625-1.754-15.988-7.927-2.871-5.276-1.248-9.606 3.604-12.915-2.062-2.903-3.752-5.549-5.101-8.44-4.045-8.672.813-22.183 14.511-21.053 1.652.135 3.42.457 2.673-2.48-5.597-.451-11.285-.764-16.823-2.194-7.321-1.892-13.915-5.087-19.415-10.378-3.45-3.32-5.744-7.355-7.23-11.825-2.636-7.933-6.278-15.273-11.962-21.496-.295-.325-.437-.724.234-1.894 14.808 2.405 30.49 2.649 42.784 13.84 1.34-.775 1.399-2.002 1.908-2.937-2.464-2.657-2.337-3.41 1.134-6.356-3.092-7.25-4.854-14.8-3.674-22.801.094-.633.215-1.373-.44-1.727-3.751-2.019-5.93-5.646-9.349-9.327-.2 6.154-2.358 11.028-4.59 15.865-.537 1.17-.539 2.945-2.318 3.091-1.855.15-2.364-1.522-3.137-2.742-1.97-3.106-2.889-6.566-3.235-10.605-3.72 3.398-5.502 8.013-9.445 11.188-2.568-5.781-2.318-11.284-1.295-17.362-3.938 2.002-7.92 2.414-11.682 3.651-2.031.668-4.686 1.402-5.855-.603-.984-1.69.764-3.714 2.068-5.269.727-.866 1.47-1.716 2.632-3.066-3.022 0-5.418.17-7.782-.035-5.396-.468-6.344-2.586-3.225-6.878 1.25-1.72 2.561-3.397 4.255-4.703 1.572-1.212 3.212-2.339 5.174-3.757-2.064-.75-3.834-1.296-5.522-2.031-2.039-.891-4.054-1.88-5.515-3.661-2.316-2.821-1.718-4.665 1.65-5.929 3.66-1.373 7.509-1.117 11.482-1.573-.4-1.533-1.577-2.295-2.443-3.25-2.16-2.383-4.067-4.918-4.839-8.104-.719-2.975.03-3.853 3.047-4.062 2.896-.201 5.365 1.021 7.905 2.09 1.158.489 2.365.86 4.193 1.513-.736-5.19-.212-9.989 1.008-14.627.853-3.24.29-5.774-1.428-8.586-3.14-5.135-1.16-14.75 3.77-19.134-4.21-3.05-7.704-6.571-8.733-11.966-1.051-5.51.91-9.7 5.337-13.032-9.508-4.118-13.122-8.444-11.926-15.364 1.155-6.677 3.918-9.445 14.146-11.28-4.397-4.278-7.58-9.17-3.359-14.556 3.983-5.08 9.86-3.776 15.276-2.372 1.743-6.561 3.95-8.344 10.69-8.441 6.019-.088 11.586 1.187 15.819 6.432.795-2.628 2.02-4.368 4.846-3.541 1.604.469 2.604 1.505 2.365 3.27-.456 3.389-3.138 2.782-5.875 2.825 1.373 3.594 2.932 6.926 3.41 10.567.075.572.58.901 1.154.911 2.664.041 4.373 1.898 6.47 3.632 3.186-4.127 6.13-8.308 10.76-10.362.087-.963-.448-.93-.806-.99-6.247-1.07-9.784-5.023-11.664-10.813-.278-.856-.193-1.914-1.21-2.478-5.133-2.85-4.885-7.527-3.841-12.23.892-4.023 3.251-7.393 6.191-10.195 1.28-1.22 1.223-2.066.742-3.53-1.968-5.997-.603-11.509 2.978-16.502 2.07-2.889 5.595-2.693 8.52-3.488.532-.505.376-1.038.304-1.55-1.181-8.437 2.175-14.781 8.8-19.829 1.934-1.474 3.157-1.569 4.796.2 2.3 2.48 4.772 4.8 7.563 7.577z" fill="#FFF" fill-rule="evenodd"/></svg>