<svg width="310" height="555" xmlns="http://www.w3.org/2000/svg"><path d="M146.62 88.433a12.315 12.315 0 0 0-.568-.621 5.548 5.548 0 0 0-.658-.619c-.476-.381-1.026-.742-1.659-.942-.64-.211-1.45-.162-1.967.121-.554.256-1.027.698-1.213 1.223.457-.3.965-.358 1.415-.337.49.042.777.165 1.062.444a3.8 3.8 0 0 1 .787.959l.34.58c.142.236.249.443.349.643.466.927.87 1.895 1.173 2.848a19.24 19.24 0 0 1-2.844-1.179c-.856-.465-1.67-.872-2.173-1.474a1.74 1.74 0 0 1-.31-.449 2.173 2.173 0 0 1-.133-.616c-.02-.449.035-.958.334-1.419-.527.187-.967.66-1.225 1.217-.139.279-.218.59-.248.934-.028.373.035.714.125 1.04.43 1.293 1.355 2.176 2.178 2.895.85.765 1.833 1.34 2.86 1.872 1.047.495 2.185.865 3.447.995l2 .205-.209-2.002c-.13-1.265-.499-2.405-.997-3.453-.527-1.03-1.105-2.014-1.865-2.865zm12.627 10.446l1.996-.209c1.264-.132 2.404-.5 3.45-.999 1.03-.527 2.012-1.105 2.862-1.867.227-.198.443-.393.62-.57.225-.21.424-.413.615-.66.38-.475.74-1.026.942-1.662.212-.64.163-1.45-.12-1.97-.256-.556-.697-1.027-1.222-1.215.3.457.356.968.335 1.417-.04.49-.165.778-.441 1.066-.256.302-.579.56-.957.788l-.58.341c-.235.14-.442.246-.641.346a19.69 19.69 0 0 1-2.847 1.178c.306-.955.708-1.921 1.177-2.848.467-.857.873-1.675 1.475-2.177.141-.134.3-.241.445-.311a2.2 2.2 0 0 1 .616-.132c.45-.024.959.034 1.418.332-.185-.528-.659-.967-1.214-1.224a2.488 2.488 0 0 0-.933-.249 2.925 2.925 0 0 0-1.038.125c-1.291.43-2.174 1.357-2.891 2.182-.764.85-1.338 1.833-1.87 2.864-.494 1.048-.863 2.186-.993 3.45l-.204 2.004zm-1.872-15.51c-.926-.422-1.99-.58-2.906-.286.949.064 1.763.52 2.415 1.067.665.59 1.067 1.205 1.194 1.999.165.78.154 1.602.028 2.438-.12.801-.309 1.739-.53 2.566-.484 1.703-1.018 3.392-1.766 4.97-.4.874-.85 1.713-1.34 2.514a22.82 22.82 0 0 1-1.337-2.516c-.75-1.576-1.28-3.265-1.765-4.97-.418-1.732-.838-3.437-.503-5.002.07-.388.198-.761.387-1.069.203-.334.486-.644.805-.928.649-.547 1.463-1.005 2.412-1.069-.916-.296-1.98-.138-2.908.285a4.525 4.525 0 0 0-1.305.883c-.42.4-.713.871-.947 1.36-.883 2.004-.727 4.13-.512 6.019.213 1.945.734 3.838 1.402 5.699.722 1.84 1.669 3.63 2.981 5.262l1.291 1.604 1.287-1.604c1.308-1.635 2.261-3.42 2.979-5.265.668-1.858 1.185-3.754 1.4-5.696.058-.503.106-.996.132-1.447.037-.51.054-1.001.023-1.513-.052-1.015-.224-2.077-.668-3.057-.43-.996-1.329-1.863-2.25-2.243zm-4.195-33.941l1.291 1.606 1.287-1.606c1.308-1.635 2.261-3.42 2.979-5.264.668-1.859 1.185-3.752 1.4-5.697.058-.5.106-.996.132-1.447.037-.51.054-.998.023-1.513-.052-1.015-.224-2.074-.668-3.056-.43-.996-1.329-1.86-2.25-2.24-.925-.426-1.99-.583-2.905-.29.949.064 1.763.52 2.415 1.067.665.59 1.067 1.207 1.194 1.999.165.78.154 1.602.028 2.44a24.39 24.39 0 0 1-.53 2.563c-.484 1.703-1.018 3.395-1.766 4.97a23.22 23.22 0 0 1-1.34 2.514 22.61 22.61 0 0 1-1.337-2.516c-.75-1.576-1.28-3.265-1.765-4.968-.418-1.731-.838-3.439-.503-5 .07-.39.198-.764.387-1.072.203-.334.486-.644.805-.928.649-.547 1.463-1.003 2.412-1.069-.916-.293-1.98-.138-2.908.287a4.478 4.478 0 0 0-1.305.883c-.42.4-.713.872-.947 1.36-.883 2.004-.727 4.13-.512 6.018.213 1.943.734 3.836 1.402 5.697.722 1.842 1.669 3.63 2.981 5.262zm44.286 25.006l1.068-1.068c-.004-.004-.009-.004-.01-.004-.005 0-.007.002-.01.004l-1.048 1.068zm.028-3.172a3.715 3.715 0 0 1 5.255-.002 3.733 3.733 0 0 1 0 5.265 3.7 3.7 0 0 1-2.627 1.09 3.713 3.713 0 0 1-3.718-3.721c0-.992.389-1.93 1.09-2.632zm6.472-3.087a3.2 3.2 0 0 0 0-4.514 3.193 3.193 0 0 0-4.507 0 3.2 3.2 0 0 0 0 4.514 3.182 3.182 0 0 0 4.507 0zm10.486 84.45a10.48 10.48 0 0 1-2.262 1.09c-1.581.557-3.71.823-6.043.367-2.341-.415-4.82-1.544-7.189-3.172a30.622 30.622 0 0 1-2.554-2.06c.391.457.78.92 1.185 1.338 1.166 1.183 2.384 2.208 3.638 3.023 1.29.837 2.43 1.487 3.636 1.747 2.477.598 4.835.118 6.605-.552a10.242 10.242 0 0 0 2.984-1.78zm-37.157-41.713c-.68-1.272-1.434-2.488-2.386-3.553-2.819-3.258-7.877-4.012-11.784-2.205-1.941.91-3.626 2.366-4.76 4.146-.564.883-.993 1.838-1.183 2.824-.042.172-.037.388-.059.577a11.127 11.127 0 0 1 5.024-4.539 12.932 12.932 0 0 1 5.683-1.194c1.902.03 3.855.52 5.592 1.336 1.422.67 2.695 1.585 3.873 2.608zm-16.987 8.976c.126.258.296.473.451.705.072-.086.136-.167.22-.267.566-.59 1.478-1.592 3.292-2.005.944-.187 2.045-.046 3.066.554 1.01.524 2.008 1.952 1.616 3.468-.308 1.43-1.64 2.695-3.26 3.048-.106.025-.212.025-.318.044.187.01.375.035.564.02a4.815 4.815 0 0 0 1.962-.486c.271-.137.564-.34.717-.468.3-.28.449-.434.619-.696.66-.961.788-2.283.431-3.356-.355-1.061-1.168-1.984-2.149-2.58-1.986-1.219-4.406-1.13-5.801-.261-.99.574-1.346 1.488-1.41 2.28zm4.436 2.353c.871-.09 1.544-.512 1.82-1.056.267-.502.055-1.055-.534-1.48-.572-.415-1.356-.618-2.018-.625-1.465.023-2.61.69-3.305 1.12-.179.112-.266.18-.399.27.437.467.925.881 1.487 1.155.928.477 2.065.735 2.95.616zm52.893 27.871l-.195.385a7.016 7.016 0 0 1-.64 1.092c-.63.907-1.76 2.167-3.605 3.217-1.833 1.028-4.413 1.821-7.474 1.498-1.57-.16-3.179-.771-4.577-1.565-1.458-.784-2.888-1.792-4.265-2.97-2.76-2.354-5.245-5.458-7.22-9.054-2.05-3.616-3.49-7.626-4.706-11.827-1.199-4.188-2.249-8.511-3.503-12.758-.237-.794-.49-1.588-.747-2.376-1.008-1.203-2.097-2.295-3.303-3.19a15.556 15.556 0 0 0-4.184-2.388c-1.476-.53-2.953-.86-4.47-.794a9.683 9.683 0 0 0-4.08 1.084c-1.233.649-2.297 1.514-3.032 2.544-.364.525-.669 1.048-.864 1.654-.178.427-.144.51-.24.809-.041.293-.107.584-.107.885-.024.401.04.793.086 1.188a4.388 4.388 0 0 1 1.05-1.44c1.718-1.597 4.925-2.125 7.805-.594.386.207.767.461 1.138.747.222.113.442.222.7.37a17.152 17.152 0 0 1 5.349 4.725c.442.638.842 1.27 1.264 2.063.335.621.696 1.563.92 2.384.35 1.262.44 2.645.325 4.03.14.7.259 1.435.303 2.228.058.979.12 2.031.002 3.106-.075 1.077-.212 2.194-.473 3.303-.237 1.114-.594 2.221-1.006 3.303a23.191 23.191 0 0 1-1.509 3.106c-.561.996-1.254 1.883-1.913 2.738-1.362 1.684-2.998 2.963-4.22 3.897-1.238.972-2.144 1.834-2.62 2.618-.49.767-.618 1.336-.618 1.336l-.058-.4a4.18 4.18 0 0 1 .03-1.177c.136-1.028.8-2.438 1.835-3.777.498-.64 1.037-1.336 1.608-2.073.547-.695 1.043-1.476 1.585-2.255.507-.809.966-1.674 1.43-2.554.437-.892.869-1.804 1.228-2.75.124-.309.207-.63.32-.94a36.698 36.698 0 0 1-1.516 1.874 36.707 36.707 0 0 1-4.116 3.956c-1.4 1.17-2.702 2.32-3.78 3.503a17.697 17.697 0 0 0-2.561 3.596c-.61 1.218-.982 2.425-1.026 3.564-.068 1.169.179 2.1.598 3.027.423.88.952 1.568 1.504 2.048.55.489 1.047.752 1.435.9.39.148.52.205.52.205v.352s-.136.054-.612.101c-.474.027-1.092-.027-1.97-.34-.874-.313-1.873-.949-2.73-1.97-.42-.512-.851-1.096-1.156-1.804-.152-.357-.3-.7-.418-1.153-.136-.54-.178-.612-.249-1.208-.197-1.684.08-3.555.833-5.263.683-1.703 1.923-3.34 3.283-4.624 1.394-1.314 2.956-2.408 4.508-3.426 1.543-1.043 3.176-1.88 4.685-2.904 1.506-1.008 2.887-2.25 3.768-3.793.037-.064.059-.136.096-.2.102-.407.2-.813.266-1.218.28-1.466.449-2.854.551-4.156-.222-1.4-.622-2.701-1.061-3.88a27.44 27.44 0 0 0-.82-1.984c-.255-.564-.591-1.2-.918-1.742a25.87 25.87 0 0 0-.82-1.304c.046 1.22-.169 2.487-.83 3.672-.252.474-.672.977-.984 1.3-.474.478-.901.783-1.399 1.084-.986.562-2.092.9-3.222.976-1.133.099-2.292-.089-3.4-.505l-.41-.178-.24-.113-.158-.084a8.766 8.766 0 0 1-.716-.412 9.636 9.636 0 0 1-1.352-1.015c-3.47-2.958-4.777-7.868-4.462-12.295.117-1.144.13-2.189.547-3.426.376-1.137.957-2.174 1.64-3.119 1.413-1.838 3.247-3.376 5.378-4.338 2.13-.969 4.53-1.346 6.903-1.104 2.35.21 4.804 1.2 6.573 2.862 1.936 1.708 3.379 3.773 4.536 5.955a41.238 41.238 0 0 1 2.873 3.936c1.542 2.387 3.249 5.226 4.491 8.556.632 1.66 1.22 3.402 1.933 5.113.699 1.715 1.57 3.376 2.51 4.989.927 1.503 2.45 2.637 3.896 3.029a4.189 4.189 0 0 0 1.974.116c-.068.002.462-.099.44-.13l.285-.156c.225-.143.432-.32.615-.525.747-.875.891-1.957.55-2.655-.274-.737-1.17-1.447-1.978-1.637-.81-.212-1.596.018-2.113.51a1.424 1.424 0 0 0-.447.74c-.051-.12-.017.22-.017.22s-.03.034-.005.105c.015.124.08.24.146.363.296.5.825.715 1.148.7.341.005.534-.15.534-.138l.256.234c-.014-.015-.092.276-.58.58-.494.256-1.404.36-2.356-.232a2.406 2.406 0 0 1-.664-.636 2.156 2.156 0 0 1-.288-.528c-.073-.23-.09-.126-.154-.493-.16-.727.003-1.573.383-2.292.723-1.42 2.527-2.574 4.519-2.413 1.945.106 3.964 1.212 5.026 3.443.456 1.016.608 2.48.256 3.609a6.311 6.311 0 0 1-1.894 3.007c-.46.394-.979.73-1.55.981a5.698 5.698 0 0 1-.962.308c-.447.096-.366.06-.881.106a5.801 5.801 0 0 1-3.303-.907c-1.884-1.2-2.985-2.988-3.852-4.752-.712-1.455-1.452-2.887-2.27-4.257.173.707.335 1.434.518 2.174.54 2.423 1.98 4.757 4.081 6.246 1.04.774 2.104 1.326 3.13 1.9a12.79 12.79 0 0 0 3.107 1.174c1.037.246 1.945.33 2.956.37.788-.008 1.765-.107 2.543-.321a9.548 9.548 0 0 0 3.752-1.849c.432-.335.735-.663.94-.892.212-.234.327-.357.327-.357l.322.125s.022.727-.466 1.94c-.479 1.198-1.66 2.827-3.708 3.927-1.047.532-2.172.951-3.64 1.077-1.242.143-2.73-.062-4.051-.53-.938-.328-1.817-.809-2.661-1.346 1.489 1.642 3.022 3.086 4.613 4.272 1.995 1.538 4.025 2.6 5.922 3.194 1.904.59 3.662.663 5.11.488a9.367 9.367 0 0 0 3.263-.976c.71-.345 1.086-.626 1.086-.626l.173.207.115.064zm17.225-62.476c-1.385-1.478-2.762-2.866-4.364-3.587l-.121-.055c.52.446.93.856 1.207 1.136.603.602 1.182 1.24 1.767 1.879 1.545 1.699 3.007 3.302 4.806 4.145.233.109.472.205.713.283-1.414-1.022-2.6-2.29-3.753-3.528l-.255-.273zm-12.693-4.46l-.087-.15c2.798-1.657 5.97-3.535 9.558-4.153 4.22-.736 8.367.652 10.57 3.53l-2.711 2.104c-1.307-1.704-3.794-2.524-6.478-2.286 1.817.944 3.325 2.336 4.704 3.727l.253.257c1.32 1.334 2.569 2.596 4.046 3.387 1.193.636 2.945 1.056 4.285.33l10.609-5.767-8.596 8.511c-2.006 1.985-4.534 3.024-7.115 3.024a9.916 9.916 0 0 1-4.022-.864c-2.393-1.058-4.145-2.873-5.84-4.63-.539-.56-1.076-1.118-1.636-1.647-2.34-2.213-4.198-2.934-6.022-2.33l-9.235 3.043 7.647-6.037c.022-.019.048-.031.07-.048zm9.27 29.525c-.938.282-1.835.618-2.671.996-.425.212-.845.42-1.238.656l-.537.342c-.2.15-.45.313-.608.445a9.676 9.676 0 0 0-1.707 1.804c-.982 1.332-1.54 2.785-1.7 4.139-.085.664.01 1.383.112 1.917l.163.596.15.387c.104.26.26.573.425.835.679 1.15 1.632 2.054 2.619 2.768a7.443 7.443 0 0 1-.663-1.01c-.449-.902-.834-1.946-.87-3.093-.047-1.145.318-2.35.89-3.442.588-1.108 1.239-2.056 1.938-3.078.704-.984 1.438-1.991 2.31-2.956.423-.46.886-.902 1.386-1.306zm-3.31-7.196c6.412.014 12.687 1.633 18.16 4.364 2.752 1.338 5.286 3.048 7.532 4.916a27.581 27.581 0 0 1 4.158 4.295 27.86 27.86 0 0 0-3.217-5.736 26.206 26.206 0 0 0-1.433-1.782 42.532 42.532 0 0 0-4.216-3.913c-.273-.219-.574-.425-.854-.64a32.718 32.718 0 0 0-6.584-3.509c-2.826-1.122-5.915-1.82-9.086-2.233-3.171-.38-6.422-.362-9.716.003-6.567.63-13.22 2.35-19.777 2.664-6.5.377-12.93-.626-17.463-3.729-2.252-1.501-3.88-3.686-4.387-5.87-.51-2.23.094-4.18.893-5.492.806-1.343 1.904-2.022 2.657-2.295.772-.283 1.199-.252 1.197-.28.007.011-.104.028-.304.093.612-.058.967.132.921.086l-.048.338c.015.046-.857-.27-1.873.629-.477.431-.958 1.17-1.018 2.07-.072.86.427 1.898 1.37 2.591.976.705 2.214 1.13 3.686.996 1.419-.13 2.94-.806 3.99-1.998 1.056-1.165 1.56-2.93 1.343-4.643-.207-1.71-1.358-3.28-3.072-4.3-3.4-2.127-8.78-1.71-12.31 1.36-1.752 1.504-3.031 3.746-3.405 6.197-.396 2.45.393 5.091 1.909 7.398 3.108 4.633 8.408 8.149 14.093 10.11 2.882.943 5.906 1.538 8.963 1.682 3.094.1 6.116-.24 9.193-.732 6.098-1.033 12.25-2.655 18.698-2.64zm-34.253-9.525c-1.875-.2-3.426-.675-4.721-1.081-1.814-.016-3.494-.623-4.556-1.685-1.147-1.046-1.688-2.487-1.44-3.698.016-.075.045-.133.065-.206l-.007.012c-.595 1.219-.895 2.988-.26 4.7.657 1.731 2.18 3.307 4.243 4.46 2.052 1.154 4.658 1.859 7.408 2.246 2.774.378 5.766.336 8.858.077 6.188-.548 12.773-2.253 19.745-2.986a47.322 47.322 0 0 1 9.289-.002c-2.296-.805-4.631-1.499-6.986-1.968-3.004-.586-5.894-.957-8.84-1.01-2.9-.043-5.747.072-8.434.33l-7.677.825c-2.417.238-4.704.233-6.687-.014zm71.606 13.531l.05.19s-.224.145-.466.495c-.264.345-.577.975-.68 1.803-.132.801.099 1.833.632 2.316.561.588 1.494.73 1.94.106.526-.508.768-2.127.398-3.149-.222-.762-.946-1.532-1.874-1.76zm-7.226 5.8c.044-.392.078-.787.17-1.172.577-2.25 1.854-4.413 4.285-5.386 1.148-.43 2.428-.568 3.676-.26.623.16 1.224.411 1.789.804l.44.363.27.258c.292.33.477.559.655.873 1.306 2.45.589 5.281-1.448 6.783-1.051.71-2.338.87-3.358.624a4.552 4.552 0 0 1-2.47-1.477 3.805 3.805 0 0 1-.552-4.304c.543-1.06 1.336-1.567 1.874-1.784.114-.042.163-.044.253-.071-.212-.005-.411-.041-.63-.01a4.431 4.431 0 0 0-1.234.356c-.51.264-.776.49-1.148.858-.686.683-1.144 1.627-1.377 2.614-.336 1.32-.117 2.677.36 3.955.124.283.238.568.35.853.18.37.365.741.582 1.088.581.916 1.175 1.638 1.949 2.48a27.393 27.393 0 0 0 2.197 2.118 19.425 19.425 0 0 0 4.97 3.147c.886.369 1.725.7 2.626.983.827.236 1.69.449 2.491.573 1.626.212 3.11.107 4.353-.412 1.26-.47 2.238-1.365 2.783-2.207.582-.98.725-1.98.674-2.842-.131-1.749-1.085-2.56-1.031-2.563l.209-.275c-.07.017 1.292.395 2.16 2.508.412 1.007.594 2.502.093 4.023-.55 1.634-1.776 3.1-3.504 4.116-1.727 1.014-3.956 1.443-6.116 1.243a13.474 13.474 0 0 1-3.236-.64c-1.01-.325-2.08-.735-3.068-1.281a21.905 21.905 0 0 1-5.516-4.16 17.474 17.474 0 0 1-1.146-1.33c.048.884.024 1.718-.034 2.516.078.356.14.707.185.997.11.76.133 1.543.124 2.243-.085 2.887-.98 5.642-2.606 7.833-1.608 2.202-4.034 3.711-6.535 4.075-2.487.419-5.066-.334-6.71-2.014-1.604-1.61-2.32-3.906-1.85-5.857.506-2.016 1.947-3.325 3.46-3.847.774-.258 1.513-.332 2.285-.185a4.5 4.5 0 0 1 .956.322 4.444 4.444 0 0 1 2.345 3.026c.31 1.63-.387 2.391-.314 2.379l-.311-.149c-.058.015.443-.739-.007-2.058a3.765 3.765 0 0 0-1.487-1.901 3.61 3.61 0 0 0-.645-.32 3.32 3.32 0 0 0-.759-.158 3.266 3.266 0 0 0-1.552.326c-1.037.483-2.005 1.62-2.2 2.89-.216 1.338.407 2.867 1.609 3.896 2.348 2.101 7.111 1.287 9.26-2.178 1.124-1.68 1.727-3.869 1.676-6.095a14.33 14.33 0 0 0-.153-1.609 12.569 12.569 0 0 0-.414-1.716 15.086 15.086 0 0 0-1.491-3.255c-.837-1.358-1.883-2.643-3.066-3.862-.085-.073-.155-.147-.246-.217-1.097-.995-2.394-1.934-3.749-2.946-1.353-1.019-2.796-2.116-4.426-3.091-.206-.132-.447-.217-.664-.339a41.913 41.913 0 0 0-2.642-.234c-.803-.061-1.664-.068-2.553-.068-.883.041-1.83.058-2.725.144-1.019.1-1.927.265-2.914.58-.954.327-1.988.634-2.971 1.131-.988.48-1.881 1.2-2.484 2.11-.609.87-.937 1.989-.913 2.98.01 1.013.246 1.927.394 2.754.159.826.287 1.611.521 2.313.4 1.43 1.02 2.558 1.54 3.372.336.52.667.922.837 1.132.421.138.662.219.662.219l-.027.344s-.27.027-.771.073c-.504.02-1.25.02-2.204-.11a11.296 11.296 0 0 1-3.375-1 10.226 10.226 0 0 1-3.774-2.97 8.977 8.977 0 0 1-.78-1.213l-.359-.73-.23-.58c-.37-1.07-.49-2.084-.473-3.193.037-2.19.915-4.38 2.321-6.14a12.72 12.72 0 0 1 2.524-2.387c.24-.175.43-.282.65-.426.316-.203.515-.298.78-.449a13.52 13.52 0 0 1 1.557-.702c.36-.139.73-.232 1.098-.334-.772.056-1.553.073-2.321.149-2.1.17-4.183.47-6.263.768l-.287.036c-.978.293-1.961.58-2.903.924l-1.878.744c-.664.278-1.224.539-1.828.85-1.172.605-2.294 1.28-3.299 2.073-1.017.773-1.939 1.639-2.693 2.607-.316.429-.769 1.006-1.034 1.48a9.295 9.295 0 0 0-.733 1.587c-.834 2.187-.82 4.752.2 6.904l2.197 4.64-4.348-2.535a7.163 7.163 0 0 1-2.737-2.938 8.478 8.478 0 0 1-.88-3.67c-.045-2.428.744-4.852 2.206-6.646 1.399-1.829 3.24-3.174 5.15-4.291 1.75-1 3.594-1.873 5.46-2.621-.924.102-1.851.202-2.783.285-6.326.666-12.956.354-18.893-1.836-2.983-1.034-5.793-2.45-8.413-4.108-2.562-1.704-5.07-3.61-6.966-6.103-1.903-2.445-3.19-5.617-2.937-8.852a12.471 12.471 0 0 1 3.93-8.3c4.583-4.196 11.423-4.583 16.01-1.621 2.289 1.45 3.984 3.957 4.174 6.568.244 2.565-.747 4.998-2.365 6.578-1.053 1.02-2.272 1.641-3.508 1.99.8.107 1.657.185 2.581.178 1.905.012 4.03-.254 6.36-.668 4.638-.895 10.25-2.207 16.438-2.29 3.049-.041 6.35.19 9.518.82a53.938 53.938 0 0 1 9.458 2.762c6.134 2.48 11.776 6.046 16.377 10.186 2.94 2.6 5.443 5.54 7.265 8.582zM160.05 51.386c1.095-.506 2.091-.961 3.335-1.86.592-.502 1.06-.94 1.546-1.677.466-.68.769-1.689.666-2.618-.037-.45-.214-1.029-.47-1.375a2.885 2.885 0 0 0-1.062-.966c-.768-.418-1.516-.411-2.13-.288-.62.114-1.112.427-1.435.709-.343.276-.555.57-.73.803a6.771 6.771 0 0 0-.472.771l.857-.244c.517-.15 1.286-.339 1.86-.155.294.086.571.276.68.443.05.077.078.186.031.196.012.134-.016.113-.033.232-.048.216-.165.378-.393.669a7.339 7.339 0 0 1-.98.922c-.732.527-1.868 1.27-2.74 1.93a28.3 28.3 0 0 0-2.442 1.977c-1.398 1.235-2.199 2.306-2.199 2.306s1.337-.098 3.13-.655a22.53 22.53 0 0 0 2.981-1.12zm-49.106 26.229c.951 0 1.902-.363 2.628-1.087l.002-.003a3.735 3.735 0 0 0-.002-5.265 3.715 3.715 0 0 0-5.255.002 3.707 3.707 0 0 0-1.09 2.632c0 .995.389 1.929 1.09 2.631a3.696 3.696 0 0 0 2.627 1.09zm-.404-9.44a3.196 3.196 0 0 0 0-4.514 3.19 3.19 0 0 0-4.505 0 3.2 3.2 0 0 0 0 4.514 3.174 3.174 0 0 0 2.254.934c.815 0 1.63-.312 2.251-.934zm22.166 42.737c1.178-1.023 2.451-1.938 3.87-2.608 1.74-.816 3.693-1.306 5.595-1.336a12.932 12.932 0 0 1 5.683 1.194 11.139 11.139 0 0 1 5.024 4.54c-.022-.19-.017-.406-.061-.578-.188-.986-.617-1.941-1.18-2.824-1.135-1.78-2.82-3.235-4.761-4.146-3.907-1.807-8.965-1.053-11.784 2.205-.952 1.065-1.705 2.281-2.386 3.553zm11.356 14.544c.19.014.377-.012.564-.021-.106-.019-.212-.019-.318-.044-1.62-.353-2.952-1.618-3.26-3.048-.392-1.516.606-2.944 1.616-3.468 1.02-.6 2.122-.741 3.066-.554 1.814.413 2.726 1.414 3.292 2.005.084.1.148.181.217.267.158-.232.328-.447.454-.705-.064-.792-.422-1.706-1.41-2.28-1.395-.87-3.817-.958-5.801.261-.98.596-1.797 1.519-2.149 2.58-.357 1.073-.23 2.395.431 3.356.17.262.318.415.616.696.156.127.446.331.72.468.572.28 1.25.466 1.962.487zm5.63-4.986c-.132-.09-.219-.158-.398-.27-.695-.43-1.84-1.097-3.305-1.12-.662.007-1.446.21-2.018.625-.589.425-.8.978-.535 1.48.277.544.95.966 1.82 1.056.883.12 2.022-.14 2.947-.616.565-.274 1.053-.688 1.49-1.155zm-37.28 29.718c.405-.417.794-.881 1.185-1.337a30.618 30.618 0 0 1-2.554 2.059c-2.368 1.628-4.847 2.757-7.188 3.172-2.333.456-4.46.19-6.044-.366a10.593 10.593 0 0 1-2.262-1.09c.725.618 1.7 1.286 2.986 1.78 1.77.67 4.128 1.15 6.605.552 1.205-.26 2.343-.91 3.634-1.747 1.255-.815 2.472-1.84 3.638-3.023zm2.355-6.699c-.842.537-1.72 1.018-2.658 1.346-1.32.468-2.81.673-4.055.53-1.464-.126-2.59-.545-3.637-1.077-2.048-1.1-3.23-2.729-3.708-3.927-.488-1.213-.468-1.94-.468-1.94l.324-.125s.115.123.327.357c.205.23.508.557.938.892a9.582 9.582 0 0 0 3.752 1.849c.78.214 1.755.313 2.543.32 1.013-.04 1.921-.123 2.959-.37a12.773 12.773 0 0 0 3.105-1.173c1.027-.574 2.091-1.126 3.131-1.9 2.102-1.489 3.542-3.823 4.082-6.246.183-.74.344-1.467.517-2.174-.82 1.37-1.557 2.802-2.272 4.257-.865 1.764-1.968 3.552-3.85 4.752a5.804 5.804 0 0 1-3.305.907c-.513-.047-.432-.01-.879-.106a5.699 5.699 0 0 1-.961-.308 6.25 6.25 0 0 1-1.553-.981 6.288 6.288 0 0 1-1.892-3.007c-.351-1.13-.2-2.593.257-3.609 1.061-2.23 3.078-3.337 5.023-3.443 1.994-.16 3.798.993 4.52 2.413.382.72.545 1.565.384 2.292-.063.367-.08.264-.154.493-.088.215-.19.407-.288.528-.2.278-.427.485-.664.636-.952.591-1.862.488-2.355.231-.488-.303-.567-.594-.581-.579l.256-.234c0-.013.193.143.535.138.322.015.852-.2 1.147-.7.066-.123.132-.24.146-.363.022-.071-.004-.106-.004-.106s.034-.34-.018-.219a1.424 1.424 0 0 0-.446-.74c-.518-.492-1.304-.722-2.114-.51-.81.19-1.704.9-1.977 1.637-.342.698-.198 1.78.549 2.655.183.204.39.382.613.525l.288.155c-.022.032.507.133.439.13.59.112 1.257.097 1.975-.115 1.445-.392 2.968-1.526 3.896-3.03.94-1.612 1.81-3.273 2.509-4.988.713-1.711 1.3-3.454 1.933-5.113 1.243-3.33 2.949-6.17 4.492-8.556a41.238 41.238 0 0 1 2.873-3.936c1.157-2.181 2.6-4.247 4.535-5.955 1.77-1.662 4.223-2.653 6.574-2.862 2.372-.242 4.772.135 6.903 1.104 2.13.962 3.964 2.5 5.377 4.338.684.945 1.265 1.982 1.64 3.119.418 1.237.43 2.282.547 3.426.315 4.427-.99 9.337-4.462 12.295-.422.377-.85.7-1.352 1.015-.264.166-.52.316-.715.412l-.16.084-.238.113-.41.178c-1.109.416-2.27.604-3.4.505a7.555 7.555 0 0 1-3.223-.976 6.747 6.747 0 0 1-1.398-1.085c-.315-.322-.735-.825-.984-1.299-.662-1.185-.879-2.452-.83-3.672a25.88 25.88 0 0 0-.823 1.304 18.274 18.274 0 0 0-.918 1.742 28.54 28.54 0 0 0-.817 1.985c-.44 1.178-.842 2.48-1.062 3.88.102 1.3.268 2.689.552 4.155.065.405.163.811.266 1.218.036.064.058.136.097.2.88 1.543 2.26 2.785 3.767 3.793 1.508 1.023 3.141 1.861 4.684 2.904 1.552 1.018 3.12 2.112 4.51 3.426 1.36 1.284 2.605 2.921 3.289 4.624.75 1.708 1.035 3.58.837 5.263-.07.596-.1.668-.237 1.208a7.502 7.502 0 0 1-1.494 2.958c-.859 1.02-1.75 1.656-2.624 1.97-.878.312-1.386.366-1.86.34-.476-.048-.292-.102-.292-.102v-.352s-.19-.057.2-.205c.388-.148.517-.411 1.064-.9a6.393 6.393 0 0 0 1.53-2.048c.42-.927.677-1.858.61-3.027-.043-1.139-.41-2.346-1.02-3.564a17.68 17.68 0 0 0-2.558-3.596c-1.076-1.184-2.377-2.332-3.776-3.503a36.935 36.935 0 0 1-4.118-3.956 36.649 36.649 0 0 1-1.513-1.874c.112.31.195.631.32.94.358.946.79 1.858 1.227 2.75.464.88.923 1.745 1.43 2.554.543.779 1.038 1.56 1.585 2.255.569.737 1.11 1.433 1.608 2.073 1.033 1.339 1.7 2.749 1.836 3.777.09.51.054.914.03 1.178l-.06.4s-.126-.57-.617-1.337c-.476-.784-1.381-1.646-2.619-2.618-1.225-.934-2.858-2.213-4.22-3.897-.66-.855-1.353-1.742-1.914-2.738a22.9 22.9 0 0 1-1.509-3.106c-.412-1.082-.769-2.189-1.005-3.303-.264-1.11-.398-2.226-.474-3.303-.12-1.075-.056-2.127.003-3.106.043-.793.163-1.53.302-2.228-.115-1.385-.024-2.768.325-4.03.224-.821.586-1.763.918-2.384.424-.794.825-1.425 1.267-2.063a17.152 17.152 0 0 1 5.348-4.725c.258-.148.478-.257.7-.37.371-.286.752-.54 1.138-.747 2.878-1.53 6.085-1.003 7.806.594.481.434.818.934 1.05 1.44.046-.395.11-.787.085-1.188-.002-.301-.066-.592-.107-.885-.095-.299-.061-.382-.24-.809-.195-.606-.502-1.129-.864-1.654-.737-1.03-1.799-1.895-3.031-2.544a9.683 9.683 0 0 0-4.082-1.084c-1.515-.067-2.992.264-4.472.794a15.58 15.58 0 0 0-4.18 2.388c-1.207.895-2.295 1.987-3.306 3.19-.254.788-.508 1.582-.745 2.376-1.254 4.247-2.304 8.57-3.502 12.758-1.216 4.2-2.656 8.211-4.707 11.827-1.974 3.596-4.46 6.7-7.22 9.054-1.377 1.178-2.807 2.186-4.264 2.97-1.4.794-3.008 1.405-4.577 1.565-3.061.323-5.641-.47-7.475-1.498-1.845-1.05-2.975-2.31-3.605-3.217a7.016 7.016 0 0 1-.64-1.092l-.195-.385.115-.064.173-.207s.376.281 1.087.626a9.367 9.367 0 0 0 3.263.976c1.448.175 3.205.102 5.107-.488 1.896-.594 3.93-1.656 5.924-3.194 1.592-1.186 3.124-2.63 4.611-4.272zM77.5 97.817a47.324 47.324 0 0 1 9.29.002c6.97.733 13.557 2.438 19.745 2.986 3.091.26 6.083.301 8.857-.077 2.75-.387 5.357-1.092 7.408-2.246 2.061-1.153 3.584-2.729 4.244-4.46.635-1.712.332-3.481-.26-4.7l-.007-.012c.02.073.048.131.065.206.248 1.211-.293 2.652-1.44 3.698-1.062 1.062-2.742 1.669-4.556 1.685-1.297.406-2.85.88-4.721 1.08-1.986.248-4.27.253-6.688.015l-7.68-.824a76.76 76.76 0 0 0-8.43-.332c-2.946.054-5.837.425-8.841 1.011-2.357.47-4.69 1.163-6.986 1.968zm38.722-6.744c1.05 1.192 2.57 1.868 3.987 1.998 1.475.134 2.713-.29 3.688-.996.94-.693 1.443-1.731 1.37-2.592-.06-.9-.54-1.638-1.018-2.07-1.016-.899-1.887-.582-1.873-.628l-.05-.338c-.044.046.31-.144.924-.086-.2-.065-.314-.082-.304-.094-.003.029.425-.002 1.197.28.753.274 1.848.953 2.657 2.296a7.384 7.384 0 0 1 .893 5.491c-.507 2.185-2.136 4.37-4.388 5.871-4.532 3.103-10.963 4.106-17.462 3.73-6.557-.315-13.21-2.035-19.778-2.665-3.294-.365-6.544-.384-9.718-.003-3.169.413-6.258 1.11-9.086 2.233a32.849 32.849 0 0 0-6.584 3.508c-.277.216-.579.422-.852.64a42.582 42.582 0 0 0-4.218 3.917c-.504.58-.987 1.168-1.431 1.78a27.86 27.86 0 0 0-3.217 5.735 27.581 27.581 0 0 1 4.158-4.295c2.247-1.868 4.78-3.578 7.532-4.916 5.473-2.731 11.748-4.35 18.158-4.364 6.45-.015 12.6 1.607 18.7 2.64 3.078.492 6.1.832 9.193.732 3.058-.144 6.082-.74 8.963-1.682 5.686-1.961 10.985-5.477 14.094-10.11 1.515-2.307 2.305-4.947 1.909-7.398-.374-2.45-1.653-4.693-3.405-6.197-3.531-3.07-8.91-3.487-12.31-1.36-1.714 1.02-2.865 2.59-3.073 4.3-.22 1.713.287 3.478 1.344 4.643zm-33.752 23.28a18.93 18.93 0 0 0-1.238-.656 21.226 21.226 0 0 0-2.67-.996c.497.404.963.847 1.385 1.306.873.965 1.607 1.972 2.311 2.956.7 1.022 1.35 1.97 1.938 3.078.57 1.092.937 2.297.89 3.442-.036 1.147-.421 2.191-.872 3.093a7.194 7.194 0 0 1-.66 1.01c.984-.714 1.937-1.618 2.618-2.768.166-.262.319-.575.425-.835l.15-.387.163-.596c.101-.534.197-1.253.112-1.917-.163-1.354-.72-2.807-1.7-4.14a9.762 9.762 0 0 0-1.707-1.803c-.158-.132-.409-.296-.608-.445l-.537-.342zm-38.003-4.652l.051-.19c-.928.229-1.652.999-1.873 1.761-.37 1.022-.13 2.64.397 3.149.447.625 1.379.482 1.94-.106.533-.483.764-1.515.632-2.316-.105-.828-.418-1.458-.68-1.803-.242-.35-.467-.495-.467-.495zm-19.745 18.108c-.503-1.521-.318-3.016.093-4.023.868-2.113 2.23-2.491 2.16-2.508l.21.275c.053.003-.9.814-1.032 2.563a4.94 4.94 0 0 0 .671 2.842c.548.842 1.526 1.736 2.786 2.207 1.241.52 2.728.624 4.35.412a21.03 21.03 0 0 0 2.495-.573c.9-.283 1.74-.614 2.625-.983a19.424 19.424 0 0 0 4.97-3.147 27.393 27.393 0 0 0 2.198-2.119c.773-.841 1.367-1.563 1.948-2.48.217-.346.402-.716.582-1.087.11-.285.226-.57.35-.853.477-1.278.696-2.636.36-3.955-.236-.987-.69-1.93-1.377-2.614-.372-.368-.637-.594-1.148-.858a4.431 4.431 0 0 0-1.234-.356c-.219-.031-.418.005-.63.01.09.027.139.03.253.07.536.218 1.331.725 1.874 1.785a3.805 3.805 0 0 1-.553 4.304 4.561 4.561 0 0 1-2.47 1.477c-1.019.246-2.306.086-3.357-.624-2.039-1.502-2.754-4.332-1.45-6.783.18-.314.365-.543.657-.873l.27-.258.44-.363a5.47 5.47 0 0 1 1.789-.805c1.248-.307 2.528-.168 3.676.261 2.428.973 3.708 3.135 4.285 5.386.092.385.126.78.17 1.172 1.822-3.042 4.324-5.983 7.265-8.582 4.601-4.14 10.243-7.707 16.375-10.186a53.963 53.963 0 0 1 9.46-2.763c3.167-.629 6.469-.86 9.518-.819 6.187.083 11.797 1.395 16.437 2.29 2.329.414 4.455.68 6.36.668a18.17 18.17 0 0 0 2.582-.178c-1.236-.349-2.455-.97-3.509-1.99-1.618-1.58-2.61-4.013-2.365-6.578.19-2.611 1.884-5.117 4.175-6.568 4.587-2.962 11.426-2.575 16.01 1.621a12.471 12.471 0 0 1 3.93 8.3c.252 3.235-1.037 6.407-2.937 8.852-1.896 2.492-4.404 4.399-6.966 6.103-2.623 1.658-5.43 3.074-8.414 4.108-5.936 2.19-12.566 2.502-18.895 1.836-.93-.083-1.856-.183-2.78-.285a44.002 44.002 0 0 1 5.457 2.62c1.912 1.118 3.754 2.463 5.153 4.292 1.462 1.794 2.248 4.218 2.207 6.646a8.513 8.513 0 0 1-.881 3.67 7.153 7.153 0 0 1-2.74 2.938l-4.348 2.535 2.2-4.64c1.02-2.152 1.031-4.717.2-6.904a9.295 9.295 0 0 0-.733-1.588c-.265-.473-.72-1.05-1.034-1.48-.757-.967-1.676-1.833-2.694-2.606-1.004-.792-2.126-1.468-3.299-2.072a23.923 23.923 0 0 0-1.827-.851l-1.878-.744c-.944-.344-1.925-.631-2.903-.924l-.287-.036c-2.08-.298-4.163-.598-6.263-.768-.769-.076-1.55-.093-2.323-.15.37.103.74.196 1.1.335a13.52 13.52 0 0 1 1.557.702c.265.151.464.246.78.449.22.144.407.25.65.426a12.72 12.72 0 0 1 2.523 2.387c1.407 1.76 2.285 3.95 2.319 6.14.017 1.109-.1 2.123-.472 3.193l-.229.58-.357.73c-.25.463-.497.84-.781 1.214a10.226 10.226 0 0 1-3.774 2.97c-1.258.597-2.42.872-3.375 1-.953.128-1.7.128-2.204.109-.501-.046-.771-.073-.771-.073l-.027-.344.662-.22c.17-.21.498-.611.837-1.13.52-.815 1.14-1.944 1.54-3.373.233-.702.362-1.487.52-2.313.149-.827.385-1.741.395-2.753.024-.992-.307-2.112-.913-2.982-.603-.91-1.496-1.629-2.484-2.109-.985-.497-2.017-.804-2.97-1.131a13.634 13.634 0 0 0-2.915-.58c-.896-.086-1.842-.103-2.725-.144-.889 0-1.75.007-2.553.068-.975.051-1.861.144-2.642.234-.217.122-.457.207-.664.339-1.63.975-3.076 2.072-4.426 3.091-1.355 1.012-2.652 1.951-3.75 2.946-.09.07-.16.144-.248.217-1.18 1.219-2.226 2.504-3.063 3.862a15.086 15.086 0 0 0-1.491 3.255 12.22 12.22 0 0 0-.414 1.716 14.33 14.33 0 0 0-.153 1.61c-.051 2.225.552 4.415 1.676 6.094 2.149 3.465 6.913 4.28 9.26 2.178 1.202-1.03 1.825-2.558 1.609-3.896-.195-1.27-1.163-2.407-2.2-2.89a3.272 3.272 0 0 0-1.552-.326 3.292 3.292 0 0 0-.76.158 3.531 3.531 0 0 0-.644.32 3.752 3.752 0 0 0-1.487 1.901c-.45 1.32.052 2.073-.007 2.058l-.311.149c.073.012-.623-.749-.314-2.38a4.452 4.452 0 0 1 1.545-2.511 4.38 4.38 0 0 1 .8-.514c.322-.157.686-.264.957-.322.77-.147 1.51-.073 2.284.185 1.514.522 2.954 1.831 3.46 3.847.47 1.95-.246 4.248-1.85 5.857-1.644 1.68-4.223 2.433-6.71 2.014-2.5-.364-4.926-1.873-6.537-4.075-1.623-2.191-2.518-4.946-2.604-7.833-.01-.7.015-1.483.125-2.243.043-.29.107-.642.182-.997a19.972 19.972 0 0 1-.032-2.517c-.36.464-.74.905-1.146 1.332a21.873 21.873 0 0 1-5.518 4.159c-.985.546-2.056.956-3.065 1.28-1.083.354-2.141.56-3.236.641-2.16.2-4.39-.229-6.117-1.243-1.728-1.017-2.954-2.482-3.504-4.116zm45.346-36.372c.239-.078.477-.174.713-.283 1.798-.843 3.258-2.446 4.805-4.143a54.359 54.359 0 0 1 1.767-1.88c.277-.28.686-.69 1.209-1.137l-.127.055c-1.6.723-2.975 2.109-4.36 3.587l-.26.28c-1.153 1.233-2.335 2.499-3.747 3.52zm-8.395 1.229l-8.59-8.507 10.605 5.762c1.34.725 3.091.305 4.282-.33 1.478-.792 2.725-2.051 4.044-3.384l.26-.262c1.377-1.39 2.889-2.784 4.706-3.728-2.68-.242-5.176.58-6.48 2.287l-2.713-2.105c2.201-2.876 6.35-4.254 10.575-3.531 3.588.619 6.76 2.497 9.562 4.155l-.087.15c.022.018.049.03.07.05l7.64 6.035-9.23-3.041c-1.824-.6-3.685.119-6.024 2.33-.56.529-1.1 1.09-1.64 1.65-1.694 1.755-3.447 3.57-5.841 4.629a9.913 9.913 0 0 1-4.024.864c-2.582 0-5.112-1.04-7.115-3.024zm85.705-49.355a3.067 3.067 0 0 0-1.435-.709c-.614-.123-1.362-.13-2.13.288-.385.214-.75.493-1.062.966-.257.346-.434.925-.47 1.375-.103.93.2 1.937.665 2.618.487.736.955 1.175 1.547 1.677 1.243.899 2.24 1.354 3.335 1.86a22.53 22.53 0 0 0 2.98 1.12c1.794.557 3.13.655 3.13.655s-.8-1.07-2.198-2.306a28.356 28.356 0 0 0-2.445-1.977c-.869-.66-2.005-1.403-2.737-1.93a7.199 7.199 0 0 1-.98-.922c-.228-.29-.345-.453-.394-.67-.016-.118-.044-.097-.035-.231-.044-.01-.016-.119.03-.196.112-.167.39-.357.683-.443.575-.184 1.344.004 1.86.155l.858.244s-.145-.295-.475-.77c-.173-.233-.387-.528-.727-.804zM94.666 74.54c1.574 2.574 3.701 4.315 5.602 5.444a12.835 12.835 0 0 0 4.88 1.748c.463.107.846.12 1.155.136-.181-.1-.385-.21-.638-.346-.794-.545-2.002-1.369-3.164-2.806-1.184-1.406-2.28-3.42-2.937-5.905a18.612 18.612 0 0 1-.123-8.588c.14-.771.43-1.607.685-2.417l.427-1.09c.18-.478.379-.803.573-1.216.793-1.564 1.852-3.066 3.124-4.439 2.54-2.75 5.988-4.926 9.86-6.198a26.69 26.69 0 0 1 6.117-1.218c1.963-.155 4.22-.1 6.259.234 2.431.373 4.787 1.1 7.032 2.056a16.52 16.52 0 0 1 3.019.981 21.765 21.765 0 0 1 3.24 1.765 28.449 28.449 0 0 1 5.509 4.637c.749.802 1.424 1.671 2.021 2.59.307.218.616.416.919.68.255.216.385.373.582.56.263.257.405.446.609.67a10.265 10.265 0 0 1 2.24 5.01c.464 1.27.774 2.595.837 3.98.008.23-.012.458-.014.688a11.89 11.89 0 0 0 .304-1.638c.553-4.336-1.424-8.887-4.531-12.724-3.117-3.878-7.072-7.323-11.554-9.964-4.517-2.593-9.602-4.355-14.84-4.592-5.198-.305-10.373.812-14.72 2.98-4.397 2.092-7.902 5.244-10.425 8.675-2.485 3.45-4.035 7.258-4.286 10.868-.334 3.551.644 6.934 2.238 9.439zm45.471-6.06c2.356-.278 4.55.784 5.262 2.535.698 2.027-.045 3.502-.55 4.326-.043.06-.078.095-.118.148.15-.098.3-.193.474-.317.488-.362 1.097-.82 1.61-1.472.521-.636.908-1.499.693-2.375-.19-.848-.952-1.803-1.957-2.444-1.024-.62-2.39-.95-3.796-.798a5.798 5.798 0 0 0-1.618.398zm-2.752-13.887c.604.159 1.151.33 1.69.51-.27-.158-.531-.339-.804-.493-1.003-.535-2.004-1.035-3.03-1.456-1.034-.426-2.023-.68-3.059-.881-2.037-.36-4.132-.137-6.344.406-2.254.572-4.314 1.37-6.164 2.736-1.805 1.38-3.298 3.235-4.14 5.355-.87 2.092-1.153 4.487-.571 6.545.065.26.195.486.294.731-.012-.297-.047-.6-.03-.89.045-1.116.275-2.206.637-3.263l.292-.748c.125-.278.255-.557.385-.793.257-.498.559-.966.878-1.416 1.291-1.798 2.966-3.225 4.802-4.277a21.056 21.056 0 0 1 2.843-1.377c.991-.362 2-.654 3.024-.877a20.144 20.144 0 0 1 6.234-.354c1.036.081 2.062.28 3.063.542zm20.892 15.265c.064.554.17 1.103.307 1.638-.003-.23-.022-.459-.015-.688.064-1.385.373-2.71.837-3.98.244-1.6.91-3.407 2.238-5.01.206-.224.349-.413.612-.67.196-.187.326-.344.58-.56.304-.264.613-.462.92-.68a18.779 18.779 0 0 1 2.022-2.59 28.448 28.448 0 0 1 5.509-4.637 21.765 21.765 0 0 1 3.24-1.765c.93-.403 1.964-.752 3.015-.981 2.248-.955 4.603-1.683 7.035-2.056 2.036-.334 4.296-.39 6.258-.234 2.176.18 4.158.585 6.118 1.218 3.871 1.272 7.32 3.448 9.859 6.198 1.272 1.373 2.33 2.875 3.124 4.439.194.413.393.738.572 1.215l.428 1.091c.255.81.545 1.646.685 2.417.69 3.128.513 6.105-.125 8.588-.656 2.486-1.751 4.499-2.935 5.905-1.162 1.437-2.373 2.261-3.164 2.806-.253.136-.457.246-.638.346.31-.017.692-.029 1.154-.136a12.834 12.834 0 0 0 4.88-1.748c1.901-1.13 4.026-2.87 5.603-5.444 1.594-2.505 2.571-5.888 2.237-9.439-.25-3.61-1.802-7.418-4.288-10.868-2.52-3.431-6.025-6.583-10.421-8.675-4.348-2.168-9.523-3.285-14.72-2.98-5.239.237-10.323 1.999-14.84 4.592-4.482 2.64-8.437 6.086-11.553 9.964-3.107 3.837-5.085 8.388-4.534 12.724zm25.886-17.18c-2.212-.542-4.306-.765-6.343-.405-1.036.2-2.025.455-3.058.881-1.026.421-2.027.921-3.031 1.456-.272.154-.534.335-.806.493a25.32 25.32 0 0 1 1.69-.51c1.003-.262 2.03-.46 3.065-.542a20.124 20.124 0 0 1 6.231.354c1.024.223 2.035.515 3.023.877.989.379 1.968.874 2.844 1.377 1.837 1.052 3.51 2.479 4.803 4.277a12.248 12.248 0 0 1 1.26 2.209l.295.748a11.49 11.49 0 0 1 .637 3.264c.017.29-.02.592-.03.889.097-.245.23-.47.294-.73.582-2.059.3-4.454-.571-6.546-.842-2.12-2.335-3.975-4.14-5.355-1.85-1.367-3.911-2.164-6.163-2.736zm-14.3 15.802a5.798 5.798 0 0 0-1.618-.397c-1.408-.153-2.771.178-3.798.798-1.004.64-1.764 1.595-1.956 2.443-.212.876.174 1.738.695 2.374.513.652 1.122 1.11 1.61 1.471.175.124.324.22.474.32-.04-.055-.075-.091-.118-.15-.505-.824-1.248-2.298-.55-4.325.712-1.75 2.906-2.812 5.261-2.534zm-77.405 8.607c-2.108-2.83-3.452-6.802-3.262-11.264.187-4.384 1.82-9.002 4.73-12.948 2.917-3.94 7.21-7.022 11.99-8.92 4.801-1.864 10.068-2.718 15.371-2.437 5.272.288 10.648 1.707 15.521 4.146a42.86 42.86 0 0 1 6.963 4.363c2.15 1.742 4.122 3.6 5.925 5.734 2.04 2.412 3.76 5.303 4.773 8.425 1.013-3.122 2.73-6.013 4.772-8.425 1.805-2.134 3.777-3.992 5.927-5.734a42.86 42.86 0 0 1 6.963-4.363c4.873-2.439 10.249-3.858 15.52-4.146 5.304-.28 10.57.573 15.368 2.437 4.784 1.898 9.074 4.98 11.994 8.92 2.91 3.946 4.543 8.564 4.73 12.948.187 4.462-1.154 8.435-3.263 11.264-2.048 2.84-4.508 4.722-6.758 5.695-2.245 1.007-4.161 1.228-5.461 1.208-.656.027-1.113-.087-1.438-.107l-.486-.057.005-.176-.093-.149 1.07-.965c.633-.68 1.603-1.653 2.397-3.179.802-1.496 1.581-3.432 1.846-5.774.229-2.328.158-5.013-.67-7.74-.17-.707-.43-1.312-.668-1.99l-.496-1.104c-.11-.266-.342-.633-.508-.948-.745-1.295-1.625-2.583-2.73-3.732a23.512 23.512 0 0 0-8.318-5.506 22.261 22.261 0 0 0-5.116-1.32c-1.67-.219-3.202-.206-4.825-.095.036.018.078.028.114.045 1.118.499 2.191 1.027 3.239 1.71 1.064.694 1.999 1.479 2.856 2.364a19.1 19.1 0 0 1 4.113 6c.916 2.251 1.548 4.713 1.225 7.326-.321 2.54-1.93 5.33-4.857 6.223l-4.18 1.273 2.939-3.568c.884-1.077 1.207-2.62 1.032-4.204a8.46 8.46 0 0 0-.573-2.302l-.255-.571-.267-.482a8.676 8.676 0 0 0-.668-.98c-.989-1.258-2.318-2.293-3.751-3.161a19.682 19.682 0 0 0-2.27-1.127 18.498 18.498 0 0 0-2.4-.84c-1.646-.423-3.352-.67-5.07-.656a19.88 19.88 0 0 0-2.57.196c-.366.05-.765.124-1.163.206a9.71 9.71 0 0 1 1.866.618c1.07.456 2.02 1.146 2.771 1.856a9.745 9.745 0 0 1 1.822 2.278 9.402 9.402 0 0 1 1.317 4.02c.07 1.007-.024 1.563-.024 1.563s-.202-.533-.634-1.367a12.317 12.317 0 0 0-2.22-2.97c-1.057-1.025-2.49-1.988-4.082-2.467-1.637-.491-3.467-.506-5.223-.042-.877.22-1.72.573-2.502 1.002-.389.219-.77.472-1.084.688-.158.097-.388.312-.575.461-.112.085-.302.28-.45.415-1.236 1.213-2.099 2.717-2.636 4.119-.49 1.3-.682 2.486-.765 3.407.185 1.665.722 3.236 1.565 4.481.437.658.99 1.231 1.506 1.646.65.555 1.178.796 1.858 1.03 2.626.893 5.687-.04 6.725-2.117.493-.849.643-2.15.366-3.15-.121-.49-.393-1.014-.595-1.324a3.316 3.316 0 0 0-1.073-.966c-.817-.456-1.784-.593-2.595-.431-.204.044-.398.099-.583.173-.168.075-.296.12-.527.283a2.34 2.34 0 0 0-.712.72c-.729 1.268-.447 2.764-.153 3.553.287.851.666 1.221.666 1.221l-.124.124-.073.159s-.642-.199-1.786-.794c-.563-.315-1.25-.74-1.946-1.45-.675-.677-1.426-1.813-1.311-3.307.284-2.926 3.299-5.519 7.079-5.474 1.831-.003 3.981.645 5.504 2.37 1.553 1.722 2.187 4.268 1.8 6.65-.395 2.397-1.515 4.717-3.809 6.43-2.08 1.538-5.04 2.02-7.642 1.451-2.62-.519-5.184-2.045-6.904-4.23a13.68 13.68 0 0 1-2.073-3.716 13.68 13.68 0 0 1-2.072 3.715c-1.72 2.186-4.285 3.712-6.904 4.231-2.602.568-5.563.087-7.643-1.452-2.293-1.712-3.413-4.032-3.811-6.429-.384-2.382.25-4.928 1.802-6.65 1.523-1.725 3.673-2.373 5.505-2.37 3.78-.045 6.795 2.548 7.08 5.474.113 1.494-.637 2.63-1.313 3.308-.694.71-1.384 1.134-1.946 1.449-1.144.595-1.787.794-1.787.794l-.07-.159-.125-.124s.38-.37.666-1.22c.294-.79.576-2.286-.153-3.554a2.367 2.367 0 0 0-.712-.72c-.23-.164-.362-.208-.527-.283a3.625 3.625 0 0 0-.583-.173c-.812-.162-1.78-.025-2.595.431a3.316 3.316 0 0 0-1.074.966c-.201.31-.473.833-.595 1.325-.277 1-.126 2.3.367 3.149 1.037 2.077 4.098 3.01 6.724 2.116.68-.233 1.205-.474 1.859-1.03a7.514 7.514 0 0 0 1.506-1.645c.843-1.245 1.38-2.816 1.565-4.481a12.758 12.758 0 0 0-.768-3.407c-.535-1.402-1.397-2.906-2.633-4.12-.149-.133-.338-.33-.45-.414-.19-.149-.418-.364-.576-.461a14.841 14.841 0 0 0-1.083-.688 10.632 10.632 0 0 0-2.502-1.002c-1.76-.464-3.586-.45-5.226.042-1.589.479-3.022 1.442-4.079 2.467a12.253 12.253 0 0 0-2.22 2.97 13.544 13.544 0 0 0-.634 1.367s-.095-.556-.024-1.563a9.402 9.402 0 0 1 1.316-4.02 9.745 9.745 0 0 1 1.822-2.278c.751-.71 1.698-1.4 2.772-1.856a9.71 9.71 0 0 1 1.866-.618 18.01 18.01 0 0 0-1.164-.206 19.885 19.885 0 0 0-2.572-.196c-1.718-.015-3.42.233-5.068.655-.819.226-1.623.506-2.4.841-.778.33-1.504.68-2.272 1.127-1.433.868-2.76 1.903-3.748 3.161-.243.315-.474.64-.668.98l-.267.482-.258.57a8.545 8.545 0 0 0-.57 2.303c-.176 1.583.145 3.127 1.032 4.204l2.937 3.568-4.179-1.273c-2.927-.893-4.535-3.682-4.856-6.223-.323-2.613.309-5.075 1.225-7.325a19.133 19.133 0 0 1 4.11-6 16.51 16.51 0 0 1 2.86-2.365c1.046-.683 2.12-1.211 3.238-1.71.036-.017.077-.027.114-.045-1.626-.111-3.156-.124-4.825.095a22.261 22.261 0 0 0-5.116 1.32 23.49 23.49 0 0 0-8.318 5.506c-1.105 1.149-1.985 2.437-2.73 3.732-.166.315-.401.682-.508.948l-.496 1.104c-.238.678-.498 1.283-.67 1.99-.826 2.727-.897 5.412-.671 7.74.267 2.342 1.047 4.278 1.849 5.774.794 1.526 1.763 2.499 2.398 3.179l1.068.965-.092.15.005.175-.486.057c-.328.02-.782.134-1.438.107-1.3.02-3.217-.2-5.461-1.208-2.25-.973-4.71-2.854-6.759-5.695zm37.755-39.494c4.46 1.465 9.276.454 12.938-1.904 3.74-2.294 6.43-5.764 8.248-9.4 1.819-3.666 2.904-7.568 3.601-11.398.697 3.83 1.782 7.732 3.601 11.398 1.819 3.636 4.508 7.106 8.248 9.4 3.66 2.358 8.478 3.37 12.935 1.904 4.303-1.32 8.11-4.894 8.982-9.333.474-2.375.095-4.551-.758-6.553-.838-1.99-2.271-3.726-4.107-4.885-.91-.59-1.936-.984-2.968-1.256-.726-.11-.807-.174-1.535-.198a7.174 7.174 0 0 0-1.653.079c-2.058.284-3.794 1.236-5.175 2.391-1.37 1.184-2.34 2.7-2.814 4.298a6.836 6.836 0 0 0 .247 4.635c1.127 2.699 3.616 4.255 5.74 4.247 2.112.003 3.498-.98 4.17-1.74.35-.386.531-.74.651-.97l.152-.363-.313-.143s-.22.467-.946 1.014c-.683.54-2.01 1.138-3.59.856-1.508-.255-3.2-1.584-3.74-3.62-.579-1.969.328-4.355 2.428-5.892 2.093-1.556 5.04-2.062 7.336-.396 1.132.79 2.09 1.971 2.704 3.358.619 1.358.836 3.04.648 4.424-.437 3.179-3.088 5.952-6.486 7.233-3.295 1.349-7.468 1-10.974-.706-1.765-.85-3.405-2.043-4.801-3.413a19.496 19.496 0 0 1-3.43-4.827c-1.79-3.527-2.557-7.41-2.694-11.133-.2-3.701.677-7.155 2.716-9.376 1.95-2.322 4.914-2.94 7.097-1.747.525.272.983.613 1.322 1.019.17.21.25.284.445.675.086.167.184.413.223.64.188.928-.073 2.016-.626 2.804-.577.773-1.318 1.293-2.142 1.358-.73.11-1.461-.26-1.992-.778-1.083-1.1-1.208-2.532-.941-3.298.247-.778.77-1.098.74-1.11l-.22-.263c.04.031-.532.141-1.156 1.096-.533.926-.738 2.694.438 4.46.565.852 1.701 1.74 3.197 1.75 1.399.085 2.915-.671 3.902-1.829.976-1.162 1.675-2.763 1.44-4.596a5.031 5.031 0 0 0-.386-1.377 5.802 5.802 0 0 0-.675-1.184 6.86 6.86 0 0 0-2.122-1.875 8.345 8.345 0 0 0-5.78-.893c-1.994.418-3.869 1.7-5.113 3.258-1.135 1.393-1.88 3.102-2.225 4.854-.345-1.752-1.09-3.46-2.225-4.854-1.244-1.559-3.12-2.84-5.114-3.258a8.345 8.345 0 0 0-5.78.893 6.86 6.86 0 0 0-2.121 1.875 5.948 5.948 0 0 0-.677 1.184 5.11 5.11 0 0 0-.384 1.377c-.237 1.833.462 3.434 1.44 4.596.987 1.158 2.503 1.914 3.902 1.828 1.496-.01 2.632-.897 3.197-1.749 1.176-1.766.97-3.534.438-4.46-.626-.955-1.196-1.065-1.157-1.096l-.22.263c-.029.012.492.332.741 1.11.267.766.14 2.198-.941 3.298-.53.518-1.262.887-1.992.778-.824-.065-1.565-.585-2.142-1.358-.555-.788-.814-1.876-.626-2.804.04-.227.137-.473.223-.64.195-.391.276-.465.445-.675.34-.406.797-.747 1.322-1.02 2.183-1.192 5.146-.574 7.097 1.748 2.039 2.221 2.914 5.675 2.716 9.376-.137 3.723-.904 7.606-2.694 11.133a19.56 19.56 0 0 1-3.43 4.827c-1.398 1.37-3.036 2.564-4.801 3.413-3.508 1.706-7.679 2.055-10.974.706-3.398-1.281-6.049-4.054-6.486-7.233-.188-1.384.03-3.066.648-4.424.613-1.387 1.572-2.568 2.704-3.358 2.295-1.666 5.243-1.16 7.336.396 2.1 1.537 3.007 3.923 2.428 5.892-.54 2.036-2.232 3.365-3.74 3.62-1.58.282-2.907-.317-3.59-.856-.728-.547-.946-1.014-.946-1.014l-.313.143.152.362c.12.232.3.585.648.972.675.759 2.06 1.742 4.173 1.74 2.124.007 4.613-1.55 5.738-4.248a6.821 6.821 0 0 0 .249-4.635c-.474-1.599-1.445-3.114-2.814-4.298-1.381-1.155-3.117-2.107-5.175-2.391a7.174 7.174 0 0 0-1.653-.079c-.728.024-.81.088-1.535.198-1.032.272-2.059.666-2.968 1.256-1.838 1.16-3.269 2.894-4.107 4.885-.853 2.002-1.232 4.178-.758 6.553.873 4.439 4.68 8.013 8.98 9.333zm33.167 427.911c.197.228.392.444.568.62.209.226.413.426.656.62.476.38 1.026.741 1.661.941.64.212 1.45.163 1.967-.118.555-.258 1.028-.7 1.214-1.226-.457.3-.965.358-1.415.337-.49-.042-.777-.165-1.063-.444a3.815 3.815 0 0 1-.788-.958l-.34-.581a8.826 8.826 0 0 1-.347-.642 19.818 19.818 0 0 1-1.174-2.849c.951.307 1.916.71 2.842 1.18.858.464 1.672.871 2.176 1.474.134.142.241.3.308.448.077.177.112.389.135.617.02.448-.035.958-.334 1.418.526-.186.967-.66 1.225-1.216.139-.279.218-.59.248-.932a3.054 3.054 0 0 0-.125-1.042c-.43-1.29-1.355-2.177-2.179-2.895-.849-.765-1.832-1.34-2.86-1.87-1.046-.498-2.185-.867-3.447-.997l-2-.205.209 2.002c.13 1.265.499 2.407.997 3.453.527 1.03 1.105 2.014 1.866 2.865zm-22.832-.23c-.3-.458-.358-.97-.337-1.418.042-.49.165-.778.444-1.066.255-.302.578-.558.956-.788l.58-.341c.235-.14.442-.246.642-.346.926-.47 1.892-.871 2.844-1.178a19.198 19.198 0 0 1-1.177 2.848c-.464.857-.87 1.675-1.472 2.177-.142.134-.3.244-.448.311a2.088 2.088 0 0 1-.616.132c-.448.024-.956-.034-1.416-.332.186.528.66.967 1.214 1.224.279.142.592.221.934.249.371.028.713-.032 1.038-.125 1.288-.43 2.173-1.357 2.89-2.182.764-.85 1.338-1.833 1.87-2.862.494-1.047.863-2.188.993-3.452l.205-2.004-2 .209c-1.263.132-2.4.5-3.448.999-1.028.527-2.01 1.108-2.86 1.867-.228.198-.444.395-.62.572-.225.209-.425.41-.615.657-.381.476-.743 1.027-.943 1.663-.211.64-.163 1.45.12 1.97.256.556.697 1.027 1.222 1.215zm11.016 5.293c.926.423 1.99.58 2.906.287-.949-.064-1.766-.52-2.415-1.065-.665-.592-1.067-1.207-1.194-1.999-.165-.782-.153-1.604-.028-2.44.12-.802.309-1.739.53-2.564.485-1.705 1.018-3.394 1.766-4.973.399-.874.85-1.712 1.338-2.513.494.8.942 1.64 1.339 2.516.75 1.576 1.279 3.267 1.765 4.97.418 1.732.838 3.437.503 5.002-.071.387-.2.761-.39 1.069-.2.333-.483.643-.802.93-.65.545-1.463 1.003-2.412 1.067.916.296 1.98.138 2.908-.285a4.524 4.524 0 0 0 1.305-.883c.417-.4.712-.872.946-1.36.883-2.004.727-4.13.512-6.019-.212-1.945-.734-3.838-1.402-5.699-.722-1.84-1.668-3.63-2.98-5.26l-1.292-1.607-1.286 1.607c-1.31 1.633-2.261 3.418-2.978 5.262-.668 1.861-1.185 3.754-1.4 5.697a24.94 24.94 0 0 0-.132 1.447c-.038.51-.057 1.001-.024 1.515.052 1.015.222 2.075.668 3.054.43.996 1.329 1.863 2.25 2.244zm4.194 32.877l-1.29-1.605-1.287 1.605c-1.31 1.635-2.261 3.42-2.978 5.264-.668 1.859-1.185 3.752-1.4 5.697-.06.5-.106.997-.132 1.448-.038.51-.057.998-.024 1.513.052 1.015.222 2.074.668 3.056.43.996 1.329 1.86 2.25 2.241.925.426 1.989.583 2.905.29-.949-.064-1.766-.52-2.415-1.067-.665-.59-1.067-1.208-1.194-2-.165-.78-.153-1.602-.028-2.44.12-.8.309-1.737.53-2.564.485-1.703 1.018-3.394 1.766-4.97a23.63 23.63 0 0 1 1.338-2.514c.494.798.942 1.64 1.339 2.516.75 1.576 1.279 3.265 1.765 4.97.418 1.73.838 3.438.503 5.002-.071.388-.2.762-.39 1.07-.2.333-.483.643-.802.927-.65.548-1.463 1.006-2.412 1.07.916.293 1.98.138 2.908-.285a4.486 4.486 0 0 0 1.305-.886c.417-.4.712-.869.946-1.358.883-2.004.727-4.132.512-6.02-.212-1.944-.734-3.837-1.402-5.698-.722-1.84-1.668-3.63-2.98-5.262zm-42.162-96.231c-.391-.456-.78-.92-1.185-1.335-1.166-1.186-2.383-2.211-3.638-3.025-1.291-.838-2.43-1.487-3.634-1.748-2.477-.597-4.835-.118-6.605.552a10.168 10.168 0 0 0-2.986 1.783 10.412 10.412 0 0 1 2.262-1.093c1.583-.556 3.711-.822 6.044-.365 2.341.414 4.82 1.543 7.188 3.172.859.61 1.713 1.311 2.554 2.059zm19.11 36.875c.68 1.271 1.433 2.488 2.385 3.553 2.819 3.26 7.877 4.011 11.784 2.205 1.941-.911 3.626-2.367 4.76-4.146.564-.883.993-1.839 1.18-2.824.045-.172.04-.388.062-.577a11.139 11.139 0 0 1-5.024 4.538 12.934 12.934 0 0 1-5.683 1.197c-1.902-.032-3.855-.522-5.594-1.338-1.42-.667-2.693-1.585-3.87-2.608zm16.986-8.977c-.126-.257-.296-.473-.451-.705-.072.086-.136.167-.22.267-.566.59-1.478 1.592-3.292 2.004-.944.19-2.045.047-3.066-.553-1.01-.524-2.008-1.952-1.616-3.467.308-1.43 1.64-2.696 3.26-3.048.106-.023.212-.023.318-.044-.187-.007-.375-.035-.564-.02-.713.02-1.39.205-1.962.486-.274.136-.564.34-.72.468-.298.28-.446.433-.616.697-.66.96-.788 2.28-.431 3.354.352 1.061 1.168 1.984 2.149 2.58 1.984 1.218 4.406 1.133 5.801.264.988-.577 1.346-1.49 1.41-2.283zm-4.436-3.415c-.871.09-1.544.512-1.82 1.056-.267.501-.055 1.054.534 1.48.572.415 1.356.618 2.018.624 1.465-.022 2.61-.688 3.305-1.12.179-.112.266-.177.399-.269-.437-.468-.925-.881-1.49-1.156-.925-.476-2.064-.735-2.946-.615zm-33.834-12.58c-.747.874-.891 1.956-.55 2.654.274.737 1.167 1.447 1.978 1.637.81.214 1.596-.018 2.114-.51.251-.232.385-.479.446-.74.052.12.018-.217.018-.217s.026-.037.004-.109c-.014-.123-.08-.239-.146-.362-.295-.5-.825-.715-1.147-.7-.342-.005-.535.153-.535.138l-.256-.234c.014.017.093-.276.58-.58.494-.256 1.404-.36 2.356.232.237.15.464.358.664.636.098.124.2.313.288.528.074.229.09.126.154.493.161.727-.002 1.572-.383 2.292-.723 1.42-2.527 2.574-4.52 2.413-1.946-.103-3.963-1.212-5.024-3.443-.457-1.016-.608-2.48-.257-3.609a6.288 6.288 0 0 1 1.892-3.007 6.25 6.25 0 0 1 1.553-.981c.285-.113.58-.227.961-.308.447-.096.366-.06.879-.106a5.804 5.804 0 0 1 3.305.907c1.882 1.2 2.985 2.987 3.85 4.752.715 1.457 1.452 2.887 2.272 4.257-.173-.707-.334-1.434-.517-2.174-.54-2.423-1.98-4.757-4.082-6.246-1.04-.774-2.104-1.326-3.131-1.9a12.773 12.773 0 0 0-3.105-1.174c-1.038-.246-1.946-.33-2.959-.37-.788.008-1.762.107-2.543.321a9.616 9.616 0 0 0-3.752 1.849c-.43.335-.733.663-.938.892-.212.234-.327.357-.327.357l-.324-.125s-.02-.727.468-1.94c.479-1.196 1.66-2.827 3.708-3.927 1.047-.532 2.173-.951 3.637-1.077 1.245-.143 2.734.062 4.055.532.937.326 1.816.806 2.658 1.344-1.487-1.642-3.02-3.086-4.611-4.27-1.994-1.54-4.028-2.602-5.924-3.196-1.902-.59-3.66-.664-5.107-.489a9.367 9.367 0 0 0-3.263.977c-.71.345-1.087.626-1.087.626l-.173-.207-.115-.064.196-.385c.124-.256.314-.638.64-1.092.629-.907 1.76-2.167 3.604-3.217 1.834-1.028 4.414-1.821 7.475-1.498 1.57.16 3.178.771 4.577 1.565 1.457.784 2.887 1.792 4.264 2.97 2.76 2.354 5.246 5.457 7.22 9.054 2.05 3.616 3.491 7.626 4.707 11.826 1.198 4.188 2.248 8.512 3.502 12.759.237.794.491 1.587.745 2.376 1.01 1.203 2.1 2.295 3.305 3.19a15.58 15.58 0 0 0 4.181 2.388c1.48.53 2.957.86 4.472.794a9.683 9.683 0 0 0 4.082-1.085c1.232-.648 2.294-1.513 3.031-2.543.362-.525.67-1.048.865-1.654.178-.427.144-.51.239-.809.041-.293.105-.584.107-.885.025-.4-.039-.794-.085-1.188a4.363 4.363 0 0 1-1.05 1.44c-1.72 1.597-4.928 2.124-7.806.594a8.356 8.356 0 0 1-1.138-.747c-.222-.114-.442-.222-.7-.37a17.171 17.171 0 0 1-5.348-4.723 20.707 20.707 0 0 1-1.267-2.065c-.332-.622-.694-1.563-.918-2.384-.35-1.262-.44-2.642-.325-4.03a15.722 15.722 0 0 1-.302-2.228c-.06-.979-.123-2.031-.003-3.106.076-1.075.21-2.194.474-3.3.236-1.117.593-2.222 1.005-3.306a22.9 22.9 0 0 1 1.509-3.106c.561-.996 1.255-1.883 1.914-2.736 1.362-1.686 2.995-2.965 4.22-3.9 1.238-.97 2.143-1.833 2.62-2.617.49-.767.617-1.336.617-1.336l.058.4a4.18 4.18 0 0 1-.029 1.177c-.137 1.028-.803 2.438-1.836 3.777-.497.64-1.04 1.338-1.608 2.073-.547.695-1.042 1.476-1.584 2.255-.508.808-.967 1.674-1.43 2.554-.438.892-.87 1.804-1.229 2.75-.122.309-.207.629-.32.942.489-.638.99-1.267 1.519-1.876a36.935 36.935 0 0 1 4.118-3.956c1.401-1.17 2.707-2.32 3.786-3.503a17.763 17.763 0 0 0 2.57-3.596c.61-1.218 1.003-2.425 1.045-3.564a6.118 6.118 0 0 0-.557-3.027c-.422-.88-.873-1.568-1.425-2.048-.547-.489-.886-.752-1.274-.898-.39-.15-.2-.207-.2-.207v-.352s-.184-.052.292-.101c.474-.027.772.027 1.65.34.874.313 1.87.949 2.73 1.97.42.512.851 1.099 1.157 1.804.15.357.3.7.417 1.156.137.537.178.609.249 1.208.198 1.68-.083 3.551-.832 5.26-.684 1.703-1.924 3.342-3.284 4.626-1.393 1.312-2.956 2.406-4.51 3.427-1.54 1.04-3.176 1.878-4.682 2.903-1.506 1.006-2.888 2.248-3.77 3.794-.036.064-.058.133-.094.197a14.7 14.7 0 0 0-.266 1.218 37.3 37.3 0 0 0-.552 4.155c.22 1.4.622 2.702 1.062 3.883.26.72.488 1.237.817 1.982.257.564.594 1.202.918 1.742.269.461.545.885.823 1.304-.049-1.22.168-2.484.83-3.673.249-.47.669-.976.984-1.299.473-.478.9-.783 1.398-1.084a7.555 7.555 0 0 1 3.222-.976c1.13-.099 2.292.088 3.4.505l.41.18.24.11.159.085c.195.096.451.246.715.411.503.316.93.641 1.352 1.016 3.471 2.958 4.777 7.868 4.462 12.297-.117 1.142-.13 2.19-.547 3.424-.375 1.137-.956 2.174-1.64 3.118-1.413 1.84-3.246 3.377-5.377 4.341-2.131.969-4.53 1.343-6.903 1.102-2.351-.21-4.804-1.2-6.574-2.862-1.936-1.708-3.378-3.774-4.535-5.955a41.238 41.238 0 0 1-2.873-3.937c-1.543-2.386-3.25-5.223-4.492-8.555-.632-1.66-1.22-3.402-1.933-5.113-.698-1.715-1.57-3.377-2.51-4.989-.927-1.503-2.45-2.635-3.895-3.029a4.22 4.22 0 0 0-1.975-.116c.068-.002-.461.099-.44.13l-.287.156c-.223.143-.43.32-.613.525zm3.236 61.971c0-.999-.386-1.937-1.088-2.643-1.407-1.414-3.855-1.409-5.254-.003a3.738 3.738 0 0 0-1.09 2.646c0 1 .389 1.938 1.087 2.644a3.69 3.69 0 0 0 2.629 1.097 3.69 3.69 0 0 0 2.628-1.097 3.725 3.725 0 0 0 1.088-2.644zm-8.624 4.673a3.199 3.199 0 0 0 0 4.513 3.175 3.175 0 0 0 2.254.934c.815 0 1.63-.312 2.251-.934a3.194 3.194 0 0 0 0-4.513 3.187 3.187 0 0 0-4.505 0zM9.554 176.553V379.51c2.124-.06 2.124-.039 2.124.059V176.494c0 .098 0 .12-2.123.059zm17.607 242.48a71.701 71.701 0 0 1-9.63-4.593c-3.11-1.839-6.233-3.887-8.962-6.471-2.772-2.533-5.171-5.563-6.807-9.063-1.61-3.47-2.33-7.655-1.244-11.476.507-1.905 1.388-3.693 2.736-5.127 1.129-1.23 3.819-2.09 3.819-2.604V176.363c0-.514-2.69-1.374-3.82-2.603-1.347-1.435-2.137-3.223-2.646-5.127-1.084-3.822-.409-8.006 1.2-11.477 1.636-3.497 4.012-6.53 6.786-9.063 2.73-2.584 5.84-4.632 8.95-6.47a71.507 71.507 0 0 1 9.625-4.594c3.195-1.165 6.56-2.314 10.087-1.922 1.739.222 3.51.772 4.897 1.885a9.35 9.35 0 0 1 3.022 4.031c.58 1.556.66 3.34.077 4.842-.536 1.532-1.686 2.616-2.842 3.251-1.179.653-2.42.877-3.603.734a5.215 5.215 0 0 1-2.786-1.199c-1.403-1.183-1.886-2.567-2.056-3.456-.13-.938-.031-1.39-.031-1.39l.338-.02s.036.485.351 1.215c.312.724.963 1.793 2.205 2.453 1.21.684 2.945.75 4.41-.31 1.487-1.022 2.172-3.017 1.247-5.024-.846-2.06-2.99-3.656-5.63-4.006-2.696-.446-5.902-.066-9.186.708-3.243.7-6.562 1.924-9.608 3.717-3.065 1.763-5.837 4.143-8.124 6.87a30.473 30.473 0 0 0-3.06 4.326 24.416 24.416 0 0 0-2.301 4.613c-1.21 3.137-1.542 6.437-.584 9.25.915 2.84 2.868 4.9 5.282 5.573a6.57 6.57 0 0 0 3.517.051 5.366 5.366 0 0 0 1.439-.648l.403-.306.23-.212c.164-.178.356-.373.498-.592 1.285-1.72 1.379-4.107.512-5.583-.904-1.556-2.657-1.953-4.07-1.863-1.424.107-2.438.782-2.968 1.354-.536.59-.67 1.04-.692 1.023l-.327-.102c.029.01.048-.49.497-1.315.469-.792 1.52-1.837 3.248-2.316a6.048 6.048 0 0 1 2.969-.061c.552.148 1.086.311 1.674.687.327.197.567.384.745.545l.151.13c.166.158.135.15.214.233l.32.38c1.743 2.17 1.921 5.692.196 8.593-.211.37-.545.701-.833 1.054-.346.383-.831.711-1.07.899-.77.611-1.791 1.013-2.663 1.337-.271.098 1.016.154-1.386.224v202.7c2.402.069 1.115.125 1.386.222.872.324 2.17.728 2.94 1.337.236.188.584.517.932.9.288.352.553.683.764 1.054 1.725 2.9 1.51 6.422-.233 8.592l-.336.38c-.08.086-.056.076-.221.234l-.156.13c-.18.16-.423.348-.747.545-.589.375-1.125.538-1.677.687a6.021 6.021 0 0 1-2.969-.061c-1.727-.48-2.78-1.525-3.248-2.317-.449-.825-.468-1.324-.497-1.312l.327-.105c.021-.015.156.434.692 1.023.53.575 1.544 1.247 2.969 1.354 1.412.09 3.165-.304 4.069-1.863.867-1.476.773-3.863-.512-5.582-.142-.22-.334-.414-.497-.592l-.23-.212-.404-.305a5.294 5.294 0 0 0-1.44-.65 6.57 6.57 0 0 0-3.516.051c-2.414.672-4.367 2.733-5.282 5.573-.958 2.813-.627 6.113.584 9.25a24.416 24.416 0 0 0 2.301 4.613 30.473 30.473 0 0 0 3.06 4.326c2.287 2.728 5.059 5.107 8.124 6.87 3.046 1.793 6.365 3.018 9.608 3.717 3.284.775 6.49 1.157 9.186.709 2.64-.35 4.784-1.946 5.63-4.007.925-2.004.24-4.001-1.247-5.024-1.465-1.06-3.2-.994-4.41-.307-1.242.657-1.893 1.727-2.205 2.45-.315.73-.35 1.215-.35 1.215l-.34-.02s-.098-.452.032-1.387c.17-.892.653-2.275 2.056-3.459a5.215 5.215 0 0 1 2.786-1.198c1.182-.144 2.424.08 3.603.733 1.156.636 2.306 1.72 2.842 3.251.584 1.503.502 3.288-.077 4.842a9.372 9.372 0 0 1-3.022 4.034c-1.386 1.11-3.158 1.66-4.897 1.882-3.527.395-6.899-.755-10.094-1.921zm46.916 48.33c1.384 1.48 2.76 2.867 4.36 3.588l.125.055c-.521-.446-.93-.859-1.207-1.136a56.74 56.74 0 0 1-1.767-1.879c-1.548-1.696-3.008-3.302-4.806-4.142a6.408 6.408 0 0 0-.714-.286c1.414 1.022 2.595 2.288 3.748 3.523l.26.278zm13.76 4.46l.087.15c-2.8 1.658-5.975 3.538-9.556 4.157-.75.129-1.494.192-2.227.192-3.403 0-6.534-1.36-8.344-3.723l2.711-2.106c1.567 2.048 4.358 2.536 6.558 2.327-1.856-.944-3.386-2.359-4.784-3.769l-.26-.262c-1.319-1.334-2.565-2.594-4.042-3.383-1.193-.635-2.94-1.058-4.28-.33l-10.618 5.778 8.602-8.522c3.052-3.021 7.318-3.846 11.136-2.16 2.393 1.058 4.145 2.873 5.84 4.63.54.558 1.08 1.119 1.638 1.648 2.338 2.213 4.194 2.929 6.021 2.33l9.229-3.046-7.638 6.04c-.024.017-.05.03-.072.049zm-9.275-29.524a21.224 21.224 0 0 0 2.67-.996c.425-.212.842-.419 1.238-.657l.537-.341c.2-.15.45-.313.608-.445.591-.481 1.246-1.15 1.707-1.804.98-1.333 1.537-2.784 1.7-4.14.085-.664-.01-1.383-.112-1.917l-.163-.597-.15-.387a5.63 5.63 0 0 0-.425-.835c-.681-1.15-1.634-2.052-2.619-2.766.236.31.467.635.66 1.01.452.9.837 1.944.874 3.091.046 1.145-.321 2.353-.891 3.442-.588 1.11-1.239 2.057-1.938 3.08-.704.983-1.438 1.991-2.31 2.956-.423.462-.889.902-1.386 1.306zm2.245 7.196c-6.41-.014-12.685-1.633-18.158-4.362-2.751-1.34-5.285-3.05-7.532-4.918a27.581 27.581 0 0 1-4.158-4.295 27.86 27.86 0 0 0 3.217 5.736c.441.609.924 1.199 1.429 1.777a42.346 42.346 0 0 0 4.22 3.918c.273.22.575.425.852.643a32.964 32.964 0 0 0 6.584 3.506c2.828 1.122 5.917 1.82 9.086 2.233 3.174.38 6.424.364 9.718-.003 6.567-.63 13.22-2.35 19.778-2.664 6.499-.377 12.93.626 17.462 3.729 2.252 1.501 3.881 3.686 4.388 5.87a7.382 7.382 0 0 1-.893 5.492c-.809 1.343-1.904 2.022-2.657 2.298-.772.28-1.2.249-1.197.28-.01-.014.104-.031.304-.093-.613.055-.968-.135-.924-.09l.05-.337c-.014-.046.857.27 1.873-.629.478-.431.958-1.17 1.018-2.07.073-.86-.43-1.898-1.37-2.591-.975-.705-2.213-1.13-3.688-.996-1.417.13-2.937.806-3.987 1.998-1.057 1.165-1.564 2.93-1.344 4.643.208 1.71 1.359 3.28 3.072 4.3 3.4 2.127 8.78 1.71 12.31-1.36 1.753-1.504 3.032-3.746 3.406-6.197.396-2.448-.394-5.091-1.91-7.398-3.108-4.633-8.407-8.149-14.093-10.108-2.881-.943-5.905-1.54-8.963-1.684-3.094-.098-6.115.24-9.192.732-6.101 1.033-12.25 2.655-18.701 2.64zm35.318 9.525c1.872.2 3.426.675 4.72 1.081 1.817.016 3.495.623 4.557 1.685 1.147 1.046 1.688 2.487 1.44 3.7-.017.073-.046.131-.065.204l.007-.012c.592-1.219.895-2.988.26-4.7-.66-1.731-2.183-3.307-4.244-4.46-2.051-1.154-4.658-1.859-7.408-2.246-2.774-.378-5.766-.336-8.857-.077-6.188.548-12.774 2.253-19.746 2.988a47.687 47.687 0 0 1-9.289.002c2.296.806 4.629 1.497 6.986 1.966 3.004.586 5.895.957 8.84 1.01a76.76 76.76 0 0 0 8.432-.33l7.68-.825c2.417-.238 4.7-.233 6.687.014zM44.518 445.49l-.051-.19s.225-.145.468-.495c.261-.342.574-.975.68-1.803.131-.801-.1-1.833-.633-2.316-.561-.588-1.493-.73-1.94-.106-.527.508-.768 2.127-.397 3.149.221.762.945 1.532 1.873 1.76zm6.165-4.738c-.044.393-.078.79-.17 1.173-.577 2.25-1.857 4.413-4.285 5.385-1.148.432-2.428.569-3.676.261a5.47 5.47 0 0 1-1.789-.804l-.44-.363-.27-.259c-.292-.327-.477-.558-.657-.873-1.304-2.448-.589-5.28 1.45-6.782 1.051-.71 2.338-.87 3.358-.625a4.561 4.561 0 0 1 2.47 1.478 3.809 3.809 0 0 1 .552 4.305c-.543 1.059-1.338 1.566-1.874 1.783-.114.041-.163.046-.253.07.212.005.411.044.63.01a4.431 4.431 0 0 0 1.234-.356c.51-.263.776-.49 1.148-.858.686-.683 1.141-1.626 1.377-2.614.336-1.319.117-2.677-.36-3.954-.124-.283-.24-.568-.35-.853-.18-.371-.365-.742-.582-1.088-.581-.914-1.175-1.638-1.948-2.48a27.392 27.392 0 0 0-2.197-2.118 19.424 19.424 0 0 0-4.971-3.148c-.886-.368-1.725-.7-2.625-.982a21.03 21.03 0 0 0-2.494-.573c-1.623-.212-3.11-.107-4.35.412-1.261.47-2.24 1.365-2.787 2.206a4.94 4.94 0 0 0-.671 2.843c.131 1.75 1.085 2.563 1.032 2.563l-.21.275c.07-.017-1.292-.395-2.16-2.509-.411-1.007-.596-2.501-.093-4.022.55-1.634 1.776-3.1 3.504-4.116 1.727-1.014 3.956-1.44 6.117-1.243 1.095.08 2.153.287 3.236.64 1.01.328 2.08.735 3.065 1.28a21.873 21.873 0 0 1 5.518 4.16c.407.427.786.868 1.146 1.331a19.97 19.97 0 0 1 .032-2.516 17.737 17.737 0 0 1-.182-.997 14.54 14.54 0 0 1-.125-2.243c.086-2.887.981-5.642 2.604-7.833 1.61-2.202 4.036-3.711 6.537-4.074 2.487-.42 5.066.334 6.71 2.016 1.604 1.607 2.32 3.903 1.85 5.854-.506 2.016-1.946 3.325-3.46 3.847-.774.258-1.513.332-2.284.188a4.613 4.613 0 0 1-.957-.325 4.505 4.505 0 0 1-.8-.512c-.934-.775-1.382-1.728-1.545-2.51-.31-1.632.387-2.395.314-2.383l.311.149c.059-.015-.443.739.007 2.058a3.766 3.766 0 0 0 1.487 1.904c.2.124.414.231.645.317.207.07.42.122.759.158a3.243 3.243 0 0 0 1.552-.326c1.037-.48 2.005-1.62 2.2-2.89.216-1.338-.407-2.867-1.609-3.896-2.347-2.101-7.111-1.287-9.26 2.178-1.124 1.68-1.727 3.869-1.676 6.095.02.58.078 1.082.153 1.609.12.685.226 1.112.414 1.716.35 1.112.856 2.204 1.491 3.258.837 1.355 1.883 2.64 3.063 3.859.088.073.159.146.249.217 1.097.995 2.394 1.933 3.749 2.945 1.35 1.02 2.796 2.116 4.426 3.092.207.131.447.217.664.339.78.09 1.667.182 2.642.234.803.06 1.664.068 2.553.068.883-.042 1.83-.059 2.725-.144 1.019-.1 1.927-.266 2.914-.58.954-.327 1.986-.634 2.971-1.13.988-.482 1.88-1.201 2.484-2.11.606-.868.937-1.99.913-2.982-.01-1.012-.246-1.924-.395-2.753-.158-.826-.287-1.611-.52-2.314-.4-1.428-1.02-2.557-1.54-3.371-.339-.52-.667-.922-.837-1.132-.424-.139-.662-.219-.662-.219l.027-.344s.27-.027.771-.073c.504-.02 1.25-.02 2.204.11.954.127 2.117.404 3.375 1a10.226 10.226 0 0 1 3.774 2.969c.284.373.53.75.78 1.217l.358.726.229.583c.372 1.068.49 2.082.472 3.191-.034 2.19-.912 4.379-2.319 6.14a12.72 12.72 0 0 1-2.523 2.386c-.243.176-.43.283-.65.427-.316.202-.515.297-.78.45-.506.264-1.022.503-1.558.7-.36.14-.73.232-1.1.335.774-.057 1.555-.074 2.324-.15 2.1-.17 4.183-.47 6.263-.767l.287-.037c.978-.292 1.961-.58 2.903-.921l1.878-.746a23.923 23.923 0 0 0 1.827-.851c1.173-.605 2.295-1.28 3.3-2.073 1.017-.772 1.936-1.638 2.693-2.606.314-.429.769-1.007 1.034-1.48a9.295 9.295 0 0 0 .732-1.587c.832-2.187.82-4.752-.2-6.905l-2.199-4.64 4.348 2.536a7.153 7.153 0 0 1 2.74 2.938 8.513 8.513 0 0 1 .88 3.67c.042 2.428-.744 4.851-2.206 6.648-1.4 1.826-3.241 3.172-5.153 4.289a44.367 44.367 0 0 1-5.458 2.623c.925-.105 1.852-.205 2.781-.288 6.329-.665 12.959-.353 18.895 1.836 2.983 1.034 5.791 2.45 8.414 4.108 2.562 1.705 5.07 3.611 6.966 6.103 1.9 2.445 3.19 5.62 2.936 8.852a12.471 12.471 0 0 1-3.929 8.3c-4.584 4.196-11.423 4.586-16.01 1.623-2.291-1.453-3.985-3.96-4.175-6.57-.245-2.565.747-4.998 2.365-6.578 1.054-1.02 2.273-1.64 3.509-1.987-.8-.11-1.657-.188-2.582-.18-1.905-.013-4.031.253-6.36.667-4.64.895-10.25 2.207-16.437 2.29-3.05.041-6.35-.19-9.519-.82a53.755 53.755 0 0 1-9.46-2.762c-6.13-2.48-11.773-6.046-16.374-10.186-2.941-2.599-5.443-5.54-7.265-8.582zm97.145 61.8c-1.095.506-2.092.96-3.335 1.862-.592.5-1.06.938-1.547 1.674-.465.68-.768 1.689-.666 2.618.037.45.214 1.029.47 1.375.313.474.678.752 1.063.968.768.416 1.516.409 2.13.288a3.11 3.11 0 0 0 1.435-.708c.34-.279.554-.574.727-.806.33-.476.475-.771.475-.771l-.857.244c-.517.153-1.286.341-1.861.155-.293-.086-.57-.276-.682-.443-.047-.077-.075-.186-.03-.195-.01-.135.018-.114.034-.233.05-.216.166-.376.394-.668.205-.247.631-.655.98-.922.732-.528 1.868-1.27 2.737-1.93a27.923 27.923 0 0 0 2.445-1.977c1.397-1.235 2.198-2.306 2.198-2.306s-1.336.097-3.13.655a22.53 22.53 0 0 0-2.98 1.12zm49.666-24.106a3.727 3.727 0 0 0-1.09 2.643c0 .999.389 1.937 1.088 2.643a3.691 3.691 0 0 0 2.63 1.097c.99 0 1.925-.392 2.626-1.097a3.756 3.756 0 0 0 0-5.286c-1.408-1.414-3.854-1.412-5.254 0zm1.965 7.315a3.2 3.2 0 0 0 0 4.513 3.182 3.182 0 0 0 4.507 0 3.2 3.2 0 0 0 0-4.513 3.19 3.19 0 0 0-4.507 0zm-22.164-41.672c-1.178 1.023-2.451 1.94-3.873 2.608-1.737.816-3.69 1.306-5.592 1.338a12.934 12.934 0 0 1-5.683-1.197 11.126 11.126 0 0 1-5.024-4.538c.022.189.017.405.059.577.19.985.62 1.94 1.183 2.824 1.134 1.78 2.819 3.235 4.76 4.146 3.907 1.806 8.965 1.055 11.784-2.205.952-1.065 1.705-2.282 2.386-3.553zm-11.356-14.544c-.19-.014-.377.014-.566.02.106.022.214.022.32.045 1.62.352 2.952 1.618 3.26 3.048.392 1.515-.606 2.943-1.616 3.467-1.02.6-2.122.744-3.066.553-1.814-.412-2.726-1.413-3.292-2.004-.084-.1-.148-.181-.22-.267-.155.232-.325.448-.45.705.063.792.418 1.706 1.409 2.283 1.395.869 3.815.954 5.801-.265.98-.595 1.794-1.518 2.149-2.579.357-1.073.23-2.394-.431-3.354-.17-.264-.318-.417-.619-.697a4.272 4.272 0 0 0-.717-.468 4.815 4.815 0 0 0-1.962-.487zm-5.63 3.923c.132.09.219.157.398.27.695.431 1.84 1.097 3.305 1.12.662-.007 1.446-.21 2.018-.626.589-.425.8-.978.535-1.479-.277-.544-.95-.967-1.82-1.056-.885-.12-2.022.139-2.95.615-.562.275-1.05.688-1.487 1.156zm37.28-27.59c-.405.416-.794.88-1.185 1.336a30.618 30.618 0 0 1 2.554-2.06c2.368-1.628 4.847-2.757 7.188-3.171 2.333-.457 4.46-.191 6.042.365.923.317 1.66.707 2.264 1.09a10.223 10.223 0 0 0-2.986-1.78c-1.77-.67-4.128-1.15-6.605-.552-1.205.26-2.345.91-3.634 1.748-1.255.814-2.472 1.84-3.638 3.025zm-.234 5.634c.844-.538 1.723-1.018 2.66-1.344 1.321-.47 2.81-.675 4.053-.532 1.467.126 2.592.545 3.64 1.077 2.047 1.1 3.228 2.731 3.707 3.927.488 1.213.466 1.94.466 1.94l-.322.125s-.115-.123-.327-.357a6.929 6.929 0 0 0-.94-.892 9.581 9.581 0 0 0-3.752-1.849c-.778-.214-1.755-.313-2.543-.32-1.01.039-1.919.123-2.956.37a12.79 12.79 0 0 0-3.108 1.173c-1.025.574-2.09 1.126-3.129 1.9-2.102 1.489-3.542 3.823-4.081 6.246-.183.74-.345 1.467-.518 2.174.818-1.37 1.558-2.8 2.27-4.257.867-1.765 1.968-3.552 3.852-4.752a5.801 5.801 0 0 1 3.303-.907c.515.047.434.01.881.106.38.081.676.195.962.308a6.236 6.236 0 0 1 1.55.981 6.311 6.311 0 0 1 1.894 3.007c.352 1.13.2 2.593-.256 3.609-1.062 2.23-3.08 3.34-5.026 3.443-1.992.16-3.796-.993-4.519-2.413-.38-.72-.544-1.565-.383-2.292.064-.367.08-.264.154-.493.085-.215.19-.404.288-.528.2-.278.427-.485.664-.636.952-.591 1.862-.488 2.356-.231.488.303.566.596.58.579l-.256.234c0 .015-.193-.143-.534-.138-.323-.015-.852.2-1.148.7-.066.123-.131.24-.146.362-.025.072.005.109.005.109s-.034.338.017.217c.06.261.195.508.447.74.517.492 1.303.724 2.113.51.808-.19 1.704-.9 1.978-1.637.341-.698.197-1.78-.55-2.655a2.967 2.967 0 0 0-.615-.525l-.285-.155c.022-.032-.508-.133-.44-.13a4.22 4.22 0 0 0-1.974.115c-1.446.394-2.969 1.526-3.896 3.03-.94 1.611-1.811 3.273-2.51 4.988-.712 1.711-1.3 3.454-1.933 5.113-1.242 3.332-2.949 6.17-4.491 8.555a41.238 41.238 0 0 1-2.873 3.937c-1.157 2.181-2.6 4.247-4.536 5.955-1.77 1.661-4.223 2.652-6.573 2.862-2.373.241-4.772-.133-6.903-1.102-2.131-.964-3.965-2.502-5.378-4.34-.683-.945-1.264-1.982-1.64-3.119-.418-1.235-.43-2.282-.547-3.424-.315-4.43.991-9.34 4.462-12.297a9.83 9.83 0 0 1 1.352-1.016c.264-.165.52-.315.716-.411l.158-.084.24-.111.41-.18c1.108-.417 2.267-.604 3.4-.505a7.555 7.555 0 0 1 3.222.976c.498.3.925.606 1.399 1.084.312.323.732.829.983 1.3.662 1.188.877 2.452.83 3.672.276-.419.554-.843.82-1.304.328-.54.664-1.178.918-1.742.332-.745.56-1.263.82-1.982.44-1.181.84-2.482 1.062-3.883a37.884 37.884 0 0 0-.551-4.155 14.699 14.699 0 0 0-.266-1.218c-.037-.064-.059-.133-.098-.197-.879-1.546-2.26-2.788-3.766-3.794-1.509-1.025-3.142-1.863-4.685-2.903-1.552-1.02-3.117-2.115-4.508-3.427-1.362-1.284-2.602-2.923-3.286-4.626-.75-1.709-1.03-3.58-.832-5.26.07-.6.11-.67.246-1.208.115-.456.26-.799.41-1.156.306-.705.725-1.292 1.143-1.805.86-1.02 1.83-1.656 2.707-1.97.876-.312 1.545-.366 2.019-.34.476.05.612.102.612.102v.352s-.13.057-.52.207c-.388.146-.837.41-1.384.898a6.393 6.393 0 0 0-1.53 2.048c-.42.927-.679 1.858-.61 3.027.044 1.139.407 2.346 1.02 3.564a17.664 17.664 0 0 0 2.556 3.596c1.079 1.184 2.377 2.332 3.778 3.503a36.935 36.935 0 0 1 4.118 3.956 38.075 38.075 0 0 1 1.514 1.876c-.113-.313-.196-.633-.32-.942-.359-.946-.791-1.858-1.228-2.75-.464-.88-.923-1.746-1.43-2.554-.542-.779-1.038-1.56-1.585-2.255-.57-.735-1.11-1.433-1.608-2.073-1.035-1.339-1.7-2.749-1.836-3.777a4.18 4.18 0 0 1-.03-1.178l.06-.4s.126.57.617 1.337c.476.784 1.382 1.646 2.62 2.617 1.222.935 2.858 2.214 4.22 3.9.659.853 1.352 1.74 1.913 2.736a23.191 23.191 0 0 1 1.509 3.106c.412 1.084.769 2.189 1.006 3.305.26 1.107.398 2.226.473 3.3.117 1.076.056 2.128-.002 3.107-.044.793-.164 1.53-.303 2.228.115 1.385.024 2.768-.325 4.03-.224.82-.585 1.762-.92 2.384a20.263 20.263 0 0 1-1.264 2.065 17.171 17.171 0 0 1-5.348 4.723c-.26.148-.479.256-.701.37-.371.286-.752.54-1.138.747-2.88 1.53-6.087 1.003-7.806-.594a4.388 4.388 0 0 1-1.05-1.44c-.046.394-.11.789-.085 1.188 0 .3.066.592.108.885.095.298.06.382.239.809.195.606.5 1.129.864 1.654.735 1.03 1.799 1.895 3.032 2.543a9.683 9.683 0 0 0 4.08 1.085c1.517.066 2.994-.264 4.47-.794a15.556 15.556 0 0 0 4.184-2.388c1.206-.895 2.295-1.987 3.303-3.19.256-.789.51-1.582.747-2.376 1.254-4.247 2.304-8.57 3.503-12.759 1.215-4.2 2.655-8.21 4.706-11.826 1.975-3.597 4.46-6.7 7.22-9.054 1.377-1.178 2.807-2.186 4.265-2.97 1.398-.794 3.007-1.405 4.577-1.565 3.06-.323 5.64.47 7.474 1.498 1.845 1.05 2.975 2.31 3.605 3.217.325.454.515.836.64 1.092.13.254.195.385.195.385l-.115.064-.173.207s-.376-.281-1.086-.626a9.367 9.367 0 0 0-3.264-.977c-1.447-.175-3.205-.1-5.109.489-1.897.594-3.927 1.656-5.922 3.197-1.591 1.183-3.124 2.627-4.613 4.269zm103.09-32.003V176.553c-2.123.061-2.123.039-2.123-.059V379.57c0-.1 0-.122 2.123-.061zm9.06 7.922c1.08 3.821.16 8.005-1.445 11.476-1.63 3.5-4 6.53-6.765 9.063-2.72 2.584-5.822 4.632-8.923 6.471a71.335 71.335 0 0 1-9.596 4.594c-3.185 1.166-6.54 2.316-10.058 1.921-1.732-.221-3.5-.772-4.883-1.882a9.383 9.383 0 0 1-3.01-4.034c-.578-1.554-.66-3.339-.077-4.842.534-1.532 1.68-2.615 2.83-3.251 1.176-.653 2.417-.877 3.595-.733a5.191 5.191 0 0 1 2.778 1.198c1.398 1.184 1.88 2.567 2.05 3.459.13.935.031 1.388.031 1.388l-.34.02s-.034-.485-.347-1.216c-.312-.723-.96-1.793-2.199-2.45-1.207-.687-2.936-.753-4.397.307-1.482 1.023-2.165 3.02-1.243 5.024.843 2.06 2.982 3.656 5.614 4.007 2.687.448 5.884.066 9.158-.709 3.233-.699 6.542-1.924 9.577-3.717 3.058-1.763 5.821-4.142 8.101-6.87a30.473 30.473 0 0 0 3.051-4.326 24.446 24.446 0 0 0 2.294-4.613c1.207-3.137 1.538-6.437.582-9.25-.912-2.84-2.86-4.9-5.266-5.573a6.531 6.531 0 0 0-3.506-.05 5.32 5.32 0 0 0-1.437.65l-.402.304-.228.212c-.162.178-.354.372-.495.592-1.282 1.72-1.375 4.106-.51 5.582.9 1.559 2.648 1.953 4.056 1.863 1.42-.107 2.431-.78 2.96-1.354.532-.59.669-1.038.69-1.023l.323.105c-.026-.012-.045.487-.495 1.312-.465.792-1.516 1.837-3.238 2.317a5.983 5.983 0 0 1-2.96.06c-.549-.148-1.085-.311-1.67-.686a4.861 4.861 0 0 1-.746-.546l-.159-.129c-.165-.158-.148-.148-.227-.234l-.345-.38c-1.739-2.17-1.97-5.692-.254-8.592.213-.37.434-.702.721-1.055.347-.382.61-.711.848-.899.766-.609 1.343-1.013 2.213-1.337.27-.097.498-.153.498-.221V176.68c0-.068-.228-.124-.498-.222-.87-.324-1.28-.726-2.048-1.337a8.883 8.883 0 0 1-.93-.899c-.286-.353-.55-.684-.76-1.054-1.72-2.901-1.51-6.423.232-8.593l.333-.38c.081-.083.057-.075.222-.234l.156-.129c.177-.16.419-.348.745-.545.586-.376 1.12-.539 1.671-.687a6.003 6.003 0 0 1 2.958.06c1.722.48 2.773 1.525 3.24 2.317.448.826.467 1.325.496 1.315l-.326.102c-.021.017-.158-.433-.69-1.023-.529-.572-1.54-1.247-2.96-1.354-1.408-.09-3.156.307-4.056 1.863-.865 1.476-.772 3.863.51 5.583.141.219.333.414.495.592l.228.212.402.306c.367.24.917.51 1.437.648a6.531 6.531 0 0 0 3.506-.05c2.407-.673 4.354-2.734 5.266-5.573.956-2.814.625-6.114-.582-9.25a24.446 24.446 0 0 0-2.294-4.614 30.473 30.473 0 0 0-3.05-4.325c-2.28-2.728-5.044-5.108-8.102-6.871-3.035-1.793-6.344-3.018-9.577-3.717-3.274-.774-6.471-1.154-9.158-.708-2.632.35-4.77 1.946-5.614 4.006-.922 2.007-.239 4.002 1.243 5.025 1.461 1.06 3.19.993 4.397.309 1.238-.66 1.887-1.73 2.199-2.453.313-.73.347-1.215.347-1.215l.34.02s.098.452-.031 1.39c-.17.89-.652 2.273-2.05 3.456a5.191 5.191 0 0 1-2.778 1.199c-1.178.143-2.416-.08-3.592-.734-1.15-.635-2.3-1.72-2.833-3.251-.582-1.503-.498-3.286.079-4.842a9.367 9.367 0 0 1 3.012-4.03c1.385-1.114 3.154-1.664 4.888-1.886 3.516-.392 6.88.757 10.066 1.922a71.5 71.5 0 0 1 9.61 4.593c3.101 1.839 6.234 3.887 8.954 6.471 2.766 2.533 5.194 5.566 6.825 9.063 1.607 3.47 2.402 7.655 1.322 11.477-.507 1.904-1.228 3.692-2.572 5.127-1.123 1.23-3.494 2.09-3.494 2.603V379.7c0 .514 2.371 1.374 3.494 2.604 1.344 1.434 2.065 3.222 2.572 5.127zM232.5 457.185a47.686 47.686 0 0 1-9.29-.002c-6.97-.735-13.556-2.44-19.744-2.988-3.092-.26-6.084-.301-8.858.077-2.75.387-5.356 1.092-7.408 2.246-2.063 1.153-3.586 2.729-4.243 4.46-.635 1.712-.335 3.481.26 4.7l.007.012c-.02-.073-.049-.131-.066-.203-.247-1.214.294-2.655 1.44-3.7 1.063-1.063 2.743-1.67 4.557-1.686 1.295-.406 2.846-.88 4.72-1.08 1.984-.248 4.27-.253 6.688-.015l7.677.824c2.687.26 5.533.374 8.434.332 2.946-.054 5.836-.425 8.84-1.011 2.355-.47 4.69-1.16 6.986-1.966zm-39.784 6.742c-1.05-1.192-2.57-1.868-3.99-1.998-1.471-.134-2.71.29-3.684.996-.944.693-1.443 1.731-1.371 2.592.06.9.54 1.638 1.018 2.07 1.016.899 1.888.582 1.873.628l.048.338c.046-.046-.309.144-.921.089.2.062.31.079.304.093.002-.031-.425 0-1.197-.28-.753-.276-1.851-.955-2.657-2.298a7.382 7.382 0 0 1-.893-5.491c.506-2.185 2.135-4.37 4.387-5.871 4.532-3.103 10.964-4.106 17.463-3.73 6.557.315 13.21 2.035 19.777 2.665 3.294.367 6.545.384 9.716.003 3.171-.413 6.26-1.11 9.086-2.233a32.833 32.833 0 0 0 6.584-3.506c.28-.218.581-.422.854-.643a42.296 42.296 0 0 0 4.218-3.916c.505-.58.987-1.168 1.431-1.78a27.86 27.86 0 0 0 3.217-5.735 27.581 27.581 0 0 1-4.158 4.295c-2.246 1.868-4.78 3.578-7.532 4.918-5.473 2.73-11.748 4.348-18.16 4.362-6.448.015-12.6-1.607-18.698-2.64-3.077-.492-6.099-.83-9.193-.732-3.057.144-6.081.741-8.963 1.684-5.685 1.96-10.985 5.475-14.093 10.108-1.516 2.307-2.305 4.95-1.91 7.398.375 2.45 1.654 4.693 3.406 6.197 3.53 3.07 8.91 3.487 12.31 1.36 1.714-1.02 2.865-2.59 3.072-4.3.218-1.713-.287-3.478-1.344-4.643zm34.814-23.28c.393.237.813.444 1.238.656.836.38 1.733.714 2.67.996a12.7 12.7 0 0 1-1.385-1.306c-.873-.965-1.607-1.973-2.311-2.957-.7-1.022-1.35-1.97-1.938-3.079-.572-1.09-.937-2.297-.89-3.442.036-1.147.421-2.191.87-3.09.196-.376.427-.7.663-1.011-.987.714-1.94 1.616-2.62 2.766a5.39 5.39 0 0 0-.424.835l-.15.387-.163.597c-.101.534-.197 1.253-.112 1.917.16 1.356.718 2.807 1.7 4.14a9.603 9.603 0 0 0 1.707 1.804c.158.132.409.296.608.445l.537.341zm38.002 4.652l-.05.19c.928-.229 1.652-.999 1.874-1.761.37-1.022.128-2.64-.397-3.149-.447-.625-1.38-.482-1.941.106-.533.483-.764 1.515-.632 2.316.103.828.416 1.46.68 1.803.242.35.466.495.466.495zm18.685-17.045c.501 1.52.319 3.015-.092 4.022-.869 2.114-2.232 2.492-2.161 2.51l-.21-.276c-.053 0 .901-.812 1.032-2.563a4.924 4.924 0 0 0-.674-2.843c-.545-.84-1.523-1.735-2.783-2.206-1.243-.52-2.727-.624-4.353-.412-.8.124-1.664.336-2.491.573-.9.283-1.74.614-2.626.982a19.425 19.425 0 0 0-4.97 3.148 27.392 27.392 0 0 0-2.197 2.119c-.774.84-1.368 1.565-1.95 2.48-.216.345-.4.716-.58 1.087-.113.285-.227.57-.351.853-.477 1.277-.696 2.635-.36 3.954.233.988.69 1.931 1.377 2.614.372.368.637.595 1.148.858.355.161.818.307 1.234.356.219.034.418-.005.63-.01-.09-.024-.139-.029-.253-.07-.538-.217-1.33-.724-1.874-1.783a3.809 3.809 0 0 1 .553-4.305 4.552 4.552 0 0 1 2.47-1.478c1.019-.246 2.306-.085 3.357.625 2.037 1.501 2.754 4.334 1.448 6.782-.178.315-.363.546-.655.873l-.27.259-.44.363a5.493 5.493 0 0 1-1.789.804c-1.248.308-2.528.171-3.676-.26-2.43-.973-3.708-3.136-4.285-5.386-.092-.383-.126-.78-.17-1.173-1.822 3.043-4.326 5.983-7.265 8.582-4.601 4.14-10.243 7.707-16.377 10.186a53.73 53.73 0 0 1-9.458 2.763c-3.167.629-6.47.86-9.518.819-6.187-.083-11.8-1.395-16.438-2.29-2.33-.414-4.455-.68-6.36-.668-.924-.007-1.78.071-2.581.18 1.236.347 2.455.969 3.508 1.988 1.618 1.58 2.609 4.013 2.365 6.578-.19 2.61-1.885 5.117-4.175 6.57-4.586 2.963-11.426 2.573-16.01-1.623a12.471 12.471 0 0 1-3.929-8.3c-.253-3.232 1.034-6.407 2.937-8.852 1.895-2.492 4.404-4.398 6.966-6.103 2.62-1.658 5.43-3.074 8.413-4.108 5.937-2.19 12.567-2.501 18.893-1.836.932.083 1.859.183 2.784.288a44.57 44.57 0 0 1-5.46-2.623c-1.91-1.117-3.752-2.463-5.151-4.289-1.462-1.797-2.25-4.22-2.207-6.648.02-1.227.29-2.49.88-3.67a7.163 7.163 0 0 1 2.738-2.938l4.348-2.535-2.197 4.64c-1.02 2.152-1.034 4.717-.2 6.904.19.556.446 1.083.733 1.587.265.473.718 1.051 1.034 1.48.754.968 1.676 1.834 2.693 2.606 1.005.793 2.127 1.468 3.3 2.073.603.312 1.163.573 1.827.85l1.878.747c.942.341 1.925.629 2.903.921l.287.037c2.08.297 4.163.597 6.263.768.768.075 1.55.092 2.32.149-.367-.103-.736-.195-1.097-.334a13.504 13.504 0 0 1-1.557-.7c-.265-.154-.464-.249-.78-.451-.22-.144-.41-.251-.65-.427a12.72 12.72 0 0 1-2.524-2.387c-1.406-1.76-2.284-3.95-2.32-6.139-.018-1.11.102-2.123.471-3.191l.231-.583.358-.726c.25-.466.497-.844.781-1.217a10.226 10.226 0 0 1 3.774-2.97 11.368 11.368 0 0 1 3.375-1c.953-.128 1.7-.128 2.204-.109.501.046.771.073.771.073l.027.344-.662.22c-.17.21-.501.611-.837 1.13-.52.815-1.14 1.944-1.54 3.372-.234.703-.362 1.488-.52 2.314-.149.83-.385 1.741-.395 2.753-.024.992.304 2.114.913 2.982.603.909 1.496 1.628 2.484 2.11.983.496 2.017.803 2.97 1.13.988.314 1.896.48 2.915.58.896.085 1.842.102 2.725.144.889 0 1.75-.007 2.553-.068a41.914 41.914 0 0 0 2.642-.234c.217-.122.458-.208.664-.34 1.63-.975 3.073-2.072 4.426-3.09 1.355-1.013 2.652-1.951 3.75-2.946.09-.07.16-.144.245-.217 1.183-1.219 2.229-2.504 3.066-3.86a15.157 15.157 0 0 0 1.491-3.257c.188-.604.292-1.031.414-1.716a14.33 14.33 0 0 0 .153-1.61c.051-2.225-.552-4.415-1.676-6.094-2.149-3.465-6.912-4.28-9.26-2.178-1.202 1.03-1.825 2.558-1.609 3.896.195 1.27 1.163 2.41 2.2 2.89a3.237 3.237 0 0 0 1.552.326c.338-.036.55-.088.76-.158.228-.086.445-.193.644-.317a3.78 3.78 0 0 0 1.487-1.904c.45-1.32-.051-2.073.007-2.058l.311-.149c-.073-.012.623.751.314 2.382-.163.783-.61 1.736-1.547 2.511a4.483 4.483 0 0 1-.798.512 4.661 4.661 0 0 1-.956.325c-.772.144-1.511.07-2.285-.188-1.513-.522-2.954-1.831-3.46-3.847-.47-1.95.246-4.247 1.85-5.854 1.644-1.682 4.223-2.436 6.71-2.016 2.5.363 4.927 1.872 6.535 4.074 1.625 2.191 2.52 4.946 2.606 7.833.01.7-.015 1.485-.124 2.243-.044.29-.107.641-.185.997.058.798.082 1.631.034 2.516.36-.463.74-.904 1.146-1.33a21.905 21.905 0 0 1 5.516-4.16c.987-.546 2.058-.953 3.068-1.28a13.474 13.474 0 0 1 3.236-.641c2.16-.198 4.389.229 6.116 1.243 1.728 1.017 2.954 2.482 3.504 4.116zm-45.347 35.31c-.241.08-.48.173-.713.285-1.8.84-3.26 2.446-4.807 4.142a54.209 54.209 0 0 1-1.764 1.879c-.277.277-.686.69-1.21 1.136l.125-.055c1.6-.72 2.978-2.109 4.362-3.587l.255-.273c1.154-1.235 2.338-2.503 3.752-3.528zm9.44-1.23l8.608 8.526-10.622-5.781c-1.337-.728-3.086-.306-4.281.33-1.477.79-2.722 2.052-4.043 3.387l-.255.257c-1.378 1.39-2.889 2.783-4.705 3.727 2.684.242 5.175-.583 6.478-2.286l2.71 2.106c-1.809 2.363-4.938 3.722-8.342 3.722a13.11 13.11 0 0 1-2.224-.192c-3.58-.619-6.755-2.499-9.555-4.156l.09-.15c-.025-.02-.051-.032-.073-.049l-7.644-6.041 9.232 3.047c1.824.602 3.683-.116 6.02-2.33.56-.528 1.096-1.086 1.636-1.644 1.694-1.757 3.445-3.574 5.837-4.632 3.816-1.693 8.083-.861 11.133 2.16zm-87.811 48.294a3.11 3.11 0 0 0 1.434.708c.615.121 1.363.128 2.131-.288.384-.216.75-.494 1.062-.968.256-.346.433-.925.47-1.375.103-.93-.2-1.937-.666-2.618-.486-.736-.954-1.175-1.546-1.674-1.243-.901-2.24-1.356-3.335-1.863a22.53 22.53 0 0 0-2.98-1.12c-1.794-.557-3.13-.654-3.13-.654s.8 1.07 2.198 2.306c.687.632 1.525 1.31 2.443 1.977.87.66 2.007 1.402 2.738 1.93.35.267.774.675.98.922.23.292.346.452.394.668.017.119.045.098.033.233.047.009.019.118-.03.195-.11.167-.387.357-.68.443-.575.186-1.344-.002-1.861-.155l-.857-.244s.144.295.473.771c.174.232.386.527.729.806zm55.897-30.17c-1.577-2.574-3.702-4.315-5.603-5.444a12.875 12.875 0 0 0-4.88-1.748c-.462-.108-.845-.12-1.154-.134l.638.346c.791.545 2.002 1.369 3.164 2.804 1.184 1.406 2.279 3.42 2.935 5.905a18.58 18.58 0 0 1 .125 8.589c-.14.771-.43 1.607-.685 2.416l-.428 1.092c-.179.477-.378.802-.572 1.215-.793 1.564-1.852 3.066-3.124 4.439-2.54 2.75-5.988 4.926-9.859 6.199a26.713 26.713 0 0 1-6.118 1.218c-1.962.155-4.222.1-6.258-.232-2.432-.375-4.787-1.103-7.035-2.058a16.554 16.554 0 0 1-3.016-.982 21.764 21.764 0 0 1-3.24-1.764 28.449 28.449 0 0 1-5.508-4.638c-.75-.8-1.425-1.671-2.022-2.59-.307-.218-.616-.413-.92-.68-.254-.216-.384-.373-.58-.56-.263-.257-.406-.446-.612-.67a10.283 10.283 0 0 1-2.238-5.01c-.464-1.27-.773-2.596-.837-3.98-.007-.23.012-.46.015-.688a12.276 12.276 0 0 0-.307 1.638c-.55 4.336 1.427 8.887 4.534 12.724 3.116 3.878 7.07 7.324 11.553 9.965 4.517 2.593 9.601 4.355 14.84 4.592 5.197.305 10.372-.812 14.72-2.98 4.396-2.092 7.901-5.244 10.42-8.675 2.487-3.45 4.039-7.26 4.29-10.87.333-3.55-.644-6.934-2.238-9.439zm-46.533 6.061c-2.355.28-4.549-.783-5.261-2.534-.698-2.027.045-3.502.55-4.326.043-.06.078-.095.118-.148-.15.098-.3.193-.474.32-.488.36-1.097.817-1.61 1.47-.52.638-.907 1.498-.695 2.374.192.848.952 1.803 1.956 2.444 1.027.62 2.39.95 3.798.798a5.796 5.796 0 0 0 1.618-.398zm2.752 13.887a26.38 26.38 0 0 1-1.69-.51c.272.158.531.34.806.493 1.004.535 2.005 1.035 3.03 1.456 1.034.426 2.023.68 3.059.881 2.037.362 4.131.137 6.343-.406 2.252-.57 4.314-1.37 6.164-2.736 1.804-1.38 3.297-3.234 4.139-5.354.87-2.093 1.153-4.488.571-6.545-.065-.26-.197-.486-.294-.731.01.297.047.6.03.89a11.488 11.488 0 0 1-.637 3.263l-.295.748c-.122.277-.252.557-.381.792-.26.498-.56.966-.88 1.42-1.292 1.797-2.965 3.224-4.802 4.276-.876.5-1.855.996-2.844 1.375-.988.361-2 .653-3.023.879-2.05.443-4.159.554-6.23.354a17.865 17.865 0 0 1-3.066-.545zm-19.83-15.265a11.89 11.89 0 0 0-.305-1.638c.002.229.022.458.014.687-.063 1.385-.373 2.71-.837 3.98a10.265 10.265 0 0 1-2.24 5.01c-.204.225-.346.414-.61.671-.196.187-.326.344-.581.56-.303.267-.612.462-.919.68-.597.919-1.272 1.79-2.021 2.59a28.45 28.45 0 0 1-5.51 4.638 21.765 21.765 0 0 1-3.24 1.764c-.93.404-1.964.752-3.018.982-2.245.955-4.6 1.683-7.032 2.058-2.039.332-4.296.387-6.259.232a26.688 26.688 0 0 1-6.118-1.218c-3.87-1.273-7.32-3.448-9.859-6.199-1.272-1.373-2.331-2.875-3.124-4.439-.194-.413-.393-.738-.573-1.215l-.427-1.092c-.255-.81-.545-1.645-.685-2.416a18.616 18.616 0 0 1 .123-8.59c.658-2.485 1.753-4.498 2.937-5.904 1.162-1.435 2.37-2.26 3.164-2.804l.638-.346c-.31.015-.692.026-1.154.134a12.876 12.876 0 0 0-4.88 1.748c-1.902 1.13-4.029 2.87-5.603 5.444-1.594 2.505-2.572 5.888-2.238 9.44.25 3.61 1.8 7.418 4.286 10.869 2.523 3.43 6.028 6.583 10.424 8.675 4.348 2.168 9.523 3.285 14.72 2.98 5.24-.237 10.324-2 14.84-4.592 4.483-2.641 8.438-6.087 11.555-9.965 3.107-3.837 5.084-8.388 4.531-12.724zm-26.948 17.18c2.212.542 4.306.767 6.343.405 1.036-.2 2.025-.455 3.058-.881 1.026-.421 2.027-.921 3.031-1.456.272-.154.534-.335.806-.493-.541.183-1.088.351-1.692.51-1.001.262-2.027.46-3.063.545-2.072.2-4.184.089-6.234-.354a23.652 23.652 0 0 1-3.023-.88c-.986-.378-1.965-.874-2.843-1.374-1.835-1.052-3.51-2.479-4.8-4.277a12.148 12.148 0 0 1-1.264-2.211l-.292-.748a11.488 11.488 0 0 1-.637-3.264c-.017-.29.018-.592.03-.889-.1.245-.23.47-.294.73-.582 2.058-.3 4.453.571 6.546.842 2.12 2.335 3.974 4.14 5.354 1.85 1.367 3.909 2.167 6.163 2.736zm14.3-15.802a5.798 5.798 0 0 0 1.618.398c1.406.153 2.772-.178 3.796-.798 1.005-.64 1.768-1.596 1.957-2.444.215-.876-.172-1.736-.693-2.375-.513-.652-1.122-1.11-1.61-1.47-.175-.126-.324-.22-.474-.319.04.053.075.089.117.148.506.824 1.25 2.299.551 4.326-.713 1.75-2.906 2.813-5.262 2.534zm76.343-7.542c2.109 2.828 3.45 6.801 3.263 11.263-.187 4.384-1.82 9.002-4.73 12.948-2.92 3.94-7.21 7.022-11.994 8.92-4.797 1.864-10.064 2.718-15.367 2.437-5.272-.287-10.648-1.707-15.521-4.146a42.86 42.86 0 0 1-6.963-4.362c-2.15-1.742-4.122-3.601-5.927-5.735-2.041-2.412-3.759-5.303-4.772-8.422-1.013 3.12-2.733 6.01-4.773 8.422-1.803 2.134-3.775 3.993-5.925 5.735a42.86 42.86 0 0 1-6.963 4.362c-4.873 2.44-10.25 3.859-15.52 4.146-5.304.28-10.57-.573-15.371-2.436-4.781-1.899-9.074-4.98-11.991-8.921-2.91-3.946-4.543-8.564-4.73-12.948-.19-4.462 1.154-8.435 3.262-11.263 2.048-2.842 4.51-4.723 6.759-5.695 2.244-1.008 4.161-1.229 5.46-1.209.657-.027 1.111.087 1.44.107l.485.057-.005.176.092.149-1.068.965c-.635.68-1.604 1.653-2.398 3.179-.802 1.496-1.582 3.432-1.849 5.774-.226 2.328-.155 5.013.67 7.74.173.707.433 1.313.671 1.993l.496 1.101c.107.266.342.633.507.948.746 1.298 1.626 2.583 2.73 3.732a23.49 23.49 0 0 0 8.319 5.507 22.261 22.261 0 0 0 5.116 1.32c1.669.218 3.202.206 4.825.094-.037-.015-.078-.027-.114-.045-1.118-.498-2.192-1.027-3.239-1.71a16.61 16.61 0 0 1-2.86-2.362 19.173 19.173 0 0 1-4.11-6.002c-.915-2.251-1.547-4.713-1.224-7.326.32-2.54 1.929-5.33 4.856-6.22l4.179-1.276-2.937 3.568c-.887 1.077-1.208 2.623-1.033 4.204.073.787.285 1.573.571 2.303l.258.57.267.482c.194.34.425.665.668.98.989 1.258 2.315 2.293 3.748 3.164.768.444 1.494.796 2.272 1.124.777.335 1.581.615 2.4.841 1.647.422 3.35.67 5.068.655.86-.002 1.717-.082 2.572-.196.365-.05.765-.124 1.164-.206a9.71 9.71 0 0 1-1.866-.618c-1.074-.456-2.021-1.146-2.772-1.853a9.755 9.755 0 0 1-1.822-2.28 9.402 9.402 0 0 1-1.316-4.02c-.07-1.008.024-1.564.024-1.564s.2.536.634 1.367a12.253 12.253 0 0 0 2.22 2.97c1.057 1.025 2.49 1.988 4.08 2.467 1.639.491 3.466.506 5.225.042.877-.22 1.72-.573 2.502-1.002.386-.219.77-.472 1.083-.688.158-.096.387-.312.576-.461.112-.084.301-.28.45-.414 1.236-1.214 2.098-2.718 2.633-4.12.493-1.3.685-2.486.768-3.407-.185-1.665-.722-3.235-1.565-4.481a7.514 7.514 0 0 0-1.506-1.645c-.654-.556-1.178-.797-1.859-1.03-2.626-.893-5.687.04-6.724 2.117-.493.848-.644 2.148-.367 3.148.122.492.394 1.015.595 1.328.358.474.65.71 1.074.963.814.459 1.783.595 2.595.432.204-.045.398-.1.583-.174.165-.075.296-.12.527-.283.272-.181.53-.422.712-.72.729-1.268.447-2.764.153-3.553-.287-.851-.666-1.22-.666-1.22l.124-.125.07-.159s.644.199 1.788.797c.562.312 1.252.737 1.946 1.446.676.678 1.426 1.817 1.312 3.308-.284 2.926-3.299 5.521-7.079 5.474-1.832.003-3.982-.645-5.505-2.37-1.552-1.72-2.186-4.268-1.802-6.65.398-2.397 1.518-4.717 3.811-6.43 2.08-1.538 5.041-2.02 7.643-1.45 2.619.518 5.184 2.044 6.904 4.23a13.694 13.694 0 0 1 2.072 3.717 13.694 13.694 0 0 1 2.073-3.717c1.72-2.186 4.285-3.712 6.904-4.23 2.602-.57 5.563-.088 7.642 1.45 2.294 1.713 3.414 4.033 3.81 6.43.386 2.382-.248 4.93-1.8 6.65-1.524 1.725-3.674 2.373-5.505 2.37-3.78.047-6.795-2.548-7.08-5.474-.114-1.491.637-2.63 1.312-3.308.695-.71 1.383-1.134 1.946-1.446 1.144-.598 1.786-.797 1.786-.797l.073.159.124.124s-.38.37-.666 1.221c-.294.79-.576 2.285.153 3.553.182.298.437.539.712.72.23.164.36.208.527.283.185.074.379.129.583.174.811.163 1.778.027 2.595-.432a3.335 3.335 0 0 0 1.073-.963c.202-.313.474-.836.595-1.328.277-1 .127-2.3-.366-3.148-1.038-2.077-4.099-3.01-6.725-2.117-.68.233-1.207.474-1.858 1.03a7.514 7.514 0 0 0-1.506 1.645c-.843 1.246-1.38 2.816-1.565 4.481.083.92.275 2.107.765 3.407.537 1.402 1.4 2.906 2.636 4.12.148.134.338.33.45.414.187.149.417.365.575.461.314.216.695.47 1.084.688.782.43 1.625.781 2.502 1.002 1.756.464 3.586.45 5.223-.042 1.591-.479 3.025-1.442 4.081-2.466a12.317 12.317 0 0 0 2.22-2.97c.433-.832.635-1.368.635-1.368s.095.556.024 1.563a9.402 9.402 0 0 1-1.317 4.02 9.755 9.755 0 0 1-1.822 2.28c-.75.708-1.7 1.398-2.771 1.854a9.71 9.71 0 0 1-1.866.618c.398.082.797.157 1.164.206a19.88 19.88 0 0 0 2.57.196c1.717.015 3.423-.233 5.07-.655a18.498 18.498 0 0 0 2.4-.841c.777-.328 1.501-.68 2.269-1.124 1.433-.871 2.762-1.906 3.75-3.164.244-.315.475-.64.669-.98l.267-.482.255-.57c.29-.73.5-1.516.573-2.303.175-1.58-.148-3.127-1.032-4.204l-2.94-3.568 4.181 1.276c2.928.89 4.536 3.68 4.857 6.22.323 2.613-.309 5.075-1.225 7.326a19.14 19.14 0 0 1-4.113 6.002 16.593 16.593 0 0 1-2.856 2.363c-1.048.682-2.121 1.21-3.239 1.71-.036.017-.078.03-.116.044 1.625.112 3.158.124 4.827-.094a22.261 22.261 0 0 0 5.116-1.32 23.512 23.512 0 0 0 8.318-5.507c1.105-1.149 1.985-2.434 2.73-3.732.166-.315.399-.682.508-.948l.496-1.101c.238-.68.498-1.286.668-1.993.828-2.727.899-5.412.67-7.74-.265-2.342-1.044-4.278-1.846-5.774-.794-1.526-1.764-2.499-2.398-3.179l-1.069-.965.093-.149-.005-.176.486-.057c.325-.02.782-.134 1.438-.107 1.3-.02 3.216.201 5.461 1.209 2.25.972 4.71 2.853 6.758 5.695zm-27.714 47.763c.474 2.374.095 4.55-.758 6.553-.838 1.99-2.271 3.725-4.107 4.885-.91.59-1.936.983-2.968 1.255-.726.11-.807.174-1.535.198a7.174 7.174 0 0 1-1.653-.079c-2.058-.284-3.794-1.236-5.175-2.39-1.37-1.184-2.34-2.7-2.814-4.299a6.836 6.836 0 0 1 .247-4.634c1.127-2.696 3.616-4.255 5.74-4.248 2.112-.002 3.498.981 4.17 1.74.35.387.531.74.651.971l.152.363-.313.146s-.22-.47-.946-1.015c-.683-.541-2.01-1.14-3.59-.859-1.508.256-3.2 1.585-3.74 3.62-.579 1.97.328 4.356 2.428 5.895 2.093 1.556 5.04 2.06 7.336.396 1.132-.792 2.09-1.974 2.704-3.36.619-1.356.836-3.04.648-4.422-.437-3.181-3.088-5.952-6.486-7.236-3.295-1.348-7.468-1-10.974.707-1.765.85-3.405 2.045-4.801 3.412a19.496 19.496 0 0 0-3.43 4.828c-1.79 3.527-2.557 7.41-2.694 11.132-.2 3.702.677 7.155 2.716 9.376 1.95 2.322 4.914 2.94 7.097 1.747.525-.272.983-.613 1.322-1.019.17-.207.25-.284.445-.675.086-.167.184-.413.223-.637.188-.93-.073-2.019-.626-2.807-.577-.773-1.318-1.29-2.142-1.357-.73-.11-1.461.26-1.992.778-1.083 1.1-1.208 2.532-.941 3.298.247.777.77 1.097.74 1.11l-.22.262c.04-.031-.532-.141-1.156-1.096-.533-.923-.738-2.694.438-4.457.565-.852 1.701-1.742 3.197-1.752 1.399-.086 2.915.67 3.902 1.828.976 1.162 1.675 2.763 1.44 4.596a5.03 5.03 0 0 1-.386 1.377c-.098.26-.391.811-.675 1.184a6.83 6.83 0 0 1-2.122 1.875 8.332 8.332 0 0 1-5.78.893c-1.994-.418-3.869-1.7-5.113-3.257-1.135-1.394-1.88-3.103-2.225-4.854-.345 1.751-1.09 3.46-2.225 4.854-1.244 1.558-3.12 2.84-5.114 3.257a8.332 8.332 0 0 1-5.78-.893 6.83 6.83 0 0 1-2.121-1.875 5.947 5.947 0 0 1-.677-1.184 5.11 5.11 0 0 1-.384-1.377c-.237-1.833.462-3.434 1.44-4.596.987-1.157 2.503-1.914 3.902-1.828 1.496.01 2.632.9 3.197 1.752 1.176 1.763.97 3.534.438 4.457-.626.955-1.196 1.065-1.157 1.096l-.22-.263c-.029-.012.492-.332.741-1.11.267-.765.14-2.197-.941-3.297-.53-.518-1.262-.888-1.992-.778-.824.066-1.565.584-2.142 1.357-.555.788-.814 1.876-.626 2.807.04.224.137.47.223.637.195.391.276.468.445.675.34.406.797.747 1.322 1.02 2.183 1.193 5.146.574 7.097-1.748 2.039-2.221 2.914-5.674 2.716-9.376-.137-3.722-.904-7.605-2.694-11.132a19.56 19.56 0 0 0-3.43-4.828c-1.398-1.367-3.036-2.563-4.801-3.412-3.508-1.706-7.679-2.055-10.974-.707-3.398 1.284-6.049 4.055-6.486 7.236-.188 1.382.03 3.066.648 4.422.613 1.386 1.572 2.568 2.704 3.36 2.295 1.663 5.243 1.16 7.336-.396 2.1-1.54 3.007-3.926 2.428-5.895-.54-2.035-2.232-3.364-3.74-3.62-1.58-.281-2.907.318-3.59.86-.728.543-.946 1.014-.946 1.014l-.313-.146.152-.363c.12-.231.3-.584.648-.971.675-.759 2.06-1.742 4.173-1.74 2.124-.007 4.613 1.552 5.738 4.248a6.821 6.821 0 0 1 .249 4.634c-.474 1.6-1.445 3.115-2.814 4.298-1.381 1.155-3.117 2.107-5.175 2.391a7.174 7.174 0 0 1-1.653.08c-.728-.025-.81-.09-1.535-.199-1.032-.272-2.059-.666-2.968-1.255-1.838-1.16-3.269-2.895-4.107-4.885-.853-2.002-1.232-4.179-.758-6.553.873-4.439 4.68-8.013 8.98-9.333 4.459-1.465 9.275-.454 12.937 1.904 3.74 2.294 6.43 5.763 8.248 9.4 1.819 3.666 2.904 7.567 3.601 11.397.697-3.83 1.782-7.731 3.601-11.397 1.819-3.637 4.508-7.106 8.248-9.4 3.66-2.358 8.478-3.37 12.935-1.904 4.303 1.32 8.11 4.894 8.982 9.333z" fill="#374C45" fill-rule="evenodd"/></svg>