<svg width="310" height="555" xmlns="http://www.w3.org/2000/svg"><path d="M146.62 88.365a12.309 12.309 0 0 0-.568-.62 5.547 5.547 0 0 0-.658-.618c-.476-.381-1.026-.741-1.659-.941-.64-.212-1.45-.163-1.967.12-.554.256-1.027.698-1.213 1.223.457-.3.965-.358 1.415-.337.49.042.777.165 1.062.444.302.255.56.578.787.957l.34.581c.142.235.249.441.349.641.466.927.87 1.894 1.173 2.847a19.249 19.249 0 0 1-2.844-1.178c-.856-.465-1.67-.872-2.173-1.474a1.738 1.738 0 0 1-.31-.448 2.17 2.17 0 0 1-.133-.616c-.02-.448.035-.957.334-1.417-.527.186-.967.66-1.225 1.215-.139.279-.218.59-.248.934-.028.372.035.714.125 1.039.43 1.292 1.355 2.175 2.178 2.893.85.764 1.833 1.338 2.86 1.87 1.047.495 2.185.865 3.447.995l2 .204-.209-2c-.13-1.264-.499-2.403-.997-3.45-.527-1.03-1.105-2.013-1.865-2.864zm12.627 10.44l1.996-.21c1.264-.132 2.404-.499 3.45-.998 1.03-.527 2.012-1.105 2.862-1.866.227-.197.443-.392.62-.569.225-.211.424-.413.615-.66.38-.475.74-1.025.942-1.661.212-.638.163-1.449-.12-1.968-.256-.555-.697-1.026-1.222-1.214.3.457.356.967.335 1.415-.04.49-.165.778-.441 1.066-.256.302-.579.56-.957.787l-.58.341a9.7 9.7 0 0 1-.641.346c-.927.469-1.893.87-2.847 1.177.306-.954.708-1.92 1.177-2.846.467-.857.873-1.674 1.475-2.175.141-.135.3-.241.445-.311.177-.074.39-.11.616-.132.45-.024.959.034 1.418.332-.185-.527-.659-.966-1.214-1.224a2.49 2.49 0 0 0-.933-.248 2.927 2.927 0 0 0-1.038.125c-1.291.43-2.174 1.356-2.891 2.18-.764.85-1.338 1.831-1.87 2.862-.494 1.047-.863 2.184-.993 3.447l-.204 2.003zm-1.872-15.499c-.926-.422-1.99-.58-2.906-.286.949.063 1.763.519 2.415 1.066.665.589 1.067 1.204 1.194 1.997.165.78.154 1.601.028 2.437-.12.8-.309 1.737-.53 2.563-.484 1.702-1.018 3.39-1.766 4.967a23.42 23.42 0 0 1-1.34 2.512c-.492-.8-.94-1.638-1.337-2.514-.75-1.575-1.28-3.263-1.765-4.967-.418-1.73-.838-3.434-.503-4.998.07-.387.198-.76.387-1.068a4.22 4.22 0 0 1 .805-.927c.649-.547 1.463-1.005 2.412-1.068-.916-.296-1.98-.138-2.908.284a4.525 4.525 0 0 0-1.305.883c-.42.399-.713.87-.947 1.359-.883 2.002-.727 4.127-.512 6.014.213 1.944.734 3.836 1.402 5.695.722 1.838 1.669 3.626 2.981 5.258l1.291 1.603 1.287-1.603c1.308-1.634 2.261-3.418 2.979-5.26.668-1.857 1.185-3.752 1.4-5.693a24.9 24.9 0 0 0 .132-1.446c.037-.51.054-1 .023-1.512-.052-1.014-.224-2.075-.668-3.054-.43-.995-1.329-1.861-2.25-2.242zM153.18 49.39l1.291 1.606 1.287-1.606c1.308-1.634 2.261-3.417 2.979-5.26.668-1.857 1.185-3.749 1.4-5.692.058-.5.106-.995.132-1.446.037-.51.054-.998.023-1.512-.052-1.014-.224-2.072-.668-3.054-.43-.995-1.329-1.859-2.25-2.239-.925-.425-1.99-.582-2.905-.289.949.064 1.763.52 2.415 1.066.665.59 1.067 1.207 1.194 1.998.165.779.154 1.6.028 2.438-.12.799-.309 1.735-.53 2.561-.484 1.702-1.018 3.392-1.766 4.967-.4.873-.85 1.714-1.34 2.512a22.586 22.586 0 0 1-1.337-2.514c-.75-1.575-1.28-3.263-1.765-4.965-.418-1.73-.838-3.436-.503-4.997.07-.39.198-.763.387-1.07a4.22 4.22 0 0 1 .805-.928c.649-.546 1.463-1.002 2.412-1.068-.916-.293-1.98-.138-2.908.287a4.478 4.478 0 0 0-1.305.882c-.42.4-.713.871-.947 1.36-.883 2.002-.727 4.126-.512 6.013.213 1.941.734 3.833 1.402 5.692.722 1.84 1.669 3.627 2.981 5.258zm44.286 24.987l1.068-1.066c-.004-.005-.009-.005-.01-.005-.005 0-.007.002-.01.005l-1.048 1.066zm.028-3.169a3.717 3.717 0 0 1 5.255-.003 3.728 3.728 0 0 1 0 5.262 3.702 3.702 0 0 1-2.627 1.089 3.71 3.71 0 0 1-2.628-1.086 3.708 3.708 0 0 1-1.09-2.632c0-.992.389-1.928 1.09-2.63zm6.472-3.085a3.196 3.196 0 0 0 0-4.51 3.195 3.195 0 0 0-4.507 0 3.196 3.196 0 0 0 0 4.51 3.183 3.183 0 0 0 4.507 0zm10.486 84.387c-.601.383-1.339.772-2.262 1.089-1.581.556-3.71.821-6.043.365-2.341-.414-4.82-1.542-7.189-3.17a30.617 30.617 0 0 1-2.554-2.057c.391.456.78.92 1.185 1.337 1.166 1.182 2.384 2.206 3.638 3.02 1.29.837 2.43 1.486 3.636 1.746 2.477.597 4.835.118 6.605-.551a10.243 10.243 0 0 0 2.984-1.78zm-37.157-41.682c-.68-1.27-1.434-2.487-2.386-3.551-2.819-3.255-7.877-4.008-11.784-2.203-1.941.91-3.626 2.365-4.76 4.142-.564.883-.993 1.838-1.183 2.823-.042.171-.037.387-.059.576a11.124 11.124 0 0 1 5.024-4.535 12.94 12.94 0 0 1 5.683-1.193c1.902.03 3.855.52 5.592 1.335 1.422.669 2.695 1.584 3.873 2.606zm-16.987 8.97c.126.256.296.472.451.703.072-.085.136-.167.22-.266.566-.59 1.478-1.591 3.292-2.004.944-.187 2.045-.046 3.066.554 1.01.523 2.008 1.95 1.616 3.465-.308 1.429-1.64 2.693-3.26 3.045-.106.026-.212.026-.318.044.187.01.375.035.564.021a4.818 4.818 0 0 0 1.962-.486c.271-.137.564-.34.717-.468.3-.28.449-.433.619-.695.66-.96.788-2.281.431-3.353-.355-1.061-1.168-1.983-2.149-2.578-1.986-1.218-4.406-1.13-5.801-.262-.99.575-1.346 1.487-1.41 2.28zm4.436 2.35c.871-.09 1.544-.512 1.82-1.055.267-.501.055-1.054-.534-1.479-.572-.415-1.356-.617-2.018-.624-1.465.022-2.61.69-3.305 1.119-.179.112-.266.18-.399.27.437.466.925.88 1.487 1.154.928.476 2.065.734 2.95.615zm52.893 27.85l-.195.384a7.009 7.009 0 0 1-.64 1.092c-.63.906-1.76 2.165-3.605 3.214-1.833 1.027-4.413 1.82-7.474 1.497-1.57-.16-3.179-.77-4.577-1.564-1.458-.783-2.888-1.79-4.265-2.968-2.76-2.352-5.245-5.453-7.22-9.046-2.05-3.614-3.49-7.621-4.706-11.818-1.199-4.185-2.249-8.505-3.503-12.749-.237-.793-.49-1.586-.747-2.374-1.008-1.202-2.097-2.293-3.303-3.188a15.559 15.559 0 0 0-4.184-2.386c-1.476-.53-2.953-.86-4.47-.793a9.689 9.689 0 0 0-4.08 1.083c-1.233.648-2.297 1.513-3.032 2.542-.364.525-.669 1.047-.864 1.653-.178.426-.144.51-.24.808-.041.293-.107.584-.107.884-.024.402.04.793.086 1.187a4.385 4.385 0 0 1 1.05-1.438c1.718-1.596 4.925-2.123 7.805-.594.386.207.767.46 1.138.747.222.113.442.221.7.37a17.149 17.149 0 0 1 5.349 4.72 19.93 19.93 0 0 1 1.264 2.062c.335.621.696 1.562.92 2.382.35 1.261.44 2.643.325 4.027.14.7.259 1.434.303 2.227.058.978.12 2.03.002 3.103-.075 1.077-.212 2.192-.473 3.3-.237 1.114-.594 2.22-1.006 3.301a23.166 23.166 0 0 1-1.509 3.104c-.561.995-1.254 1.881-1.913 2.736-1.362 1.682-2.998 2.96-4.22 3.894-1.238.97-2.144 1.833-2.62 2.616-.49.766-.618 1.335-.618 1.335s-.019-.138-.058-.399a4.173 4.173 0 0 1 .03-1.177c.136-1.027.8-2.436 1.835-3.774l1.608-2.071c.547-.695 1.043-1.476 1.585-2.254.507-.808.966-1.672 1.43-2.552.437-.891.869-1.803 1.228-2.748.124-.308.207-.628.32-.939a36.675 36.675 0 0 1-1.516 1.872 36.695 36.695 0 0 1-4.116 3.953c-1.4 1.17-2.702 2.318-3.78 3.5a17.684 17.684 0 0 0-2.561 3.594c-.61 1.217-.982 2.424-1.026 3.561-.068 1.168.179 2.099.598 3.025.423.88.952 1.567 1.504 2.047.55.488 1.047.751 1.435.899.39.148.52.204.52.204v.353s-.136.054-.612.1c-.474.028-1.092-.027-1.97-.34-.874-.312-1.873-.948-2.73-1.967-.42-.513-.851-1.096-1.156-1.803-.152-.357-.3-.7-.418-1.153-.136-.54-.178-.61-.249-1.207-.197-1.682.08-3.552.833-5.258.683-1.702 1.923-3.338 3.283-4.621 1.394-1.313 2.956-2.407 4.508-3.424 1.543-1.042 3.176-1.88 4.685-2.901 1.506-1.008 2.887-2.25 3.768-3.791.037-.064.059-.135.096-.2.102-.406.2-.812.266-1.216.28-1.466.449-2.852.551-4.153-.222-1.399-.622-2.7-1.061-3.877a27.408 27.408 0 0 0-.82-1.983c-.255-.564-.591-1.2-.918-1.74-.267-.462-.545-.885-.82-1.304.046 1.22-.169 2.485-.83 3.67-.252.473-.672.975-.984 1.298-.474.478-.901.783-1.399 1.084a7.559 7.559 0 0 1-3.222.975c-1.133.099-2.292-.088-3.4-.505l-.41-.177-.24-.113-.158-.084a8.767 8.767 0 0 1-.716-.411 9.635 9.635 0 0 1-1.352-1.015c-3.47-2.956-4.777-7.862-4.462-12.286.117-1.143.13-2.187.547-3.424.376-1.135.957-2.172 1.64-3.115 1.413-1.838 3.247-3.375 5.378-4.335 2.13-.968 4.53-1.345 6.903-1.104 2.35.21 4.804 1.2 6.573 2.86 1.936 1.707 3.379 3.77 4.536 5.95a41.209 41.209 0 0 1 2.873 3.934c1.542 2.384 3.249 5.222 4.491 8.55.632 1.657 1.22 3.398 1.933 5.108.699 1.714 1.57 3.374 2.51 4.985.927 1.502 2.45 2.635 3.896 3.027a4.192 4.192 0 0 0 1.974.116c-.068.002.462-.099.44-.13l.285-.156c.225-.143.432-.32.615-.525.747-.874.891-1.955.55-2.652-.274-.737-1.17-1.446-1.978-1.636-.81-.212-1.596.018-2.113.51a1.422 1.422 0 0 0-.447.74c-.051-.122-.017.218-.017.218s-.03.035-.005.106c.015.123.08.24.146.362.296.5.825.715 1.148.7.341.005.534-.15.534-.138l.256.234c-.014-.015-.092.276-.58.579-.494.256-1.404.36-2.356-.232a2.405 2.405 0 0 1-.664-.635 2.154 2.154 0 0 1-.288-.527c-.073-.23-.09-.126-.154-.493-.16-.727.003-1.571.383-2.29.723-1.42 2.527-2.572 4.519-2.412 1.945.106 3.964 1.212 5.026 3.44.456 1.016.608 2.479.256 3.607a6.306 6.306 0 0 1-1.894 3.005c-.46.394-.979.729-1.55.98a5.701 5.701 0 0 1-.962.308c-.447.096-.366.059-.881.106a5.805 5.805 0 0 1-3.303-.907c-1.884-1.2-2.985-2.985-3.852-4.748-.712-1.454-1.452-2.885-2.27-4.254.173.707.335 1.433.518 2.172.54 2.422 1.98 4.754 4.081 6.242 1.04.773 2.104 1.325 3.13 1.899 1.032.544 2.086.94 3.107 1.172 1.037.246 1.945.33 2.956.37.788-.008 1.765-.106 2.543-.32a9.55 9.55 0 0 0 3.752-1.848c.432-.335.735-.662.94-.892.212-.234.327-.357.327-.357l.322.126s.022.727-.466 1.938c-.479 1.197-1.66 2.826-3.708 3.924-1.047.532-2.172.95-3.64 1.076-1.242.143-2.73-.061-4.051-.53-.938-.327-1.817-.807-2.661-1.344 1.489 1.64 3.022 3.084 4.613 4.268 1.995 1.537 4.025 2.599 5.922 3.193 1.904.588 3.662.662 5.11.487a9.372 9.372 0 0 0 3.263-.975c.71-.345 1.086-.626 1.086-.626l.173.207.115.064zm17.225-62.428c-1.385-1.478-2.762-2.865-4.364-3.585-.041-.018-.082-.036-.121-.055.52.446.93.856 1.207 1.136.603.601 1.182 1.239 1.767 1.876 1.545 1.698 3.007 3.3 4.806 4.143.233.109.472.204.713.282-1.414-1.021-2.6-2.289-3.753-3.525l-.255-.272zm-12.693-4.456l-.087-.15c2.798-1.657 5.97-3.533 9.558-4.151 4.22-.735 8.367.652 10.57 3.527l-2.711 2.102c-1.307-1.702-3.794-2.521-6.478-2.284 1.817.944 3.325 2.335 4.704 3.724l.253.257c1.32 1.334 2.569 2.595 4.046 3.385 1.193.635 2.945 1.055 4.285.33l10.609-5.763-8.596 8.505c-2.006 1.983-4.534 3.02-7.115 3.02a9.922 9.922 0 0 1-4.022-.862c-2.393-1.057-4.145-2.87-5.84-4.626-.539-.56-1.076-1.118-1.636-1.646-2.34-2.212-4.198-2.932-6.022-2.328l-9.235 3.04 7.647-6.032c.022-.02.048-.031.07-.048zm9.27 29.501c-.938.282-1.835.618-2.671.995-.425.212-.845.421-1.238.656l-.537.342c-.2.149-.45.312-.608.444a9.672 9.672 0 0 0-1.707 1.803c-.982 1.331-1.54 2.783-1.7 4.136-.085.663.01 1.382.112 1.915l.163.596.15.387c.104.26.26.572.425.834.679 1.149 1.632 2.052 2.619 2.766a7.437 7.437 0 0 1-.663-1.01c-.449-.9-.834-1.943-.87-3.09-.047-1.144.318-2.348.89-3.439.588-1.108 1.239-2.055 1.938-3.076.704-.983 1.438-1.99 2.31-2.954.423-.459.886-.9 1.386-1.305zm-3.31-7.19c6.412.014 12.687 1.631 18.16 4.36 2.752 1.338 5.286 3.046 7.532 4.913a27.57 27.57 0 0 1 4.158 4.292 27.833 27.833 0 0 0-3.217-5.732 26.19 26.19 0 0 0-1.433-1.78 42.52 42.52 0 0 0-4.216-3.911c-.273-.218-.574-.424-.854-.64a32.726 32.726 0 0 0-6.584-3.506c-2.826-1.121-5.915-1.818-9.086-2.23-3.171-.382-6.422-.362-9.716.002-6.567.63-13.22 2.348-19.777 2.662-6.5.376-12.93-.625-17.463-3.726-2.252-1.5-3.88-3.683-4.387-5.866a7.374 7.374 0 0 1 .893-5.488c.806-1.342 1.904-2.02 2.657-2.293.772-.283 1.199-.252 1.197-.28.007.012-.104.028-.304.093.612-.057.967.132.921.086l-.048.338c.015.046-.857-.27-1.873.628-.477.431-.958 1.17-1.018 2.068-.072.86.427 1.898 1.37 2.59.976.705 2.214 1.13 3.686.995 1.419-.13 2.94-.805 3.99-1.996 1.056-1.165 1.56-2.928 1.343-4.64-.207-1.708-1.358-3.278-3.072-4.296-3.4-2.125-8.78-1.708-12.31 1.359-1.752 1.502-3.031 3.743-3.405 6.192-.396 2.449.393 5.087 1.909 7.392 3.108 4.63 8.408 8.143 14.093 10.103 2.882.942 5.906 1.536 8.963 1.68 3.094.1 6.116-.24 9.193-.731 6.098-1.033 12.25-2.653 18.698-2.638zm-34.253-9.518c-1.875-.2-3.426-.674-4.721-1.08-1.814-.017-3.494-.623-4.556-1.684-1.147-1.045-1.688-2.485-1.44-3.695.016-.075.045-.133.065-.206l-.007.012c-.595 1.218-.895 2.986-.26 4.696.657 1.73 2.18 3.305 4.243 4.457 2.052 1.153 4.658 1.857 7.408 2.244 2.774.378 5.766.336 8.858.077 6.188-.548 12.773-2.25 19.745-2.983a47.358 47.358 0 0 1 9.289-.002c-2.296-.805-4.631-1.498-6.986-1.967-3.004-.585-5.894-.956-8.84-1.01a76.86 76.86 0 0 0-8.434.331c-2.723.292-5.3.57-7.677.824-2.417.238-4.704.233-6.687-.014zm71.606 13.521l.05.19s-.224.145-.466.494c-.264.345-.577.975-.68 1.801-.132.801.099 1.833.632 2.315.561.588 1.494.73 1.94.106.526-.508.768-2.125.398-3.146-.222-.762-.946-1.532-1.874-1.76zm-7.226 5.796c.044-.392.078-.787.17-1.172.577-2.249 1.854-4.41 4.285-5.382 1.148-.429 2.428-.567 3.676-.26.623.16 1.224.411 1.789.804l.44.363.27.258c.292.329.477.558.655.872 1.306 2.448.589 5.277-1.448 6.778-1.051.709-2.338.87-3.358.623a4.553 4.553 0 0 1-2.47-1.476 3.8 3.8 0 0 1-.552-4.3c.543-1.06 1.336-1.567 1.874-1.783.114-.042.163-.044.253-.071-.212-.005-.411-.041-.63-.01a4.434 4.434 0 0 0-1.234.356c-.51.263-.776.49-1.148.857-.686.683-1.144 1.625-1.377 2.612-.336 1.318-.117 2.675.36 3.952.124.282.238.567.35.852.18.37.365.741.582 1.087.581.916 1.175 1.637 1.949 2.478a27.383 27.383 0 0 0 2.197 2.117 19.427 19.427 0 0 0 4.97 3.145c.886.368 1.725.7 2.626.982.827.236 1.69.448 2.491.572 1.626.212 3.11.108 4.353-.411 1.26-.47 2.238-1.365 2.783-2.205.582-.98.725-1.978.674-2.84-.131-1.748-1.085-2.559-1.031-2.561l.209-.276c-.07.017 1.292.395 2.16 2.507.412 1.006.594 2.5.093 4.02-.55 1.632-1.776 3.097-3.504 4.113-1.727 1.013-3.956 1.442-6.116 1.242a13.483 13.483 0 0 1-3.236-.64c-1.01-.325-2.08-.734-3.068-1.28a21.903 21.903 0 0 1-5.516-4.156 17.464 17.464 0 0 1-1.146-1.33c.048.884.024 1.717-.034 2.514.078.356.14.706.185.996.11.76.133 1.543.124 2.242-.085 2.884-.98 5.637-2.606 7.827-1.608 2.2-4.034 3.708-6.535 4.071-2.487.42-5.066-.333-6.71-2.012-1.604-1.608-2.32-3.903-1.85-5.852.506-2.015 1.947-3.323 3.46-3.844.774-.258 1.513-.332 2.285-.185.27.058.632.165.956.321a4.44 4.44 0 0 1 2.345 3.023c.31 1.63-.387 2.39-.314 2.378l-.311-.148c-.058.014.443-.738-.007-2.056a3.763 3.763 0 0 0-1.487-1.9 3.612 3.612 0 0 0-.645-.32c-.209-.07-.42-.122-.759-.158a3.268 3.268 0 0 0-1.552.326c-1.037.483-2.005 1.618-2.2 2.887-.216 1.338.407 2.865 1.609 3.893 2.348 2.1 7.111 1.287 9.26-2.175 1.124-1.679 1.727-3.867 1.676-6.09-.02-.58-.078-1.083-.153-1.609a12.551 12.551 0 0 0-.414-1.715 15.07 15.07 0 0 0-1.491-3.252c-.837-1.357-1.883-2.641-3.066-3.86-.085-.072-.155-.146-.246-.216-1.097-.994-2.394-1.932-3.749-2.943-1.353-1.019-2.796-2.115-4.426-3.09-.206-.13-.447-.216-.664-.338a41.945 41.945 0 0 0-2.642-.234c-.803-.06-1.664-.068-2.553-.068-.883.041-1.83.058-2.725.144-1.019.1-1.927.265-2.914.58-.954.326-1.988.633-2.971 1.13-.988.48-1.881 1.199-2.484 2.107-.609.87-.937 1.988-.913 2.98.01 1.01.246 1.924.394 2.75.159.826.287 1.61.521 2.312.4 1.428 1.02 2.556 1.54 3.37.336.519.667.92.837 1.13l.662.22-.027.343s-.27.027-.771.073c-.504.02-1.25.02-2.204-.11a11.302 11.302 0 0 1-3.375-.998 10.225 10.225 0 0 1-3.774-2.968 8.969 8.969 0 0 1-.78-1.213l-.359-.729-.23-.58c-.37-1.069-.49-2.082-.473-3.19.037-2.189.915-4.376 2.321-6.135a12.716 12.716 0 0 1 2.524-2.386c.24-.175.43-.282.65-.426.316-.202.515-.297.78-.448a13.525 13.525 0 0 1 1.557-.702c.36-.139.73-.231 1.098-.334-.772.056-1.553.074-2.321.15-2.1.17-4.183.47-6.263.766l-.287.037c-.978.292-1.961.58-2.903.923l-1.878.743c-.664.278-1.224.539-1.828.85-1.172.605-2.294 1.28-3.299 2.072-1.017.772-1.939 1.637-2.693 2.604-.316.429-.769 1.006-1.034 1.479a9.285 9.285 0 0 0-.733 1.586c-.834 2.185-.82 4.748.2 6.9l2.197 4.635-4.348-2.533a7.16 7.16 0 0 1-2.737-2.936 8.467 8.467 0 0 1-.88-3.667c-.045-2.426.744-4.848 2.206-6.64 1.399-1.828 3.24-3.173 5.15-4.289a44.216 44.216 0 0 1 5.46-2.619c-.924.103-1.851.203-2.783.285-6.326.665-12.956.354-18.893-1.834-2.983-1.033-5.793-2.449-8.413-4.105-2.562-1.703-5.07-3.608-6.966-6.098-1.903-2.444-3.19-5.613-2.937-8.846a12.458 12.458 0 0 1 3.93-8.293c4.583-4.193 11.423-4.58 16.01-1.62 2.289 1.45 3.984 3.954 4.174 6.563.244 2.563-.747 4.994-2.365 6.573-1.053 1.018-2.272 1.64-3.508 1.988.8.107 1.657.185 2.581.178 1.905.012 4.03-.254 6.36-.668 4.638-.894 10.25-2.205 16.438-2.287 3.049-.042 6.35.19 9.518.818a53.97 53.97 0 0 1 9.458 2.76c6.134 2.478 11.776 6.042 16.377 10.18 2.94 2.596 5.443 5.534 7.265 8.575zM160.05 51.347c1.095-.506 2.091-.96 3.335-1.859.592-.501 1.06-.94 1.546-1.675.466-.68.769-1.688.666-2.616-.037-.45-.214-1.028-.47-1.374a2.884 2.884 0 0 0-1.062-.965c-.768-.418-1.516-.411-2.13-.288-.62.113-1.112.427-1.435.708-.343.276-.555.57-.73.803-.328.475-.472.77-.472.77l.857-.244c.517-.15 1.286-.338 1.86-.155.294.086.571.276.68.443.05.077.078.186.031.195.012.135-.016.114-.033.232-.048.216-.165.379-.393.669a7.337 7.337 0 0 1-.98.921c-.732.527-1.868 1.27-2.74 1.929a28.296 28.296 0 0 0-2.442 1.975c-1.398 1.235-2.199 2.304-2.199 2.304s1.337-.097 3.13-.654a22.54 22.54 0 0 0 2.981-1.119zm-49.106 26.209a3.71 3.71 0 0 0 2.628-1.086l.002-.003a3.73 3.73 0 0 0-.002-5.262 3.717 3.717 0 0 0-6.345 2.633c0 .994.389 1.927 1.09 2.63a3.697 3.697 0 0 0 2.627 1.088zm-.404-9.433a3.192 3.192 0 0 0 0-4.51 3.192 3.192 0 0 0-4.505 0 3.196 3.196 0 0 0 0 4.51 3.175 3.175 0 0 0 2.254.934c.815 0 1.63-.312 2.251-.934zm22.166 42.705c1.178-1.022 2.451-1.937 3.87-2.606 1.74-.816 3.693-1.306 5.595-1.335a12.94 12.94 0 0 1 5.683 1.193 11.136 11.136 0 0 1 5.024 4.535c-.022-.189-.017-.405-.061-.576-.188-.985-.617-1.94-1.18-2.823-1.135-1.777-2.82-3.232-4.761-4.142-3.907-1.805-8.965-1.052-11.784 2.203-.952 1.064-1.705 2.28-2.386 3.55zm11.356 14.532c.19.014.377-.011.564-.02-.106-.02-.212-.02-.318-.045-1.62-.352-2.952-1.616-3.26-3.045-.392-1.515.606-2.942 1.616-3.465 1.02-.6 2.122-.741 3.066-.554 1.814.413 2.726 1.413 3.292 2.004.084.1.148.18.217.266.158-.231.328-.447.454-.704-.064-.792-.422-1.704-1.41-2.279-1.395-.868-3.817-.956-5.801.262-.98.595-1.797 1.517-2.149 2.578-.357 1.072-.23 2.392.431 3.353.17.262.318.415.616.695.156.127.446.331.72.468.572.28 1.25.465 1.962.486zm5.63-4.982c-.132-.09-.219-.157-.398-.27-.695-.428-1.84-1.096-3.305-1.118-.662.007-1.446.209-2.018.624-.589.425-.8.978-.535 1.479.277.543.95.965 1.82 1.055.883.12 2.022-.139 2.947-.615.565-.274 1.053-.688 1.49-1.155zm-37.28 29.696c.405-.417.794-.88 1.185-1.337a30.614 30.614 0 0 1-2.554 2.058c-2.368 1.627-4.847 2.755-7.188 3.17-2.333.455-4.46.19-6.044-.366a10.597 10.597 0 0 1-2.262-1.09c.725.619 1.7 1.286 2.986 1.78 1.77.67 4.128 1.148 6.605.551 1.205-.26 2.343-.909 3.634-1.746 1.255-.814 2.472-1.838 3.638-3.02zm2.355-6.694c-.842.537-1.72 1.017-2.658 1.345-1.32.468-2.81.672-4.055.53-1.464-.126-2.59-.545-3.637-1.077-2.048-1.098-3.23-2.727-3.708-3.924-.488-1.211-.468-1.938-.468-1.938l.324-.126s.115.123.327.357c.205.23.508.557.938.892a9.585 9.585 0 0 0 3.752 1.847c.78.215 1.755.313 2.543.32 1.013-.039 1.921-.123 2.959-.369a12.779 12.779 0 0 0 3.105-1.172c1.027-.574 2.091-1.126 3.131-1.9 2.102-1.487 3.542-3.82 4.082-6.24.183-.74.344-1.466.517-2.173-.82 1.37-1.557 2.8-2.272 4.254-.865 1.763-1.968 3.549-3.85 4.748a5.807 5.807 0 0 1-3.305.907c-.513-.047-.432-.01-.879-.106a5.702 5.702 0 0 1-.961-.308 6.25 6.25 0 0 1-1.553-.98 6.283 6.283 0 0 1-1.892-3.005c-.351-1.128-.2-2.591.257-3.606 1.061-2.23 3.078-3.335 5.023-3.441 1.994-.16 3.798.993 4.52 2.411.382.72.545 1.564.384 2.29-.063.368-.08.264-.154.494a2.24 2.24 0 0 1-.288.527c-.2.278-.427.485-.664.635-.952.591-1.862.488-2.355.232-.488-.303-.567-.594-.581-.58l.256-.233c0-.012.193.143.535.138.322.015.852-.2 1.147-.7.066-.123.132-.239.146-.362.022-.071-.004-.106-.004-.106s.034-.34-.018-.219a1.422 1.422 0 0 0-.446-.739c-.518-.492-1.304-.722-2.114-.51-.81.19-1.704.9-1.977 1.636-.342.697-.198 1.778.549 2.652.183.205.39.382.613.525l.288.155c-.022.032.507.133.439.13.59.112 1.257.097 1.975-.115 1.445-.392 2.968-1.525 3.896-3.027.94-1.61 1.81-3.271 2.509-4.985.713-1.71 1.3-3.451 1.933-5.109 1.243-3.327 2.949-6.165 4.492-8.549a41.209 41.209 0 0 1 2.873-3.933c1.157-2.18 2.6-4.244 4.535-5.951 1.77-1.66 4.223-2.65 6.574-2.86 2.372-.241 4.772.136 6.903 1.104 2.13.96 3.964 2.497 5.377 4.335.684.943 1.265 1.98 1.64 3.115.418 1.237.43 2.281.547 3.424.315 4.424-.99 9.33-4.462 12.286-.422.377-.85.7-1.352 1.015-.264.165-.52.315-.715.41l-.16.085-.238.113-.41.177c-1.109.417-2.27.604-3.4.505a7.559 7.559 0 0 1-3.223-.975 6.747 6.747 0 0 1-1.398-1.084c-.315-.323-.735-.825-.984-1.298-.662-1.185-.879-2.45-.83-3.67-.278.419-.554.842-.823 1.303a18.256 18.256 0 0 0-.918 1.741c-.329.744-.556 1.264-.817 1.983-.44 1.178-.842 2.478-1.062 3.877.102 1.3.268 2.687.552 4.153.065.404.163.81.266 1.217.036.064.058.135.097.199.88 1.542 2.26 2.783 3.767 3.79 1.508 1.023 3.141 1.86 4.684 2.902 1.552 1.017 3.12 2.111 4.51 3.424 1.36 1.283 2.605 2.919 3.289 4.62.75 1.707 1.035 3.577.837 5.26-.07.595-.1.667-.237 1.206a7.495 7.495 0 0 1-1.494 2.956c-.859 1.02-1.75 1.655-2.624 1.968-.878.312-1.386.367-1.86.34-.476-.047-.292-.101-.292-.101v-.353s-.19-.056.2-.204c.388-.148.517-.411 1.064-.9a6.389 6.389 0 0 0 1.53-2.046c.42-.926.677-1.857.61-3.025-.043-1.137-.41-2.344-1.02-3.561a17.667 17.667 0 0 0-2.558-3.594c-1.076-1.182-2.377-2.33-3.776-3.5a36.923 36.923 0 0 1-4.118-3.953 36.626 36.626 0 0 1-1.513-1.872c.112.31.195.63.32.939.358.945.79 1.857 1.227 2.748.464.88.923 1.744 1.43 2.552.543.778 1.038 1.56 1.585 2.254.569.736 1.11 1.43 1.608 2.071 1.033 1.338 1.7 2.747 1.836 3.774.09.51.054.913.03 1.177l-.06.399s-.126-.569-.617-1.335c-.476-.783-1.381-1.645-2.619-2.616-1.225-.933-2.858-2.212-4.22-3.894-.66-.855-1.353-1.741-1.914-2.736a22.874 22.874 0 0 1-1.509-3.104c-.412-1.081-.769-2.187-1.005-3.3-.264-1.109-.398-2.224-.474-3.3-.12-1.075-.056-2.126.003-3.104.043-.793.163-1.53.302-2.227-.115-1.384-.024-2.766.325-4.027.224-.82.586-1.761.918-2.382a20.36 20.36 0 0 1 1.267-2.061 17.149 17.149 0 0 1 5.348-4.722c.258-.148.478-.256.7-.37.371-.285.752-.539 1.138-.746 2.878-1.53 6.085-1.002 7.806.594.481.433.818.933 1.05 1.438.046-.394.11-.785.085-1.187-.002-.3-.066-.591-.107-.884-.095-.298-.061-.382-.24-.808-.195-.606-.502-1.128-.864-1.653-.737-1.03-1.799-1.894-3.031-2.542a9.689 9.689 0 0 0-4.082-1.083c-1.515-.067-2.992.263-4.472.793a15.583 15.583 0 0 0-4.18 2.386c-1.207.895-2.295 1.986-3.306 3.188-.254.788-.508 1.581-.745 2.374-1.254 4.244-2.304 8.564-3.502 12.749-1.216 4.197-2.656 8.204-4.707 11.818-1.974 3.593-4.46 6.694-7.22 9.046-1.377 1.178-2.807 2.185-4.264 2.968-1.4.793-3.008 1.404-4.577 1.564-3.061.323-5.641-.47-7.475-1.497-1.845-1.05-2.975-2.308-3.605-3.214a7.009 7.009 0 0 1-.64-1.092l-.195-.384.115-.064.173-.207s.376.281 1.087.626a9.372 9.372 0 0 0 3.263.975c1.448.175 3.205.101 5.107-.487 1.896-.594 3.93-1.656 5.924-3.193 1.592-1.184 3.124-2.628 4.611-4.268zM77.5 97.743a47.36 47.36 0 0 1 9.29.002c6.97.732 13.557 2.435 19.745 2.983 3.091.26 6.083.301 8.857-.077 2.75-.387 5.357-1.091 7.408-2.244 2.061-1.152 3.584-2.726 4.244-4.457.635-1.71.332-3.478-.26-4.696l-.007-.012c.02.073.048.131.065.206.248 1.21-.293 2.65-1.44 3.695-1.062 1.061-2.742 1.667-4.556 1.684-1.297.406-2.85.88-4.721 1.08-1.986.247-4.27.252-6.688.014-2.379-.254-4.954-.532-7.68-.824a76.818 76.818 0 0 0-8.43-.33c-2.946.053-5.837.424-8.841 1.01-2.357.468-4.69 1.16-6.986 1.966zm38.722-6.74c1.05 1.192 2.57 1.867 3.987 1.997 1.475.134 2.713-.29 3.688-.995.94-.692 1.443-1.73 1.37-2.59-.06-.899-.54-1.637-1.018-2.068-1.016-.899-1.887-.582-1.873-.628l-.05-.338c-.044.046.31-.143.924-.086-.2-.065-.314-.081-.304-.093-.003.028.425-.003 1.197.28.753.273 1.848.951 2.657 2.293a7.374 7.374 0 0 1 .893 5.488c-.507 2.183-2.136 4.366-4.388 5.866-4.532 3.1-10.963 4.102-17.462 3.726-6.557-.314-13.21-2.032-19.778-2.662-3.294-.364-6.544-.384-9.718-.003-3.169.413-6.258 1.11-9.086 2.231a32.857 32.857 0 0 0-6.584 3.506c-.277.216-.579.422-.852.64a42.57 42.57 0 0 0-4.218 3.913c-.504.58-.987 1.167-1.431 1.778a27.833 27.833 0 0 0-3.217 5.732 27.57 27.57 0 0 1 4.158-4.292c2.247-1.867 4.78-3.575 7.532-4.912 5.473-2.73 11.748-4.347 18.158-4.361 6.45-.015 12.6 1.605 18.7 2.638 3.078.491 6.1.831 9.193.73 3.058-.143 6.082-.737 8.963-1.679 5.686-1.96 10.985-5.473 14.094-10.103 1.515-2.305 2.305-4.943 1.909-7.392-.374-2.45-1.653-4.69-3.405-6.192-3.531-3.067-8.91-3.484-12.31-1.359-1.714 1.018-2.865 2.588-3.073 4.297-.22 1.71.287 3.474 1.344 4.639zM82.47 114.267a18.935 18.935 0 0 0-1.238-.656 21.236 21.236 0 0 0-2.67-.995c.497.404.963.846 1.385 1.305.873.964 1.607 1.971 2.311 2.954.7 1.021 1.35 1.968 1.938 3.076.57 1.091.937 2.295.89 3.44-.036 1.146-.421 2.189-.872 3.09a7.188 7.188 0 0 1-.66 1.01c.984-.715 1.937-1.618 2.618-2.767.166-.262.319-.574.425-.834l.15-.387.163-.596c.101-.533.197-1.252.112-1.915-.163-1.353-.72-2.805-1.7-4.136a9.757 9.757 0 0 0-1.707-1.803c-.158-.132-.409-.295-.608-.444l-.537-.342zm-38.003-4.649l.051-.189c-.928.228-1.652.998-1.873 1.76-.37 1.02-.13 2.638.397 3.146.447.624 1.379.482 1.94-.106.533-.482.764-1.514.632-2.315-.105-.826-.418-1.456-.68-1.8-.242-.35-.467-.496-.467-.496zm-19.745 18.095c-.503-1.52-.318-3.014.093-4.02.868-2.112 2.23-2.49 2.16-2.507l.21.276c.053.002-.9.813-1.032 2.56a4.933 4.933 0 0 0 .671 2.84c.548.841 1.526 1.735 2.786 2.206 1.241.519 2.728.623 4.35.411a21.044 21.044 0 0 0 2.495-.572c.9-.283 1.74-.614 2.625-.982a19.426 19.426 0 0 0 4.97-3.145 27.383 27.383 0 0 0 2.198-2.117c.773-.84 1.367-1.562 1.948-2.478a11.6 11.6 0 0 0 .582-1.087c.11-.285.226-.57.35-.852.477-1.277.696-2.634.36-3.952-.236-.987-.69-1.93-1.377-2.612-.372-.367-.637-.594-1.148-.857a4.434 4.434 0 0 0-1.234-.356c-.219-.031-.418.005-.63.01.09.027.139.03.253.07.536.217 1.331.724 1.874 1.784a3.8 3.8 0 0 1-.553 4.3 4.562 4.562 0 0 1-2.47 1.476c-1.019.246-2.306.086-3.357-.623-2.039-1.501-2.754-4.33-1.45-6.778.18-.314.365-.543.657-.872l.27-.258.44-.363a5.472 5.472 0 0 1 1.789-.804c1.248-.307 2.528-.169 3.676.26 2.428.972 3.708 3.133 4.285 5.382.092.385.126.78.17 1.172 1.822-3.04 4.324-5.979 7.265-8.576 4.601-4.137 10.243-7.7 16.375-10.179a53.994 53.994 0 0 1 9.46-2.76c3.167-.628 6.469-.86 9.518-.818 6.187.082 11.797 1.393 16.437 2.287 2.329.414 4.455.68 6.36.668.925.007 1.781-.07 2.582-.178-1.236-.348-2.455-.97-3.509-1.988-1.618-1.579-2.61-4.01-2.365-6.573.19-2.61 1.884-5.114 4.175-6.563 4.587-2.96 11.426-2.573 16.01 1.62a12.458 12.458 0 0 1 3.93 8.293c.252 3.233-1.037 6.402-2.937 8.846-1.896 2.49-4.404 4.395-6.966 6.098-2.623 1.656-5.43 3.072-8.414 4.105-5.936 2.188-12.566 2.5-18.895 1.834-.93-.082-1.856-.182-2.78-.285 1.865.748 3.71 1.62 5.457 2.62 1.912 1.115 3.754 2.46 5.153 4.287 1.462 1.793 2.248 4.215 2.207 6.641a8.501 8.501 0 0 1-.881 3.667 7.15 7.15 0 0 1-2.74 2.936l-4.348 2.533 2.2-4.636c1.02-2.151 1.031-4.714.2-6.9a9.285 9.285 0 0 0-.733-1.585c-.265-.473-.72-1.05-1.034-1.48-.757-.966-1.676-1.831-2.694-2.603-1.004-.792-2.126-1.467-3.299-2.071a23.932 23.932 0 0 0-1.827-.85l-1.878-.744c-.944-.343-1.925-.63-2.903-.923l-.287-.037c-2.08-.297-4.163-.596-6.263-.767-.769-.075-1.55-.093-2.323-.149.37.103.74.195 1.1.334.535.198 1.05.439 1.557.702.265.15.464.246.78.448.22.144.407.251.65.426a12.716 12.716 0 0 1 2.523 2.386c1.407 1.759 2.285 3.946 2.319 6.134.017 1.109-.1 2.122-.472 3.192l-.229.58-.357.728c-.25.463-.497.84-.781 1.213a10.225 10.225 0 0 1-3.774 2.968c-1.258.596-2.42.872-3.375.998-.953.13-1.7.13-2.204.11-.501-.046-.771-.073-.771-.073l-.027-.344s.238-.08.662-.219c.17-.21.498-.611.837-1.13.52-.814 1.14-1.942 1.54-3.37.233-.701.362-1.486.52-2.312.149-.826.385-1.74.395-2.75.024-.992-.307-2.11-.913-2.98-.603-.908-1.496-1.627-2.484-2.107-.985-.497-2.017-.804-2.97-1.13a13.643 13.643 0 0 0-2.915-.58c-.896-.086-1.842-.103-2.725-.144-.889 0-1.75.007-2.553.068-.975.051-1.861.144-2.642.234-.217.122-.457.207-.664.339-1.63.974-3.076 2.07-4.426 3.089-1.355 1.01-2.652 1.949-3.75 2.943-.09.07-.16.144-.248.217-1.18 1.218-2.226 2.502-3.063 3.859a15.07 15.07 0 0 0-1.491 3.252c-.188.604-.295 1.03-.414 1.715a14.31 14.31 0 0 0-.153 1.608c-.051 2.224.552 4.412 1.676 6.09 2.149 3.463 6.913 4.276 9.26 2.176 1.202-1.028 1.825-2.555 1.609-3.893-.195-1.269-1.163-2.404-2.2-2.887a3.274 3.274 0 0 0-1.552-.326 3.294 3.294 0 0 0-.76.158 3.532 3.532 0 0 0-.644.32 3.75 3.75 0 0 0-1.487 1.9c-.45 1.318.052 2.07-.007 2.056l-.311.148c.073.013-.623-.747-.314-2.377a4.448 4.448 0 0 1 1.545-2.51 4.38 4.38 0 0 1 .8-.514c.322-.156.686-.263.957-.321.77-.147 1.51-.073 2.284.185 1.514.521 2.954 1.83 3.46 3.844.47 1.95-.246 4.244-1.85 5.852-1.644 1.679-4.223 2.432-6.71 2.012-2.5-.363-4.926-1.87-6.537-4.07-1.623-2.19-2.518-4.944-2.604-7.828-.01-.7.015-1.481.125-2.242.043-.29.107-.64.182-.996-.056-.797-.08-1.63-.032-2.514-.36.463-.74.904-1.146 1.33a21.872 21.872 0 0 1-5.518 4.156c-.985.546-2.056.955-3.065 1.28-1.083.353-2.141.56-3.236.64-2.16.2-4.39-.229-6.117-1.242-1.728-1.016-2.954-2.48-3.504-4.113zm45.346-36.345c.239-.078.477-.173.713-.282 1.798-.843 3.258-2.445 4.805-4.14a54.334 54.334 0 0 1 1.767-1.88c.277-.28.686-.689 1.209-1.135l-.127.055c-1.6.723-2.975 2.107-4.36 3.585l-.26.28c-1.153 1.231-2.335 2.496-3.747 3.517zm-8.395 1.228l-8.59-8.5 10.605 5.757c1.34.725 3.091.306 4.282-.33 1.478-.79 2.725-2.049 4.044-3.38l.26-.262c1.377-1.39 2.889-2.782 4.706-3.725-2.68-.243-5.176.58-6.48 2.284l-2.713-2.102c2.201-2.874 6.35-4.252 10.575-3.529 3.588.618 6.76 2.496 9.562 4.152l-.087.15c.022.017.049.03.07.049l7.64 6.031-9.23-3.039c-1.824-.599-3.685.12-6.024 2.329-.56.528-1.1 1.089-1.64 1.649-1.694 1.753-3.447 3.567-5.841 4.625a9.92 9.92 0 0 1-4.024.863c-2.582 0-5.112-1.038-7.115-3.022zm85.705-49.317a3.068 3.068 0 0 0-1.435-.708c-.614-.123-1.362-.13-2.13.288-.385.213-.75.492-1.062.965-.257.346-.434.924-.47 1.374-.103.928.2 1.936.665 2.616.487.735.955 1.174 1.547 1.675 1.243.898 2.24 1.353 3.335 1.86a22.54 22.54 0 0 0 2.98 1.118c1.794.557 3.13.654 3.13.654s-.8-1.07-2.198-2.304a28.352 28.352 0 0 0-2.445-1.975c-.869-.66-2.005-1.402-2.737-1.929a7.197 7.197 0 0 1-.98-.921c-.228-.29-.345-.453-.394-.669-.016-.118-.044-.097-.035-.232-.044-.01-.016-.118.03-.195.112-.167.39-.357.683-.443.575-.183 1.344.005 1.86.155l.858.244s-.145-.295-.475-.77c-.173-.232-.387-.527-.727-.803zM94.666 74.483c1.574 2.572 3.701 4.312 5.602 5.44a12.842 12.842 0 0 0 4.88 1.747c.463.107.846.119 1.155.136-.181-.1-.385-.21-.638-.346-.794-.544-2.002-1.367-3.164-2.804-1.184-1.405-2.28-3.416-2.937-5.9a18.585 18.585 0 0 1-.123-8.582c.14-.77.43-1.606.685-2.415l.427-1.09c.18-.477.379-.802.573-1.214.793-1.563 1.852-3.064 3.124-4.436 2.54-2.748 5.988-4.922 9.86-6.193a26.708 26.708 0 0 1 6.117-1.217c1.963-.155 4.22-.1 6.259.234 2.431.372 4.787 1.1 7.032 2.054 1.054.229 2.088.577 3.019.98a21.77 21.77 0 0 1 3.24 1.764 28.444 28.444 0 0 1 5.509 4.633c.749.802 1.424 1.67 2.021 2.589.307.217.616.415.919.68.255.214.385.372.582.558.263.258.405.446.609.67a10.253 10.253 0 0 1 2.24 5.006c.464 1.27.774 2.593.837 3.977.008.23-.012.458-.014.687.137-.536.243-1.083.304-1.636.553-4.333-1.424-8.88-4.531-12.715-3.117-3.874-7.072-7.317-11.554-9.956-4.517-2.591-9.602-4.352-14.84-4.588-5.198-.305-10.373.811-14.72 2.978-4.397 2.09-7.902 5.239-10.425 8.667-2.485 3.448-4.035 7.254-4.286 10.861-.334 3.548.644 6.929 2.238 9.431zm45.471-6.054c2.356-.279 4.55.783 5.262 2.532.698 2.026-.045 3.499-.55 4.323-.043.059-.078.095-.118.147.15-.097.3-.193.474-.316.488-.362 1.097-.82 1.61-1.471.521-.636.908-1.498.693-2.373-.19-.848-.952-1.802-1.957-2.443-1.024-.618-2.39-.95-3.796-.797a5.802 5.802 0 0 0-1.618.398zm-2.752-13.877c.604.158 1.151.329 1.69.51-.27-.159-.531-.34-.804-.493-1.003-.535-2.004-1.035-3.03-1.455-1.034-.426-2.023-.68-3.059-.881-2.037-.36-4.132-.136-6.344.406-2.254.571-4.314 1.368-6.164 2.734-1.805 1.379-3.298 3.232-4.14 5.35-.87 2.092-1.153 4.485-.571 6.541.065.26.195.485.294.73-.012-.297-.047-.599-.03-.888.045-1.116.275-2.205.637-3.262l.292-.747c.125-.277.255-.557.385-.792.257-.498.559-.965.878-1.416 1.291-1.796 2.966-3.222 4.802-4.274a21.063 21.063 0 0 1 2.843-1.375c.991-.362 2-.654 3.024-.876a20.16 20.16 0 0 1 6.234-.354c1.036.081 2.062.28 3.063.542zm20.892 15.253c.064.553.17 1.102.307 1.636-.003-.229-.022-.458-.015-.687.064-1.384.373-2.708.837-3.977a10.27 10.27 0 0 1 2.238-5.006c.206-.224.349-.412.612-.67.196-.186.326-.344.58-.558.304-.265.613-.463.92-.68a18.766 18.766 0 0 1 2.022-2.589 28.443 28.443 0 0 1 5.509-4.633 21.77 21.77 0 0 1 3.24-1.763c.93-.404 1.964-.752 3.015-.981 2.248-.954 4.603-1.682 7.035-2.054 2.036-.334 4.296-.39 6.258-.234 2.176.179 4.158.584 6.118 1.217 3.871 1.271 7.32 3.445 9.859 6.193 1.272 1.372 2.33 2.873 3.124 4.436.194.412.393.737.572 1.214l.428 1.09c.255.81.545 1.644.685 2.415.69 3.125.513 6.1-.125 8.582-.656 2.484-1.751 4.495-2.935 5.9-1.162 1.437-2.373 2.26-3.164 2.804-.253.136-.457.245-.638.346.31-.017.692-.03 1.154-.136a12.84 12.84 0 0 0 4.88-1.747c1.901-1.128 4.026-2.868 5.603-5.44 1.594-2.502 2.571-5.883 2.237-9.431-.25-3.607-1.802-7.413-4.288-10.86-2.52-3.429-6.025-6.578-10.421-8.668-4.348-2.167-9.523-3.283-14.72-2.978-5.239.236-10.323 1.997-14.84 4.588-4.482 2.639-8.437 6.082-11.553 9.956-3.107 3.834-5.085 8.382-4.534 12.715zm25.886-17.166c-2.212-.542-4.306-.765-6.343-.406-1.036.2-2.025.455-3.058.88-1.026.421-2.027.921-3.031 1.456-.272.153-.534.334-.806.492a25.334 25.334 0 0 1 1.69-.51c1.003-.262 2.03-.46 3.065-.541a20.14 20.14 0 0 1 6.231.354c1.024.222 2.035.514 3.023.876.989.378 1.968.873 2.844 1.375 1.837 1.052 3.51 2.478 4.803 4.274a12.237 12.237 0 0 1 1.26 2.208l.295.747c.362 1.057.592 2.146.637 3.262.017.29-.02.591-.03.888.097-.245.23-.47.294-.73.582-2.056.3-4.45-.571-6.54-.842-2.119-2.335-3.972-4.14-5.35-1.85-1.367-3.911-2.164-6.163-2.735zm-14.3 15.79a5.801 5.801 0 0 0-1.618-.398c-1.408-.152-2.771.178-3.798.797-1.004.64-1.764 1.594-1.956 2.441-.212.876.174 1.737.695 2.373.513.652 1.122 1.109 1.61 1.47.175.124.324.22.474.32-.04-.056-.075-.091-.118-.15-.505-.824-1.248-2.297-.55-4.322.712-1.749 2.906-2.81 5.261-2.532zm-77.405 8.6c-2.108-2.828-3.452-6.797-3.262-11.256.187-4.381 1.82-8.995 4.73-12.938 2.917-3.937 7.21-7.017 11.99-8.914 4.801-1.862 10.068-2.715 15.371-2.435 5.272.288 10.648 1.706 15.521 4.144a42.865 42.865 0 0 1 6.963 4.359c2.15 1.74 4.122 3.597 5.925 5.73 2.04 2.41 3.76 5.299 4.773 8.418 1.013-3.12 2.73-6.008 4.772-8.418 1.805-2.133 3.777-3.99 5.927-5.73a42.865 42.865 0 0 1 6.963-4.36c4.873-2.437 10.249-3.855 15.52-4.143 5.304-.28 10.57.573 15.368 2.435 4.784 1.897 9.074 4.977 11.994 8.914 2.91 3.943 4.543 8.557 4.73 12.938.187 4.459-1.154 8.428-3.263 11.255-2.048 2.84-4.508 4.719-6.758 5.69-2.245 1.007-4.161 1.228-5.461 1.208-.656.027-1.113-.087-1.438-.106l-.486-.057.005-.177-.093-.148 1.07-.965c.633-.68 1.603-1.651 2.397-3.176.802-1.495 1.581-3.43 1.846-5.77.229-2.326.158-5.009-.67-7.734-.17-.706-.43-1.311-.668-1.988l-.496-1.104c-.11-.265-.342-.632-.508-.947-.745-1.294-1.625-2.581-2.73-3.73a23.513 23.513 0 0 0-8.318-5.501 22.275 22.275 0 0 0-5.116-1.32c-1.67-.218-3.202-.205-4.825-.094.036.018.078.028.114.045 1.118.498 2.191 1.026 3.239 1.708 1.064.695 1.999 1.478 2.856 2.363a19.085 19.085 0 0 1 4.113 5.996c.916 2.249 1.548 4.709 1.225 7.32-.321 2.539-1.93 5.326-4.857 6.218l-4.18 1.272 2.939-3.565c.884-1.076 1.207-2.619 1.032-4.2a8.448 8.448 0 0 0-.573-2.302l-.255-.57-.267-.481a8.669 8.669 0 0 0-.668-.98c-.989-1.257-2.318-2.29-3.751-3.158a19.688 19.688 0 0 0-2.27-1.126 18.508 18.508 0 0 0-2.4-.84c-1.646-.422-3.352-.67-5.07-.655-.857.002-1.714.082-2.57.196-.366.05-.765.124-1.163.205.649.152 1.28.348 1.866.618 1.07.456 2.02 1.145 2.771 1.855a9.739 9.739 0 0 1 1.822 2.276 9.39 9.39 0 0 1 1.317 4.017c.07 1.006-.024 1.562-.024 1.562s-.202-.533-.634-1.366a12.308 12.308 0 0 0-2.22-2.969c-1.057-1.024-2.49-1.986-4.082-2.464-1.637-.491-3.467-.506-5.223-.042-.877.22-1.72.572-2.502 1.001-.389.219-.77.472-1.084.687-.158.097-.388.313-.575.461-.112.085-.302.28-.45.415-1.236 1.212-2.099 2.715-2.636 4.116a12.82 12.82 0 0 0-.765 3.404c.185 1.664.722 3.233 1.565 4.478a7.51 7.51 0 0 0 1.506 1.644c.65.555 1.178.796 1.858 1.029 2.626.893 5.687-.04 6.725-2.115.493-.848.643-2.147.366-3.147-.121-.49-.393-1.014-.595-1.324a3.315 3.315 0 0 0-1.073-.964c-.817-.456-1.784-.593-2.595-.432-.204.045-.398.1-.583.174-.168.074-.296.119-.527.283a2.34 2.34 0 0 0-.712.719c-.729 1.267-.447 2.762-.153 3.55.287.85.666 1.22.666 1.22l-.124.124-.073.159s-.642-.198-1.786-.793c-.563-.315-1.25-.74-1.946-1.449-.675-.676-1.426-1.812-1.311-3.305.284-2.923 3.299-5.514 7.079-5.47 1.831-.002 3.981.645 5.504 2.368 1.553 1.721 2.187 4.265 1.8 6.646-.395 2.395-1.515 4.713-3.809 6.424-2.08 1.537-5.04 2.018-7.642 1.45-2.62-.518-5.184-2.043-6.904-4.227a13.667 13.667 0 0 1-2.073-3.712 13.667 13.667 0 0 1-2.072 3.712c-1.72 2.184-4.285 3.71-6.904 4.228-2.602.567-5.563.086-7.643-1.451-2.293-1.71-3.413-4.03-3.811-6.424-.384-2.38.25-4.925 1.802-6.646 1.523-1.723 3.673-2.37 5.505-2.368 3.78-.044 6.795 2.547 7.08 5.47.113 1.493-.637 2.629-1.313 3.305-.694.71-1.384 1.134-1.946 1.449-1.144.595-1.787.793-1.787.793l-.07-.159-.125-.124s.38-.37.666-1.22c.294-.788.576-2.283-.153-3.55a2.366 2.366 0 0 0-.712-.72c-.23-.163-.362-.208-.527-.282a3.627 3.627 0 0 0-.583-.174c-.812-.16-1.78-.024-2.595.432a3.315 3.315 0 0 0-1.074.964c-.201.31-.473.833-.595 1.324-.277 1-.126 2.299.367 3.147 1.037 2.075 4.098 3.008 6.724 2.115.68-.233 1.205-.474 1.859-1.029a7.51 7.51 0 0 0 1.506-1.644c.843-1.245 1.38-2.814 1.565-4.478a12.74 12.74 0 0 0-.768-3.404c-.535-1.401-1.397-2.904-2.633-4.116-.149-.134-.338-.33-.45-.415-.19-.148-.418-.364-.576-.46a14.843 14.843 0 0 0-1.083-.688 10.637 10.637 0 0 0-2.502-1.001c-1.76-.464-3.586-.45-5.226.042-1.589.478-3.022 1.44-4.079 2.464a12.244 12.244 0 0 0-2.22 2.969c-.435.833-.634 1.366-.634 1.366s-.095-.556-.024-1.562a9.39 9.39 0 0 1 1.316-4.017 9.739 9.739 0 0 1 1.822-2.276c.751-.71 1.698-1.399 2.772-1.855a9.716 9.716 0 0 1 1.866-.618c-.399-.081-.8-.156-1.164-.205a19.9 19.9 0 0 0-2.572-.196c-1.718-.015-3.42.233-5.068.654-.819.226-1.623.506-2.4.84-.778.33-1.504.68-2.272 1.127-1.433.867-2.76 1.901-3.748 3.159-.243.314-.474.64-.668.979l-.267.481-.258.57a8.533 8.533 0 0 0-.57 2.301c-.176 1.582.145 3.125 1.032 4.2l2.937 3.566-4.179-1.272c-2.927-.892-4.535-3.68-4.856-6.218-.323-2.611.309-5.071 1.225-7.32a19.118 19.118 0 0 1 4.11-5.996 16.507 16.507 0 0 1 2.86-2.363c1.046-.682 2.12-1.21 3.238-1.708.036-.017.077-.027.114-.045-1.626-.111-3.156-.124-4.825.095a22.275 22.275 0 0 0-5.116 1.319 23.491 23.491 0 0 0-8.318 5.502c-1.105 1.148-1.985 2.435-2.73 3.729-.166.315-.401.682-.508.947l-.496 1.104c-.238.677-.498 1.282-.67 1.988-.826 2.725-.897 5.408-.671 7.734.267 2.34 1.047 4.275 1.849 5.77.794 1.525 1.763 2.497 2.398 3.176l1.068.965-.092.148.005.177-.486.057c-.328.02-.782.133-1.438.106-1.3.02-3.217-.2-5.461-1.207-2.25-.972-4.71-2.852-6.759-5.69zm37.755-39.464c4.46 1.464 9.276.453 12.938-1.903 3.74-2.292 6.43-5.76 8.248-9.393 1.819-3.663 2.904-7.562 3.601-11.39.697 3.828 1.782 7.727 3.601 11.39 1.819 3.634 4.508 7.1 8.248 9.393 3.66 2.356 8.478 3.367 12.935 1.903 4.303-1.32 8.11-4.891 8.982-9.327.474-2.372.095-4.547-.758-6.548-.838-1.989-2.271-3.722-4.107-4.881-.91-.59-1.936-.983-2.968-1.255-.726-.11-.807-.174-1.535-.198a7.18 7.18 0 0 0-1.653.08c-2.058.283-3.794 1.234-5.175 2.389-1.37 1.182-2.34 2.697-2.814 4.294a6.826 6.826 0 0 0 .247 4.631c1.127 2.697 3.616 4.252 5.74 4.245 2.112.002 3.498-.98 4.17-1.739.35-.386.531-.739.651-.97l.152-.363-.313-.143s-.22.468-.946 1.014c-.683.539-2.01 1.137-3.59.856-1.508-.255-3.2-1.583-3.74-3.618-.579-1.967.328-4.351 2.428-5.887 2.093-1.555 5.04-2.06 7.336-.396 1.132.79 2.09 1.97 2.704 3.355.619 1.357.836 3.038.648 4.421-.437 3.177-3.088 5.947-6.486 7.228-3.295 1.347-7.468 1-10.974-.706-1.765-.849-3.405-2.041-4.801-3.41a19.482 19.482 0 0 1-3.43-4.824c-1.79-3.524-2.557-7.404-2.694-11.124-.2-3.699.677-7.15 2.716-9.37 1.95-2.32 4.914-2.937 7.097-1.745.525.272.983.613 1.322 1.018.17.21.25.284.445.675.086.167.184.413.223.64.188.927-.073 2.014-.626 2.801-.577.773-1.318 1.293-2.142 1.357-.73.11-1.461-.26-1.992-.777-1.083-1.1-1.208-2.53-.941-3.296.247-.777.77-1.097.74-1.109l-.22-.262c.04.03-.532.14-1.156 1.094-.533.926-.738 2.693.438 4.457.565.852 1.701 1.739 3.197 1.748 1.399.086 2.915-.67 3.902-1.826.976-1.162 1.675-2.762 1.44-4.593a5.024 5.024 0 0 0-.386-1.376 5.796 5.796 0 0 0-.675-1.183 6.86 6.86 0 0 0-2.122-1.874 8.35 8.35 0 0 0-5.78-.892c-1.994.417-3.869 1.698-5.113 3.255-1.135 1.393-1.88 3.1-2.225 4.85-.345-1.75-1.09-3.457-2.225-4.85-1.244-1.557-3.12-2.838-5.114-3.255a8.35 8.35 0 0 0-5.78.892 6.86 6.86 0 0 0-2.121 1.874 5.942 5.942 0 0 0-.677 1.183 5.104 5.104 0 0 0-.384 1.376c-.237 1.831.462 3.431 1.44 4.593.987 1.156 2.503 1.912 3.902 1.826 1.496-.01 2.632-.896 3.197-1.748 1.176-1.764.97-3.531.438-4.457-.626-.953-1.196-1.063-1.157-1.094l-.22.262c-.029.012.492.332.741 1.109.267.766.14 2.196-.941 3.296-.53.517-1.262.887-1.992.777-.824-.064-1.565-.584-2.142-1.357-.555-.787-.814-1.874-.626-2.802.04-.226.137-.472.223-.639.195-.391.276-.465.445-.675.34-.405.797-.746 1.322-1.018 2.183-1.192 5.146-.575 7.097 1.746 2.039 2.22 2.914 5.67 2.716 9.369-.137 3.72-.904 7.6-2.694 11.124a19.546 19.546 0 0 1-3.43 4.824c-1.398 1.369-3.036 2.561-4.801 3.41-3.508 1.705-7.679 2.053-10.974.706-3.398-1.28-6.049-4.051-6.486-7.228-.188-1.383.03-3.064.648-4.42.613-1.386 1.572-2.567 2.704-3.356 2.295-1.665 5.243-1.159 7.336.396 2.1 1.536 3.007 3.92 2.428 5.887-.54 2.035-2.232 3.363-3.74 3.618-1.58.281-2.907-.317-3.59-.856-.728-.546-.946-1.014-.946-1.014l-.313.143.152.363c.12.231.3.584.648.97.675.759 2.06 1.741 4.173 1.739 2.124.007 4.613-1.548 5.738-4.245a6.811 6.811 0 0 0 .249-4.63c-.474-1.598-1.445-3.113-2.814-4.295-1.381-1.155-3.117-2.106-5.175-2.39a7.18 7.18 0 0 0-1.653-.079c-.728.024-.81.089-1.535.198-1.032.272-2.059.666-2.968 1.255-1.838 1.159-3.269 2.892-4.107 4.881-.853 2-1.232 4.176-.758 6.548.873 4.436 4.68 8.008 8.98 9.327zM163.38 465.15c.197.228.392.444.568.62.209.226.413.426.656.618.476.382 1.026.742 1.661.942.64.211 1.45.162 1.967-.119.555-.258 1.028-.7 1.214-1.224-.457.3-.965.357-1.415.336-.49-.041-.777-.165-1.063-.443a3.813 3.813 0 0 1-.788-.958l-.34-.58a8.817 8.817 0 0 1-.347-.642 19.795 19.795 0 0 1-1.174-2.846 19.74 19.74 0 0 1 2.842 1.178c.858.464 1.672.871 2.176 1.473.134.142.241.3.308.448.077.177.112.388.135.616.02.449-.035.957-.334 1.418.526-.186.967-.66 1.225-1.216.139-.279.218-.59.248-.931a3.05 3.05 0 0 0-.125-1.041c-.43-1.29-1.355-2.175-2.179-2.893-.849-.765-1.832-1.339-2.86-1.868-1.046-.498-2.185-.867-3.447-.997l-2-.205.209 2c.13 1.265.499 2.406.997 3.451.527 1.03 1.105 2.013 1.866 2.863zm-22.832-.23c-.3-.458-.358-.969-.337-1.417.042-.49.165-.777.444-1.065.255-.302.578-.557.956-.787l.58-.341a9.7 9.7 0 0 1 .642-.346 19.78 19.78 0 0 1 2.844-1.177c-.304.954-.706 1.92-1.177 2.846-.464.857-.87 1.674-1.472 2.175-.142.135-.3.244-.448.311a2.089 2.089 0 0 1-.616.132c-.448.024-.956-.034-1.416-.332.186.527.66.966 1.214 1.224.279.141.592.22.934.248.371.028.713-.032 1.038-.125 1.288-.43 2.173-1.356 2.89-2.18.764-.85 1.338-1.831 1.87-2.86.494-1.047.863-2.186.993-3.449l.205-2.003-2 .209c-1.263.132-2.4.499-3.448.998-1.028.527-2.01 1.107-2.86 1.866-.228.197-.444.395-.62.571-.225.209-.425.411-.615.657-.381.476-.743 1.026-.943 1.662-.211.638-.163 1.448.12 1.968.256.555.697 1.026 1.222 1.214zm11.016 5.289c.926.423 1.99.58 2.906.286-.949-.063-1.766-.518-2.415-1.063-.665-.591-1.067-1.207-1.194-1.998-.165-.781-.153-1.603-.028-2.439.12-.8.309-1.737.53-2.56.485-1.705 1.018-3.393 1.766-4.97.399-.873.85-1.711 1.338-2.512.494.8.942 1.639 1.339 2.514.75 1.575 1.279 3.266 1.765 4.967.418 1.73.838 3.435.503 4.998-.071.387-.2.76-.39 1.068-.2.333-.483.643-.802.93-.65.544-1.463 1.002-2.412 1.065.916.296 1.98.139 2.908-.284a4.524 4.524 0 0 0 1.305-.882c.417-.4.712-.871.946-1.36.883-2.002.727-4.126.512-6.013-.212-1.944-.734-3.836-1.402-5.695-.722-1.838-1.668-3.627-2.98-5.256l-1.292-1.606-1.286 1.606c-1.31 1.631-2.261 3.415-2.978 5.258-.668 1.86-1.185 3.751-1.4 5.693-.06.502-.106.995-.132 1.446-.038.509-.057 1-.024 1.514.052 1.014.222 2.072.668 3.051.43.996 1.329 1.862 2.25 2.242zm4.194 32.852l-1.29-1.604-1.287 1.604c-1.31 1.634-2.261 3.418-2.978 5.26-.668 1.857-1.185 3.75-1.4 5.693-.06.5-.106.996-.132 1.446-.038.51-.057.998-.024 1.512.052 1.014.222 2.073.668 3.054.43.996 1.329 1.86 2.25 2.24.925.425 1.989.582 2.905.289-.949-.064-1.766-.52-2.415-1.066-.665-.59-1.067-1.207-1.194-1.998-.165-.78-.153-1.601-.028-2.439.12-.798.309-1.735.53-2.561.485-1.702 1.018-3.392 1.766-4.968.399-.873.85-1.713 1.338-2.511.494.798.942 1.638 1.339 2.514.75 1.575 1.279 3.263 1.765 4.967.418 1.728.838 3.435.503 4.998-.071.387-.2.76-.39 1.068-.2.333-.483.643-.802.927-.65.547-1.463 1.005-2.412 1.069.916.293 1.98.138 2.908-.285a4.486 4.486 0 0 0 1.305-.885c.417-.399.712-.868.946-1.356.883-2.003.727-4.13.512-6.017-.212-1.941-.734-3.834-1.402-5.693-.722-1.838-1.668-3.627-2.98-5.258zm-42.162-96.158c-.391-.456-.78-.92-1.185-1.334-1.166-1.184-2.383-2.21-3.638-3.023-1.291-.837-2.43-1.486-3.634-1.746-2.477-.597-4.835-.118-6.605.551a10.17 10.17 0 0 0-2.986 1.782 10.416 10.416 0 0 1 2.262-1.092c1.583-.556 3.711-.82 6.044-.365 2.341.414 4.82 1.542 7.188 3.17.859.61 1.713 1.31 2.554 2.057zm19.11 36.847c.68 1.27 1.433 2.486 2.385 3.55 2.819 3.258 7.877 4.009 11.784 2.203 1.941-.91 3.626-2.364 4.76-4.142.564-.882.993-1.837 1.18-2.822.045-.171.04-.388.062-.577a11.136 11.136 0 0 1-5.024 4.536 12.943 12.943 0 0 1-5.683 1.195c-1.902-.032-3.855-.522-5.594-1.337-1.42-.667-2.693-1.584-3.87-2.606zm16.986-8.97c-.126-.257-.296-.473-.451-.704-.072.086-.136.167-.22.266-.566.59-1.478 1.591-3.292 2.003-.944.19-2.045.047-3.066-.553-1.01-.523-2.008-1.95-1.616-3.464.308-1.43 1.64-2.694 3.26-3.046.106-.023.212-.023.318-.044-.187-.007-.375-.034-.564-.02-.713.02-1.39.206-1.962.486-.274.136-.564.34-.72.468-.298.28-.446.433-.616.697-.66.958-.788 2.278-.431 3.35.352 1.061 1.168 1.983 2.149 2.578 1.984 1.218 4.406 1.132 5.801.264.988-.577 1.346-1.49 1.41-2.281zm-4.436-3.413c-.871.09-1.544.512-1.82 1.056-.267.5-.055 1.054.534 1.478.572.416 1.356.618 2.018.625 1.465-.023 2.61-.688 3.305-1.12.179-.111.266-.177.399-.269-.437-.467-.925-.88-1.49-1.154-.925-.477-2.064-.735-2.946-.616zm-33.834-12.57c-.747.874-.891 1.955-.55 2.652.274.736 1.167 1.446 1.978 1.636.81.214 1.596-.018 2.114-.51.251-.232.385-.478.446-.74.052.121.018-.216.018-.216s.026-.037.004-.108c-.014-.124-.08-.24-.146-.362-.295-.5-.825-.715-1.147-.7-.342-.005-.535.153-.535.138l-.256-.234c.014.017.093-.276.58-.579.494-.256 1.404-.36 2.356.232.237.15.464.357.664.635.098.123.2.313.288.527.074.23.09.126.154.493.161.726-.002 1.571-.383 2.29-.723 1.42-2.527 2.572-4.52 2.412-1.946-.104-3.963-1.212-5.024-3.441-.457-1.015-.608-2.478-.257-3.606a6.283 6.283 0 0 1 1.892-3.005 6.25 6.25 0 0 1 1.553-.98c.285-.113.58-.227.961-.308.447-.096.366-.06.879-.106a5.807 5.807 0 0 1 3.305.906c1.882 1.2 2.985 2.986 3.85 4.75.715 1.455 1.452 2.883 2.272 4.253-.173-.707-.334-1.434-.517-2.173-.54-2.42-1.98-4.753-4.082-6.24-1.04-.774-2.104-1.326-3.131-1.9a12.779 12.779 0 0 0-3.105-1.172c-1.038-.247-1.946-.33-2.959-.37-.788.008-1.762.106-2.543.32a9.619 9.619 0 0 0-3.752 1.848 7.03 7.03 0 0 0-.938.891c-.212.234-.327.357-.327.357l-.324-.125s-.02-.727.468-1.939c.479-1.194 1.66-2.825 3.708-3.923 1.047-.532 2.173-.95 3.637-1.077 1.245-.142 2.734.062 4.055.532.937.326 1.816.806 2.658 1.343-1.487-1.64-3.02-3.084-4.611-4.266-1.994-1.54-4.028-2.601-5.924-3.195-1.902-.588-3.66-.662-5.107-.487a9.372 9.372 0 0 0-3.263.975c-.71.345-1.087.626-1.087.626l-.173-.207-.115-.064.196-.385c.124-.256.314-.638.64-1.09.629-.907 1.76-2.166 3.604-3.215 1.834-1.027 4.414-1.82 7.475-1.498 1.57.16 3.178.771 4.577 1.564 1.457.784 2.887 1.791 4.264 2.968 2.76 2.353 5.246 5.454 7.22 9.047 2.05 3.614 3.491 7.62 4.707 11.818 1.198 4.185 2.248 8.505 3.502 12.749.237.793.491 1.586.745 2.374 1.01 1.202 2.1 2.293 3.305 3.187a15.583 15.583 0 0 0 4.181 2.387c1.48.53 2.957.86 4.472.793a9.689 9.689 0 0 0 4.082-1.084c1.232-.648 2.294-1.512 3.031-2.542.362-.524.67-1.046.865-1.652.178-.426.144-.51.239-.808.041-.293.105-.584.107-.884.025-.4-.039-.794-.085-1.188a4.36 4.36 0 0 1-1.05 1.439c-1.72 1.596-4.928 2.123-7.806.593a8.356 8.356 0 0 1-1.138-.746c-.222-.113-.442-.222-.7-.37a17.167 17.167 0 0 1-5.348-4.719c-.442-.64-.843-1.27-1.267-2.064-.332-.62-.694-1.561-.918-2.381-.35-1.261-.44-2.64-.325-4.027a15.699 15.699 0 0 1-.302-2.227c-.06-.978-.123-2.03-.003-3.103.076-1.074.21-2.193.474-3.298.236-1.116.593-2.22 1.005-3.303.427-1.074.933-2.121 1.509-3.104.561-.995 1.255-1.882 1.914-2.734 1.362-1.685 2.995-2.963 4.22-3.896 1.238-.97 2.143-1.833 2.62-2.616.49-.766.617-1.335.617-1.335l.058.399c.025.263.061.667-.029 1.177-.137 1.027-.803 2.436-1.836 3.774-.497.64-1.04 1.337-1.608 2.071-.547.695-1.042 1.475-1.584 2.254-.508.808-.967 1.672-1.43 2.551-.438.892-.87 1.803-1.229 2.75-.122.307-.207.627-.32.94.489-.638.99-1.266 1.519-1.874a36.923 36.923 0 0 1 4.118-3.953c1.401-1.17 2.707-2.318 3.786-3.5a17.75 17.75 0 0 0 2.57-3.594c.61-1.217 1.003-2.424 1.045-3.562a6.11 6.11 0 0 0-.557-3.024c-.422-.88-.873-1.567-1.425-2.047-.547-.488-.886-.751-1.274-.897-.39-.15-.2-.206-.2-.206v-.353s-.184-.051.292-.1c.474-.028.772.026 1.65.34.874.312 1.87.948 2.73 1.967.42.513.851 1.099 1.157 1.803.15.357.3.7.417 1.155.137.537.178.609.249 1.207.198 1.68-.083 3.55-.832 5.256-.684 1.702-1.924 3.34-3.284 4.624-1.393 1.31-2.956 2.403-4.51 3.423-1.54 1.04-3.176 1.877-4.682 2.902-1.506 1.005-2.888 2.246-3.77 3.79-.036.064-.058.133-.094.197-.103.407-.2.813-.266 1.217a37.245 37.245 0 0 0-.552 4.153c.22 1.399.622 2.7 1.062 3.879.26.72.488 1.236.817 1.98.257.564.594 1.202.918 1.742.269.46.545.884.823 1.303-.049-1.22.168-2.483.83-3.67.249-.47.669-.976.984-1.298.473-.478.9-.784 1.398-1.084a7.559 7.559 0 0 1 3.222-.975c1.13-.099 2.292.088 3.4.504l.41.18.24.111.159.084c.195.096.451.246.715.411.503.315.93.64 1.352 1.015 3.471 2.956 4.777 7.862 4.462 12.288-.117 1.14-.13 2.187-.547 3.421-.375 1.136-.956 2.173-1.64 3.116-1.413 1.837-3.246 3.374-5.377 4.337-2.131.968-4.53 1.343-6.903 1.101-2.351-.209-4.804-1.2-6.574-2.86-1.936-1.706-3.378-3.77-4.535-5.95a41.208 41.208 0 0 1-2.873-3.933c-1.543-2.385-3.25-5.22-4.492-8.55-.632-1.657-1.22-3.399-1.933-5.108-.698-1.714-1.57-3.374-2.51-4.985-.927-1.503-2.45-2.633-3.895-3.027a4.224 4.224 0 0 0-1.975-.116c.068-.002-.461.099-.44.13l-.287.156c-.223.143-.43.32-.613.524zm3.236 61.924a3.72 3.72 0 0 0-1.088-2.64c-1.407-1.414-3.855-1.409-5.254-.003a3.734 3.734 0 0 0-1.09 2.643c0 .999.389 1.937 1.087 2.642a3.69 3.69 0 0 0 2.629 1.096 3.69 3.69 0 0 0 2.628-1.096 3.72 3.72 0 0 0 1.088-2.642zm-8.624 4.67a3.195 3.195 0 0 0 0 4.51 3.176 3.176 0 0 0 2.254.932c.815 0 1.63-.311 2.251-.933a3.19 3.19 0 0 0 0-4.51 3.188 3.188 0 0 0-4.505 0zM9.554 176.419v202.803c2.124-.061 2.124-.04 2.124.058V176.36c0 .098 0 .12-2.123.059zm17.607 242.296a71.725 71.725 0 0 1-9.63-4.59c-3.11-1.837-6.233-3.884-8.962-6.466-2.772-2.531-5.171-5.559-6.807-9.056-1.61-3.468-2.33-7.65-1.244-11.468.507-1.903 1.388-3.69 2.736-5.123 1.129-1.229 3.819-2.088 3.819-2.602V176.23c0-.513-2.69-1.373-3.82-2.602-1.347-1.433-2.137-3.22-2.646-5.123-1.084-3.818-.409-8 1.2-11.467 1.636-3.495 4.012-6.525 6.786-9.056 2.73-2.582 5.84-4.63 8.95-6.467a71.531 71.531 0 0 1 9.625-4.59c3.195-1.163 6.56-2.312 10.087-1.92 1.739.222 3.51.772 4.897 1.884a9.344 9.344 0 0 1 3.022 4.028c.58 1.555.66 3.336.077 4.838-.536 1.53-1.686 2.614-2.842 3.249-1.179.652-2.42.876-3.603.733a5.217 5.217 0 0 1-2.786-1.198c-1.403-1.183-1.886-2.565-2.056-3.453-.13-.937-.031-1.39-.031-1.39l.338-.02s.036.485.351 1.215c.312.723.963 1.791 2.205 2.45 1.21.685 2.945.75 4.41-.308 1.487-1.022 2.172-3.016 1.247-5.021-.846-2.059-2.99-3.653-5.63-4.004-2.696-.445-5.902-.065-9.186.709-3.243.698-6.562 1.922-9.608 3.714-3.065 1.762-5.837 4.14-8.124 6.865a30.45 30.45 0 0 0-3.06 4.322 24.39 24.39 0 0 0-2.301 4.61c-1.21 3.134-1.542 6.432-.584 9.243.915 2.838 2.868 4.897 5.282 5.568a6.575 6.575 0 0 0 3.517.052 5.368 5.368 0 0 0 1.439-.648l.403-.306.23-.212c.164-.178.356-.373.498-.592 1.285-1.718 1.379-4.103.512-5.578-.904-1.555-2.657-1.952-4.07-1.861-1.424.107-2.438.78-2.968 1.353-.536.589-.67 1.039-.692 1.022l-.327-.102c.029.01.048-.49.497-1.315.469-.79 1.52-1.835 3.248-2.314a6.052 6.052 0 0 1 2.969-.06c.552.148 1.086.31 1.674.685.327.198.567.385.745.546l.151.129c.166.158.135.15.214.233l.32.38c1.743 2.168 1.921 5.687.196 8.586-.211.37-.545.7-.833 1.054-.346.382-.831.71-1.07.898-.77.61-1.791 1.012-2.663 1.336-.271.097 1.016.153-1.386.224v202.546c2.402.068 1.115.124 1.386.222.872.323 2.17.727 2.94 1.336.236.187.584.516.932.898.288.353.553.684.764 1.053 1.725 2.899 1.51 6.418-.233 8.587l-.336.38c-.08.084-.056.075-.221.233l-.156.129c-.18.16-.423.348-.747.545-.589.375-1.125.538-1.677.686a6.025 6.025 0 0 1-2.969-.06c-1.727-.48-2.78-1.524-3.248-2.315-.449-.825-.468-1.324-.497-1.312l.327-.104c.021-.015.156.433.692 1.022.53.574 1.544 1.246 2.969 1.353 1.412.09 3.165-.304 4.069-1.862.867-1.475.773-3.86-.512-5.578-.142-.219-.334-.414-.497-.591l-.23-.212-.404-.304a5.295 5.295 0 0 0-1.44-.65 6.575 6.575 0 0 0-3.516.051c-2.414.672-4.367 2.73-5.282 5.568-.958 2.811-.627 6.109.584 9.244a24.39 24.39 0 0 0 2.301 4.61 30.45 30.45 0 0 0 3.06 4.321c2.287 2.726 5.059 5.104 8.124 6.866 3.046 1.791 6.365 3.015 9.608 3.714 3.284.774 6.49 1.156 9.186.708 2.64-.35 4.784-1.945 5.63-4.003.925-2.003.24-4-1.247-5.021-1.465-1.059-3.2-.993-4.41-.307-1.242.657-1.893 1.726-2.205 2.448-.315.73-.35 1.215-.35 1.215l-.34-.02s-.098-.452.032-1.387c.17-.89.653-2.273 2.056-3.456a5.217 5.217 0 0 1 2.786-1.197c1.182-.144 2.424.08 3.603.732 1.156.636 2.306 1.719 2.842 3.25.584 1.501.502 3.285-.077 4.838a9.365 9.365 0 0 1-3.022 4.03c-1.386 1.11-3.158 1.66-4.897 1.881-3.527.394-6.899-.754-10.094-1.92zm46.916 48.293c1.384 1.478 2.76 2.864 4.36 3.585l.125.055c-.521-.446-.93-.858-1.207-1.136a56.715 56.715 0 0 1-1.767-1.877c-1.548-1.695-3.008-3.3-4.806-4.14a6.41 6.41 0 0 0-.714-.284c1.414 1.021 2.595 2.286 3.748 3.52l.26.277zm13.76 4.456l.087.15c-2.8 1.656-5.975 3.536-9.556 4.154-.75.129-1.494.192-2.227.192-3.403 0-6.534-1.358-8.344-3.72l2.711-2.105c1.567 2.047 4.358 2.534 6.558 2.326-1.856-.944-3.386-2.357-4.784-3.766l-.26-.262c-1.319-1.334-2.565-2.592-4.042-3.38-1.193-.636-2.94-1.058-4.28-.33l-10.618 5.773 8.602-8.516c3.052-3.019 7.318-3.843 11.136-2.158 2.393 1.057 4.145 2.871 5.84 4.627.54.557 1.08 1.118 1.638 1.646 2.338 2.212 4.194 2.927 6.021 2.328l9.229-3.043-7.638 6.035c-.024.017-.05.03-.072.049zm-9.275-29.502a21.234 21.234 0 0 0 2.67-.995c.425-.211.842-.418 1.238-.656l.537-.341c.2-.15.45-.313.608-.445.591-.48 1.246-1.149 1.707-1.803.98-1.331 1.537-2.78 1.7-4.136.085-.664-.01-1.382-.112-1.916l-.163-.596-.15-.387a5.623 5.623 0 0 0-.425-.834c-.681-1.149-1.634-2.05-2.619-2.764.236.31.467.634.66 1.01.452.898.837 1.941.874 3.088.046 1.144-.321 2.35-.891 3.44-.588 1.108-1.239 2.055-1.938 3.076-.704.983-1.438 1.99-2.31 2.954-.423.462-.889.902-1.386 1.305zm2.245 7.191c-6.41-.014-12.685-1.632-18.158-4.358-2.751-1.34-5.285-3.049-7.532-4.915a27.57 27.57 0 0 1-4.158-4.292 27.833 27.833 0 0 0 3.217 5.732c.441.609.924 1.198 1.429 1.776a42.333 42.333 0 0 0 4.22 3.915c.273.22.575.424.852.642a32.973 32.973 0 0 0 6.584 3.504c2.828 1.121 5.917 1.818 9.086 2.23 3.174.382 6.424.365 9.718-.002 6.567-.63 13.22-2.348 19.778-2.662 6.499-.376 12.93.625 17.462 3.726 2.252 1.5 3.881 3.683 4.388 5.866a7.372 7.372 0 0 1-.893 5.488c-.809 1.342-1.904 2.02-2.657 2.295-.772.28-1.2.25-1.197.28-.01-.014.104-.03.304-.093-.613.055-.968-.134-.924-.088l.05-.338c-.014-.046.857.27 1.873-.628.478-.431.958-1.17 1.018-2.068.073-.86-.43-1.898-1.37-2.59-.975-.705-2.213-1.13-3.688-.995-1.417.13-2.937.805-3.987 1.996-1.057 1.165-1.564 2.928-1.344 4.64.208 1.708 1.359 3.277 3.072 4.296 3.4 2.125 8.78 1.708 12.31-1.359 1.753-1.502 3.032-3.743 3.406-6.192.396-2.446-.394-5.087-1.91-7.392-3.108-4.63-8.407-8.143-14.093-10.1-2.881-.942-5.905-1.539-8.963-1.683-3.094-.098-6.115.24-9.192.731-6.101 1.033-12.25 2.653-18.701 2.638zm35.318 9.518c1.872.2 3.426.674 4.72 1.08 1.817.016 3.495.623 4.557 1.684 1.147 1.045 1.688 2.485 1.44 3.698-.017.072-.046.13-.065.202l.007-.011c.592-1.218.895-2.986.26-4.696-.66-1.73-2.183-3.305-4.244-4.458-2.051-1.152-4.658-1.856-7.408-2.244-2.774-.377-5.766-.335-8.857-.077-6.188.549-12.774 2.252-19.746 2.986a47.723 47.723 0 0 1-9.289.003c2.296.804 4.629 1.495 6.986 1.964 3.004.585 5.895.956 8.84 1.01a76.817 76.817 0 0 0 8.432-.331c2.725-.292 5.3-.57 7.68-.824 2.417-.238 4.7-.233 6.687.014zM44.518 445.15l-.051-.19s.225-.145.468-.494c.261-.343.574-.975.68-1.801.131-.801-.1-1.833-.633-2.315-.561-.588-1.493-.73-1.94-.106-.527.508-.768 2.125-.397 3.146.221.762.945 1.532 1.873 1.76zm6.165-4.734c-.044.392-.078.79-.17 1.172-.577 2.248-1.857 4.41-4.285 5.381-1.148.431-2.428.568-3.676.261a5.472 5.472 0 0 1-1.789-.804l-.44-.363-.27-.258c-.292-.327-.477-.558-.657-.872-1.304-2.446-.589-5.277 1.45-6.778 1.051-.709 2.338-.87 3.358-.624a4.562 4.562 0 0 1 2.47 1.477 3.804 3.804 0 0 1 .552 4.302c-.543 1.057-1.338 1.564-1.874 1.781-.114.041-.163.046-.253.07.212.005.411.044.63.01a4.434 4.434 0 0 0 1.234-.355c.51-.263.776-.49 1.148-.858.686-.682 1.141-1.625 1.377-2.611.336-1.318.117-2.675-.36-3.952-.124-.283-.24-.568-.35-.853a11.6 11.6 0 0 0-.582-1.086c-.581-.914-1.175-1.637-1.948-2.478a27.383 27.383 0 0 0-2.197-2.117 19.427 19.427 0 0 0-4.971-3.145c-.886-.368-1.725-.7-2.625-.982a21.044 21.044 0 0 0-2.494-.572c-1.623-.212-3.11-.108-4.35.411-1.261.47-2.24 1.365-2.787 2.205a4.933 4.933 0 0 0-.671 2.84c.131 1.75 1.085 2.561 1.032 2.561l-.21.275c.07-.017-1.292-.394-2.16-2.506-.411-1.007-.596-2.5-.093-4.02.55-1.632 1.776-3.097 3.504-4.112 1.727-1.014 3.956-1.44 6.117-1.243 1.095.08 2.153.288 3.236.64 1.01.327 2.08.734 3.065 1.28a21.872 21.872 0 0 1 5.518 4.156c.407.426.786.867 1.146 1.33a19.94 19.94 0 0 1 .032-2.514 17.712 17.712 0 0 1-.182-.996 14.519 14.519 0 0 1-.125-2.242c.086-2.884.981-5.637 2.604-7.827 1.61-2.2 4.036-3.708 6.537-4.071 2.487-.42 5.066.334 6.71 2.015 1.604 1.605 2.32 3.9 1.85 5.849-.506 2.015-1.946 3.323-3.46 3.844-.774.258-1.513.332-2.284.188a4.615 4.615 0 0 1-.957-.324 4.506 4.506 0 0 1-.8-.512c-.934-.775-1.382-1.727-1.545-2.51-.31-1.629.387-2.391.314-2.38l.311.15c.059-.015-.443.738.007 2.056a3.764 3.764 0 0 0 1.487 1.902c.2.124.414.232.645.317.207.07.42.122.759.158a3.245 3.245 0 0 0 1.552-.326c1.037-.48 2.005-1.618 2.2-2.887.216-1.338-.407-2.865-1.609-3.893-2.347-2.1-7.111-1.286-9.26 2.175-1.124 1.679-1.727 3.867-1.676 6.09.02.58.078 1.083.153 1.609.12.684.226 1.11.414 1.715a15.14 15.14 0 0 0 1.491 3.255c.837 1.354 1.883 2.638 3.063 3.856.088.073.159.146.249.217 1.097.994 2.394 1.932 3.749 2.943 1.35 1.018 2.796 2.115 4.426 3.089.207.132.447.217.664.339.78.09 1.667.182 2.642.234.803.06 1.664.068 2.553.068.883-.042 1.83-.059 2.725-.144 1.019-.1 1.927-.266 2.914-.58.954-.326 1.986-.633 2.971-1.128.988-.482 1.88-1.2 2.484-2.11.606-.867.937-1.987.913-2.979-.01-1.011-.246-1.922-.395-2.75-.158-.826-.287-1.61-.52-2.312-.4-1.428-1.02-2.556-1.54-3.37-.339-.519-.667-.92-.837-1.13-.424-.139-.662-.22-.662-.22l.027-.343s.27-.027.771-.073c.504-.02 1.25-.02 2.204.11.954.126 2.117.404 3.375.999 1.26.582 2.628 1.51 3.774 2.967.284.373.53.75.78 1.215l.358.726.229.583c.372 1.067.49 2.08.472 3.189-.034 2.187-.912 4.375-2.319 6.134a12.716 12.716 0 0 1-2.523 2.385c-.243.176-.43.283-.65.426-.316.203-.515.298-.78.451-.506.263-1.022.502-1.558.7-.36.138-.73.23-1.1.333.774-.056 1.555-.073 2.324-.148 2.1-.171 4.183-.47 6.263-.768l.287-.036c.978-.293 1.961-.58 2.903-.921l1.878-.746a23.932 23.932 0 0 0 1.827-.85c1.173-.604 2.295-1.279 3.3-2.07 1.017-.773 1.936-1.638 2.693-2.605.314-.429.769-1.006 1.034-1.479.287-.504.543-1.03.732-1.586.832-2.185.82-4.748-.2-6.9l-2.199-4.635 4.348 2.533a7.15 7.15 0 0 1 2.74 2.936 8.501 8.501 0 0 1 .88 3.666c.042 2.427-.744 4.849-2.206 6.644-1.4 1.825-3.241 3.17-5.153 4.285a44.382 44.382 0 0 1-5.458 2.622c.925-.105 1.852-.205 2.781-.288 6.329-.665 12.959-.353 18.895 1.835 2.983 1.033 5.791 2.448 8.414 4.105 2.562 1.703 5.07 3.608 6.966 6.098 1.9 2.443 3.19 5.615 2.936 8.845a12.458 12.458 0 0 1-3.929 8.293c-4.584 4.193-11.423 4.583-16.01 1.623-2.291-1.452-3.985-3.957-4.175-6.566-.245-2.563.747-4.994 2.365-6.573 1.054-1.018 2.273-1.64 3.509-1.985-.8-.11-1.657-.188-2.582-.18-1.905-.013-4.031.253-6.36.667-4.64.894-10.25 2.205-16.437 2.288-3.05.041-6.35-.19-9.519-.819a53.786 53.786 0 0 1-9.46-2.76c-6.13-2.478-11.773-6.042-16.374-10.179-2.941-2.597-5.443-5.535-7.265-8.575zm97.145 61.752c-1.095.506-2.092.96-3.335 1.861-.592.5-1.06.938-1.547 1.674-.465.68-.768 1.687-.666 2.615.037.45.214 1.028.47 1.374.313.473.678.752 1.063.968.768.415 1.516.408 2.13.287.62-.116 1.111-.429 1.435-.707.34-.279.554-.574.727-.806.33-.475.475-.77.475-.77l-.857.243c-.517.154-1.286.342-1.861.156-.293-.086-.57-.276-.682-.443-.047-.077-.075-.186-.03-.195-.01-.135.018-.114.034-.232.05-.216.166-.376.394-.669.205-.246.631-.654.98-.921.732-.527 1.868-1.27 2.737-1.929a27.919 27.919 0 0 0 2.445-1.974c1.397-1.235 2.198-2.305 2.198-2.305s-1.336.097-3.13.654c-.906.265-1.926.639-2.98 1.12zm49.666-24.087a3.722 3.722 0 0 0-1.09 2.64 3.73 3.73 0 0 0 3.717 3.738c.99 0 1.926-.391 2.627-1.096a3.75 3.75 0 0 0 0-5.282c-1.408-1.413-3.854-1.41-5.254 0zm1.965 7.31a3.195 3.195 0 0 0 0 4.51 3.184 3.184 0 0 0 4.507 0 3.195 3.195 0 0 0 0-4.51 3.19 3.19 0 0 0-4.507 0zm-22.164-41.64c-1.178 1.021-2.451 1.938-3.873 2.605-1.737.815-3.69 1.305-5.592 1.337a12.943 12.943 0 0 1-5.683-1.195 11.123 11.123 0 0 1-5.024-4.536c.022.19.017.406.059.577.19.985.62 1.94 1.183 2.822 1.134 1.778 2.819 3.232 4.76 4.142 3.907 1.806 8.965 1.055 11.784-2.202.952-1.065 1.705-2.28 2.386-3.55zm-11.356-14.534c-.19-.013-.377.014-.566.021.106.021.214.021.32.044 1.62.352 2.952 1.617 3.26 3.046.392 1.514-.606 2.94-1.616 3.464-1.02.6-2.122.743-3.066.553-1.814-.412-2.726-1.412-3.292-2.003l-.22-.266c-.155.231-.325.447-.45.704.063.792.418 1.704 1.409 2.281 1.395.868 3.815.954 5.801-.264.98-.595 1.794-1.517 2.149-2.578.357-1.072.23-2.392-.431-3.35-.17-.264-.318-.417-.619-.697a4.272 4.272 0 0 0-.717-.468 4.818 4.818 0 0 0-1.962-.487zm-5.63 3.92c.132.09.219.158.398.27.695.431 1.84 1.096 3.305 1.119.662-.007 1.446-.21 2.018-.625.589-.424.8-.977.535-1.478-.277-.544-.95-.966-1.82-1.056-.885-.119-2.022.14-2.95.616-.562.274-1.05.687-1.487 1.154zm37.28-27.568c-.405.415-.794.878-1.185 1.334a30.614 30.614 0 0 1 2.554-2.057c2.368-1.628 4.847-2.756 7.188-3.17 2.333-.456 4.46-.19 6.042.365.923.317 1.66.706 2.264 1.09a10.225 10.225 0 0 0-2.986-1.78c-1.77-.67-4.128-1.148-6.605-.55-1.205.26-2.345.908-3.634 1.745-1.255.814-2.472 1.839-3.638 3.023zm-.234 5.629c.844-.537 1.723-1.017 2.66-1.343 1.321-.47 2.81-.674 4.053-.532 1.467.126 2.592.545 3.64 1.077 2.047 1.098 3.228 2.729 3.707 3.923.488 1.212.466 1.939.466 1.939l-.322.125s-.115-.123-.327-.357a6.926 6.926 0 0 0-.94-.891 9.584 9.584 0 0 0-3.752-1.848c-.778-.214-1.755-.312-2.543-.32-1.01.04-1.919.123-2.956.37-1.02.231-2.075.628-3.108 1.172-1.025.574-2.09 1.126-3.129 1.9-2.102 1.487-3.542 3.82-4.081 6.24-.183.74-.345 1.466-.518 2.173.818-1.37 1.558-2.798 2.27-4.254.867-1.763 1.968-3.55 3.852-4.749a5.805 5.805 0 0 1 3.303-.906c.515.047.434.01.881.106.38.081.676.195.962.308a6.236 6.236 0 0 1 1.55.98 6.306 6.306 0 0 1 1.894 3.005c.352 1.128.2 2.591-.256 3.606-1.062 2.229-3.08 3.337-5.026 3.44-1.992.16-3.796-.992-4.519-2.41-.38-.72-.544-1.565-.383-2.291.064-.367.08-.264.154-.493.085-.214.19-.404.288-.527.2-.278.427-.485.664-.635.952-.591 1.862-.488 2.356-.232.488.303.566.596.58.579l-.256.234c0 .015-.193-.143-.534-.138-.323-.015-.852.2-1.148.7-.066.123-.131.238-.146.362-.025.071.005.108.005.108s-.034.337.017.217c.06.26.195.507.447.739.517.492 1.303.724 2.113.51.808-.19 1.704-.9 1.978-1.636.341-.697.197-1.778-.55-2.653a2.967 2.967 0 0 0-.615-.524l-.285-.155c.022-.032-.508-.133-.44-.131a4.224 4.224 0 0 0-1.974.116c-1.446.394-2.969 1.524-3.896 3.027-.94 1.61-1.811 3.27-2.51 4.985-.712 1.71-1.3 3.45-1.933 5.108-1.242 3.33-2.949 6.165-4.491 8.55a41.208 41.208 0 0 1-2.873 3.933c-1.157 2.18-2.6 4.244-4.536 5.95-1.77 1.66-4.223 2.651-6.573 2.86-2.373.242-4.772-.133-6.903-1.1-2.131-.964-3.965-2.5-5.378-4.338-.683-.943-1.264-1.98-1.64-3.116-.418-1.234-.43-2.28-.547-3.42-.315-4.427.991-9.333 4.462-12.289a9.83 9.83 0 0 1 1.352-1.015c.264-.165.52-.315.716-.411l.158-.084.24-.11.41-.18c1.108-.417 2.267-.604 3.4-.505a7.559 7.559 0 0 1 3.222.975c.498.3.925.606 1.399 1.084.312.322.732.827.983 1.298.662 1.187.877 2.45.83 3.67.276-.42.554-.843.82-1.303.328-.54.664-1.178.918-1.742a27.36 27.36 0 0 0 .82-1.98c.44-1.18.84-2.48 1.062-3.88-.102-1.3-.27-2.684-.551-4.152-.066-.404-.164-.81-.266-1.217-.037-.064-.059-.133-.098-.197-.879-1.544-2.26-2.785-3.766-3.79-1.509-1.025-3.142-1.862-4.685-2.902-1.552-1.02-3.117-2.113-4.508-3.423-1.362-1.284-2.602-2.922-3.286-4.624-.75-1.707-1.03-3.576-.832-5.256.07-.598.11-.67.246-1.207.115-.455.26-.798.41-1.155.306-.704.725-1.29 1.143-1.803.86-1.02 1.83-1.655 2.707-1.968.876-.313 1.545-.367 2.019-.34.476.05.612.101.612.101v.353s-.13.056-.52.206c-.388.146-.837.41-1.384.897a6.389 6.389 0 0 0-1.53 2.047c-.42.926-.679 1.857-.61 3.024.044 1.138.407 2.345 1.02 3.562a17.65 17.65 0 0 0 2.556 3.594c1.079 1.182 2.377 2.33 3.778 3.5a36.923 36.923 0 0 1 4.118 3.953 38.05 38.05 0 0 1 1.514 1.874c-.113-.313-.196-.633-.32-.94-.359-.947-.791-1.858-1.228-2.75-.464-.879-.923-1.743-1.43-2.551-.542-.779-1.038-1.56-1.585-2.254l-1.608-2.071c-1.035-1.338-1.7-2.747-1.836-3.774a4.173 4.173 0 0 1-.03-1.177l.06-.4s.126.57.617 1.336c.476.783 1.382 1.645 2.62 2.616 1.222.933 2.858 2.211 4.22 3.896.659.852 1.352 1.74 1.913 2.734.577.983 1.08 2.03 1.509 3.104.412 1.083.769 2.187 1.006 3.303.26 1.105.398 2.224.473 3.298.117 1.073.056 2.125-.002 3.103-.044.793-.164 1.53-.303 2.227.115 1.384.024 2.766-.325 4.027-.224.82-.585 1.76-.92 2.381a20.245 20.245 0 0 1-1.264 2.064 17.167 17.167 0 0 1-5.348 4.72c-.26.147-.479.256-.701.37-.371.285-.752.539-1.138.745-2.88 1.53-6.087 1.003-7.806-.593a4.385 4.385 0 0 1-1.05-1.439c-.046.394-.11.789-.085 1.188 0 .3.066.59.108.884.095.298.06.382.239.808.195.606.5 1.128.864 1.652.735 1.03 1.799 1.894 3.032 2.542a9.689 9.689 0 0 0 4.08 1.084c1.517.067 2.994-.264 4.47-.793a15.559 15.559 0 0 0 4.184-2.387c1.206-.894 2.295-1.985 3.303-3.187.256-.788.51-1.581.747-2.374 1.254-4.244 2.304-8.564 3.503-12.75 1.215-4.196 2.655-8.203 4.706-11.817 1.975-3.593 4.46-6.694 7.22-9.047 1.377-1.177 2.807-2.184 4.265-2.968 1.398-.793 3.007-1.403 4.577-1.564 3.06-.322 5.64.47 7.474 1.498 1.845 1.05 2.975 2.308 3.605 3.214.325.453.515.835.64 1.091.13.254.195.385.195.385l-.115.064-.173.207s-.376-.281-1.086-.626a9.372 9.372 0 0 0-3.264-.975c-1.447-.175-3.205-.101-5.109.487-1.897.594-3.927 1.655-5.922 3.195-1.591 1.182-3.124 2.625-4.613 4.266zm103.09-31.979v-202.8c-2.123.06-2.123.039-2.123-.059v202.92c0-.1 0-.122 2.123-.06zm9.06 7.916c1.08 3.819.16 8-1.445 11.468-1.63 3.497-4 6.525-6.765 9.056-2.72 2.582-5.822 4.629-8.923 6.466a71.359 71.359 0 0 1-9.596 4.59c-3.185 1.166-6.54 2.314-10.058 1.92-1.732-.221-3.5-.771-4.883-1.881a9.376 9.376 0 0 1-3.01-4.03c-.578-1.553-.66-3.337-.077-4.839.534-1.53 1.68-2.613 2.83-3.249 1.176-.652 2.417-.876 3.595-.732 1.104.12 2.103.61 2.778 1.197 1.398 1.183 1.88 2.565 2.05 3.456.13.935.031 1.387.031 1.387l-.34.02s-.034-.484-.347-1.215c-.312-.722-.96-1.79-2.199-2.448-1.207-.686-2.936-.752-4.397.307-1.482 1.022-2.165 3.018-1.243 5.02.843 2.06 2.982 3.654 5.614 4.004 2.687.448 5.884.066 9.158-.708 3.233-.699 6.542-1.923 9.577-3.714 3.058-1.762 5.821-4.14 8.101-6.866a30.45 30.45 0 0 0 3.051-4.322 24.42 24.42 0 0 0 2.294-4.61c1.207-3.134 1.538-6.432.582-9.243-.912-2.837-2.86-4.896-5.266-5.568a6.536 6.536 0 0 0-3.506-.051c-.52.139-1.07.409-1.437.65l-.402.304-.228.212c-.162.177-.354.372-.495.591-1.282 1.718-1.375 4.103-.51 5.578.9 1.558 2.648 1.952 4.056 1.862 1.42-.107 2.431-.779 2.96-1.353.532-.59.669-1.037.69-1.022l.323.104c-.026-.012-.045.487-.495 1.312-.465.791-1.516 1.835-3.238 2.315a5.988 5.988 0 0 1-2.96.06c-.549-.148-1.085-.311-1.67-.686a4.861 4.861 0 0 1-.746-.545l-.159-.13c-.165-.157-.148-.148-.227-.233l-.345-.38c-1.739-2.168-1.97-5.687-.254-8.586.213-.37.434-.7.721-1.053.347-.382.61-.711.848-.898.766-.609 1.343-1.013 2.213-1.336.27-.098.498-.154.498-.222V176.545c0-.068-.228-.124-.498-.221-.87-.324-1.28-.725-2.048-1.336a8.88 8.88 0 0 1-.93-.898c-.286-.353-.55-.684-.76-1.054-1.72-2.899-1.51-6.418.232-8.586l.333-.38c.081-.083.057-.075.222-.233l.156-.13c.177-.16.419-.347.745-.545.586-.374 1.12-.537 1.671-.686a6.008 6.008 0 0 1 2.958.06c1.722.48 2.773 1.524 3.24 2.315.448.825.467 1.324.496 1.315l-.326.102c-.021.017-.158-.433-.69-1.022-.529-.572-1.54-1.246-2.96-1.353-1.408-.09-3.156.306-4.056 1.861-.865 1.475-.772 3.86.51 5.578.141.22.333.414.495.592l.228.212.402.306c.367.239.917.509 1.437.648a6.536 6.536 0 0 0 3.506-.052c2.407-.671 4.354-2.73 5.266-5.568.956-2.81.625-6.109-.582-9.243a24.42 24.42 0 0 0-2.294-4.61 30.45 30.45 0 0 0-3.05-4.322c-2.28-2.726-5.044-5.103-8.102-6.865-3.035-1.792-6.344-3.016-9.577-3.714-3.274-.774-6.471-1.154-9.158-.709-2.632.35-4.77 1.945-5.614 4.004-.922 2.005-.239 3.999 1.243 5.02 1.461 1.06 3.19.994 4.397.31 1.238-.66 1.887-1.728 2.199-2.451.313-.73.347-1.214.347-1.214l.34.02s.098.452-.031 1.389c-.17.888-.652 2.27-2.05 3.453a5.193 5.193 0 0 1-2.778 1.198c-1.178.143-2.416-.08-3.592-.733-1.15-.635-2.3-1.718-2.833-3.249-.582-1.502-.498-3.283.079-4.838a9.36 9.36 0 0 1 3.012-4.028c1.385-1.112 3.154-1.662 4.888-1.884 3.516-.392 6.88.757 10.066 1.92a71.523 71.523 0 0 1 9.61 4.59c3.101 1.838 6.234 3.885 8.954 6.467 2.766 2.53 5.194 5.56 6.825 9.056 1.607 3.468 2.402 7.649 1.322 11.467-.507 1.904-1.228 3.69-2.572 5.123-1.123 1.23-3.494 2.089-3.494 2.602V379.41c0 .514 2.371 1.373 3.494 2.602 1.344 1.434 2.065 3.22 2.572 5.123zM232.5 456.838c-3.082.3-6.232.3-9.29-.003-6.97-.734-13.556-2.437-19.744-2.986-3.092-.258-6.084-.3-8.858.077-2.75.388-5.356 1.092-7.408 2.244-2.063 1.153-3.586 2.727-4.243 4.458-.635 1.71-.335 3.478.26 4.696l.007.011c-.02-.072-.049-.13-.066-.202-.247-1.213.294-2.653 1.44-3.698 1.063-1.061 2.743-1.668 4.557-1.684 1.295-.406 2.846-.88 4.72-1.08 1.984-.247 4.27-.252 6.688-.014 2.377.254 4.954.532 7.677.824a76.86 76.86 0 0 0 8.434.33c2.946-.053 5.836-.424 8.84-1.01 2.355-.468 4.69-1.159 6.986-1.963zm-39.784 6.736c-1.05-1.19-2.57-1.867-3.99-1.996-1.471-.134-2.71.29-3.684.994-.944.693-1.443 1.73-1.371 2.59.06.9.54 1.638 1.018 2.069 1.016.898 1.888.582 1.873.628l.048.338c.046-.046-.309.143-.921.088.2.063.31.08.304.094.002-.031-.425 0-1.197-.28-.753-.276-1.851-.954-2.657-2.296a7.372 7.372 0 0 1-.893-5.488c.506-2.183 2.135-4.366 4.387-5.866 4.532-3.1 10.964-4.102 17.463-3.726 6.557.314 13.21 2.032 19.777 2.662 3.294.367 6.545.384 9.716.003 3.171-.413 6.26-1.11 9.086-2.231a32.84 32.84 0 0 0 6.584-3.504c.28-.218.581-.421.854-.642a42.284 42.284 0 0 0 4.218-3.913c.505-.58.987-1.167 1.431-1.778a27.833 27.833 0 0 0 3.217-5.732 27.57 27.57 0 0 1-4.158 4.292c-2.246 1.866-4.78 3.575-7.532 4.915-5.473 2.726-11.748 4.344-18.16 4.358-6.448.015-12.6-1.605-18.698-2.638-3.077-.491-6.099-.83-9.193-.73-3.057.143-6.081.74-8.963 1.681-5.685 1.958-10.985 5.471-14.093 10.1-1.516 2.306-2.305 4.947-1.91 7.393.375 2.45 1.654 4.69 3.406 6.192 3.53 3.067 8.91 3.484 12.31 1.359 1.714-1.019 2.865-2.588 3.072-4.297.218-1.71-.287-3.474-1.344-4.639zm34.814-23.263c.393.238.813.445 1.238.656.836.38 1.733.714 2.67.995-.5-.403-.963-.843-1.385-1.305-.873-.964-1.607-1.97-2.311-2.954-.7-1.021-1.35-1.968-1.938-3.076-.572-1.09-.937-2.296-.89-3.44.036-1.147.421-2.19.87-3.089.196-.375.427-.7.663-1.01-.987.715-1.94 1.616-2.62 2.765a5.385 5.385 0 0 0-.424.834l-.15.387-.163.596c-.101.534-.197 1.252-.112 1.916.16 1.355.718 2.805 1.7 4.136a9.6 9.6 0 0 0 1.707 1.803c.158.132.409.296.608.445l.537.341zm38.002 4.65l-.05.189c.928-.228 1.652-.998 1.874-1.76.37-1.02.128-2.638-.397-3.146-.447-.624-1.38-.482-1.941.106-.533.482-.764 1.514-.632 2.315.103.826.416 1.458.68 1.8.242.35.466.496.466.496zm18.685-17.033c.501 1.52.319 3.013-.092 4.02-.869 2.112-2.232 2.49-2.161 2.506l-.21-.275c-.053 0 .901-.811 1.032-2.56a4.917 4.917 0 0 0-.674-2.84c-.545-.841-1.523-1.735-2.783-2.206-1.243-.519-2.727-.623-4.353-.411-.8.124-1.664.336-2.491.572-.9.283-1.74.614-2.626.982a19.427 19.427 0 0 0-4.97 3.145 27.383 27.383 0 0 0-2.197 2.117c-.774.84-1.368 1.564-1.95 2.478a11.6 11.6 0 0 0-.58 1.086c-.113.285-.227.57-.351.853-.477 1.277-.696 2.634-.36 3.952.233.986.69 1.929 1.377 2.611.372.368.637.595 1.148.858.355.16.818.307 1.234.355.219.034.418-.005.63-.01-.09-.024-.139-.029-.253-.07-.538-.217-1.33-.724-1.874-1.78a3.804 3.804 0 0 1 .553-4.303 4.553 4.553 0 0 1 2.47-1.477c1.019-.246 2.306-.085 3.357.624 2.037 1.5 2.754 4.332 1.448 6.778-.178.314-.363.545-.655.872l-.27.258-.44.363a5.495 5.495 0 0 1-1.789.804c-1.248.307-2.528.17-3.676-.26-2.43-.973-3.708-3.134-4.285-5.382-.092-.383-.126-.78-.17-1.172-1.822 3.04-4.326 5.978-7.265 8.575-4.601 4.137-10.243 7.701-16.377 10.179a53.762 53.762 0 0 1-9.458 2.76c-3.167.629-6.47.86-9.518.819-6.187-.083-11.8-1.394-16.438-2.288-2.33-.414-4.455-.68-6.36-.668-.924-.007-1.78.071-2.581.18 1.236.347 2.455.968 3.508 1.986 1.618 1.579 2.609 4.01 2.365 6.573-.19 2.61-1.885 5.114-4.175 6.566-4.586 2.96-11.426 2.57-16.01-1.623a12.458 12.458 0 0 1-3.929-8.293c-.253-3.23 1.034-6.402 2.937-8.845 1.895-2.49 4.404-4.395 6.966-6.098 2.62-1.657 5.43-3.072 8.413-4.105 5.937-2.188 12.567-2.5 18.893-1.835.932.083 1.859.183 2.784.288a44.585 44.585 0 0 1-5.46-2.622c-1.91-1.115-3.752-2.46-5.151-4.285-1.462-1.795-2.25-4.217-2.207-6.644.02-1.225.29-2.487.88-3.666a7.16 7.16 0 0 1 2.738-2.936l4.348-2.533-2.197 4.636c-1.02 2.151-1.034 4.714-.2 6.9.19.555.446 1.08.733 1.585.265.473.718 1.05 1.034 1.479.754.967 1.676 1.832 2.693 2.604 1.005.792 2.127 1.467 3.3 2.071.603.312 1.163.572 1.827.85l1.878.746c.942.34 1.925.628 2.903.92l.287.037c2.08.297 4.163.597 6.263.768.768.075 1.55.092 2.32.148-.367-.102-.736-.195-1.097-.334a13.51 13.51 0 0 1-1.557-.699c-.265-.153-.464-.248-.78-.45-.22-.144-.41-.251-.65-.427a12.716 12.716 0 0 1-2.524-2.385c-1.406-1.759-2.284-3.947-2.32-6.134-.018-1.109.102-2.122.471-3.19l.231-.582.358-.726a8.85 8.85 0 0 1 .781-1.215 10.225 10.225 0 0 1 3.774-2.967 11.375 11.375 0 0 1 3.375-1c.953-.128 1.7-.128 2.204-.109.501.046.771.073.771.073l.027.344-.662.219c-.17.21-.501.611-.837 1.13-.52.814-1.14 1.942-1.54 3.37-.234.701-.362 1.486-.52 2.312-.149.828-.385 1.739-.395 2.75-.024.992.304 2.112.913 2.98.603.908 1.496 1.627 2.484 2.11.983.494 2.017.8 2.97 1.127.988.314 1.896.48 2.915.58.896.085 1.842.102 2.725.144.889 0 1.75-.008 2.553-.068a41.946 41.946 0 0 0 2.642-.234c.217-.122.458-.207.664-.339 1.63-.974 3.073-2.07 4.426-3.09 1.355-1.01 2.652-1.948 3.75-2.942.09-.07.16-.144.245-.217 1.183-1.218 2.229-2.502 3.066-3.856a15.14 15.14 0 0 0 1.491-3.255c.188-.604.292-1.03.414-1.715.075-.526.134-1.028.153-1.608.051-2.224-.552-4.412-1.676-6.09-2.149-3.462-6.912-4.276-9.26-2.176-1.202 1.028-1.825 2.555-1.609 3.893.195 1.27 1.163 2.407 2.2 2.887a3.24 3.24 0 0 0 1.552.326c.338-.036.55-.087.76-.158.228-.085.445-.193.644-.317a3.777 3.777 0 0 0 1.487-1.902c.45-1.318-.051-2.071.007-2.057l.311-.148c-.073-.012.623.75.314 2.38-.163.782-.61 1.734-1.547 2.51a4.483 4.483 0 0 1-.798.51 4.664 4.664 0 0 1-.956.325c-.772.144-1.511.07-2.285-.188-1.513-.521-2.954-1.83-3.46-3.844-.47-1.95.246-4.244 1.85-5.85 1.644-1.68 4.223-2.433 6.71-2.014 2.5.363 4.927 1.87 6.535 4.07 1.625 2.19 2.52 4.944 2.606 7.828.01.7-.015 1.484-.124 2.242-.044.29-.107.64-.185.996.058.797.082 1.63.034 2.514.36-.463.74-.904 1.146-1.33a21.903 21.903 0 0 1 5.516-4.156c.987-.546 2.058-.953 3.068-1.28a13.483 13.483 0 0 1 3.236-.64c2.16-.197 4.389.23 6.116 1.243 1.728 1.015 2.954 2.48 3.504 4.112zM238.87 463.21c-.241.08-.48.173-.713.285-1.8.84-3.26 2.444-4.807 4.14a54.185 54.185 0 0 1-1.764 1.876c-.277.278-.686.69-1.21 1.136l.125-.055c1.6-.72 2.978-2.107 4.362-3.585l.255-.272c1.154-1.234 2.338-2.501 3.752-3.525zm9.44-1.228l8.608 8.52-10.622-5.778c-1.337-.727-3.086-.306-4.281.33-1.477.79-2.722 2.05-4.043 3.384l-.255.257c-1.378 1.39-2.889 2.78-4.705 3.724 2.684.242 5.175-.582 6.478-2.284l2.71 2.105c-1.809 2.36-4.938 3.719-8.342 3.719a13.12 13.12 0 0 1-2.224-.192c-3.58-.618-6.755-2.497-9.555-4.153l.09-.15c-.025-.02-.051-.032-.073-.049l-7.644-6.037 9.232 3.046c1.824.6 3.683-.117 6.02-2.328.56-.528 1.096-1.086 1.636-1.644 1.694-1.755 3.445-3.57 5.837-4.628 3.816-1.692 8.083-.86 11.133 2.158zm-87.811 48.257c.323.278.815.591 1.434.707.615.121 1.363.128 2.131-.287.384-.216.75-.495 1.062-.968.256-.346.433-.924.47-1.374.103-.928-.2-1.935-.666-2.615-.486-.736-.954-1.175-1.546-1.674-1.243-.9-2.24-1.355-3.335-1.86a22.541 22.541 0 0 0-2.98-1.12c-1.794-.557-3.13-.654-3.13-.654s.8 1.07 2.198 2.305a27.864 27.864 0 0 0 2.443 1.974c.87.66 2.007 1.402 2.738 1.929.35.267.774.675.98.921.23.293.346.453.394.669.017.118.045.097.033.232.047.009.019.118-.03.195-.11.167-.387.357-.68.443-.575.186-1.344-.002-1.861-.156l-.857-.243s.144.295.473.77c.174.232.386.527.729.806zm55.897-30.147c-1.577-2.572-3.702-4.312-5.603-5.44a12.882 12.882 0 0 0-4.88-1.747c-.462-.107-.845-.12-1.154-.134l.638.346c.791.544 2.002 1.368 3.164 2.802 1.184 1.405 2.279 3.416 2.935 5.9.638 2.484.815 5.457.125 8.583-.14.77-.43 1.605-.685 2.414l-.428 1.09c-.179.478-.378.802-.572 1.215-.793 1.563-1.852 3.064-3.124 4.436-2.54 2.748-5.988 4.922-9.859 6.194a26.731 26.731 0 0 1-6.118 1.217c-1.962.155-4.222.1-6.258-.232-2.432-.374-4.787-1.102-7.035-2.056a16.563 16.563 0 0 1-3.016-.981 21.77 21.77 0 0 1-3.24-1.763 28.443 28.443 0 0 1-5.508-4.634c-.75-.8-1.425-1.67-2.022-2.589-.307-.217-.616-.413-.92-.68-.254-.215-.384-.372-.58-.558-.263-.258-.406-.446-.612-.67a10.271 10.271 0 0 1-2.238-5.007c-.464-1.269-.773-2.593-.837-3.977-.007-.23.012-.458.015-.687a12.259 12.259 0 0 0-.307 1.637c-.55 4.333 1.427 8.88 4.534 12.715 3.116 3.875 7.07 7.318 11.553 9.957 4.517 2.59 9.601 4.352 14.84 4.588 5.197.305 10.372-.811 14.72-2.978 4.396-2.09 7.901-5.24 10.42-8.668 2.487-3.448 4.039-7.254 4.29-10.861.333-3.548-.644-6.93-2.238-9.432zm-46.533 6.056c-2.355.279-4.549-.783-5.261-2.532-.698-2.026.045-3.5.55-4.323.043-.06.078-.095.118-.147-.15.097-.3.193-.474.319-.488.36-1.097.816-1.61 1.468-.52.638-.907 1.498-.695 2.373.192.848.952 1.802 1.956 2.443 1.027.618 2.39.95 3.798.797a5.8 5.8 0 0 0 1.618-.398zm2.752 13.876a26.394 26.394 0 0 1-1.69-.51c.272.159.531.34.806.493 1.004.535 2.005 1.034 3.03 1.455 1.034.426 2.023.68 3.059.881 2.037.361 4.131.136 6.343-.406 2.252-.569 4.314-1.368 6.164-2.734 1.804-1.378 3.297-3.232 4.139-5.35.87-2.091 1.153-4.484.571-6.54-.065-.26-.197-.485-.294-.73.01.297.047.599.03.888a11.472 11.472 0 0 1-.637 3.262l-.295.747c-.122.277-.252.557-.381.792-.26.497-.56.965-.88 1.418-1.292 1.796-2.965 3.221-4.802 4.273-.876.5-1.855.995-2.844 1.373-.988.362-2 .654-3.023.879-2.05.443-4.159.554-6.23.354a17.877 17.877 0 0 1-3.066-.545zm-19.83-15.253c-.062-.554-.168-1.1-.305-1.637.002.229.022.458.014.687-.063 1.384-.373 2.708-.837 3.977a10.254 10.254 0 0 1-2.24 5.006c-.204.225-.346.413-.61.67-.196.187-.326.344-.581.56-.303.266-.612.462-.919.68a18.626 18.626 0 0 1-2.021 2.588 28.444 28.444 0 0 1-5.51 4.634 21.77 21.77 0 0 1-3.24 1.763c-.93.403-1.964.751-3.018.98-2.245.955-4.6 1.683-7.032 2.057-2.039.332-4.296.387-6.259.232a26.706 26.706 0 0 1-6.118-1.217c-3.87-1.272-7.32-3.446-9.859-6.194-1.272-1.372-2.331-2.873-3.124-4.436-.194-.413-.393-.737-.573-1.214l-.427-1.09c-.255-.81-.545-1.645-.685-2.415a18.588 18.588 0 0 1 .123-8.583c.658-2.484 1.753-4.495 2.937-5.9 1.162-1.434 2.37-2.258 3.164-2.802l.638-.346c-.31.015-.692.027-1.154.134a12.883 12.883 0 0 0-4.88 1.747c-1.902 1.128-4.029 2.868-5.603 5.44-1.594 2.503-2.572 5.884-2.238 9.432.25 3.607 1.8 7.413 4.286 10.86 2.523 3.43 6.028 6.579 10.424 8.67 4.348 2.166 9.523 3.282 14.72 2.977 5.24-.236 10.324-1.997 14.84-4.588 4.483-2.64 8.438-6.082 11.555-9.957 3.107-3.835 5.084-8.382 4.531-12.715zm-26.948 17.166c2.212.542 4.306.767 6.343.406 1.036-.2 2.025-.455 3.058-.88 1.026-.422 2.027-.921 3.031-1.456.272-.153.534-.334.806-.492-.541.183-1.088.351-1.692.51-1.001.262-2.027.46-3.063.544-2.072.2-4.184.089-6.234-.354a23.666 23.666 0 0 1-3.023-.879c-.986-.378-1.965-.873-2.843-1.373-1.835-1.052-3.51-2.477-4.8-4.273a12.137 12.137 0 0 1-1.264-2.21l-.292-.747a11.472 11.472 0 0 1-.637-3.262c-.017-.29.018-.591.03-.888-.1.245-.23.47-.294.73-.582 2.056-.3 4.449.571 6.54.842 2.118 2.335 3.972 4.14 5.35 1.85 1.366 3.909 2.165 6.163 2.734zm14.3-15.789a5.802 5.802 0 0 0 1.618.398c1.406.152 2.772-.179 3.796-.797 1.005-.64 1.768-1.595 1.957-2.443.215-.875-.172-1.735-.693-2.373-.513-.652-1.122-1.109-1.61-1.468-.175-.126-.324-.222-.474-.32.04.053.075.089.117.148.506.824 1.25 2.297.551 4.323-.713 1.75-2.906 2.81-5.262 2.532zm76.343-7.537c2.109 2.827 3.45 6.797 3.263 11.255-.187 4.381-1.82 8.996-4.73 12.938-2.92 3.938-7.21 7.017-11.994 8.914-4.797 1.862-10.064 2.715-15.367 2.435-5.272-.287-10.648-1.706-15.521-4.143a42.865 42.865 0 0 1-6.963-4.36c-2.15-1.74-4.122-3.597-5.927-5.73-2.041-2.41-3.759-5.298-4.772-8.415-1.013 3.117-2.733 6.005-4.773 8.416-1.803 2.132-3.775 3.99-5.925 5.73a42.865 42.865 0 0 1-6.963 4.359c-4.873 2.437-10.25 3.856-15.52 4.143-5.304.28-10.57-.573-15.371-2.435-4.781-1.897-9.074-4.976-11.991-8.914-2.91-3.942-4.543-8.557-4.73-12.938-.19-4.458 1.154-8.428 3.262-11.255 2.048-2.839 4.51-4.718 6.759-5.69 2.244-1.007 4.161-1.228 5.46-1.208.657-.027 1.111.087 1.44.107l.485.057-.005.176.092.149-1.068.964c-.635.68-1.604 1.652-2.398 3.176-.802 1.496-1.582 3.43-1.849 5.77-.226 2.326-.155 5.01.67 7.734.173.707.433 1.312.671 1.991l.496 1.101c.107.265.342.632.507.947.746 1.297 1.626 2.582 2.73 3.73a23.491 23.491 0 0 0 8.319 5.502 22.275 22.275 0 0 0 5.116 1.319c1.669.218 3.202.206 4.825.094-.037-.015-.078-.027-.114-.045-1.118-.498-2.192-1.026-3.239-1.708a16.608 16.608 0 0 1-2.86-2.36 19.157 19.157 0 0 1-4.11-5.999c-.915-2.249-1.547-4.708-1.224-7.32.32-2.538 1.929-5.325 4.856-6.215l4.179-1.275-2.937 3.566c-.887 1.076-1.208 2.62-1.033 4.2a8.51 8.51 0 0 0 .571 2.301l.258.57.267.481c.194.34.425.665.668.98.989 1.257 2.315 2.29 3.748 3.161.768.444 1.494.796 2.272 1.123.777.335 1.581.615 2.4.841 1.647.422 3.35.67 5.068.655a19.9 19.9 0 0 0 2.572-.196c.365-.05.765-.124 1.164-.206a9.716 9.716 0 0 1-1.866-.617c-1.074-.457-2.021-1.146-2.772-1.853a9.75 9.75 0 0 1-1.822-2.278 9.39 9.39 0 0 1-1.316-4.017c-.07-1.007.024-1.562.024-1.562s.2.535.634 1.366a12.244 12.244 0 0 0 2.22 2.968c1.057 1.024 2.49 1.986 4.08 2.465 1.639.49 3.466.505 5.225.042.877-.221 1.72-.573 2.502-1.002.386-.218.77-.471 1.083-.687.158-.097.387-.312.576-.461.112-.084.301-.28.45-.414 1.236-1.213 2.098-2.715 2.633-4.116.493-1.3.685-2.485.768-3.405-.185-1.663-.722-3.233-1.565-4.478a7.51 7.51 0 0 0-1.506-1.644c-.654-.555-1.178-.796-1.859-1.029-2.626-.892-5.687.04-6.724 2.115-.493.848-.644 2.148-.367 3.147.122.49.394 1.014.595 1.326.358.474.65.71 1.074.963.814.458 1.783.595 2.595.431.204-.045.398-.1.583-.174.165-.074.296-.119.527-.282.272-.181.53-.422.712-.72.729-1.266.447-2.762.153-3.55-.287-.85-.666-1.22-.666-1.22l.124-.124.07-.159s.644.199 1.788.796c.562.313 1.252.737 1.946 1.446.676.677 1.426 1.815 1.312 3.305-.284 2.923-3.299 5.517-7.079 5.47-1.832.002-3.982-.645-5.505-2.368-1.552-1.718-2.186-4.265-1.802-6.645.398-2.395 1.518-4.714 3.811-6.425 2.08-1.537 5.041-2.018 7.643-1.45 2.619.518 5.184 2.043 6.904 4.227a13.68 13.68 0 0 1 2.072 3.715 13.68 13.68 0 0 1 2.073-3.715c1.72-2.184 4.285-3.709 6.904-4.227 2.602-.568 5.563-.087 7.642 1.45 2.294 1.711 3.414 4.03 3.81 6.425.386 2.38-.248 4.927-1.8 6.645-1.524 1.723-3.674 2.37-5.505 2.368-3.78.047-6.795-2.547-7.08-5.47-.114-1.49.637-2.628 1.312-3.305.695-.71 1.383-1.133 1.946-1.446 1.144-.597 1.786-.796 1.786-.796l.073.159.124.124s-.38.37-.666 1.22c-.294.788-.576 2.284.153 3.55.182.298.437.539.712.72.23.163.36.208.527.282.185.075.379.13.583.174.811.164 1.778.027 2.595-.431a3.334 3.334 0 0 0 1.073-.963c.202-.312.474-.835.595-1.326.277-1 .127-2.299-.366-3.147-1.038-2.075-4.099-3.007-6.725-2.115-.68.233-1.207.474-1.858 1.03a7.51 7.51 0 0 0-1.506 1.643c-.843 1.245-1.38 2.815-1.565 4.478.083.92.275 2.105.765 3.405.537 1.4 1.4 2.903 2.636 4.116.148.134.338.33.45.414.187.149.417.364.575.461.314.216.695.469 1.084.687.782.429 1.625.781 2.502 1.002 1.756.463 3.586.448 5.223-.042 1.591-.479 3.025-1.441 4.081-2.465a12.308 12.308 0 0 0 2.22-2.968c.433-.83.635-1.366.635-1.366s.095.555.024 1.562a9.39 9.39 0 0 1-1.317 4.017 9.75 9.75 0 0 1-1.822 2.278c-.75.707-1.7 1.396-2.771 1.853a9.716 9.716 0 0 1-1.866.617c.398.082.797.156 1.164.206.855.114 1.712.193 2.57.196 1.717.014 3.423-.233 5.07-.655a18.508 18.508 0 0 0 2.4-.84c.777-.328 1.501-.68 2.269-1.124 1.433-.87 2.762-1.904 3.75-3.161.244-.315.475-.64.669-.98l.267-.48.255-.571c.29-.729.5-1.515.573-2.301.175-1.58-.148-3.124-1.032-4.2l-2.94-3.566 4.181 1.275c2.928.89 4.536 3.677 4.857 6.216.323 2.61-.309 5.07-1.225 7.32a19.124 19.124 0 0 1-4.113 5.997 16.59 16.59 0 0 1-2.856 2.361c-1.048.682-2.121 1.21-3.239 1.708-.036.018-.078.03-.116.045 1.625.112 3.158.124 4.827-.094a22.275 22.275 0 0 0 5.116-1.32 23.513 23.513 0 0 0 8.318-5.501c1.105-1.148 1.985-2.433 2.73-3.73.166-.315.399-.682.508-.947l.496-1.1c.238-.68.498-1.285.668-1.992.828-2.725.899-5.408.67-7.734-.265-2.34-1.044-4.274-1.846-5.77-.794-1.524-1.764-2.496-2.398-3.176-.697-.63-1.069-.964-1.069-.964l.093-.15-.005-.175.486-.057c.325-.02.782-.134 1.438-.107 1.3-.02 3.216.201 5.461 1.208 2.25.972 4.71 2.851 6.758 5.69zm-27.714 47.727c.474 2.373.095 4.548-.758 6.548-.838 1.99-2.271 3.723-4.107 4.882-.91.589-1.936.982-2.968 1.254-.726.11-.807.174-1.535.198a7.18 7.18 0 0 1-1.653-.079c-2.058-.284-3.794-1.235-5.175-2.39-1.37-1.182-2.34-2.696-2.814-4.294a6.826 6.826 0 0 1 .247-4.63c1.127-2.695 3.616-4.252 5.74-4.245 2.112-.003 3.498.98 4.17 1.738.35.387.531.74.651.97.1.242.152.363.152.363l-.313.146s-.22-.47-.946-1.014c-.683-.541-2.01-1.14-3.59-.858-1.508.255-3.2 1.583-3.74 3.617-.579 1.967.328 4.352 2.428 5.89 2.093 1.555 5.04 2.058 7.336.396 1.132-.792 2.09-1.972 2.704-3.358.619-1.354.836-3.038.648-4.418-.437-3.179-3.088-5.947-6.486-7.23-3.295-1.347-7.468-1-10.974.706-1.765.849-3.405 2.043-4.801 3.41a19.481 19.481 0 0 0-3.43 4.824c-1.79 3.524-2.557 7.404-2.694 11.124-.2 3.698.677 7.148 2.716 9.368 1.95 2.32 4.914 2.938 7.097 1.746.525-.272.983-.613 1.322-1.018.17-.208.25-.284.445-.675.086-.167.184-.413.223-.637.188-.93-.073-2.017-.626-2.804-.577-.773-1.318-1.29-2.142-1.357-.73-.11-1.461.26-1.992.778-1.083 1.099-1.208 2.53-.941 3.295.247.777.77 1.097.74 1.109l-.22.262c.04-.03-.532-.14-1.156-1.094-.533-.923-.738-2.693.438-4.455.565-.851 1.701-1.74 3.197-1.75 1.399-.086 2.915.67 3.902 1.827.976 1.16 1.675 2.76 1.44 4.592a5.024 5.024 0 0 1-.386 1.376c-.098.26-.391.81-.675 1.183a6.829 6.829 0 0 1-2.122 1.874 8.338 8.338 0 0 1-5.78.892c-1.994-.417-3.869-1.698-5.113-3.255-1.135-1.393-1.88-3.1-2.225-4.85-.345 1.75-1.09 3.457-2.225 4.85-1.244 1.557-3.12 2.838-5.114 3.255a8.338 8.338 0 0 1-5.78-.892 6.829 6.829 0 0 1-2.121-1.874 5.942 5.942 0 0 1-.677-1.183 5.104 5.104 0 0 1-.384-1.376c-.237-1.831.462-3.431 1.44-4.592.987-1.157 2.503-1.913 3.902-1.827 1.496.01 2.632.899 3.197 1.75 1.176 1.762.97 3.532.438 4.455-.626.953-1.196 1.063-1.157 1.094l-.22-.262c-.029-.012.492-.332.741-1.109.267-.765.14-2.196-.941-3.295-.53-.518-1.262-.888-1.992-.778-.824.067-1.565.584-2.142 1.357-.555.787-.814 1.874-.626 2.804.04.224.137.47.223.637.195.391.276.467.445.675.34.405.797.746 1.322 1.018 2.183 1.192 5.146.575 7.097-1.746 2.039-2.22 2.914-5.67 2.716-9.368-.137-3.72-.904-7.6-2.694-11.124a19.545 19.545 0 0 0-3.43-4.824c-1.398-1.367-3.036-2.561-4.801-3.41-3.508-1.705-7.679-2.053-10.974-.706-3.398 1.283-6.049 4.051-6.486 7.23-.188 1.38.03 3.064.648 4.418.613 1.386 1.572 2.566 2.704 3.358 2.295 1.662 5.243 1.159 7.336-.396 2.1-1.538 3.007-3.923 2.428-5.89-.54-2.034-2.232-3.362-3.74-3.617-1.58-.282-2.907.317-3.59.858-.728.544-.946 1.014-.946 1.014l-.313-.146s.052-.121.152-.362c.12-.232.3-.584.648-.97.675-.76 2.06-1.742 4.173-1.74 2.124-.006 4.613 1.55 5.738 4.245a6.811 6.811 0 0 1 .249 4.631c-.474 1.598-1.445 3.112-2.814 4.295-1.381 1.154-3.117 2.105-5.175 2.39a7.18 7.18 0 0 1-1.653.078c-.728-.024-.81-.088-1.535-.198-1.032-.272-2.059-.665-2.968-1.254-1.838-1.16-3.269-2.893-4.107-4.882-.853-2-1.232-4.175-.758-6.548.873-4.435 4.68-8.007 8.98-9.326 4.459-1.464 9.275-.453 12.937 1.903 3.74 2.292 6.43 5.759 8.248 9.393 1.819 3.663 2.904 7.562 3.601 11.389.697-3.827 1.782-7.726 3.601-11.389 1.819-3.634 4.508-7.101 8.248-9.393 3.66-2.356 8.478-3.367 12.935-1.903 4.303 1.32 8.11 4.891 8.982 9.326z" fill="#FFF" fill-rule="evenodd"/></svg>