<svg width="120" height="14" xmlns="http://www.w3.org/2000/svg" xmlns:xlink="http://www.w3.org/1999/xlink"><defs><path d="M120 7l-42.268-.825c-.277-2.605-1.809-3.157-3.2-3.157-1.249 0-2.64.412-3.894 1.098L66.467 0l-3.2 3.157L60.068 0 56.87 3.157 53.675 0l-4.171 4.116c-1.39-.546-2.781-1.093-3.895-1.093-1.39 0-2.922.547-3.199 3.157L0 7l42.268.825c.277 2.605 1.809 3.157 3.2 3.157 1.249 0 2.64-.412 3.894-1.098L53.533 14l3.2-3.157L59.932 14l3.199-3.157 3.2 3.157 4.17-4.116c1.25.546 2.64 1.098 3.895 1.098 1.39 0 2.922-.546 3.2-3.157L120 7zM74.39 3.843c.973 0 2.086.273 2.363 2.332l-4.312-.14-1.391-1.372c1.255-.407 2.368-.82 3.34-.82zM67.162 7c.554-.413 1.668-1.099 2.922-1.785l1.532 1.512v.546l-1.532 1.512C68.83 8.233 67.721 7.547 67.161 7zm-.83-5.488l3.057 3.017c-1.25.686-2.363 1.372-2.922 1.785l-2.504-2.471 2.368-2.331zM65.634 7l-2.363 2.332L60.91 7l2.363-2.332L65.635 7zm-5.562-5.488l2.363 2.331-2.363 2.47-2.363-2.33 2.363-2.471zM59.236 7l-2.362 2.332L54.51 7l2.363-2.332L59.236 7zm-5.562-5.488l2.363 2.331-2.504 2.47c-.554-.412-1.667-1.098-2.922-1.784l3.063-3.017zm-.836 5.627c-.554.413-1.668 1.1-2.922 1.785l-1.532-1.511v-.547l1.532-1.512c1.254.547 2.368 1.233 2.922 1.785zm-7.23-3.296c.973 0 2.086.413 3.2.826l-1.39 1.372-4.313.139c.418-2.063 1.531-2.337 2.504-2.337zm0 6.448c-.972 0-2.085-.273-2.362-2.331l4.313.139 1.39 1.372c-1.255.413-2.368.82-3.34.82zm8.066 2.198L50.617 9.47c1.249-.686 2.362-1.372 2.922-1.785l2.504 2.471-2.369 2.332zm6.399 0l-2.363-2.332 2.363-2.331 2.363 2.331-2.363 2.332zm6.257 0l-2.363-2.332 2.504-2.47c.554.412 1.668 1.098 2.923 1.784L66.33 12.49zm8.06-2.198c-.972 0-2.085-.413-3.199-.825l1.391-1.372 4.313-.14c-.277 2.064-1.527 2.337-2.504 2.337z" id="a"/></defs><g fill="none" fill-rule="evenodd"><use fill="#FFA28A" xlink:href="#a"/><use fill="#FFCEC5" xlink:href="#a"/><use fill="#BB946A" xlink:href="#a"/></g></svg>