<svg width="146" height="52" xmlns="http://www.w3.org/2000/svg"><g fill="none" fill-rule="evenodd"><path d="M71.32 14.93h1.05l.87 2.41.88-2.41h1.06l-1.22 3.16 1.07 2.61 2.21-5.8h1.22L75.54 22h-.97l-1.32-3.18L71.92 22h-.96l-2.92-7.1h1.21l2.23 5.8 1.05-2.61-1.21-3.16zm17.85 6.08V22H84.3v-7.1h4.78v.99h-3.66v2.02h3.17v.93h-3.17v2.17h3.75zm6.2.99v-7.1h2.52c.573 0 1.075.093 1.505.28.43.187.79.44 1.08.76.29.32.508.695.655 1.125.147.43.22.888.22 1.375 0 .54-.082 1.028-.245 1.465a3.2 3.2 0 0 1-.695 1.12c-.3.31-.663.55-1.09.72-.427.17-.903.255-1.43.255h-2.52zm4.84-3.56c0-.373-.052-.717-.155-1.03a2.112 2.112 0 0 0-1.185-1.33 2.402 2.402 0 0 0-.98-.19h-1.4v5.12h1.4c.373 0 .705-.065.995-.195.29-.13.533-.31.73-.54.197-.23.345-.502.445-.815.1-.313.15-.653.15-1.02zm7.34 3.56v-7.1h2.52c.573 0 1.075.093 1.505.28.43.187.79.44 1.08.76.29.32.508.695.655 1.125.147.43.22.888.22 1.375 0 .54-.082 1.028-.245 1.465a3.2 3.2 0 0 1-.695 1.12c-.3.31-.663.55-1.09.72-.427.17-.903.255-1.43.255h-2.52zm4.84-3.56c0-.373-.052-.717-.155-1.03a2.112 2.112 0 0 0-1.185-1.33 2.402 2.402 0 0 0-.98-.19h-1.4v5.12h1.4c.373 0 .705-.065.995-.195.29-.13.533-.31.73-.54.197-.23.345-.502.445-.815.1-.313.15-.653.15-1.02zm7.34 3.56v-7.09h1.12V22h-1.12zm8.84-5v5h-1.12v-7.1h.88l4.06 5.12v-5.11h1.13V22h-.93l-4.02-5zm16.45 4.12c-.58.62-1.257.93-2.03.93-.46 0-.892-.102-1.295-.305a3.466 3.466 0 0 1-1.05-.81 3.85 3.85 0 0 1-.955-2.515c0-.48.085-.937.255-1.37.17-.433.403-.813.7-1.14a3.292 3.292 0 0 1 1.055-.775c.407-.19.85-.285 1.33-.285.667 0 1.227.142 1.68.425.453.283.797.658 1.03 1.125l-.86.62a2.023 2.023 0 0 0-.785-.87 2.126 2.126 0 0 0-1.095-.29 1.85 1.85 0 0 0-.89.215 2.214 2.214 0 0 0-.685.57 2.61 2.61 0 0 0-.44.825c-.103.313-.155.64-.155.98 0 .36.057.697.17 1.01.113.313.272.587.475.82.203.233.442.418.715.555.273.137.57.205.89.205.72 0 1.367-.35 1.94-1.05v-.75h-1.49v-.83h2.43V22h-.94v-.88zM68.8 37v-7.1h2.98c.32 0 .615.067.885.2s.502.308.695.525c.193.217.345.463.455.74.11.277.165.558.165.845a2.452 2.452 0 0 1-.59 1.605c-.187.217-.412.39-.675.52a1.95 1.95 0 0 1-.875.195h-1.92V37H68.8zm1.12-3.46h1.85a.94.94 0 0 0 .77-.38c.093-.12.167-.26.22-.42.053-.16.08-.337.08-.53 0-.2-.03-.38-.09-.54a1.266 1.266 0 0 0-.25-.415 1.143 1.143 0 0 0-.365-.27 1 1 0 0 0-.425-.095h-1.79v2.65zM80.01 37v-7.1h1.12v6.11h3.81V37h-4.93zm10.17 0l2.86-7.1h.92l2.85 7.1h-1.19l-.76-1.93h-2.74L91.38 37h-1.2zm3.32-5.85l-1.18 3.09h2.32l-1.14-3.09zm10.29.85v5h-1.12v-7.1h.88l4.06 5.12v-5.11h1.13V37h-.93l-4.02-5zm12.67 0v5h-1.12v-7.1h.88l4.06 5.12v-5.11h1.13V37h-.93l-4.02-5zm16.42 4.01V37h-4.87v-7.1h4.78v.99h-3.66v2.02h3.17v.93h-3.17v2.17h3.75zm6.2.99v-7.1h3.09c.32 0 .615.067.885.2s.502.308.695.525c.193.217.345.463.455.74.11.277.165.558.165.845a2.419 2.419 0 0 1-.38 1.3 1.97 1.97 0 0 1-.44.485 1.813 1.813 0 0 1-.57.305l1.69 2.7h-1.27l-1.56-2.47h-1.64V37h-1.12zm1.12-3.46h1.96c.16 0 .305-.035.435-.105.13-.07.242-.167.335-.29.093-.123.167-.265.22-.425.053-.16.08-.33.08-.51s-.032-.35-.095-.51c-.063-.16-.147-.3-.25-.42a1.185 1.185 0 0 0-.36-.285.921.921 0 0 0-.425-.105h-1.9v2.65z" fill="#5F9191"/><path d="M44.11 27.666c-1.483 1.122-2.81 2.747-4.069 3.776-.46-1.97-1.66-3.69-3.514-4.634a6.587 6.587 0 0 0-1.011-.414 6.72 6.72 0 0 0 1.011-.413c1.854-.943 3.052-2.665 3.514-4.635 1.256 1.031 2.586 2.654 4.068 3.777 2.454 1.856 5.942 1.636 6.913-1.55.674-2.21-.52-4.986-2.785-5.408-.778-.144-1.734-.115-2.64.451-.559.352-.957.947-.959 1.48a1.214 1.214 0 0 0 1.218 1.219c.674 0 1.218-.636 1.218-1.218 0-.583-.293-.918-.715-1.11 1.367-.517 2.794-.164 3.6 1.341 1.677 3.13-1.075 6.086-4.12 4.746-2.041-.898-3.828-3.417-5.624-4.73.342-2.201-.176-5.246.63-7.322 1.208-3.104 5.245-2.96 6.272.44.493 1.633-.267 2.894-1.598 3.494.162-.433.133-.878-.278-1.291-.414-.412-1.247-.476-1.723 0a1.214 1.214 0 0 0 0 1.722c.378.374 1.083.516 1.725.37 1.04-.239 1.738-.894 2.185-1.548 1.303-1.9.185-4.708-1.854-5.793-2.939-1.565-5.561.747-5.984 3.792-.256 1.84-.045 3.93-.205 5.546-1.718-1.067-3.783-1.436-5.761-.79a6.503 6.503 0 0 0-1.01.421c.165-.315.307-.65.423-1.009.642-1.976.276-4.043-.791-5.761 1.618-.16 3.705.05 5.546-.205 3.047-.422 5.36-3.045 3.792-5.984-1.085-2.039-3.892-3.157-5.793-1.854-.654.447-1.31 1.145-1.547 2.185-.147.642-.007 1.345.369 1.725.471.48 1.247.476 1.722 0 .476-.476.412-1.312 0-1.723-.413-.411-.858-.442-1.291-.278.6-1.333 1.86-2.091 3.494-1.598 3.4 1.027 3.544 5.064.44 6.271-2.076.807-5.121.29-7.322.631-1.313-1.798-3.832-3.585-4.73-5.623-1.34-3.048 1.616-5.8 4.746-4.122 1.505.807 1.858 2.234 1.34 3.601-.19-.422-.526-.715-1.109-.715-.582 0-1.218.546-1.218 1.218 0 .673.545 1.222 1.218 1.218.531-.005 1.13-.4 1.48-.958.567-.905.596-1.863.452-2.64-.422-2.266-3.199-3.46-5.408-2.786-3.186.971-3.406 4.461-1.55 6.913 1.123 1.482 2.748 2.81 3.777 4.068-1.97.46-3.69 1.66-4.635 3.514a6.587 6.587 0 0 0-.413 1.011 6.72 6.72 0 0 0-.414-1.011c-.942-1.854-2.665-3.052-4.634-3.514 1.031-1.256 2.654-2.586 3.776-4.068 1.856-2.454 1.636-5.942-1.55-6.913-2.209-.674-4.985.52-5.407 2.785-.145.778-.116 1.734.45 2.64.35.559.948.957 1.481.959a1.216 1.216 0 0 0 1.218-1.218c0-.674-.635-1.218-1.218-1.218-.582 0-.918.293-1.109.715-.518-1.367-.164-2.794 1.34-3.6 3.13-1.677 6.087 1.075 4.746 4.12-.898 2.041-3.416 3.828-4.73 5.624-2.2-.342-5.246.176-7.322-.63-3.103-1.208-2.959-5.245.44-6.272 1.634-.493 2.894.267 3.492 1.598-.433-.162-.878-.133-1.291.278-.411.411-.476 1.247 0 1.723s1.25.48 1.723 0c.373-.378.515-1.083.369-1.725-.238-1.04-.894-1.738-1.548-2.185-1.9-1.303-4.708-.185-5.793 1.854-1.564 2.939.747 5.561 3.793 5.984 1.84.256 3.93.045 5.546.205-1.067 1.718-1.436 3.783-.792 5.761.116.358.258.694.423 1.01a6.506 6.506 0 0 0-1.01-.423c-1.976-.642-4.043-.276-5.761.791-.16-1.616.051-3.705-.205-5.546-.422-3.047-3.045-5.36-5.984-3.792-2.038 1.085-3.156 3.892-1.854 5.793.447.654 1.145 1.31 2.185 1.547.643.147 1.345.005 1.725-.369a1.214 1.214 0 0 0 0-1.722c-.475-.476-1.311-.412-1.722 0-.412.41-.443.858-.278 1.291-1.334-.6-2.092-1.86-1.598-3.494 1.026-3.4 5.063-3.544 6.27-.44.807 2.076.29 5.123.632 7.322-1.799 1.313-3.586 3.832-5.624 4.73-3.048 1.34-5.8-1.616-4.121-4.746.807-1.505 2.234-1.858 3.6-1.34-.422.19-.715.526-.715 1.109 0 .582.547 1.218 1.218 1.218.674 0 1.223-.547 1.218-1.218-.004-.531-.4-1.13-.958-1.48-.904-.567-1.863-.596-2.64-.452-2.266.422-3.46 3.199-2.786 5.408.972 3.186 4.461 3.406 6.913 1.55 1.483-1.123 2.81-2.748 4.068-3.777.46 1.97 1.66 3.69 3.514 4.635.336.17.674.307 1.012.413a6.72 6.72 0 0 0-1.012.414c-1.854.942-3.052 2.665-3.514 4.634-1.256-1.031-2.585-2.654-4.068-3.776C4.646 25.81 1.16 26.03.187 29.216c-.673 2.209.52 4.985 2.785 5.407.778.145 1.734.116 2.641-.45.558-.352.956-.948.958-1.481a1.214 1.214 0 0 0-1.218-1.219c-.673 0-1.218.636-1.218 1.219 0 .582.293.918.716 1.109-1.367.518-2.794.164-3.601-1.34-1.676-3.128 1.076-6.087 4.12-4.746 2.042.898 3.829 3.416 5.625 4.73-.343 2.2.175 5.246-.631 7.322-1.208 3.103-5.244 2.959-6.271-.44-.494-1.634.266-2.894 1.598-3.492-.163.433-.134.878.278 1.291.413.411 1.247.476 1.722 0 .476-.476.48-1.25 0-1.723-.378-.373-1.082-.515-1.725-.369-1.04.238-1.738.894-2.185 1.548-1.302 1.9-.184 4.708 1.854 5.793 2.939 1.564 5.562-.747 5.984-3.793.256-1.84.045-3.93.205-5.546 1.718 1.067 3.783 1.436 5.762.792a6.503 6.503 0 0 0 1.009-.423 6.506 6.506 0 0 0-.423 1.01c-.642 1.976-.275 4.043.792 5.761-1.616.16-3.706-.051-5.546.205-3.048.422-5.36 3.045-3.793 5.984 1.085 2.038 3.893 3.156 5.793 1.854.654-.447 1.31-1.145 1.548-2.185.146-.643.004-1.345-.37-1.725a1.214 1.214 0 0 0-1.722 0c-.476.475-.411 1.311 0 1.722.411.412.858.443 1.291.278-.6 1.334-1.86 2.092-3.492 1.598-3.399-1.026-3.543-5.063-.44-6.27 2.076-.807 5.122-.29 7.322-.632 1.314 1.799 3.832 3.586 4.73 5.624 1.34 3.048-1.616 5.8-4.745 4.121-1.505-.807-1.859-2.234-1.34-3.6.19.422.526.715 1.108.715.583 0 1.218-.547 1.218-1.218 0-.674-.544-1.223-1.218-1.218-.53.004-1.129.4-1.48.958-.567.904-.596 1.863-.451 2.64.422 2.266 3.198 3.46 5.408 2.786 3.185-.972 3.405-4.461 1.55-6.913-1.123-1.483-2.748-2.81-3.777-4.068 1.97-.46 3.69-1.66 4.634-3.514.171-.336.307-.674.414-1.012.106.34.244.676.413 1.012.943 1.854 2.665 3.052 4.635 3.514-1.032 1.256-2.654 2.585-3.777 4.068-1.856 2.454-1.636 5.941 1.55 6.913 2.21.673 4.986-.52 5.408-2.785.144-.778.115-1.734-.451-2.641-.35-.558-.947-.956-1.48-.958a1.216 1.216 0 0 0-1.219 1.218c0 .673.636 1.218 1.218 1.218.583 0 .918-.293 1.11-.716.517 1.367.164 2.794-1.341 3.601-3.13 1.676-6.086-1.076-4.746-4.12.898-2.042 3.417-3.829 4.73-5.625 2.201.343 5.246-.175 7.322.631 3.104 1.208 2.96 5.244-.44 6.271-1.633.494-2.894-.266-3.494-1.598.433.163.878.134 1.291-.278.412-.41.476-1.247 0-1.722a1.214 1.214 0 0 0-1.722 0c-.374.378-.516 1.082-.37 1.725.239 1.04.894 1.738 1.548 2.185 1.9 1.302 4.708.184 5.793-1.854 1.565-2.939-.747-5.562-3.792-5.984-1.84-.256-3.93-.045-5.546-.205 1.067-1.718 1.436-3.783.79-5.762a6.503 6.503 0 0 0-.421-1.009c.315.165.65.307 1.009.423 1.976.642 4.043.275 5.761-.792.16 1.616-.05 3.706.205 5.546.422 3.048 3.045 5.357 5.984 3.793 2.039-1.085 3.157-3.893 1.854-5.793-.447-.654-1.145-1.31-2.185-1.548-.642-.146-1.345-.004-1.725.37a1.214 1.214 0 0 0 0 1.722c.476.476 1.312.411 1.723 0 .411-.411.442-.858.278-1.291 1.333.6 2.091 1.86 1.598 3.492-1.027 3.399-5.064 3.543-6.271.44-.807-2.076-.29-5.124-.631-7.322 1.796-1.314 3.585-3.832 5.623-4.73 3.048-1.34 5.8 1.616 4.122 4.745-.807 1.505-2.234 1.859-3.601 1.34.422-.19.715-.526.715-1.108 0-.583-.546-1.219-1.218-1.219-.673 0-1.222.547-1.218 1.219.005.53.4 1.129.958 1.48.905.567 1.863.598 2.64.451 2.266-.422 3.46-3.198 2.786-5.408-.971-3.185-4.461-3.405-6.913-1.55zm-10.935-7.6c.769-.34 1.607-.482 2.445-.494 1.345-.015 2.519.436 3.617 1.174-.254 1.298-.763 2.448-1.728 3.388-.6.584-1.291 1.078-2.078 1.38-1.896.732-3.943.21-5.588-.878.395-1.93 1.474-3.748 3.332-4.57zm-11.641 6.328c0 .303-.016.603-.045.903a8.268 8.268 0 0 0-1.994-.903 8.232 8.232 0 0 0 1.994-.902c.03.3.045.6.045.902zm-.252-4.319c.634.345 1.325.6 2.048.772a8.67 8.67 0 0 1-.607.669 9.574 9.574 0 0 1-.67.607 8.168 8.168 0 0 0-.77-2.048zm.772 6.591a9.104 9.104 0 0 1 1.276 1.276 8.277 8.277 0 0 0-2.048.771 8.136 8.136 0 0 0 .772-2.047zm1.222.054a10.108 10.108 0 0 0-1.058-.923c.065-.462.096-.931.096-1.403 0-.47-.031-.94-.096-1.402.372-.28.727-.59 1.058-.923.334-.333.643-.687.923-1.058.462.065.931.096 1.402.096.472 0 .94-.031 1.403-.096.28.371.59.727.923 1.058a9.91 9.91 0 0 0 1.06.923 10.16 10.16 0 0 0-.096 1.402c0 .472.031.94.096 1.403a10.14 10.14 0 0 0-1.983 1.98 10.519 10.519 0 0 0-2.805.003 10.14 10.14 0 0 0-.923-1.06zm4.595-5.873a8.277 8.277 0 0 0 2.047-.771 8.277 8.277 0 0 0-.771 2.047 9.104 9.104 0 0 1-1.276-1.276zm.607 6.424c.213-.213.438-.416.669-.607.171.723.427 1.414.771 2.047a8.277 8.277 0 0 0-2.047-.77c.191-.232.394-.457.607-.67zm1.191-2.876c0-.303.016-.603.045-.903a8.268 8.268 0 0 0 1.994.903 8.232 8.232 0 0 0-1.994.902c-.029-.3-.045-.6-.045-.902zm-3.187-9.832c.302-.785.796-1.478 1.38-2.078.94-.963 2.09-1.474 3.388-1.728.74 1.099 1.191 2.27 1.176 3.617-.011.838-.154 1.676-.494 2.445-.824 1.859-2.64 2.937-4.572 3.33-1.087-1.64-1.61-3.688-.878-5.586zm-.88 3.726c.204.69.51 1.362.902 1.993a9.4 9.4 0 0 1-1.805 0 8.268 8.268 0 0 0 .902-1.993zm-5.649-7.53c1.298.254 2.448.763 3.388 1.728.584.6 1.078 1.292 1.38 2.078.732 1.897.21 3.946-.878 5.589-1.931-.394-3.748-1.472-4.572-3.33-.34-.77-.483-1.607-.494-2.445-.015-1.35.438-2.521 1.176-3.62zm-6.26 11.375c-.962-.94-1.473-2.09-1.727-3.387 1.098-.74 2.27-1.192 3.617-1.174.838.011 1.676.151 2.445.493 1.858.825 2.937 2.641 3.33 4.573-1.643 1.087-3.69 1.61-5.588.878-.785-.305-1.476-.796-2.076-1.383zm4.335 8.59c-.769.34-1.607.482-2.445.493-1.345.016-2.519-.436-3.617-1.176.254-1.298.765-2.447 1.728-3.388.6-.584 1.291-1.078 2.078-1.38 1.896-.731 3.946-.209 5.588.878-.395 1.932-1.474 3.75-3.332 4.573zm6.693 3.503c-.302.784-.795 1.478-1.38 2.078-.94.963-2.09 1.474-3.388 1.727-.74-1.098-1.191-2.27-1.173-3.616.01-.838.153-1.676.493-2.445.825-1.859 2.64-2.937 4.573-3.33 1.084 1.64 1.607 3.687.875 5.586zm.88-3.726a8.232 8.232 0 0 0-.902-1.994 9.399 9.399 0 0 1 1.805 0 8.268 8.268 0 0 0-.902 1.994zm5.649 7.529c-1.298-.254-2.447-.763-3.388-1.727-.584-.6-1.078-1.292-1.38-2.079-.731-1.896-.209-3.945.878-5.588 1.932.393 3.748 1.471 4.572 3.33.34.769.483 1.607.494 2.445.016 1.35-.438 2.52-1.176 3.619zm4.37-6.813c-.838-.012-1.676-.152-2.445-.494-1.858-.825-2.936-2.64-3.33-4.572 1.643-1.087 3.69-1.61 5.588-.878.785.302 1.479.795 2.079 1.38.962.94 1.474 2.09 1.727 3.388-1.1.74-2.272 1.193-3.619 1.175z" fill="#BB946A"/></g></svg>