<svg width="203" height="202" xmlns="http://www.w3.org/2000/svg"><g stroke="#BB946A" fill="none" fill-rule="evenodd" opacity=".7"><path d="M36.996 27h130.008c5.52 0 9.996 5.52 9.996 9.996v130.008c0 5.52-4.476 9.996-9.996 9.996H36.996c-5.52 0-9.996-5.52-9.996-9.996V36.996C27 31.476 31.476 27 36.996 27z"/><path d="M15.875 49.443L138.973 9.41c5.227-1.698 11.164 2.157 12.54 6.392l39.998 123.205c1.696 5.231-1.16 10.852-6.386 12.55L62.027 191.59c-5.227 1.698-11.164-2.157-12.54-6.392L9.49 61.993c-1.696-5.231 1.16-10.852 6.386-12.55z"/><path d="M5.104 78.66L109.98 2.672c4.455-3.224 11.294-1.4 13.92 2.196l76.197 104.59c3.233 4.443 2.244 10.658-2.202 13.882L93.02 199.328c-4.455 3.224-11.294 1.4-13.92-2.196L2.902 92.542C-.33 88.1.658 81.884 5.104 78.66z"/><path d="M2.909 109.46L79.1 4.837C82.333.39 89.406.019 93.02 2.639l104.87 76.014a9.917 9.917 0 0 1 2.201 13.886L123.9 197.164c-3.233 4.445-10.306 4.817-13.92 2.197L5.11 123.347a9.917 9.917 0 0 1-2.201-13.886z"/><path d="M9.49 139.024L49.486 15.765c1.696-5.233 8.3-7.772 12.54-6.395l123.097 40.05c5.227 1.699 8.083 7.323 6.387 12.556l-39.998 123.259c-1.696 5.233-8.3 7.772-12.54 6.395L15.876 151.58c-5.227-1.699-8.083-7.323-6.387-12.556z"/></g></svg>