<svg xmlns="http://www.w3.org/2000/svg" width="145" height="40"><g fill="none" fill-rule="evenodd"><path fill="#1A1919" d="M26.977 32.909c-4.515 3.191-10.744 6.968-16.42 6.968-5.787 0-9.933-3.91-9.933-9.749 0-3.171 1.241-6.25 2.637-9.041 2.71-5.418 6.681-10.283 11.35-14.142 3.613-2.976 7.953-5.254 12.51-6.362A16.253 16.253 0 0 1 30.908.12c1.632 0 3.376.215 4.823 1.016l2.093 1.139c.4.226.883.267 1.325.267 1.56 0 2.883-.903 4.084-1.785l.513.533c-2.822 1.908-4.064 3.95-5.224 7.111l-.513-.338c.206-.698.37-1.395.37-2.134 0-3.613-4.515-5.297-7.574-5.297-2.278 0-4.598.698-6.63 1.694-7.367 3.614-13.237 10.12-16.777 17.467-1.693 3.5-2.986 7.462-2.986 11.391 0 4.691 2.575 7.82 7.368 7.82 5.192 0 11.186-3.981 15.403-6.803.678-1.52 1.427-2.945 2.443-4.27 3.15-4.135 8.26-8.445 13.751-8.445 2.894 0 4.229 1.385 4.31 4.187l1.837-3.202h3.459l-8.066 14.162c-.36.626-.718 1.365-.718 2.104 0 .852.841 1.344 1.611 1.344 2 0 4.217-1.776 5.695-2.935 3.828-2.976 7.307-6.393 9.636-10.693l2.166-3.982h3.653l-.995 1.785c1.816-1.087 3.88-1.99 6.034-1.99 1.19 0 2.391.554 2.391 1.888 0 .944-.513 1.755-1.2 2.34a.738.738 0 0 0 .43.154c.616 0 1.242-.432 1.745-.74 3.11-1.918 5.922-4.627 7.779-7.778l2.525-4.31h3.417l-4.362 7.604h5.07l-.277.657h-5.038L76.02 34.736c-.318.564-.657 1.22-.657 1.878 0 .842 1.016 1.221 1.724 1.221 1.591 0 2.976-.985 4.218-1.888 2.288-1.652 4.382-3.634 6.384-5.625 1.446-1.436 2.852-2.934 4.043-4.586.636-.883 1.2-1.806 1.765-2.73l1.55-2.535h3.376L90.06 35.136c-.298.524-.493 1.119-.493 1.724 0 .646.503 1.242 1.17 1.242 1.991 0 4.198-1.673 5.665-2.945l6.076-5.286c3.355-3.91 8.835-10.139 14.408-10.139 1.796 0 3.848.934 3.848 2.977 0 1.538-1.026 2.995-2.021 4.063-2.197 2.35-5.48 3.777-8.529 4.608-1.54.42-3.068.513-4.66.524-.491 1.118-.994 2.267-.994 3.519 0 1.755 1.529 3.171 3.263 3.171 4.167 0 10.253-4.3 13.27-6.721a54.5 54.5 0 0 0 7.05-6.887c.81-.954 1.703-1.96 2.319-3.068l.81-1.447h3.408l-2.483 4.7c2.667-2.422 5.921-4.895 9.707-4.895 1.243 0 2.217.77 2.217 2.042 0 1.18-1.036 2.555-2.289 2.555-.656 0-1.323-.626-1.323-1.293 0-1.057 1.13-1.826 2.104-1.826.195 0 .39.02.575.041-.319-.657-.79-.965-1.56-.965-1.765 0-3.54.862-5.02 1.745-3.345 1.99-5.91 5.028-7.85 8.364l-4.864 8.343h-3.5l7.892-13.618c-1.724 2.032-3.53 3.94-5.562 5.654-2.278 1.92-4.7 3.684-7.256 5.213-2.627 1.571-5.592 2.997-8.733 2.997-3.006 0-5.787-1.693-5.787-4.946 0-.965.235-1.899.462-2.833-3.131 2.894-7.698 7.543-12.213 7.543-1.703 0-3.1-.605-3.1-2.442 0-1.242.822-2.34 1.417-3.377l2.812-4.936c-2.75 3.017-5.665 5.922-9 8.282-1.837 1.303-3.982 2.504-6.291 2.504-1.468 0-3.027-.862-3.027-2.514 0-1.376.903-2.7 1.56-3.849l7.132-12.52a58.646 58.646 0 0 1-4.002 3.438c-1.201.934-2.617 2.032-4.218 2.032-.975 0-1.827-.606-1.827-1.663s.934-1.898 1.97-1.898c.298 0 .544.093.8.236.073-.195.144-.41.144-.626 0-.718-.903-1.16-1.508-1.16-1.765 0-3.643.862-5.121 1.755-1.488.903-2.442 2.35-3.294 3.839l-7.41 12.889h-3.592l5.275-9.216c-3.55 3.756-9.297 9.339-14.685 9.339-1.447 0-2.791-.718-2.791-2.299 0-.985.38-1.899.78-2.781-2.566 2.678-6.076 5.43-9.955 5.43-2.535 0-4.72-1.787-4.72-4.404 0-.842.225-1.651.461-2.442"/><path fill="#1A1919" d="M99.727 16.5c-.708 0-1.272-.38-1.272-1.14 0-1.118 1.129-2.647 2.298-2.647.74 0 1.088.667 1.088 1.344 0 1.221-.81 2.443-2.114 2.443"/><path fill="#FFFFFE" d="M46.989 23.078c0-1.868-1.467-3.058-3.305-3.058-2 0-3.684.995-5.254 2.155-3.171 2.319-5.87 5.572-7.594 9.092-.647 1.334-1.19 2.637-1.19 4.126 0 1.662.985 3.201 2.79 3.201 4.198 0 8.611-4.67 10.992-7.86 1.508-2.022 3.56-5.08 3.56-7.656m58.702 8.2c.317.01.625.03.943.03 3.049 0 6.199-1.539 8.365-3.622 1.364-1.314 3.304-3.726 3.304-5.747 0-1.057-1.098-1.488-2.022-1.488-4.31 0-8.61 7.522-10.59 10.827"/></g></svg>