<svg width="300" height="300" xmlns="http://www.w3.org/2000/svg" xmlns:xlink="http://www.w3.org/1999/xlink"><defs><path d="M197.214 257.886c-.14.155-.213.24-.213.24s.957.363 2.181 1.63c.816.856 1.098 1.86 1.57 2.617 0 0-2.715.362-4.567-1.3a18.829 18.829 0 0 1-1.842-1.89c-.114.03-.21.046-.286.05-.25.016-3.217-.918-.515-.964l.097-.006c-.06-.089-.09-.137-.09-.137s-15.706 2.683-17.698 4.626c-1.793 1.718-.76-.378-.395-.977-.938.785-2.856 1.237-4.18 1.093-1.581-.184-4.713-1.818-4.713-1.818-5.848 1.88-16.824 3.791-18.342 3.344-.24-.077-2.764-1.942-.144-1.063 2.62.894 18.327-2.882 18.327-2.882s.24-1.418 1.342-3.56c.571-1.103 1.568-1.837 2.396-2.288.038-.433.054-.886.027-1.33-.103-1.875 2.875-3.95 2.567-3.335-.308.615-.688 4.472-.698 5.225-.004.273-.318.608-.717.925a4.455 4.455 0 0 1-.236.787c-.655 1.572-1.422 2.25-1.422 2.25-.016-.015.607.262 1.725.617 1.183.385 1.854.447 2.573.709 1.054.385 1.901.863 1.901.863a1.49 1.49 0 0 1-.135.192c1.807-1.133 11.916-3.53 17.713-4.052 0 0 2.165-2.897 3.514-3.703 1.35-.807 3.782-1.12 4.77-.33 0 0-.58.807-1.365 1.613l-.016.016c.76-.452 1.531-.922 2.285-1.391a4.87 4.87 0 0 0 .08-.088c.164-.186.417-.321.725-.416 3.19-2.01 5.88-3.847 5.88-3.847s-.281-1.416-.031-3.828c.195-1.877 1.579-3.276 2.17-3.795-.08-.32-.182-.64-.312-.942-.709-1.67 2.402-5.134 2.207-4.405-.194.73.542 4.496.778 5.21.153.492-1.052 1.755-1.816 2.494.004.093.005.189.002.287-.047 1.711-.515 2.614-.515 2.614 0 .015.702.077 1.842.03 1.234-.046 1.858-.202 2.592-.217 1.093 0 2.046.17 2.046.17-.203 1.215-2.155 2.662-3.654 3.035-1.515.374-4.95-.109-4.95-.109-1.205.961-2.716 2.041-4.323 3.117 1.498.045 2.944.399 2.5.482-.747.144-3.442 2.047-3.956 2.49-.328.29-2.052.122-3.198-.028a78.608 78.608 0 0 1-3.48 1.975zm15.752 4.358c-.43-1.586-1.932-3.01-1.932-3.01s4.275.166 4.517.819c.145.39.814 1.694 1.48 2.77-.344-.853-.824-1.499-.824-1.499s.619.106 1.341.273c-.723-.395-1.341-.793-1.341-.793s2.102-.33 3.477-1.305c.81-.582 2.558-.097 3.706.394a5.23 5.23 0 0 0 1.243-.516c1.384-.805 4.55 2.044 3.901 1.904-.648-.155-3.798.82-4.387 1.068-.327.147-1.144-.538-1.806-1.175-1.112.426-2.3.955-2.642 1.153a.26.26 0 0 1-.037.018c.062.054.1.108.11.163.093.592 1.055 3.514 1.566 3.951.492.42-3.574-.67-3.942-2.047-1.43-.18-4.127-.863-4.389-2a3.504 3.504 0 0 0-.013-.057c-.695.086-4.488-.219-4.958-1.125-.517-1.064-2.174-1.993-2.174-1.993s3.934-.068 4.245.352c.283.406 2.127 2.305 2.859 2.655zm19.015 4.578c.884.142 1.789.347 2.254.628 1.106.655 2.662 4.327 2.662 4.327s-.674-.655-3.37-1.356c-2.303-.596-3.254-2.103-3.634-3.05a7.979 7.979 0 0 0-.61.205c-.61.269-2.731-2.245-2.731-2.245s1.883.035 3.274-.737c1.408-.79 4.512 2.173 3.884 2.012-.26-.067-.957.044-1.729.216zm-46.402-16.725c.542-.936 1.486-2.43 1.945-2.34.68.13 4.17.324 4.792 0 .613-.33-1.796 3.295-3.415 3.107-.828.916-2.727 2.458-3.932 2.022-1.748-.62-3.935-.31-3.935-.295 0 0 2.111-2.948 2.85-2.756.268.063.925.166 1.695.262zm.918-10.595c.546-1.3 1.664-2.562 1.575-2.135-.121.652.94 3.794 1.213 4.372.289.593-2.017 2.86-2.017 2.86s-.004-.14-.028-.372c-.065.723-2.702 2.463-2.702 2.463-.015 0 .293-1.93-.323-3.468-.491-1.197 1.5-3.195 2.282-3.72zm.732 4.62a8.857 8.857 0 0 0-.237-1.264c.088.575.178 1.052.237 1.264zm8.134-6.35c-.373.775-1.357 2.19-2.28 2.125a3.806 3.806 0 0 0-.257-.012c-.574.778-1.337 1.578-1.337 1.578.01 0-.025-.6-.21-1.363a6.265 6.265 0 0 0-.934.318s.263-.734.589-1.389a5 5 0 0 0-.412-.794c-.863-1.336 1.709-4.65 1.588-4.007-.08.5.582 2.497 1.017 3.628.46-.07.955-.156 1.373-.248-.07-.985.022-2.79 1.347-4.189 1.502-1.57 1.717-2.409 1.717-2.409s.155 3.918-.346 4.909c-.296.59-1.192 1.347-1.855 1.853zM36.924 119.942c.69-.903 1.178-1.824 1.178-1.824s.413 3.916-.034 4.4a9.468 9.468 0 0 0-.47.58c.006.108.007.21.003.306-.06 1.502-1.076 3.678-2.197 4.122 0 0-.333-.873-.545-1.93-.137-.721-.106-1.365-.318-2.545-.152-1.088-.349-1.747-.349-1.747s-.772.629-2.378 1.012c-1.091.26-2.015 0-2.848 0 0 0 1.105-2.422 3.332-3.157 1.295-.416 2.312-.592 2.94-.666-.233-1.136.175-2.852.872-3.863.42-.609 1.317-1.375 2.123-1.999 1.613-4.292 3.442-9.64 3.155-11.142-.386-2.089.47-.808.847-.086 1.019-3.377 2.065-6.178 2.605-6.72.171-.164 2.972-1.466 1.027.344-1.945 1.796-5.416 16.595-5.416 16.595s1.183.808 2.615 2.679c1.432 1.84.95 4.399.95 4.399-.701-.464-1.62-.778-2.382-1.631-1.12-1.227-1.416-2.17-1.416-2.17-.016 0-.56.419-1.354 1.197-.871.823-1.214 1.362-1.758 1.84-.136.123-.272.24-.404.35l-.192.383s.192.535.414 1.272zm2.571-8.236c.199-.139.319-.219.319-.219.057-.376.124-.771.2-1.181-.168.464-.342.932-.519 1.4zm-21.645 22.61c1.383.467 2.84.477 2.84.477l-.125.118.125-.068s-.602 2.012-.437 3.798c.177 1.802-2.963 4.039-2.644 3.411.319-.611.59-4.393.578-5.149 0-.054.014-.11.038-.17-.304.162-.565.243-.728.179-.667-.276-4.257-1.263-4.988-1.132-.73.13 2.923-2.655 4.48-1.828.202.107.413.2.63.282.314-.594 2.872-2.988 4.34-2.448 1.721.652 3.903.354 3.903.354s-2.166 2.892-2.888 2.693c-.694-.173-4.11-.66-5.124-.516zm-6.601 8.166c-.197.516-.553 1.58-.615 2.66-.076 1.492-2.627 2.582-2.335 2.149.303-.433.93-3.415 1.005-4.008a.334.334 0 0 1 .032-.109.226.226 0 0 1-.037-.021c-.536-.363-3.4-1.879-4.052-1.879-.637 0 2.997-1.927 4.17-.906 1.172 1.005 2.997 1.384 2.997 1.384s-.534.366-1.165.73zM109.68 254.94a6.812 6.812 0 0 1-.463-.085c-1.124.546-3.49-.11-4.708-1.068-1.227-.965-2.963-3.95-2.963-3.95-4.117-.995-10.305-3.234-14.076-4.906.402 1.036.58 1.973.373 1.717-.44-.494-3.302-1.435-3.88-1.531-.577-.096-1.205-3.653-1.205-3.653s.456.345 1.108.657c-.165-.645-.124-1.123.875.105.082.1.195.206.336.317.187.038.378.063.569.07.417.014.816.414 1.16.96 4.65 2.338 14.98 5.651 14.98 5.651s.987-1.072 3.09-2.297c1.27-.734 2.734-.758 3.703-.66 1.23-.974 5.875-.561 5.133-.365-.779.196-3.457 2.28-3.895 2.725-.216.214-1.262.172-2.269.075-1.35.915-2.322 1.074-2.322 1.074.032.046.414.597 1.13 1.47.22.26.417.48.6.672 1.047.008 2.317.072 2.535.328.234.273 1.126 1.115 1.938 1.774 2.077.253 11.402 4.528 16.272 7.62 0 0 3.365-.83 4.908-.615 1.527.23 3.615 1.446 3.942 2.631 0 0-.92.246-2.01.354-.748.077-1.387-.015-2.602.062-1.153.092-1.839.23-1.839.23s.302.455.548 1.352l-.021-.148s2.988 2.087 2.813 2.85c-.16.748-.569 4.673-.292 5.405.275.727-3.269-2.412-2.753-4.195-.565-.385-2.235-1.662-2.647-3.571-.499-2.339-.359-3.77-.359-3.77s-12.192-6.54-15.943-7.172c-.284.002-.594-.004-.909-.024-.528.03-.781-.01-.857-.089zm27.75 17.965c.436.43 2.424 2.436 2.208 3.058-.243.697-1.092 4.383-.916 5.126.17.709-2.648-2.651-2.1-4.326-.84-.659-2.52-2.507-2.063-3.615.656-1.543.381-3.46.381-3.46s2.82 1.917 2.637 2.566c-.039.127-.09.357-.147.65zm-.371 2.606c.2-.805.264-1.602.283-2.116-.11.645-.22 1.437-.283 2.116zm-12.659-30.33c-.889.706-2.129 1.972-2.383 2.307-.322.443-4.087.158-4.087.158.015.01 1.684-.896 2.296-2.039.437-.801 3.082-1.025 4.314-1.006l.006-.03c.288-1.673 4.172-2.36 3.687-1.942-.486.418-1.771 3.629-1.955 4.286-.197.672-3.176.821-3.176.821s.883-1.164 1.298-2.555zm6.544 5.16c-1.05.374-3.705.922-4.591.11-1.19-1.105-3.25-1.678-3.25-1.678s3.25-1.366 3.797-.962c.254.187 1.055.67 1.917 1.144.765-.54 2.113-1.415 2.493-1.18.54.336 3.472 1.735 4.129 1.692.641-.03-2.875 2.128-4.1 1.151a4.623 4.623 0 0 0-.395-.278zm-61.806-24.936c2.495 2.2 5.15 4.756 6.907 6.778 0 0 3.407.163 4.783.774 1.375.61 2.994 2.324 2.964 3.515 0 0-.932-.015-1.987-.223-.718-.12-1.298-.402-2.46-.656-1.1-.268-1.772-.327-1.772-.327s.275.938 0 2.547c-.183 1.087-.78 1.832-1.1 2.606 0 0-1.803-1.906-1.604-4.215.198-2.294.733-3.59.733-3.59s-7.465-7.317-11.52-10.15c.01.03.021.055.032.076.17.335-.641-.136-1.41-.922a2.673 2.673 0 0 0-.624-.234c-1.748-.35-.95-.627-.166-.753-.298-.477-.49-.988-.445-1.47.164-1.818-.447-3.813-.435-3.829 0 0 2.504 1.32 2.492 2.076-.008.497.118 2.371.297 3.73.697.462 1.628 1.169 2.682 2.028a1.657 1.657 0 0 1-.151-.619c-.073-2.015-1.183-4.095-1.183-4.079 0 0 3.446.868 3.547 1.687.115.82 1.095 4.899 1.585 5.505.203.244-.385.116-1.165-.255zm10.726 17.325c.479.858.972 1.896.783 2.24-.341.606-1.72 4.017-1.693 4.766.04.749-2.077-3.331-1.12-4.75.155-.218.293-.456.415-.7-.501-1.115-.942-2.632-.447-3.418.917-1.443 1.136-3.585 1.136-3.585s2.028 2.782 1.718 3.422c-.143.276-.473 1.114-.792 2.025zm5.24 9.387c.515.356 1.692 1.088 2.984 1.351 1.75.366 2.179 4.123 1.765 3.632-.357-.426-2.878-1.539-3.996-1.963-.01.118-.036.21-.086.264-.415.448-2.3 3.108-2.401 3.758-.114.68-1.245-3.454-.114-4.452.75-.666 1.298-1.71 1.573-2.315-.005-.285 0-.475 0-.475h-.001s.055.044.156.116c.03-.074.045-.116.045-.116s.029.074.074.2zm3.766 12.239c.22 1.11.007 2.47-.13 2.147-.133-.33-1.138-1.21-1.903-1.825.08.665.107 1.371-.115 1.514a1.609 1.609 0 0 0-.038.024c.477.878 1.215 2.353 1.246 3.146.03 1.193-2.186 4.507-2.186 4.507s.2-.868-.63-3.252c-.426-1.223-.323-2.287-.046-3.122-.52.452-.977.893-1.062 1.096-.207.499-.552-2.817.606-3.37.58-.286 1.09-.746 1.45-1.13a1.748 1.748 0 0 0-.024-.016c-.455-.268.11-2.75.11-2.75s.64.935 1.564 1.543c-.66-.793-1.423-1.61-1.67-1.833-.44-.366.06-3.891.06-3.891s.867 1.73 2.019 2.494c.972.632.912 4.071.749 4.718zm-30.082-54.02c.045.06.089.121.132.184a5.55 5.55 0 0 0 .715-.286c1.61-.772 5.146 2.192 4.4 2.027-.548-.124-2.742.334-4.093.68.093.535.078 1.029-.089 1.397 0 0-.777-.316-1.616-.826.144.22.23.414.222.563-.038.817.14 4.623.482 5.326.172.345-.635-.141-1.447-.96.548 1.596.488 4.704.31 4.14-.22-.684-2.084-2.737-2.507-3.095-.314-.254-.42-2.422-.455-3.52-.682-.469-1.352-1.266-1.809-2.08-.534.597-1.147.99-1.618 1.446 0 0-.95-2.47.124-4.548.303-.573.601-1.066.874-1.48.04-.762.095-1.321.095-1.321-3.956-4.475-9.938-13.533-10.095-15.045-.016-.247.8-3.21.958-.54.157 2.67 9.671 15.23 9.671 15.23s.188-.045.544-.094c-.686-1.573-6.16-14.01-8.274-15.378-2.212-1.44.666-.684.94-.533-.905-.927-2.088-2.556-1.691-3.624.644-1.717.6-4.041.6-4.026 0 0 2.605 2.568 2.414 3.297-.19.713-.658 4.238-.41 4.967.082.215-.195.061-.597-.306 1.592 1.868 5.91 10.394 7.665 15.525l.01.005c.649-.056 1.545-.088 2.646-.018 2.433.154 4.144 2.237 4.144 2.237-.69.164-1.39.521-2.245.657zm-3.232 1.25l.014.208c.079 1.204.283 1.821.314 2.546.047 1.08-.078 2.037-.078 2.037a1.524 1.524 0 0 1-.214-.043c.285.335.626.698.984.992-.385-.588-.637-1.22-.563-1.797.177-1.301.052-2.804-.052-3.667-.143-.1-.278-.192-.405-.276zm19.262 4.794c1.733-.07 4.298 1.044 3.718 1.065-.746.027-3.969 1.64-4.54 2.012-.465.295-2.473-.649-3.297-1.058a2.632 2.632 0 0 0-.076.035c-.62.323-3.383-1.79-3.383-1.79s2.128-.193 3.56-1.108c.948-.59 2.954.227 4.018.844zm-23.93 5.587c-.436.69-.796 1.334-.859 1.645-.168.78-.886-4.227.27-5.244 1.143-1.002 1.929-3.036 1.929-3.036s.841 3.688.404 4.18c-.173.188-.588.743-1.039 1.394 1.065-.879 1.794-2.438 1.794-2.438s.702 3.348.258 3.759c-.433.41-2.479 2.83-2.666 3.484-.149.556-.519-2.171-.09-3.744zm6.903 5.894c.374 1.781-.111 4.73-.234 4.112-.167-.751-2.172-3.63-2.606-4.147-.29-.335-.009-2.068.21-3.18a2.994 2.994 0 0 0-.13-.119c-.439-.366-.034-3.968-.034-3.968s.888 1.737 2.039 2.438c1.101.724.954 5.168.755 4.864zm-8.129 9.698c.055-1.335.39-3.973 1.128-4.35 1.04-.506 1.964-2.198 1.964-2.198s.067 3.995-.356 4.309c-.29.2-1.403 1.28-2.101 2.126 1.32-.32 2.46-1.208 2.46-1.208s-.45 3.311-1.057 3.45c-.606.124-3.595 1.223-4.018 1.734-.412.497.538-3.505 1.98-3.863zM35.8 161.198c.26-.36.477-.391.353.736.068.333.067.721.023 1.125.617 4.084 5.744 15.943 5.744 15.943s1.323-.078 3.443.573c2.134.635 3.258 3.035 3.258 3.035-.783.046-1.636.356-2.66.124-1.537-.326-2.291-.914-2.291-.914s-.156.65-.299 1.78c-.142 1.193-.085 1.859-.199 2.571-.156 1.069-.44 1.982-.44 1.982-1.068-.402-2.092-2.54-2.206-4.056-.114-1.533.825-4.847.825-4.847-2.012-3.883-4.56-10.508-5.647-14.23-.303.85-.632 1.405-.642 1.095-.013-.744-1.51-3.795-1.884-4.376-.4-.595.942-3.9.942-3.9s.652 2.03 1.68 3.36zm28.44 39.296c.12.077.197.157.214.24.154.611 1.217 3.615 1.71 4.042.509.441-3.697-.598-3.85-2.107-.155-1.523-1.264-3.017-1.28-3.017 0 0 1.663.244 2.671.6-.814-.403-1.636-.931-1.636-.931.015 0 1.828-.413 2.983-1.451 1.17-1.024 4.827.825 4.183.84-.658 0-3.495 1.564-4.022 1.934-.162.117-.536.028-.972-.15zm3.64.305c-.376-.21-.639-.37-.639-.37-.016 0 1.801-.44 2.945-1.482 1.128-1.058 4.863.684 4.224.716-.37.019-1.429.538-2.373 1.055 1.016-.086 2.36.058 3.655.985 2.022 1.44 2.929 1.553 2.929 1.553s-3.995.867-5.125.475c-.823-.31-2.148-1.595-2.786-2.241-.126.08-.225.145-.288.192-.176.136-.613.026-1.109-.175.192.594.743 2.032 1.007 2.26.3.27-2.18-.319-2.293-1.246-.114-.937-.796-1.824-.786-1.824 0 0 .284.036.639.102zm-35.83-43.87c-.092.616-.502 3.163-1.028 3.295-.61.136-3.587 1.238-4.023 1.755-.427.493.53-3.521 1.983-3.861.077-.55.467-2.673 2.006-3.872 1.778-1.415 3.04-1.882 3.04-1.882s.89-15.22-.373-17.494c-1.247-2.273.89-.256 1.004-.06.674 1.325.717 11.833-.043 17.584 0 0 2.022 2.605 2.424 4.035.416 1.415.186 3.764-.674 4.547 0 0-.574-.723-1.104-1.611-.345-.618-.517-1.22-1.062-2.259a15.78 15.78 0 0 0-.875-1.505s-.352.609-1.275 1.327zm-9.5 21.464c.623-.396 1.163-.693 1.163-.693s-.475 1.956.034 3.58c.319 1.01-1.071 2.434-2.072 3.2.399 1.185-3.355 3.02-3.035 2.554.322-.443.19-2.98.095-3.461-.074-.331 1.222-.95 2.131-1.341-.027-.61-.07-1.197-.11-1.616-.203.164-.38.25-.508.21a14.905 14.905 0 0 0-.889-.16c-.563.796-1.777 2.407-2.26 2.25-.639-.188-3.955-.773-4.594-.528-.593.227 1.845-2.708 3.387-2.594.735-.92 2.385-2.45 3.427-2.019 1.522.63 3.44.299 3.44.299s-.079.124-.21.32zm15.362-48.796c-.604.811-1.198 1.69-1.282 2.04-.134.665-.976-3.63.171-4.545 1.16-.93 1.891-2.702 1.903-2.702 0 0 .927 3.189.488 3.617-.138.138-.437.496-.784.94.35.863 1.144 2.949.83 3.395-.396.567-2.153 3.757-2.213 4.502-.06.775-1.504-3.682-.41-4.934.588-.687 1.023-1.611 1.297-2.313zm7.588 5.505c1.455.324 2.405 4.381 1.987 3.88-.427-.513-3.418-1.611-4.019-1.743a.197.197 0 0 1-.02-.006.438.438 0 0 1-.05.214c-.373.592-1.928 3.873-1.942 4.625-.013.752-1.821-3.52-.797-4.85 1.023-1.343 1.422-3.44 1.436-3.424 0 0 .21.387.464.911-.093-.52-.145-.911-.145-.911s.675.509 1.571.892c-1.13-.747-2.583-1.55-3.007-1.726-.69-.283-.632-4.393-.632-4.393s1.515 1.648 3.25 2.13c1.21.336 1.798 3.035 1.904 4.401zm2.103 15.018c.034 1.032.134 3.026.404 3.824.372 1.117 2.683 2.85 2.683 2.85s-.402-.683-.754-3.333c-.375-2.756-1.698-3.665-2.176-3.908.298-1.024.685-2.114.837-2.439.042-.086.026-.21-.03-.357.985.099 2.73.358 3.081.608.433.305-1.075-2.74-2.373-2.616-1.133.121-2.362-.338-2.657-.466l-.032-.032-.003.016a.147.147 0 0 1-.031-.016l.026.07c-.03.357-.153 1.991-.893 3.183-.85 1.355 1.82 4.625 1.699 3.98-.043-.223.058-.749.219-1.364zm16.374-85.384l.023-.048c.493-1.045.717-1.71.717-1.71s-.985.048-2.463-.665c-1.015-.459-1.582-1.267-2.254-1.773 0 0 2.299-1.315 4.478-.523 2.18.808 3.299 1.694 3.299 1.694s5.782-3.607 9.987-6.743c.41-.636 1.47-1.777 2.595-2.07.823-.722 1.407-1.342 1.613-1.78.038-.084.076-.16.11-.232-.599.097-1.09.204-1.286.31-.575.313 1.287-2.655 3.001-2.766.122-1.229 1.822-2.881 3.212-3.412 1.411-.538 4.795-.411 4.795-.411 3.209-3.323 9.031-8.041 12.183-10.116-1.42.044-2.954-.298-2.539-.39.662-.17 3.13-2.185 3.557-2.625.426-.427 3.616.452 3.616.452s-1.383.608-2.33 1.567c.783.145 2.35.603.23.873-2.626.349-14.323 10.76-14.323 10.76s.425 1.41.425 3.862c0 2.453-1.942 4.32-1.942 4.32-.258-.823-.774-1.661-.88-2.832-.136-1.741.228-2.706.228-2.706s-.653.015-1.76.174c-.902.132-1.46.302-1.99.41.8-.093 1.436-.222 1.607-.26l.01-.012v.009a.322.322 0 0 0 .035-.01l-.033.048c.016.325.14 2.258.903 3.66.839 1.554-1.81 5.305-1.69 4.558.12-.748-.932-4.335-1.225-5.007-.116-.278.207-.883.626-1.496-.372.383-.74.676-.993.676-.408.006-1.644.114-2.762.265-.012.494-.114 1.123-.159 1.218-.094.186-.334.46-.69.803 1.54-.112 2.92-.543 2.92-.543s-1.13 2.324-1.894 2.345c-.492.021-2.337.213-3.716.43-3.158 2.411-7.838 5.542-11.128 7.242 0 0-.985 3.388-1.896 4.608-.86 1.1-2.658 2.175-3.826 2.095-2.079 3.472-5.574 8.503-8.204 11.51 0 0 .432 3.397.016 4.851-.432 1.454-1.966 3.351-3.213 3.504 0 0-.144-.918-.112-2.004.016-.735.208-1.347.272-2.54.048-1.087 0-1.76 0-1.76s-.943.443-2.685.428c-1.183.015-2.062-.444-2.925-.643 0 0 1.71-2.096 4.172-2.31 2.477-.2 3.932.122 3.932.122s9.446-12.61 9.542-15.271c.08-1.918.559-.93.814-.136zm-18.01 22.987c-.168.074-.31.102-.416.067-.618-.213-3.654-.887-4.794-.893l.013.006c1.577.805 3.713.79 3.713.79s-2.486 2.446-3.156 2.183c-.669-.264-4.302-1.216-5.02-1.07-.694.136 2.381-2.31 4.09-2.023.405-.577 3.07-2.618 4.435-1.998.961.457 2.118.597 2.898.637.49-.436.89-.753.89-.753s-.05.295-.101.763l.102-.004-.115.124c-.093.878-.179 2.267.01 3.474.302 1.928-3.318 4.6-2.976 3.887.33-.672.465-4.234.426-5.19zM33.923 95.44c-.333.519-.948 1.602-1.073 2.686-.159 1.529-4.337 2.557-3.845 2.124.52-.433 1.604-3.45 1.734-4.072.025-.113.157-.22.357-.32-1.096-.573-3.488-1.688-4.113-1.699-.744-.013 3.469-1.846 4.799-.809 1.315 1.025 3.39 1.443 3.39 1.443s-.563.317-1.25.647zm-9.42 4.164c-.154.146-.347.34-.54.569.147-.119.337-.324.54-.569zm-.668.724a3.93 3.93 0 0 0-.595 1.003c-.412 1.09-4.026 1.26-3.541 1.005.485-.242 1.91-2.277 2.145-2.701.196-.389 2.41-.335 2.891-.319.528-.676 1.077-1.5 1.202-1.747.196-.414 3.028-.352 3.028-.352s-1.188.93-1.567 1.996c-.33.932-3.176 1.223-3.563 1.115zM246.22 74.762c-1.892-3.142-11.96-11.662-11.96-11.662s-1.214.665-3.452 1.058c-2.223.408-4.255-1.179-4.255-1.179.702-.393 1.374-1.042 2.427-1.33 1.55-.422 2.487-.241 2.487-.241.014.015-.103-.635-.44-1.692-.35-1.118-.672-1.677-.862-2.357-.278-1.028-.395-1.95-.395-1.95 1.14-.135 2.983 1.285 3.7 2.584.731 1.3 1.185 4.624 1.185 4.624 3.414 2.467 8.385 7.053 10.938 9.847-.565-1.65-.477-3.885-.216-3.41.379.69 3.454 2.726 4.148 3.07.71.345.82 4.183.82 4.183s-1.67-1.527-3.402-2.215c.14.203.234.369.274.491.006.017.01.05.015.096.27.14.577.308.89.5.612.393 1.057.847 2.054 1.511.254.18.486.333.687.46-.176-.775-.772-3.541-.394-3.962.43-.491 2.44-3.357 2.588-4.116.158-.776.915 4.179-.226 5.224-.972.868-1.67 2.444-1.866 2.918.432.266.698.398.698.398s.077-.982.951-2.402c.583-.967 1.41-1.435 2.009-2.04 0 0 .966 2.463-.077 4.562-1.058 2.1-2.04 3.112-2.04 3.112s6.15 14.062 8.388 15.512c2.24 1.435-.736.664-.92.528-1.242-.876-6.118-10.27-8.035-15.768 0 0-3.128-1.375-4.17-2.462-.902-.94-1.666-2.715-1.55-3.892zm7.229-22.108c.015 1.119-.292 4.296-1.12 4.724-1.047.538-1.976 2.204-1.976 2.204s-.087-3.956.333-4.269c.323-.232 1.643-1.526 2.307-2.397a6.77 6.77 0 0 0-.578.394s.428-3.288 1.027-3.426c.613-.137 3.622-1.254 4.05-1.758.413-.505-.557 3.685-2.082 3.869-.719.078-1.419.37-1.961.659zm-199.32 8.454c.982-.345 3.832-.874 4.728-.018 1.176 1.114 3.213 1.738 3.213 1.738s-3.32 1.27-3.862.85c-.42-.323-2.423-1.55-3.61-2.092.98.867 2.3 1.373 2.3 1.373s-3.01 1.136-3.455.707c-.444-.43-3.053-2.335-3.713-2.462-.667-.112 3.36-1.178 4.4-.096zm24.645 5.233c-1.172.467-2.84 1.207-3.139 1.56-.42.498.305-3.473 1.927-3.743 1.608-.282 3.114-1.44 3.129-1.44 0 0-.118 1.653-.434 2.597.263.596.619 1.254 1.067 1.767 1.088 1.246-.376 5.73-.44 4.954-.065-.761-1.802-3.902-2.19-4.468-.133-.188-.068-.668.08-1.227zm33.312-31.612c-.435.337-.87.725-1.19 1.126-.967 1.21-6.071.594-5.298.41.773-.182 3.349-2.133 3.816-2.59.341-.333 2.526-.222 3.675-.138.466-.476.989-.833 1.761-1.613.778-.817 1.182-1.347 1.182-1.347s-.98-.242-2.27-1.332c-.886-.726-1.228-1.62-1.741-2.285 0 0 2.659-.53 4.602.848 1.96 1.377 2.83 2.497 2.83 2.497s15.315-3.648 17.15-5.585c1.85-1.922.56.833.373 1-1.089 1.058-11.444 4.252-17.352 5.205 0 0-1.928 2.815-3.203 3.647-1.275.833-3.654 1.317-4.696.666 0 0 .134-.204.361-.51zm-3.172-6.51c-1.003.017-2.09-.02-2.268-.245-.342-.434-2.462-2.52-3.131-2.764-.685-.233 4.191-.233 4.844.89.233.401.598.778.971 1.095 1.23.062 2.722.306 3.097.91.697 1.148 2.401 2.05 2.401 2.05s-3.572.39-3.943-.052c-.219-.277-1.14-1.18-1.971-1.884zm-22.56-3.832c-.441-.24-.804-.5-.81-.712-.013-.541-.386-3.293-.693-3.735-.307-.442 2.668 1.055 2.56 2.38-.05.64.068 1.305.205 1.823C88.491 24.55 90 26.04 90 26.04s-1.861.087-3.186.96c-1.325.872-4.612-1.745-3.974-1.64.484.079 2.38-.546 3.513-.973zm60.245 1.383c-.22-.068-.448-.144-.67-.227-.73.287-1.732.745-2.486 1.332-1.353 1.055-5.47-.99-4.734-.976.735.013 3.793-1.438 4.381-1.794.203-.132.718-.043 1.306.13a42.573 42.573 0 0 0-.855-3.377c-.81-.158-3.29-.68-3.37-1.176-.08-.58-1.017-3.47-1.51-3.912-.508-.442 3.973.807 4.02 2.233.007.277.051.554.119.82.408-.13 3.804 1.321 3.916 3.152.07 1.308.533 2.616.867 3.406.127-.055.26-.114.4-.18 1.055-.504 1.646-.865 1.646-.865s-.879-.52-1.758-1.891c-.592-.924-.624-1.834-.895-2.584 0 0 2.765.332 4.188 2.165 1.423 1.833 1.855 3.118 1.855 3.118s16.13 1.386 18.593.217c2.446-1.17.256.909.032 1.01-1.439.62-12.598.332-18.673-.62 0 0-2.846 1.948-4.38 2.323-1.52.361-4.013.058-4.797-.837 0 0 .767-.548 1.759-1.04.335-.165.663-.284 1.046-.427zm-3.742-6.74c.12.397.285.765.444 1.069-.162-.482-.317-.869-.444-1.07zm-12.083-3.163c-.099-.135-.151-.259-.139-.365.071-.705.043-4.321-.268-4.95-.325-.628 3.238 1.855 2.884 3.556-.203.961-.107 2.03.012 2.763.656.644 1.22 1.31 1.22 1.31s-2.164-.182-3.828.53c-1.665.714-5.074-2.504-4.347-2.291.587.171 3.132-.26 4.466-.553zm70.552 20.622c.161.076.303.148.425.216.025-.095.053-.224.083-.378a23.868 23.868 0 0 1-.552-.521c.264.442.443.78.443.78s-.148-.043-.399-.097zm-2.958-.166c-.095.014-.19.03-.282.049-.608.124-1.32-.27-1.95-.806-5.033-1.61-11.504-3.149-11.504-3.149s-.854 1.147-2.795 2.538c-1.942 1.391-4.597.871-4.597.871.446-.604.78-1.394 1.474-2.08-.501.293-1.619 1.026-2.14 1.907-.698 1.146-5.453 1.002-4.785.777.684-.225 2.883-2.32 3.24-2.77.322-.398 3.272-.12 3.842-.062.03-.027.061-.054.093-.08 1.289-1.1 2.267-1.36 2.267-1.36.016.015-.42-.52-1.211-1.33-.235-.24-.446-.44-.64-.615-1.12.088-3.401.221-3.75-.123-.466-.447-3.054-2.41-3.825-2.593-.772-.172 4.307-.804 5.27.401h.001c.168.209.366.413.579.608-.462-.568-.757-1.026-.757-1.026 1.04-.642 3.417-.184 4.69.657 1.274.856 3.215 3.669 3.215 3.669 2.843.456 6.724 1.43 10.105 2.436-.38-.514-.546-.887-.326-.771.637.327 4.201.355 4.899.284a.37.37 0 0 1 .202.043.448.448 0 0 1-.015-.25c.224-.718.928-4.489.733-5.224-.17-.598 1.892 1.575 2.292 3.31.836.754 2.516 2.878 2.058 4.151-.67 1.722-.399 3.936-.399 3.936s-.884-.698-1.626-1.441c.113.47-.024.679-.946-.283-.458-.48-1.741-1.066-3.412-1.674zm-30.965-.385c.889-.715 2.092-1.918 2.345-2.235.327-.433 4.046-.18 4.046-.18-.016-.01-1.687.908-2.326 2.038-.478.845-3.337 1.064-4.462 1.019-.213.386-.4.805-.517 1.237-.489 1.772-5.731 2.165-5.047 1.756.684-.408 2.588-3.785 2.882-4.482.26-.696 4.298-.59 4.298-.59 0-.02-.625.567-1.22 1.437zm-13.19 1.594c-.829-.38-3.528-1.405-4.13-1.32-.644.106 2.68-2.418 3.997-1.526 1.318.891 3.177 1.012 3.162 1.012 0 0-.474.453-1.046.92-.087.22-.602 1.53-.53 2.757.068 1.35-2.844 2.789-2.54 2.36.317-.442.723-3.219.746-3.774.002-.133.137-.28.34-.429zm-2.162 1.15l.019-.006c0 .014-.616 1.45-.51 2.773.121 1.322-2.88 2.815-2.571 2.375.19-.262.39-1.338.524-2.28-.518.594-1.54 1.352-3.475 1.61-2.593.344-3.278.748-3.278.748s1.761-2.367 2.854-2.751c.862-.295 3.095-.364 3.999-.38.035-.307.056-.55.059-.673.003-.142.172-.308.417-.476-.855-.36-3.554-1.308-4.145-1.211-.637.104 2.65-2.517 3.974-1.65 1.342.869 3.203.955 3.186.955 0 0-.479.478-1.053.967zm72.931 14.628c-1.537-.02-10.968-5.32-15.734-9.025 0 0-3.34.726-4.82.412-1.455-.292-3.412-1.685-3.723-2.94l-.044.012c-1.82.49-4.712-3.4-3.997-3.074.7.327 4.339.208 5.1.104.681-.106 2.59 2.193 2.99 2.685.146.002.301 0 .467-.004 1.114-.033 1.785-.132 1.785-.132s-.504-.924-.626-2.739c-.091-1.204.306-2.178.412-3.069 0 0 2.212 1.584 2.594 4.109.38 2.524.183 4.058.183 4.058s13.21 8.68 15.864 8.564c1.424-.053 1.259.25.764.542 1.088.541 2.303 1.438 2.37 2.483.129 2.018 1.09 4.286 1.09 4.286s-3.341-1.25-3.47-2.068c-.098-.603-.691-2.872-1.205-4.204zm-32.55-25.7c-.526-.26-1.196-.509-1.861-.523-1.427-.032-2.641-4.562-2.203-4.05.438.512 3.291 1.44 3.88 1.52.441.086.913 2.199 1.108 3.177 1.019.128 1.987.222 2.328.236.77.02 1.903 2.344 1.903 2.344s-2.01-.639-3.867-.579c-1.889.07-3.868-2.852-3.263-2.533.255.128 1.063.276 1.975.408zm-1.508-10.785c-.34-.898-.748-2.157-.505-2.46.404-.484 2.222-3.18 2.315-3.836.074-.637 1.24 2.915.43 4.188.298 1.096.503 2.684-.127 3.31-1.101 1.08-1.659 2.879-1.659 2.879s-1.373-2.864-.952-3.36c.095-.123.278-.386.498-.72zm22.502 35.109c-.516-.777-1.018-1.443-1.293-1.608-.685-.418 4.419-.015 4.977 1.759.574 1.76 2.217 3.31 2.201 3.31 0 0-3.892.105-4.195-.596-.108-.251-.436-.846-.843-1.523-1.12.052-2.913.085-3.135-.212-.342-.446-2.457-2.528-3.14-2.761-.684-.234 4.182-.255 4.832.87.151.269.362.525.596.76zm-16.615.854a.866.866 0 0 0-.21-.124c-.47-.177 2.6-.929 3.238.25.363.66.909 1.194 1.32 1.535.72-.209 2.635-.003 2.635-.003.014-.013-1.21.905-1.675 2.043-.465 1.138-3.943 1.1-3.45.88.35-.17 1.254-1.332 1.81-2.119-.588.149-1.194.237-1.341.024-.134-.187-.545-.679-1.006-1.186-.74.672-2.292 1.7-4.485 1.163-2.433-.612-3.301-.33-3.301-.33s3.068-2.574 4.262-2.653c.539-.035 1.41.224 2.203.52zm75.178 81.83a6.063 6.063 0 0 0-.668-1.16c-.462-.629-.294-1.87.016-2.945-1.03-5.198-2.803-11.54-2.803-11.54s-1.478-.186-3.726-1.231c-2.248-1.045-3.083-3.619-3.083-3.619.883.11 1.879-.031 3.003.39 1.638.608 2.377 1.341 2.377 1.341 0 .016.273-.623.626-1.7.37-1.17.433-1.809.674-2.526.37-1.045.851-1.872.851-1.872 1.108.593 1.863 2.917 1.735 4.445-.145 1.544-1.799 4.633-1.799 4.633.994 2.716 2.025 6.588 2.779 10.046.156-.292.267-.402.264-.22 0 .75 1.492 4.065 1.854 4.67.25.417-.495 1.958-.987 2.885a1.827 1.827 0 0 1-.056.446c-.052.153-.88 1.278-1.205 1.317.061.107.113.193.153.253.395.583-.88 3.93-.88 3.93s-.714-2.122-1.799-3.407c-1.084-1.314.702-5.617.74-4.87.021.633 1.08 2.808 1.657 3.863.007-.18.074-.477.226-.93.144-.427.146-1.202.05-2.199zm-6.817-24.104c.394-1.24.93-3.24.837-3.797-.124-.74 2.618 2.963 1.754 4.503-.863 1.526-1.192 3.763-1.192 3.763s-.967-1.403-1.46-2.482c-.623-.09-1.338-.145-2.028-.092-1.816.14-3.934-2.951-3.318-2.63.616.312 4.385.645 5.135.645a.54.54 0 0 1 .272.09zm-2.821-6.246c.263-1.16.486-2.381.409-2.776-.146-.74 2.717 2.884 1.932 4.478-.799 1.595-.755 3.786-.755 3.786s-2.441-2.48-2.194-3.173c.074-.208.209-.684.357-1.268-.785-.583-2.574-1.986-2.436-2.573.16-.766.585-4.686.307-5.421-.278-.735 3.32 2.45 2.721 4.242-.304.908-.36 1.923-.341 2.705zm-12.322-9.045c-.021-.822-.386-4.592-.695-5.213-.312-.63 2.652 1.451 2.56 3.322-.088 1.574.341 3.248.48 3.738l.04.04-.029.002.03.1-.172-.089c-.488.045-1.924.236-3.015.954-1.33.876-4.604-1.722-3.975-1.616.643.106 3.712-1.012 4.297-1.314.107-.054.276-.018.479.076zm-3.754-2.098c-.192-.142-.32-.283-.326-.41-.026-.565-.448-3.346-.755-3.78-.294-.45 2.597.984 2.52 2.346-.057 1.198.433 2.476.542 2.745.577.458 1.055.903 1.055.903-.016.017-1.857.154-3.162 1.045-1.305.891-4.635-1.593-4-1.508.614.08 3.344-.96 4.126-1.34zm24.925 72.643c.597-1.461 2.6-3.106 2.41-2.612-.23.649.335 3.996.519 4.645.048.153-.08.38-.3.64 1.19.092 3.82.154 4.352-.128.625-.33-1.95 3.493-3.573 3.053-1.637-.457-3.573.063-3.573.063s.298-.565.692-1.207c-.141.102-.228.161-.228.161s.275-1.933-.382-3.462c-.095-.223-.102-.476-.045-.744-.377-.144-1.129-.852-1.195-.965-.689-1.314-.904-11.849-.244-17.63 0 0-2.067-2.58-2.512-4-.43-1.418-.244-3.788.603-4.558 0 0 .588.695 1.12 1.585.373.619.53 1.223 1.105 2.234.516.966.904 1.494.904 1.494s.488-.845 1.794-1.75c.89-.62 1.78-.695 2.526-.982 0 0-.2 2.627-1.952 4.06-1.75 1.434-3 1.932-3 1.932s-.631 15.29.66 17.539c.152.267.255.474.32.632zm2.983-29.105c.135-.807.569-3.141 1.065-3.24.584-.118 3.377-1.119 3.927-1.631-1.584.22-2.967.96-2.967.96s.976-3.76 1.777-3.807c.784-.079 4.721-.862 5.346-1.38.608-.516-1.233 4.216-3.153 4.169-.29-.01-.582.007-.868.04.035.37-.466 2.174-1.232 3.198a.74.74 0 0 0 .095-.088c.43-.496-.52 3.672-2.053 3.86-1.533.173-3.016 1.326-3.016 1.326s.393-3.243 1.014-3.39l.065-.017zm.807-.272c.467-.17 1.04-.396 1.572-.627-.583.132-1.14.388-1.572.627zm6.655-15.852c-.62.407-1.162.715-1.162.715s.454-1.957-.084-3.555c-.539-1.598 3.23-4.307 2.927-3.665-.272.533-.093 3.131.05 4.308.194-.162.367-.25.495-.217.384.097 1.699.286 2.85.372.477-.699 1.84-2.614 2.354-2.46.643.188 4 .696 4.626.451.644-.263-2.209 3.237-3.722 2.597a5.408 5.408 0 0 0-1.463-.36c-.479.79-2.462 2.935-3.667 2.462-1.543-.616-3.469-.233-3.469-.233s.101-.165.265-.415zm-15.767 49.3c.03-.25.105-.512.209-.778-.11-.888-.417-3.635-.046-4.047.455-.493 2.333-3.196 2.496-3.959.152-.763.992 4.197-.198 5.247-.03.025-.058.052-.087.08-.032.198-.024.518.009.903a13.323 13.323 0 0 1 1.358-1.083c.709.944.354 3.23-.432 4.483a3.802 3.802 0 0 1-.271.37c.012.046.024.086.035.12.228.705-2.16 3.39-2.16 3.39s-.023-.6-.144-1.408a33.15 33.15 0 0 1-.244.193c.14.712.128 1.338.342 2.506.186 1.13.402 1.77.402 1.77s.717-.64 2.239-1.053c1.019-.275 1.909-.046 2.684-.061 0 0-1.005 2.427-3.115 3.19-2.11.749-3.445.78-3.445.78s-5.382 14.38-4.866 16.99c.503 2.596-.933-.045-.976-.274-.107-.702.51-3.306 1.449-6.418-.645.366-2.398 1.124-.82-.436 1.232-1.218 2.902-8.055 3.892-12.55-.205-.8-.37-1.63-.358-2.213.02-.694.224-1.53.54-2.274a15.467 15.467 0 0 1-2.04-2.061c-1.51-1.785-1.11-4.321-1.11-4.321.278.173.588.322.91.486-.37-.517-.89-1.13-1.46-1.458-1.101-.636-1.13-5.595-.898-4.913.232.697 2.291 2.805 2.726 3.146.33.258.271 2.485.223 3.548.313.188.625.413.918.71 1.171 1.18 1.48 2.094 1.48 2.094-.012-.011.282-.248.758-.7zm-1.844 12.56c.31-.766.618-1.485.917-2.131 0 0-.108-.298-.256-.754-.206.963-.429 1.936-.661 2.886zm-6.414-31.03c-1.393-.361-2.423-4.429-2.01-3.942.428.504 3.37 1.525 3.953 1.648.596.122 1.128 3.538 1.128 3.538s-.628-.477-1.472-.836c1.08.692 2.397 1.405 2.794 1.57.662.256.747 4.493.747 4.493 0-.017-1.522-1.647-3.184-2.041-1.16-.285-1.808-3.012-1.956-4.43zm2.036-6.706a.27.27 0 0 1 .022-.114c.273-.58 1.302-3.744 1.166-4.397-.121-.639 2.59 2.615 1.756 3.981-.817 1.382-.847 3.283-.863 3.253 0 0-.573-.552-1.118-1.18l.072.135c.016 0-1.979-.62-3.788-.458-1.793.148-3.958-2.976-3.349-2.654.609.322 4.363.62 5.107.608.286 0 .653.37.995.826zm-3.17-3.707c.507.686 1.101 2.25 1.101 2.25 0 .014-1.43-.58-2.683-.401-1.267.193-2.861-3.026-2.412-2.714.189.13.763.25 1.403.345-.858-.554-1.819-1.538-2.244-3.262-.653-2.708-1.305-3.376-1.305-3.376s3.728 1.628 4.365 2.742c.474.85.686 3.07.766 4.072.279.02.499.031.612.028.061-.002.129.033.2.095-.476-.552-.865-1.113-.75-1.372.246-.597 1.196-3.803 1.055-4.434-.14-.648 2.691 2.541 1.882 3.94-.792 1.398-.774 3.291-.792 3.291 0 0-.621-.567-1.199-1.204zm-14.04 81.146c.117-.09.266-.195.45-.314 2.22-1.424 8.393-15.49 8.393-15.49s-.988-1.03-2.007-3.134c-1.034-2.12-.06-4.558-.06-4.558.577.606 1.398 1.09 1.976 2.06.851 1.423.927 2.422.927 2.422.016-.015.609-.318 1.536-.924.989-.666 1.43-1.12 2.038-1.514.897-.56 1.764-.908 1.764-.908.456 1.105-.411 3.3-1.445 4.376-1.05 1.075-4.15 2.453-4.15 2.453-1.05 2.996-2.976 7.137-4.713 10.432 1.16-.529 2.402-.776 2.114-.532-.432.367-1.23 2.551-1.537 3.57.518-.588 1.303-1.608 1.625-2.697.467-1.69 5.763-2.305 5.063-1.886-.683.419-2.548 3.66-2.83 4.331-.234.551-3.023.716-4.006.756-.3.449-2.268.847-3.088.996-.286.4-.52.675-.688.792-.111.068-1.096.344-1.532.313-.361 1.21-.68 2.59-.733 3.038-.014.115-.102.245-.243.38.495-.221.93-.35 1.135-.24.618.347 3.983 1.726 4.718 1.687.735-.038-3.277 2.127-4.674 1.16-1.312-.91-3.22-1.22-3.482-1.258-.598.275-1.065.462-1.065.462s.922-2.255.968-4.175c.03-1.935 4.686-3.614 4.164-3.022-.178.201-.4.753-.619 1.424zm4.797-49.456c-.737-.505-1.207-2.506-.976-2.238.26.3 2.042.955 2.399 1.03.366.075.645 2.081.645 2.081 0-.01-.793-.615-1.636-.744.91.565 3.196 1.408 3.723 1.525.616.137 1.017 3.4 1.017 3.4s-1.475-1.143-3.007-1.311c-1.259-.163-2.13-3.009-2.165-3.743zm-25.83 70.084c.603-1.677 7.76-9.525 12.291-13.253 0 0 .288-3.53.968-4.945.681-1.4 2.497-3.006 3.677-2.926 0 0-.06.97-.288 2.067-.166.747-.454 1.32-.771 2.528-.303 1.13-.394 1.829-.394 1.829s.953-.255 2.587.095c1.09.239 1.83.89 2.587 1.256 0 0-2.012 1.781-4.327 1.495-2.33-.302-3.615-.922-3.615-.922s-11.301 10.893-11.936 13.58c-.383 1.608-.617 1.101-.73.391-.833.908-2.063 1.884-3.065 1.692-1.89-.363-4.258.028-4.258.028s2.193-2.834 2.971-2.765c.6.054 2.937.025 4.303-.15zm6.146-28.803c-.251 1.17-2.246 3.51-2.246 3.495 0 0-1.73-2.434-.193-5.274 1.212-2.184 1.183-3.089 1.183-3.089s1.507 3.698 1.256 4.868zm-4.63 5.933c-1.132-1-.06-5.137.061-4.453.106.666 2.01 3.279 2.433 3.734.423.456-.695 3.507-.695 3.507s-.665-1.806-1.798-2.788zm5.602-.87c-1.056.392-1.96 1.582-1.972 1.567 0 0-.082-2.832.34-3.043.423-.226 2.418-1.643 2.664-2.14.247-.482.036 3.225-1.032 3.616zm-6.67 3.983c-1.12-1.017.054-5.089.16-4.436.094.669 1.962 3.327 2.375 3.783.414.471-.774 3.464-.774 3.464-.013 0-.64-1.793-1.76-2.81zm4.575 1.267c-1.036.363-1.942 1.544-1.952 1.544 0 0-.02-2.9.388-3.1.409-.202 2.38-1.585 2.63-2.082.249-.496-.03 3.276-1.066 3.638zm-6.827 3.32c-1.017-1.359.896-5.561.896-4.826 0 .75 1.499 4.058 1.86 4.665.361.607-1.365 3.611-1.365 3.611 0 .016-.387-2.093-1.39-3.451zm5.757 3.237c-1.495.12-2.951 1.244-2.951 1.259 0 0 .498-3.372 1.088-3.492.604-.135 3.555-1.183 3.988-1.693.432-.51-.643 3.806-2.125 3.926zm-8.977.732c-.866-1.51 1.667-5.352 1.576-4.604-.09.732 1.034 4.26 1.319 4.933.297.658-1.913 3.334-1.913 3.334s-.116-2.153-.982-3.663zm6.896 3.616c-1.947.015-3.974 1.107-3.974 1.092 0 0 .974-3.631 1.76-3.708.8-.093 4.759-.97 5.355-1.477.629-.523-1.193 4.093-3.14 4.093zm-9.014 1.48c-.779-1.63 2.146-5.212 1.984-4.47-.162.743.72 4.422.97 5.116s-2.249 3.147-2.249 3.147c.015-.016.074-2.178-.705-3.792zm5.659 3.437c-1.76-.241-3.722.356-3.722.356s1.401-2.67 2.118-2.631c.732.025 4.392-.165 5.014-.483.639-.318-1.666 2.987-3.41 2.758zm49.037-20.091s2.738-1.52 3.907-1.504c1.169 0 4.368 2.397 4.368 2.397s-.846-.235-3.245.517c-3.092.94-5.03-1.41-5.03-1.41zm-4.138.774s2.528-.431 2.786.014 1.848 2.548 2.337 2.764c.49.215-2.867.43-3.384-.728-.53-1.146-1.74-2.05-1.74-2.05zm0-2.665s1.225-.844 1.825-2.004c.587-1.174 3.77-.659 3.3-.458-.47.171-2.178 2.248-2.465 2.691-.287.459-2.66-.229-2.66-.229zm-5.173 2.725s3.48-.515 3.858-.06c.378.444 2.644 2.54 3.317 2.756.673.204-3.94.504-4.696-.659-.771-1.162-2.479-2.037-2.479-2.037zm0-2.676s1.741-.85 2.515-2.02c.806-1.17 5.335-.727 4.658-.53-.677.185-2.998 2.279-3.401 2.722-.387.456-3.772-.172-3.772-.172zm-5.172 3.148s3.064-1.05 3.513-.613c.433.438 2.992 2.388 3.657 2.514.665.125-3.513 1.125-4.467-.05-.925-1.138-2.703-1.851-2.703-1.851zm-1.035-2.833s1.66-.93 2.219-2.012c.575-1.092 5.638-1.244 4.96-1.001-.677.242-2.709 2.305-3.013 2.73-.305.425-4.166.283-4.166.283zm-4.138 4.365s3.178-1.532 3.745-1.143c.552.39 3.7 2.068 4.446 2.116.746.05-3.64 1.655-4.893.596-1.238-1.07-3.297-1.569-3.297-1.569zm-5.172 2.367s2.955-1.801 3.555-1.433c.585.369 3.902 1.856 4.63 1.856.757-.014-3.398 1.951-4.757.942-1.343-.997-3.428-1.365-3.428-1.365zm6.093-58.846c.315 1.073-.126 4.053-.114 4.053 0 0-2.308-1.073-2.396-4.187-.076-2.414-.48-3.13-.48-3.13s2.662 2.19 2.99 3.264zm2.908 4.188c-1.006 1.187-1.411 3.018-1.411 3.001 0 0-1.703-2.662-1.33-3.17.373-.543 1.914-3.425 1.914-4.069.016-.661 1.848 3.069.827 4.238zm3.085 5.237c-1.037 1.14-1.472 2.976-1.472 2.99 0 0-1.625-2.693-1.247-3.212.379-.518 1.962-3.36 1.99-4.026.014-.666 1.766 3.094.729 4.248zm-5.805 7.034c-1.071-.553-1.258-5.702-1.013-5.028.246.691 2.26 2.695 2.674 3.006.422.311.324 4.25.324 4.25s-.924-1.675-1.985-2.228zm5.607-.535c-1.146.99-1.819 2.763-1.831 2.763 0 0-1.071-3.068-.648-3.519.424-.45 2.342-3.054 2.466-3.723.112-.683 1.146 3.505.013 4.48zm-5.891 5.519c-1.145-.736-.832-5.457-.614-4.78.198.677 2.279 2.941 2.716 3.324.437.368-.073 3.927-.073 3.927s-.874-1.72-2.03-2.471h.001zm6.784-.583c-1.158 1.039-1.94 3.054-1.94 3.054s-.805-3.668-.364-4.156c.44-.504 2.458-3.354 2.623-4.125.177-.772.838 4.188-.32 5.227zm-6.924 5.658c-1.153-.874-.54-5.29-.364-4.627.176.678 2.2 3.12 2.647 3.527.436.407-.317 3.722-.317 3.722-.012-.015-.812-1.763-1.966-2.622zm6.669.205c-1.137.693-2.024 2.417-2.035 2.417 0 0-.368-3.642.065-3.996.443-.37 2.522-2.579 2.739-3.256.227-.676.357 4.126-.77 4.835zm-6.741 5.634c-1.148-1.045-.36-6.001-.203-5.225.158.76 2.126 3.641 2.576 4.132.428.49-.45 4.148-.45 4.148-.01 0-.787-2.01-1.923-3.056zm8.112-.255c-1.784.645-3.552 2.265-3.552 2.265s.14-3.854.845-4.2c.688-.33 3.756-2.36 4.132-3.052.375-.692.36 4.342-1.425 4.987zm33.69-42.987s1.902-2.22 3.023-2.667c1.139-.46 5.252.19 5.252.19s-.91.135-2.862 1.638c-2.504 1.922-5.414.84-5.414.84zm-3.104 1.826s2.561-1.826 3.097-1.478c.52.35 3.433 1.843 4.069 1.827.636-.017-2.947 1.992-4.152.98-1.206-.98-3.014-1.329-3.014-1.329zm-1.035-1.522s.674-1.468.718-2.936c.066-1.484 2.66-2.637 2.362-2.195-.31.442-.905 3.395-.983 3.979-.044.584-2.097 1.152-2.097 1.152zm-3.103 3.694s2.519-1.91 3.043-1.56c.539.35 3.466 1.779 4.121 1.735.641-.044-2.898 2.086-4.12 1.094-1.224-.963-3.044-1.269-3.044-1.269zm-2.07-1.603s.666-1.473.686-2.905c.03-1.445 2.701-2.675 2.394-2.229-.308.432-.864 3.35-.924 3.931-.06.581-2.155 1.203-2.155 1.203zm-2.068 5.352s2.471-2.46 3.156-2.197c.67.264 4.305 1.201 5.022 1.055.734-.147-2.87 2.724-4.464 1.919-1.562-.806-3.714-.777-3.714-.777zm-1.035-.126s.575-2.002.392-3.781c-.208-1.78 3.008-4.051 2.69-3.432-.318.62-.55 4.353-.526 5.1.024.747-2.556 2.113-2.556 2.113zm-3.103 4.858s2.116-2.945 2.857-2.759c.742.172 4.588.658 5.314.386.726-.271-2.487 3.273-4.232 2.673-1.746-.629-3.939-.3-3.939-.3zm-2.07-1.722s.553-2.253.176-4.186c-.363-1.933 3.243-4.793 2.906-4.058-.323.719-.323 4.84-.255 5.64.094.815-2.826 2.604-2.826 2.604zm-5.171 8.362s1.761-2.902 2.553-2.822c.793.066 4.898.04 5.61-.292.71-.33-2.102 3.234-4.01 2.902-1.907-.357-4.153.212-4.153.212zm-4.423-25.432c-1 1.373-1.35 3.481-1.35 3.481s-1.784-2.97-1.42-3.577c.338-.607 1.824-3.945 1.811-4.695 0-.751 1.96 3.417.96 4.79zm1.985 6.363c-1.07 1.303-1.568 3.39-1.568 3.39s-1.482-3.123-1.106-3.7c.39-.593 2.054-3.82 2.103-4.575.048-.755 1.64 3.583.57 4.885zm-5.774 6.37c-1.082-.583-1.241-5.693-1.003-5.007.249.686 2.274 2.726 2.691 3.035.427.309.298 4.218.298 4.218s-.913-1.663-1.986-2.246zm6.632-1.554c-1.128.962-1.834 2.74-1.834 2.755 0 0-1.053-3.105-.62-3.542.422-.452 2.354-3.032 2.478-3.703.137-.67 1.115 3.528-.024 4.49zm21.235-45.334s.965-2.985 1.896-3.812c.966-.827 5.345-1.409 5.345-1.409s-.845.444-2.172 2.649c-1.69 2.817-5.07 2.572-5.07 2.572zm-4.09 2.096s.507-1.393 0-2.566c-.525-1.16 3.349-3.043 3.037-2.592-.311.452-.116 2.966 0 3.443.137.49-3.036 1.715-3.036 1.715zm-5.22 8.363s1.418-2.679 2.134-2.653c.717.038 4.395-.141 5.003-.462.624-.32-1.699 3.012-3.428 2.769-1.73-.231-3.71.346-3.71.346zm-1.236 1.045s.073-2.167-.703-3.8c-.776-1.617 2.167-5.206 2.006-4.462-.176.727.702 4.43.951 5.125.235.695-2.254 3.137-2.254 3.137zm-3.812 4.181s-.106-2.158-.978-3.7c-.873-1.54 1.692-5.314 1.586-4.565-.105.749 1.019 4.316 1.31 4.991.29.66-1.918 3.274-1.918 3.274zM242.74 89.171c.97.504 2.433 2.682 2.433 2.682s-2.791.726-4.837-1.218c-1.583-1.514-2.419-1.735-2.404-1.735 0 0 3.837-.222 4.808.27zm10.402 13.182c-1.498.66-4.381-2.717-3.739-2.487.642.246 3.953-.338 4.595-.553.642-.2 2.555 2.626 2.555 2.626-.015 0-1.927-.246-3.41.414h-.001zm4.368-5.607c-.432 1.643.077 3.602.077 3.602s-3.084-1.658-2.976-2.336c.108-.693.232-4.25-.108-4.883-.323-.633 3.454 1.96 3.007 3.617zm-.943 8.705c-1.884.414-4.75-3.31-4.042-2.993.725.331 4.767.262 5.557.18.789-.097 2.609 2.937 2.609 2.937.016 0-2.223-.552-4.123-.124zm2.46 3.908c-1.756.199-4.03-3.039-3.402-2.716.627.322 4.312.546 5.033.52.722-.024 2.102 2.593 2.102 2.593s-1.976-.608-3.732-.397zM206.59 56.54c-.662 1.147-5.465 1.032-4.803.803.661-.218 2.85-2.318 3.19-2.766.34-.436 3.988-.092 3.988-.092.017.012-1.68.918-2.376 2.054zm-1.27-5.685c.866 1.17 2.611 1.984 2.611 1.971 0 0-3.24.802-3.664.344-.409-.433-2.846-2.48-3.507-2.659-.676-.165 3.696-.827 4.56.344zm6.183 5.998c-.898 1.166-5.212.413-4.535.243.663-.158 3.136-2.174 3.548-2.611.413-.45 3.622.425 3.622.425-.015.012-1.767.79-2.635 1.943zm4.593 1.261c-1.192 1.103-5.72-.288-4.98-.36.74-.071 3.803-1.869 4.346-2.276.543-.408 3.848.958 3.848.958.015-.012-2.022.564-3.214 1.678zm5.032 2.174c-1.304 1.056-5.581-.681-4.834-.708.747-.027 3.975-1.657 4.532-2.031.588-.374 3.657 1.23 3.657 1.23s-2.083.454-3.355 1.51zm2.037-5.854c.184 1.557 1.318 3.045 1.318 3.058 0 0-3.216-.385-3.358-1.019-.156-.62-1.275-3.678-1.771-4.105-.51-.427 3.613.524 3.811 2.066zm3.068 6.943c-1.342 1.015-5.516-.901-4.764-.901.752 0 4.027-1.523 4.632-1.89.59-.356 3.554 1.395 3.554 1.395s-2.08.38-3.422 1.396zM188.63 13.589s-2.057-2.248-2.376-3.395c-.304-1.164.986-4.968.986-4.968s.014.912 1.318 3.05c1.652 2.75.072 5.313.072 5.313zm-.353 4.181s-.915-1.182-1.907-1.497c-1.014-.33-1.378-4.175-1.113-3.687.242.489 2.171 1.828 2.568 2.033.408.189.452 3.151.452 3.151zm3.103 5.227s-1.512-1.18-3.149-1.475c-1.637-.295-2.323-4.213-1.902-3.707.421.491 3.601 1.783 4.24 1.966.655.182.811 3.216.811 3.216zm4.715 4.18s-1.922-2.868-1.568-3.505c.341-.606 1.718-4.016 1.677-4.765-.04-.75 2.1 3.314 1.132 4.733-.955 1.402-1.24 3.538-1.24 3.538zm2.606 4.182s-2.381-2.54-2.13-3.231c.265-.677 1.257-4.284 1.112-5.035-.133-.737 2.632 2.945 1.825 4.524-.807 1.578-.807 3.742-.807 3.742zm-37.587 6.165c-.186 1.549-4.33 2.522-3.83 2.097.5-.438 1.615-3.481 1.758-4.098.143-.617 3.373-1.028 3.373-1.028.014-.014-1.115 1.48-1.3 3.03zm-2.08-5.83c1.302 1.045 3.38 1.486 3.38 1.486s-3.062 1.634-3.633 1.259c-.588-.375-3.81-1.982-4.555-2.008-.746-.014 3.507-1.794 4.809-.737zm5.271-.952c1.227 1.11 3.267 1.69 3.282 1.69 0 0-3.208 1.35-3.755.94-.577-.41-3.681-2.208-4.435-2.28-.754-.072 3.681-1.46 4.908-.35zm5.809-1.898c.897 1.172 2.66 1.93 2.646 1.941 0 0-3.175.892-3.601.452-.427-.44-2.896-2.454-3.572-2.613-.661-.147 3.63-.94 4.527.22zM121.02 7.317s-1.855-1.136-2.35-2.071c-.496-.97-.739-5.246-.739-5.246s.253.852 1.613 2.255c1.739 1.804 1.476 5.062 1.476 5.062zm4.589 3.136s-2.713-2.006-2.493-2.646c.202-.622.898-3.943.678-4.583-.22-.64 3.025 2.352 2.31 3.822-.678 1.487-.495 3.407-.495 3.407zm-1.471 1.045s-1.387-.545-2.577-.193c-1.204.37-2.97-3.24-2.525-2.923.445.317 2.983.317 3.48.247.497-.088 1.622 2.87 1.622 2.87zm4.665 1.046s-2.794-1.963-2.585-2.602c.209-.64.803-3.987.578-4.626-.24-.639 3.099 2.298 2.424 3.804-.658 1.522-.417 3.424-.417 3.424zm-.527 2.09s-1.932-.538-3.58-.098c-1.646.44-4.196-3.344-3.563-3.018.618.326 4.166.212 4.83.13.682-.113 2.313 2.986 2.313 2.986zm9.31 5.227s-2.368-1.155-2.378-1.935c-.02-.764-.391-4.649-.702-5.272-.311-.609 2.659 1.42 2.568 3.291-.11 1.872.512 3.916.512 3.916zm-1.034 1.121s-2.15 0-3.73.82-5.192-2.009-4.446-1.858c.732.136 4.344-.848 5.031-1.107.673-.273 3.145 2.145 3.145 2.145zm6.207 1.553s-2.098.277-3.502 1.257c-1.403.967-5.425-1.188-4.684-1.146.741.027 4.1-1.367 4.716-1.699.615-.345 3.47 1.588 3.47 1.588zm-57.931-.584s-3.295 0-4.371-.385c-1.11-.376-2.87-2.75-2.87-2.75s.684.405 3.277.74c3.327.437 3.964 2.395 3.964 2.395zm7.241 4.181s-2.308-.821-2.33-1.365c-.023-.556-.438-3.337-.751-3.78-.303-.442 2.588.999 2.52 2.352-.078 1.352.561 2.793.561 2.793zm0 2.953s-1.87.136-3.171 1.038c-1.286.887-4.632-1.609-3.99-1.519.644.09 3.698-1.112 4.268-1.398.555-.3 2.893 1.88 2.893 1.88zm5.172-.862s-3.226-.398-3.368-1.017c-.142-.618-1.28-3.668-1.763-4.107-.497-.426 3.639.522 3.824 2.088.185 1.538 1.307 3.036 1.307 3.036zm2.07 1.3s-2.084.454-3.356 1.497c-1.304 1.057-5.58-.695-4.834-.722.732-.013 3.96-1.631 4.548-2.019.573-.374 3.641 1.244 3.641 1.244zm6.206-.263s-4.028.122-4.305-.576c-.292-.698-2.193-4.082-2.875-4.492-.682-.41 4.549-.03 5.052 1.745.471 1.776 2.128 3.323 2.128 3.323zm-3.103 2.062s-2.055.58-3.282 1.69c-1.227 1.124-5.662-.265-4.908-.338.754-.072 3.858-1.872 4.42-2.282.547-.41 3.77.93 3.77.93zm-26.89 50.785c.137-1.175 1.926-3.725 1.926-3.71 0 0 2.031 2.226.743 5.178-1.001 2.304-.88 3.185-.88 3.185s-1.925-3.478-1.789-4.653zm4.498-6.018c1.15.624.503 3.785.33 3.304-.172-.481-2.186-2.25-2.631-2.536-.446-.3.36-2.64.36-2.64 0-.014.776 1.248 1.94 1.872zm-5.619-.151c1.13-.49 2.025-1.708 2.025-1.722 0 0 .338 2.618-.104 2.87-.44.265-2.505 1.82-2.726 2.31-.234.49-.337-2.968.805-3.458zm5.658-4.276c1.155.911.394 5.25.242 4.573-.153-.676-2.145-3.175-2.59-3.599-.444-.424.42-3.646.42-3.646s.773 1.76 1.928 2.672zm-5.62-.307c1.11-.644 2.019-2.348 2.03-2.365 0 0 .266 3.739-.167 4.07-.432.347-2.495 2.504-2.727 3.182-.233.679-.255-4.226.865-4.887zm11.169-9.3c.961 1.386-1.137 5.5-1.112 4.754.037-.745-1.362-4.113-1.699-4.725-.337-.61 1.537-3.547 1.537-3.547.012.015.3 2.131 1.274 3.517zm-7.025-3.251c2.104-.176 4.157-1.313 4.174-1.313 0 0-.633 3.262-1.471 3.397-.856.149-5.029 1.286-5.627 1.786-.616.514.82-3.694 2.924-3.87zm9.153-.808c.886 1.5-1.573 5.364-1.475 4.63.084-.75-1.096-4.263-1.405-4.918-.31-.638 1.84-3.353 1.84-3.353 0-.015.155 2.124 1.04 3.64zm-55.669 6.17s-3.118.857-4.323.591c-1.205-.236-3.953-3.085-3.953-3.085s.836.399 3.439.192c3.359-.25 4.837 2.303 4.837 2.303zm4.138-.403s-2.967-.076-3.157-.47c-.19-.405-1.468-2.33-1.973-2.592-.489-.252 3.362.142 3.662 1.148.3.995 1.468 1.914 1.468 1.914zm0 1.004s-1.775.581-2.834 1.696c-1.058 1.115-4.984-.25-4.336-.345.65-.079 3.346-1.869 3.824-2.277.478-.409 3.346.926 3.346.926zm4.138-1.004s-2.93-.03-3.118-.433c-.19-.403-1.526-2.38-2.012-2.626-.485-.246 3.294.089 3.632 1.112.337 1.032 1.498 1.947 1.498 1.947zm1.034 3.034s-1.784.613-2.804 1.73c-1.02 1.13-5.024-.15-4.364-.246.66-.095 3.314-1.933 3.78-2.342.464-.422 3.388.858 3.388.858zm6.207-2.165s-3.557.418-3.936-.033c-.348-.44-2.562-2.533-3.241-2.765-.664-.22 4.063-.396 4.774.75.696 1.145 2.403 2.048 2.403 2.048zm0 1.648s-1.729.819-2.57 1.993c-.828 1.163-5.278.605-4.601.416.661-.178 3.067-2.243 3.473-2.694.406-.439 3.698.285 3.698.285zm5.173-2.036s-3.69.887-4.178.437c-.473-.437-3.264-2.459-4.02-2.616-.757-.157 4.225-.92 5.218.236.993 1.168 2.98 1.942 2.98 1.942zm0 1.814s-1.715.887-2.478 2.042c-.764 1.164-5.373.927-4.696.71.677-.216 2.953-2.319 3.342-2.762.374-.443 3.832.01 3.832.01zm5.172-.2s-1.653.932-2.187 2.001c-.551 1.06-5.665 1.286-4.994 1.04.69-.245 2.652-2.276 2.945-2.688.293-.422 4.236-.353 4.236-.353zm5.172-2.095s-1.5 1.705-1.995 3.327c-.46 1.636-5.883 2.172-5.184 1.774.7-.413 2.473-3.3 2.763-3.932.273-.647 4.416-1.169 4.416-1.169zm190.553-19.86s-.401-2.978-.088-4.056c.313-1.092 2.984-3.262 2.984-3.262s-.414.704-.49 3.143c-.1 3.127-2.406 4.174-2.406 4.174zm-.208 4.18s.48-2.009 1.086-2.084c.59-.076 3.56-.724 3.99-1.027.431-.302-.638 2.269-2.123 2.345-1.468.097-2.953.767-2.953.767zm-1.4 0s-.374-1.813-1.397-3.017c-1.023-1.186.844-4.882.86-4.22.017.643 1.527 3.542 1.884 4.068.374.525-1.348 3.17-1.348 3.17zm-.956 5.227s-.422-1.835-1.462-3.005c-1.026-1.154.745-4.9.76-4.233.027.651 1.601 3.508 1.967 4.026.38.518-1.265 3.212-1.265 3.212zm-1.518 6.272s-.674-1.786-1.81-2.773c-1.135-.973-.087-5.14.038-4.472.112.682 2.021 3.281 2.445 3.746.425.45-.673 3.499-.673 3.499zm1.017 5.226s-.51-3.566-.062-3.95c.438-.368 2.521-2.608 2.73-3.3.198-.679.5 4.067-.646 4.804-1.146.722-2.022 2.446-2.022 2.446zm-1.783 1.045s-.784-2.027-1.944-3.064-.464-5.987-.299-5.217c.177.77 2.188 3.63 2.619 4.133.43.503-.376 4.148-.376 4.148zm1.973 4.182s-.74-3.313-.293-3.737c.434-.408 2.466-2.844 2.654-3.51.176-.68.763 3.782-.388 4.645-1.162.862-1.973 2.602-1.973 2.602zm-2.66 1.045s-.895-1.72-2.041-2.428c-1.125-.707-.972-5.5-.754-4.824.23.675 2.315 2.894 2.74 3.264.437.354.055 3.988.055 3.988zM20.69 100.217s-2.37 1.972-3.508 2.197c-1.169.241-4.768-1.37-4.768-1.37s.877.046 3.076-1.129c2.815-1.535 5.2.302 5.2.302zm3.103-2.7s-2.187 1.067-2.5.64c-.324-.427-2.149-2.392-2.624-2.514-.462-.122 2.5-1.127 3.187.03.675 1.128 1.937 1.844 1.937 1.844zM30 96.41s-3.01 1.135-3.463.707c-.454-.427-3.04-2.336-3.706-2.456-.665-.107 3.433-1.215 4.416-.067C28.23 95.755 30 96.41 30 96.41zm9.31-5.266s-2.708 2.17-3.344 1.858c-.65-.312-4.098-1.507-4.838-1.416-.74.09 3.122-2.39 4.601-1.494 1.465.91 3.581 1.052 3.581 1.052zm1.035 1.888s-1.098 2.053-1.127 4.041c-.03 2.005-4.523 3.767-4.004 3.152.504-.598 1.424-4.655 1.527-5.463.09-.808 3.604-1.73 3.604-1.73zm3.103-3.136s-.592 2.006-.41 3.79c.193 1.783-2.985 4.043-2.671 3.423.314-.621.556-4.363.544-5.095-.025-.732 2.537-2.118 2.537-2.118zm4.892 50.711c1.851-.105 3.893 2.891 3.27 2.576-.623-.314-4.429-.687-5.19-.7-.761-.01-1.937-2.412-1.937-2.412.017 0 2.006.64 3.857.536zm-5.746 2.675c.87-1.332.975-3.211.975-3.211s2.22 2.323 1.92 2.9c-.285.578-1.41 3.686-1.305 4.337.105.636-2.46-2.694-1.59-4.026zm-.183-18.658c1.104.635 1.156 5.614.929 4.93-.237-.686-2.291-2.792-2.724-3.126-.434-.334-.217-4.127-.217-4.127 0 .016.908 1.704 2.012 2.322zm.084-4.108c1.13.682 1.04 5.55.81 4.852-.23-.682-2.3-2.881-2.74-3.23-.43-.364-.1-4.019-.1-4.019s.91 1.714 2.03 2.396zm-24.909 63.467s-1.037 3.014-1.955 3.842c-.952.844-5.286 1.375-5.286 1.375s.85-.438 2.193-2.656c1.734-2.873 5.048-2.56 5.048-2.56zm8.276-11.508s-1.45 2.745-2.175 2.706c-.71-.053-4.35.079-4.966.409-.617.317 1.743-3.089 3.47-2.798 1.712.25 3.671-.317 3.671-.317zm2.322 0s-.088 2.19.662 3.83c.749 1.639-2.263 5.177-2.087 4.43.176-.714-.632-4.446-.882-5.16-.235-.682 2.307-3.1 2.307-3.1zm-.253-6.272s-1.043 3.842-1.817 3.874c-.775.064-4.694.8-5.31 1.312-.601.528 1.28-4.29 3.192-4.21 1.912.113 3.935-.976 3.935-.976zm3.056 2.09s.08 2.148.91 3.708c.857 1.588-1.78 5.295-1.66 4.56.107-.736-.964-4.34-1.245-5.031-.295-.662 1.995-3.236 1.995-3.236zm.047-7.316s-.552 3.446-1.144 3.554c-.591.123-3.497 1.123-3.934 1.631-.437.508.707-3.877 2.16-3.97 1.466-.092 2.918-1.215 2.918-1.215zm1.494 2.09s.352 2.104 1.34 3.491c.974 1.37-1.002 5.531-.988 4.782 0-.749-1.462-4.096-1.8-4.702-.352-.606 1.448-3.57 1.448-3.57zM61.58 193.56c1.517-.876 5.261 1.753 4.534 1.624-.742-.1-4.265 1.006-4.913 1.308-.647.287-3.27-1.984-3.27-1.984.016 0 2.149-.071 3.65-.948zm-5.2 5.793c.098-1.859-.518-3.865-.518-3.882 0 0 2.377 1.218 2.388 1.974.01.773.385 4.605.693 5.23.308.626-2.674-1.463-2.564-3.322zm.238-7.97c1.67-.68 5.044 2.586 4.315 2.363-.73-.222-4.467.445-5.196.667-.714.223-2.978-2.529-2.978-2.529s2.172.208 3.859-.5zm-3.515 5.752c.225-1.755-.356-3.754-.344-3.754 0 0 2.643 1.424 2.607 2.143-.035.734.154 4.43.474 5.063.32.648-2.974-1.683-2.737-3.452zm.04-9.963c1.57-.588 4.287 3.13 3.662 2.829-.64-.286-4.054.079-4.708.238-.669.159-2.442-2.892-2.442-2.892s1.918.397 3.488-.175zm-5.497 4.506c.582-1.578.173-3.538.173-3.524 0 0 3.022 1.799 2.865 2.462-.158.65-.535 4.113-.236 4.762.299.634-3.369-2.108-2.802-3.7zm1.925-8.7c1.829-.532 4.825 3.413 4.115 3.064-.725-.319-4.7-.122-5.472 0-.757.121-2.697-3.08-2.697-3.08-.015.015 2.208.516 4.053.015zm-.106 61.622s.383 3.005.062 4.087c-.333 1.067-2.975 3.23-2.975 3.23s.407-.706.506-3.155c.123-3.125 2.407-4.162 2.407-4.162zm2.26-3.136s-.523 2.039-1.109 2.105c-.585.076-3.544.701-3.972 1.008-.427.296.68-2.302 2.137-2.367 1.487-.077 2.943-.746 2.943-.746zm.404 0s.375 1.832 1.37 3.02c1.012 1.203-.913 4.867-.913 4.222.016-.661-1.485-3.561-1.844-4.087-.375-.526 1.387-3.155 1.387-3.155zm3.022-5.226s.41 1.847 1.43 3.015c1.032 1.152-.793 4.877-.807 4.226 0-.665-1.557-3.532-1.925-4.049-.381-.517 1.302-3.192 1.302-3.192zm-.546-5.227s.665 1.779 1.783 2.79c1.131.983.038 5.132-.075 4.453-.1-.68-1.997-3.296-2.424-3.759-.427-.448.716-3.484.716-3.484zm-2.067-7.317s.475 3.603.031 3.96c-.444.385-2.517 2.609-2.734 3.291-.207.682-.465-4.092.68-4.834 1.146-.696 2.023-2.416 2.023-2.416zm35.845 2.073c-1.15-.212-3.555-2.144-3.555-2.144s2.33-1.887 5.18-.408c2.207 1.148 3.095 1.072 3.095 1.072s-3.555 1.691-4.72 1.48zm-5.773-4.628c.666-1.163 3.678-.242 3.201-.106-.477.136-2.284 2.114-2.598 2.551-.314.438-2.523-.573-2.523-.573-.013 0 1.255-.725 1.92-1.872zm-.302 4.61c-.42-1.086-1.604-2.025-1.618-2.025 0 0 2.716-.161 2.947.271.245.433 1.69 2.484 2.181 2.718.477.26-3.077.149-3.51-.963zm-1.996-6.73c.959-1.17 5.1-.133 4.446-.013-.655.12-3.228 2.059-3.67 2.497-.457.426-3.502-.637-3.502-.637s1.766-.704 2.726-1.847zm-3.202 5.652c-.398-1.088-1.593-2.007-1.593-2.007s2.775-.116 2.993.306c.231.423 1.644 2.483 2.132 2.725.501.233-3.134.053-3.532-1.024zm-5.447-1.076c-.184-1.56-1.318-3.05-1.318-3.036 0 0 3.217.386 3.359 1.007.142.635 1.262 3.699 1.772 4.113.496.441-3.615-.539-3.813-2.084zm-6.933-10.199c1.554-.826 5.202 1.93 4.489 1.799-.746-.13-4.314.884-4.996 1.16-.667.276-3.189-2.088-3.189-2.088 0-.015 2.142-.044 3.696-.87zm20.793 43.748s.621 3.421.182 3.812c-.45.408-2.51 2.77-2.705 3.438-.195.668-.622-3.894.524-4.708 1.17-.799 1.999-2.542 1.999-2.542zm-3.051-9.408s1.633 3.124 1.268 3.71c-.378.586-1.951 3.815-1.975 4.566-.013.75-1.78-3.59-.756-4.881 1.024-1.307 1.463-3.395 1.463-3.395zm1.321-2.09s1.496 1.625 3.111 2.044c1.602.403 2.37 5.925 1.946 5.209-.41-.682-3.548-2.465-4.183-2.744-.649-.245-.874-4.51-.874-4.51zm-5.172-9.408s2.182.543 4.056.514c1.86-.03 3.657 2.923 3.073 2.597-.584-.326-4.118-.8-4.87-.85-.769-.04-2.26-2.261-2.26-2.261zm62.124 6.042c-1.068.365-4.193.183-4.193.194 0 0 .835-2.143 4.054-2.45 2.49-.228 3.187-.65 3.187-.65s-1.98 2.553-3.048 2.906zm-6.645-.566c0-1.383 2.725-2.69 2.43-2.255-.309.436-.818 3.307-.866 3.879-.047.57-2.216 1.262-2.216 1.262s.652-1.473.652-2.886zm2.451 6.834c-1.25-.932-3.086-1.186-3.103-1.186 0 0 2.436-2.017 2.987-1.678.567.322 3.536 1.66 4.17 1.61.668-.05-2.803 2.203-4.054 1.254zm-7.603-4.756c.02-1.449 2.709-2.67 2.408-2.24-.311.429-.863 3.34-.913 3.918-.05.59-2.167 1.22-2.167 1.22 0 .014.642-1.462.672-2.898zm-7.85 8.633c-1.13-1.139-3.152-1.836-3.167-1.836 0 0 3.409-1.092 3.922-.662.543.43 3.514 2.359 4.269 2.486.769.128-3.892 1.162-5.023.012zm-6.91-5.915c.748-1.162 5.395-.891 4.709-.666-.67.215-2.947 2.313-3.306 2.753-.374.44-3.867-.045-3.867-.045s1.715-.88 2.464-2.042zm.065 5.68c-.808-1.169-2.544-2.022-2.529-2.022 0 0 3.366-.632 3.762-.176.396.445 2.742 2.538 3.412 2.725.67.175-3.838.655-4.645-.526zm33.202 39.449s2.145 2.158 2.474 3.316c.357 1.143-.744 5.046-.744 5.046s-.043-.904-1.416-2.999c-1.759-2.697-.314-5.363-.314-5.363zm-1.68-4.182s1.447 2.826 1.054 3.323c-.393.496-2.107 3.254-2.17 3.922-.063.65-1.557-3.237-.472-4.333 1.07-1.096 1.588-2.912 1.588-2.912zm1.122 0s.896.692 1.865.86c.958.158 1.427 2.547 1.167 2.25-.26-.295-2.126-1.046-2.501-1.154-.386-.1-.531-1.956-.531-1.956zm-2.22-5.226s1.51 2.787 1.121 3.293c-.374.507-2.05 3.294-2.105 3.95-.041.655-1.634-3.204-.567-4.307 1.08-1.103 1.55-2.936 1.55-2.936zm1.185-1.045s1.486 1.13 3.061 1.38 2.422 4.303 2.006 3.804c-.416-.514-3.521-1.704-4.13-1.88-.64-.147-.937-3.304-.937-3.304zm-3.836-2.09s2.052 2.755 1.733 3.424c-.318.622-1.566 4.095-1.511 4.844.07.748-2.26-3.187-1.345-4.668.915-1.466 1.123-3.6 1.123-3.6zm.733-2.092s2.018.647 3.935.606c1.917-.03 3.8 2.824 3.189 2.506-.611-.308-4.53-.78-5.326-.822-.764-.04-1.798-2.29-1.798-2.29zm-2.07-4.18s1.989.635 3.786.484c1.826-.14 3.976 2.941 3.343 2.629-.604-.313-4.374-.647-5.125-.647-.737 0-2.003-2.467-2.003-2.467zm-5.172-4.182s1.932.535 3.58.063c1.605-.456 4.19 3.37 3.566 3.055-.638-.331-4.13-.174-4.813-.08-.669.111-2.333-3.038-2.333-3.038zm-4.137-3.72s2.324.165 4.083-.408c1.76-.542 4.803 3.242 4.084 2.94-.703-.301-4.282 0-5.016.136-.735.166-3.151-2.669-3.151-2.669zM8.276 143.546s-1.956 2.215-3.071 2.652c-1.132.438-5.205-.273-5.205-.273s.905-.137 2.877-1.613c2.522-1.914 5.399-.766 5.399-.766zm7.241-5.016s-2.553 1.843-3.079 1.495c-.525-.363-3.429-1.829-4.086-1.8-.642.029 2.933-2.018 4.145-1.016 1.196 1.001 3.02 1.32 3.02 1.32zm0 1.539s-.658 1.468-.716 2.95c-.049 1.468-2.663 2.62-2.363 2.182.3-.426.89-3.39.958-3.966.059-.59 2.121-1.166 2.121-1.166zm10.345-6.272s-.552 2.255-.257 4.22c.321 1.948-3.146 4.75-2.825 4.025.334-.724.398-4.863.334-5.685-.065-.805 2.748-2.56 2.748-2.56zm2.069-6.21s-1.683 3.2-2.362 3.07c-.679-.13-4.148-.341-4.782-.016-.635.325 1.992-3.575 3.601-3.07 1.61.519 3.543.015 3.543.015zm1.672.983s-.309 1.93.323 3.468c.617 1.538-2.851 4.396-2.59 3.758.247-.638-.261-4.034-.43-4.672-.186-.638 2.697-2.554 2.697-2.554zm2.466-6.271s-1.808 2.99-2.609 2.894c-.784-.083-4.833-.11-5.553.22-.72.331 2.129-3.335 4.017-2.949 1.92.372 4.145-.165 4.145-.165zm1.213 2.09s.057 2.292.758 3.965c.702 1.673-2.618 5.02-2.39 4.297.215-.724-.4-4.191-.6-4.9-.23-.708 2.232-3.362 2.232-3.362zm158.8 119.725c-1.81-.134-3.806.484-3.806.484s1.246-2.46 1.996-2.46c.734 0 4.523-.34 5.137-.655.614-.302-1.502 2.764-3.328 2.63zm-12.933 4.134c-.354-1.697 3.227-4.171 2.899-3.553-.328.633-.328 4.243-.25 4.962.08.705-2.832 2.258-2.832 2.258 0 .015.55-1.97.183-3.667zm-4.928 2.99c-.178-1.794 2.974-4.021 2.653-3.396-.322.624-.583 4.39-.571 5.126.012.737-2.51 2.083-2.51 2.083 0-.016.607-2.018.428-3.813zm4.3 5.754c-1.56-.818-3.71-.832-3.693-.832 0 0 2.515-2.41 3.184-2.132.669.263 4.267 1.256 4.999 1.124.716-.146-2.914 2.658-4.49 1.84zm-3.108 3.103c-1.493-.891-3.689-1.262-3.689-1.262s2.913-1.961 3.571-1.66c.644.302 3.88 1.359 4.611 1.249.732-.11-3 2.565-4.493 1.673zm49.07 5.41s2.652 1.021 2.606 1.54c-.03.517.153 3.161.475 3.611.322.45-2.974-1.227-2.729-2.48.246-1.254-.352-2.672-.352-2.672zm-3.104-2.091s2.56 1.35 2.534 2.094c-.026.743.229 4.492.547 5.117.319.624-2.852-1.638-2.66-3.429.165-1.79-.42-3.782-.42-3.782zm-10.345-6.493s2.088-.473 3.402-1.518c1.299-1.069 5.532.635 4.787.672-.76.025-3.985 1.679-4.569 2.052-.583.385-3.62-1.206-3.62-1.206zm-5.172-.574s1.775-.668 2.762-1.828c.973-1.134 5.067-.05 4.408.063-.672.126-3.263 2.042-3.707 2.458-.457.441-3.463-.693-3.463-.693zm-6.207.857s3.783-.303 4.11.43c.312.715 2.382 4.15 3.067 4.549.685.413-4.297.238-4.904-1.591-.592-1.83-2.273-3.388-2.273-3.388z" id="a"/></defs><g fill="none" fill-rule="evenodd"><use fill="#FFA28A" xlink:href="#a"/><use fill="#FFCEC5" xlink:href="#a"/><use fill="#BB946A" xlink:href="#a"/></g></svg>