<svg xmlns="http://www.w3.org/2000/svg" xmlns:xlink="http://www.w3.org/1999/xlink" width="90" height="41"><defs><path id="a" d="M88.36 10.585c-1.437-.523-3.23-.523-4.737-.676A94.81 94.81 0 0 0 74 9.413c1.098-1.406 1.856-3.148.754-4.7-.851-1.194-1.914-1.16-2.91-.64.387-1.094.688-2.457.074-3.375-.796-1.191-2.078-.285-2.78.485a5.775 5.775 0 0 0-1.368 2.535c-.512-.63-1.242-1.035-2.188-.985-1.62.083-2.699 1.305-3.113 2.739-.504-.91-1.355-1.633-2.312-2.055-1.34-.59-3.371-.77-4.043.856-.422 1.02-.07 1.972.558 2.75-2.484-.336-4.988-.528-7.48-.727a609.908 609.908 0 0 0-10.68-.742 1417.19 1417.19 0 0 0-10.688-.61c-3.48-.187-6.973-.386-10.457-.164-3.395.215-6.696.907-9.934 1.938A102.25 102.25 0 0 0 2.68 8.394c-1.379.515-2.472.828-2.582 2.468-.234 3.485-.02 7.047.328 10.516.164 1.653.383 3.305.66 4.946.22 1.304.583 2.492 1.934 2.988 1.469.54 3.219.602 4.758.852 1.738.28 3.477.562 5.219.84l10.633 1.699c7.09 1.129 14.18 2.261 21.266 3.394 2.953.473 5.906.942 8.863 1.414a.62.62 0 0 0 .512.082l11.89 1.899 5.22.832c1.59.254 3.312.746 4.925.668 1.54-.075 2.668-1.047 3.832-1.946a186.45 186.45 0 0 0 3.809-3.004c1.277-1.035 2.57-2.066 3.809-3.148 1.082-.945 1.578-2.008 1.718-3.434.336-3.503.375-7.062.454-10.574.039-1.757.09-3.523.07-5.28-.02-1.29-.313-2.536-1.637-3.02v-.001zm-.882 1.477c.008 0 .012.003.02.007a123.255 123.255 0 0 1-5.399 4.27c-.629.156-1.246.363-1.855.527a304.92 304.92 0 0 1-3.153.824c-1.89.489-3.789.95-5.675 1.465-2.532-.328-5.063-.672-7.594-1.015 3.074-1.106 6.125-2.286 9.203-3.391 3.21-1.156 6.453-2.195 9.676-3.316 1.574.164 3.242.254 4.777.629zm-9.586 8.566c1.219-.41 2.27-1.191 3.305-1.934.3-.214.601-.433.898-.652-.785 2.242-1.422 4.555-2.12 6.816-.43 1.391-.86 2.782-1.286 4.176-.242.79-.54 1.594-.793 2.41.012-.57.023-1.14.031-1.71.032-1.56.047-3.118.059-4.676.015-1.461.125-2.98-.094-4.43zm-4.203-1.18c-.469-.058-.937-.12-1.41-.18 1.652-.343 3.289-.746 4.926-1.156 1.054-.265 2.101-.539 3.152-.82.227-.059.46-.117.695-.176-.972.711-1.96 1.504-3.054 2.012-1.372.64-2.852.504-4.309.32zm7.781-8.129c-2.922.942-5.812 2-8.691 3.04-3.211 1.16-6.426 2.347-9.563 3.695a948.9 948.9 0 0 0-1.214-.164c1.289-.977 2.742-1.766 3.964-2.828 2.395-.864 4.75-2.407 6.594-4.114.04-.039.086-.078.125-.117a.787.787 0 0 0 .38.102c2.808.015 5.612.136 8.405.386zm-20.832 6.067c-.105.09-.199.183-.285.281-1.367-.187-2.738-.375-4.11-.559l-1.48-.199c.524-.402 1.14-.742 1.563-1.054.508-.383 1.015-.754 1.449-1.2.066.035.133.075.2.106 1.82.918 3.866 1.015 5.823.633l-.422.257c-.902.543-1.93 1.055-2.738 1.735zM69.502 2.58c.175-.254.835-1.203 1.203-1.23.609-.04.261 1.343.207 1.593-.23 1.04-.676 2.008-1.196 2.93a13.726 13.726 0 0 0-1.105 1.457c.039-.305.066-.613.059-.93a4.87 4.87 0 0 0-.208-1.351 6.58 6.58 0 0 1 1.04-2.47zm.023 5.91c.055-.086.11-.168.164-.254.23-.293.45-.61.648-.937.34-.446.704-.875 1.102-1.27.332-.332.719-.758 1.18-.906.687-.219 1.23.293 1.34.957.328 1.965-2.317 3.988-3.711 4.976-.895.633-1.856 1.149-2.813 1.672.61-1.453 1.266-2.894 2.09-4.238zm-5.531-3.21c.398-.743 1.324-1.427 2.191-1.099 1.645.625 1.067 3.16.688 4.368-.39 1.246-.887 2.441-1.153 3.703-.703-1.18-1.308-2.426-1.71-3.735-.313-1.015-.547-2.25-.016-3.238zm-5.707-.907c.547-.031 1.117.129 1.613.355 1.047.48 1.79 1.313 2.387 2.27 0 .047.004.094.008.137.07.925.3 1.859.636 2.773-.21-.566-2.152-1.574-2.71-1.938-.977-.632-1.993-1.03-2.618-2.09-.41-.68-.21-1.452.684-1.507zm.054 5.433c1.54-.18 2.872 1.196 3.852 2.184.84.844 1.66 1.652 2.652 2.258-1.918.398-4.156.265-5.894-.594-.777-.387-1.543-.996-1.75-1.883-.207-.883.16-1.851 1.14-1.965zm-3.09 5.336c-.675.45-1.59.907-2.167 1.54-2.364-.317-4.727-.637-7.086-.958 1.605-.355 3.199-.836 4.793-1.226.949-.23 1.906-.457 2.86-.68.835-.195 1.757-.312 2.597-.562.203.296.45.574.726.82-.609.3-1.168.695-1.722 1.066zm.755-5.457c-.59 1.047-.516 2.153-.04 3.098-.734.125-1.472.355-2.183.52-.996.23-1.992.472-2.988.722-1.887.473-3.84.906-5.672 1.586-3.266-.441-6.528-.883-9.79-1.32 1.544-.274 3.075-.656 4.594-1.016 2.079-.488 4.149-.996 6.215-1.535a306.9 306.9 0 0 0 6.176-1.684c1.512-.43 3.05-.828 4.555-1.304-.34.215-.637.52-.867.933zm-1.383-1.61c.707.056 1.41.106 2.113.153-1.52.438-3.027.938-4.547 1.367a270.475 270.475 0 0 1-6.043 1.653c-2.02.527-4.047 1.043-6.078 1.535-1.875.453-3.785.832-5.637 1.379a3439.34 3439.34 0 0 0-9.332-1.242c.934-.23 1.883-.422 2.801-.653l10.047-2.484c3.059-.758 6.13-1.477 9.18-2.262 2.5.172 5 .356 7.496.555zm-9.086-.66c-5.578 1.321-11.137 2.782-16.7 4.157-1.62.398-3.245.781-4.859 1.203l-3.097-.41c-1.14-.149-2.285-.309-3.426-.465 3.203-.73 6.371-1.7 9.531-2.566 1.758-.48 3.516-.965 5.274-1.446 1.296-.355 2.652-.644 3.96-1.03 3.106.163 6.211.35 9.317.558zM34.47 6.762c-.738.218-1.473.449-2.203.648l-5.403 1.488c-3.39.934-6.847 1.774-10.188 2.895-2.847-.399-5.699-.813-8.558-1.16 1.094-.286 2.176-.625 3.258-.93 1.625-.461 3.25-.934 4.875-1.402 1.582-.454 3.16-.914 4.738-1.372.89-.257 1.812-.488 2.719-.746 3.597.082 7.199.375 10.762.578zM4.319 9.436c.762-.277 1.523-.55 2.289-.812 3.004-1.031 6.078-1.871 9.246-2.2 2.023-.21 4.066-.28 6.113-.273-.324.102-.644.2-.964.293-1.625.473-3.247.945-4.872 1.422-1.578.465-3.16.922-4.734 1.395-1.383.41-2.8.78-4.168 1.265a136.683 136.683 0 0 0-4.7-.476c.56-.266 1.243-.418 1.79-.614zm-2.758 5.63a75.043 75.043 0 0 1 .012-2.298c.012-.62-.082-1.39.156-1.968 1.445.28 2.898.527 4.356.757-.844.59-1.63 1.309-2.43 1.934-.695.543-1.402 1.082-2.086 1.64-.004-.019-.004-.042-.008-.066zm.012.484c.793-.555 1.558-1.149 2.328-1.735.91-.699 1.937-1.363 2.77-2.164 2.656.406 5.324.754 7.984 1.102-4.332 2.8-8.68 5.699-12.691 8.953a68.888 68.888 0 0 1-.39-6.156h-.001zm1.215 11.473c-.258-.696-.305-1.516-.418-2.247a68.346 68.346 0 0 1-.364-2.683c2.078-1.469 4.118-2.996 6.211-4.453 2.352-1.64 4.73-3.239 7.145-4.793 1.273.164 2.539.332 3.808.512.86.12 1.723.238 2.582.355-.644.383-1.254.824-1.886 1.281a782.385 782.385 0 0 0-8.246 6.043C8.76 23.16 5.838 25.245 3.1 27.53a1.42 1.42 0 0 1-.312-.507zm6.37 1.77c-1.593-.25-3.195-.474-4.78-.747-.391-.066-.739-.14-1.016-.305 2.559-1.78 5.016-3.718 7.516-5.578a811.001 811.001 0 0 1 8.132-5.969c1.098-.796 2.203-1.761 3.442-2.386 3.57.492 7.14.976 10.715 1.46-3.766 2.192-7.446 4.555-11.13 6.883-3.644 2.305-7.323 4.567-10.925 6.946l-1.953-.305zm2.696.421c3.488-2.191 6.93-4.465 10.41-6.668 3.773-2.39 7.586-4.734 11.301-7.219 1.285.176 2.574.348 3.86.524 2.167.293 4.335.59 6.5.886-1.512.926-2.977 1.961-4.458 2.914a1907.734 1907.734 0 0 0-5.96 3.856c-1.985 1.289-3.97 2.574-5.954 3.863-1.77 1.149-3.601 2.246-5.324 3.473-3.457-.543-6.914-1.09-10.375-1.629zm11.086 1.742c1.648-1.004 3.242-2.12 4.856-3.172 2.019-1.316 4.039-2.633 6.062-3.949a1373.6 1373.6 0 0 0 5.941-3.887c1.579-1.039 3.23-2.023 4.782-3.12l7.933 1.09c-.094.585-.054 1.222-.07 1.757 0 .055-.004.11-.004.164-1.465.914-2.867 1.957-4.285 2.937a970.12 970.12 0 0 0-4.82 3.348l-4.817 3.352c-1.52 1.058-3.137 2.054-4.586 3.215-3.656-.575-7.324-1.157-10.992-1.735zm21.066 3.328c-3.125-.492-6.25-.988-9.375-1.48 1.496-.942 2.914-2.059 4.36-3.067l4.808-3.363c1.602-1.121 3.203-2.246 4.805-3.371 1.273-.895 2.586-1.766 3.828-2.715-.024 1.004-.031 2.012-.024 3.016a99.08 99.08 0 0 0 .16 4.933c-1.386.828-2.687 1.871-3.992 2.793-1.52 1.075-3.074 2.11-4.55 3.239a.086.086 0 0 0-.02.015zm4.031.637l-3.402-.54c1.45-.976 2.852-2.038 4.273-3.054 1.215-.867 2.52-1.699 3.688-2.652.031.496.062.992.101 1.488.094 1.207.215 2.406.336 3.61.067.625.086 1.3.16 1.96l-5.156-.812zm6.64 1.05c-.077-.671-.234-1.35-.32-2.003a68.458 68.458 0 0 1-.32-3.23 99.534 99.534 0 0 1-.316-6.29c-.04-2.027-.074-4.082.062-6.105.008-.082.024-.164.043-.242 1.977.273 3.953.543 5.93.812a4.652 4.652 0 0 0-.074.484c-.114 1.16-.133 2.344-.153 3.512-.082 4.63.133 9.465 1.118 13.996l.003.012c-1.988-.317-3.98-.633-5.972-.945zm6.114-11.733a71.777 71.777 0 0 1 .055-3.043c.027-.684-.035-1.457.172-2.11 2.632.36 5.265.715 7.898 1.07-.422.231-.836.485-1.242.704-.887.48-1.77.972-2.649 1.469-1.398.793-2.89 1.554-4.226 2.484a28.118 28.118 0 0 1-.008-.574zm15.512 15.027c0 .008.004.012.004.02-1.3.16-2.887-.356-4.094-.548l-2.836-.445c1.2-.742 2.356-1.555 3.52-2.351.668-.457 1.336-.91 1.996-1.368.453-.312.98-.605 1.43-.96-.008.265-.02.53-.024.8-.043 1.535-.36 3.356.004 4.852zm.336-14.406c-.07 1.625-.137 3.246-.187 4.87-.036 1.099-.07 2.192-.102 3.29-.598.293-1.145.766-1.688 1.14l-2.097 1.465c-1.215.848-2.442 1.688-3.61 2.598-.523-.086-1.05-.164-1.578-.25l-5.57-.879a.512.512 0 0 0 .086-.36c-.086-.652-.172-1.3-.254-1.948 1.23-.82 2.36-1.836 3.504-2.762l4.059-3.281c2.5-2.024 5.07-3.992 7.515-6.086-.039.738-.047 1.48-.078 2.203zm.121-2.871c-2.621 1.996-5.129 4.164-7.68 6.246l-3.937 3.21c-1.18.962-2.445 1.887-3.55 2.95-.388-3.043-.716-6.063-.786-9.145 1.52-.754 2.969-1.722 4.437-2.543a199.18 199.18 0 0 1 2.543-1.394c.645-.352 1.364-.66 2.012-1.04 1.238.165 2.477.337 3.711.497 1.117.148 2.266.273 3.387.105-.067.368-.11.743-.137 1.114zm3.711 14.699c-.836.636-1.762 1.53-2.746 2.093.258-1.32.09-2.863.117-4.175.012-.465.02-.93.027-1.39.524-1.204.817-2.548 1.196-3.794l1.312-4.309c.75-2.46 1.598-4.93 2.223-7.437 1.664-1.23 3.29-2.508 4.887-3.82-.504 1.425-.938 2.886-1.399 4.316a306.21 306.21 0 0 0-1.949 6.281 340.128 340.128 0 0 0-1.789 6.192c-.285 1.035-.57 2.07-.852 3.105-.238.883-.543 1.777-.699 2.68a6.79 6.79 0 0 1-.328.258zm7.856-20.36c-.032 3.262-.125 6.52-.278 9.778a231.23 231.23 0 0 1-.117 2.344c-.043.773-.027 1.64-.418 2.336-.668 1.187-2.23 2.101-3.27 2.937-.93.75-1.87 1.488-2.812 2.219.207-.727.356-1.48.55-2.2.278-1.038.56-2.073.845-3.109a366.885 366.885 0 0 1 3.648-12.359c.512-1.629 1.098-3.254 1.59-4.895l.265-.218c.016.199.016.406.016.625 0 .847-.008 1.695-.02 2.543z"/></defs><g fill="none" fill-rule="evenodd"><use fill="#FFA28A" xlink:href="#a"/><use fill="#FFCEC5" xlink:href="#a"/><use fill="#BB946A" xlink:href="#a"/></g></svg>