<svg xmlns="http://www.w3.org/2000/svg" width="206" height="28"><path d="M47.196 6.795l.833 4.908h-.463c-.647-3.057-3.426-4.353-6.39-4.353-.463 0-.926 0-1.574.186v8.426h1.111c2.408 0 3.89-.926 3.89-2.87h.463v6.853h-.37c-.185-1.481-.74-3.334-3.89-3.334h-1.203v7.78c0 1.296.555 2.036 2.5 2.036v.463H33.86v-.463c1.853 0 2.5-.74 2.5-2.037V9.295c0-1.204-.74-2.037-2.592-2.037v-.463h13.428m16.671 0l.833 4.908h-.463c-.649-3.057-3.427-4.353-6.39-4.353-.463 0-.927 0-1.575.186v8.426h1.112c2.408 0 3.89-.926 3.89-2.87h.462v6.853h-.37c-.186-1.481-.741-3.334-3.89-3.334h-1.204v7.78c0 1.296.556 2.036 2.501 2.036v.463h-8.242v-.463c1.851 0 2.5-.74 2.5-2.037V9.295c0-1.204-.741-2.037-2.594-2.037v-.463h13.43m-34.082 0v.463c-1.388 0-2.223.74-2.223 2.037V24.39c0 1.39.927 2.037 2.223 2.037v.463h-7.78v-.463c1.39-.092 2.224-.647 2.224-2.037V9.295c0-1.296-.834-2.037-2.223-2.037v-.463h7.779M19.691 1.33l.833 6.02h-.37c-1.204-3.149-3.334-5.28-7.502-5.28v21.302c0 2.314 1.297 3.055 2.686 3.055v.463h-9.26v-.463c1.296 0 2.87-.74 2.87-3.055V2.07c-4.26 0-6.205 1.945-7.687 5.279h-.37l.648-6.02H19.69m113.912 18.986c0 3.149 2.222 5.465 5.463 5.465 1.39 0 3.057-.649 4.168-2.038l-6.482-8.335c-1.575.555-3.149 2.223-3.149 4.908zm8.89-12.41c-.007-2.573-1.12-3.89-3.333-3.89-2.224 0-3.52 1.298-3.52 3.427 0 2.408 3.241 5.742 3.241 5.742 2.594-1.481 3.612-2.963 3.612-5.279zm-3.149 5.835l5.557 6.946s.555-1.112.649-2.222c0-1.298-.649-1.76-1.76-1.945v-.371h6.02s.093.37 0 .37c-1.112.185-1.946.556-2.779 1.205-.648.833-1.018 1.574-1.759 3.426l2.592 3.15c1.112 1.295 2.594 2.036 4.168 2.128v.463h-6.482v-.463l-1.853-2.222c-1.574 1.575-4.075 2.963-6.575 2.963-3.982 0-6.576-2.222-6.576-5.278 0-3.334 3.15-5.465 5.65-7.132 0 0-2.686-3.055-2.686-5.833 0-3.149 2.408-5.557 5.742-5.557 2.963 0 5.28 2.13 5.28 4.723 0 2.963-3.427 4.26-5.188 5.649zM179.721.867L180 8.925h-.463c-.833-4.538-3.796-7.132-7.594-7.132-4.537 0-7.686 5.28-7.686 12.318 0 8.798 3.519 12.41 8.335 12.41 5 0 6.945-4.63 7.408-7.965h.463v3.518c-.833 1.483-3.333 4.91-8.612 4.91-6.669 0-11.855-5.465-11.855-12.781 0-6.667 5.835-12.78 11.855-12.78 3.519 0 4.445 1.482 5.835 1.482 1.018 0 1.481-.649 1.573-2.038h.463m24.356 22.319a1.86 1.86 0 0 1 1.853 1.853c0 1.018-.835 1.76-1.853 1.76s-1.852-.741-1.852-1.76c0-1.019.834-1.853 1.852-1.853m-18.244-6.667c0 6.204 2.408 10.002 6.205 10.002 3.89 0 6.298-3.52 6.298-10.002 0-5.928-2.13-9.261-6.206-9.354-4.167-.093-6.297 3.89-6.297 9.354zm6.112-9.818c5.732.012 10.558 4.361 10.558 10.188 0 5.649-4.538 10.002-10.373 10.002-5.742 0-10.557-4.538-10.557-10.002S186.297 6.7 191.946 6.7zM71.738 11.054l3.427 8.243h-6.761l3.334-8.243zm11.113 15.373c-.741 0-1.296-.647-1.667-1.11-.278-.463-8.057-19.54-8.057-19.54l-7.131 17.41c-.833 2.222-1.945 3.24-3.519 3.24v.463h5.835v-.463c-1.204-.092-1.945-.647-1.945-1.481 0-.648 1.852-5.094 1.852-5.094h7.038s1.945 4.168 2.038 5.094c.092.74-1.02 1.481-2.13 1.481v.463h7.686v-.463zm3.242-3.055c0 1.851-1.204 2.686-2.501 3.055v.463h5.834v-.463c-1.666-.37-2.592-1.481-2.592-3.055V10.313l13.614 16.949v-16.3c0-2.316 1.296-3.704 2.778-3.704v-.463H96.65v.37c1.853.556 3.149 1.667 3.149 3.797v10.002L88.501 6.794h-5.373v.37c2.316.094 2.965 2.039 2.965 2.5v13.708m17.873-16.114c.825 0 1.022.005 1.668 1.204 0 0 6.204 9.908 6.204 10.002v5.926c0 1.296-1.11 2.037-2.778 2.13v.37h8.612v-.37c-1.573-.093-2.592-.834-2.592-2.13v-6.946s3.982-7.13 4.352-7.78c.926-1.48 2.223-2.406 3.797-2.592v-.277h-7.038l.093.277c2.222 0 2.778 2.13 1.945 3.427l-3.612 6.667-4.445-7.779c-.742-1.203.184-2.315 1.851-2.315v-.277h-8.057v.463" fill="#1A1919" fill-rule="evenodd"/></svg>