<svg xmlns="http://www.w3.org/2000/svg" xmlns:xlink="http://www.w3.org/1999/xlink" width="133" height="40"><defs><path id="a" d="M63.924 14.408H.02V.032h63.904z"/><path id="c" d="M36.566.21H.025v23.355h73.083V.209z"/></defs><g fill="none" fill-rule="evenodd"><g transform="translate(18.557 25.567)"><mask id="b" fill="#fff"><use xlink:href="#a"/></mask><path fill="#EC912D" d="M63.36 5.76c-7.673 5.662-18.795 8.673-28.373 8.673-13.422 0-25.51-4.962-34.657-13.221C-.388.563.252-.322 1.116.18c9.868 5.742 22.072 9.2 34.677 9.2 8.503 0 17.85-1.765 26.45-5.413 1.298-.55 2.385.855 1.116 1.793" mask="url(#b)"/></g><path fill="#EC912D" d="M85.108 27.683c-.981-1.256-6.486-.595-8.96-.3-.748.09-.864-.564-.19-1.038 4.393-3.084 11.588-2.194 12.424-1.161.842 1.042-.222 8.256-4.336 11.698-.634.53-1.236.247-.955-.451.926-2.313 3-7.49 2.017-8.748"/><path fill="#0A0B09" d="M76.323 4.555V1.558a.74.74 0 0 1 .76-.758L90.516.798c.43 0 .774.313.774.757v2.57c-.004.431-.367.993-1.01 1.887l-6.96 9.934c2.583-.06 5.315.327 7.663 1.646.529.297.67.737.712 1.17v3.198c0 .44-.483.95-.99.685-4.133-2.166-9.62-2.403-14.192.026-.468.249-.956-.254-.956-.695v-3.04c0-.487.01-1.318.5-2.06l8.061-11.565H77.1c-.429 0-.773-.306-.776-.756m-49.001 18.72h-4.086a.77.77 0 0 1-.731-.691l.003-20.975c0-.42.352-.754.789-.754l3.806-.001c.397.02.717.321.742.704v2.738h.077C28.915 1.648 30.783.412 33.3.412c2.556 0 4.158 1.236 5.303 3.884.992-2.648 3.243-3.884 5.646-3.884 1.717 0 3.585.706 4.73 2.295 1.297 1.766 1.03 4.326 1.03 6.577l-.003 13.236c0 .419-.353.755-.789.755h-4.081a.765.765 0 0 1-.733-.753l-.002-11.12c0-.882.077-3.089-.115-3.927-.304-1.414-1.22-1.811-2.402-1.811-.992 0-2.022.662-2.443 1.721-.418 1.06-.38 2.825-.38 4.017V22.52c0 .419-.353.755-.789.755h-4.081a.766.766 0 0 1-.734-.753l-.004-11.12c0-2.34.381-5.781-2.518-5.781-2.938 0-2.823 3.353-2.823 5.78l-.001 11.119c0 .419-.353.755-.789.755m75.57-18.581c-3.014 0-3.204 4.104-3.204 6.664 0 2.56-.038 8.033 3.166 8.033 3.167 0 3.32-4.414 3.32-7.105 0-1.766-.077-3.885-.612-5.562-.457-1.457-1.374-2.03-2.67-2.03zm-.038-4.282c6.066 0 9.346 5.209 9.346 11.83 0 6.398-3.623 11.475-9.346 11.475-5.95 0-9.193-5.21-9.193-11.697 0-6.532 3.28-11.608 9.193-11.608zm17.212 22.863h-4.071a.767.767 0 0 1-.734-.753l-.007-20.983c.035-.384.374-.684.786-.684l3.79-.001a.778.778 0 0 1 .727.587v3.208h.076c1.146-2.87 2.746-4.237 5.57-4.237 1.83 0 3.624.662 4.768 2.472 1.068 1.677 1.068 4.501 1.068 6.532v13.199c-.045.371-.38.66-.783.66h-4.096a.77.77 0 0 1-.728-.66V11.227c0-2.296.267-5.65-2.556-5.65-.992 0-1.907.661-2.365 1.676-.572 1.28-.65 2.56-.65 3.974V22.52a.782.782 0 0 1-.795.755"/><mask id="d" fill="#fff"><use xlink:href="#c"/></mask><path fill="#0A0B09" d="M69.734 23.222c-.27.243-.66.26-.965.096-1.357-1.128-1.6-1.65-2.343-2.724-2.242 2.285-3.83 2.97-6.737 2.97-3.44 0-6.117-2.123-6.117-6.369 0-3.317 1.797-5.573 4.358-6.679 2.217-.973 5.315-1.15 7.685-1.416v-.53c0-.974.077-2.123-.497-2.964-.498-.752-1.453-1.062-2.294-1.062-1.559 0-2.944.799-3.285 2.454-.071.368-.34.733-.71.752l-3.96-.43c-.335-.075-.707-.343-.61-.854.91-4.805 5.25-6.257 9.138-6.257 1.989 0 4.588.53 6.155 2.035 1.989 1.858 1.797 4.335 1.797 7.034v6.366c0 1.916.796 2.756 1.543 3.787.261.373.32.814-.014 1.087-.834.7-2.318 1.987-3.133 2.714l-.011-.01zm-4.119-9.964c0 1.594.038 2.92-.765 4.336-.65 1.15-1.683 1.858-2.829 1.858-1.567 0-2.485-1.196-2.485-2.965 0-3.48 3.123-4.113 6.08-4.113v.884zm-49.453 9.964c-.27.243-.66.26-.965.096-1.358-1.128-1.602-1.65-2.343-2.724-2.244 2.285-3.832 2.97-6.737 2.97C2.676 23.565 0 21.442 0 17.196c0-3.317 1.796-5.573 4.358-6.679 2.217-.973 5.314-1.15 7.684-1.416v-.53c0-.974.077-2.123-.496-2.964-.498-.752-1.454-1.062-2.294-1.062-1.56 0-2.946.799-3.285 2.454-.07.368-.34.733-.71.752l-3.96-.43C.96 7.246.588 6.978.685 6.467 1.596 1.661 5.936.209 9.825.209c1.988 0 4.587.53 6.155 2.035 1.987 1.858 1.797 4.335 1.797 7.034v6.366c0 1.916.795 2.756 1.542 3.787.26.373.32.814-.013 1.087-.835.7-2.319 1.987-3.134 2.714l-.01-.01zm-4.12-9.964c0 1.594.038 2.92-.764 4.336-.65 1.15-1.683 1.858-2.83 1.858-1.566 0-2.485-1.196-2.485-2.965 0-3.48 3.123-4.113 6.079-4.113v.884z" mask="url(#d)"/></g></svg>