<svg xmlns="http://www.w3.org/2000/svg" width="171" height="28"><path d="M64.684 27.229c-1.988 0-3.49.04-4.545.162-.203 0-.284-.405.04-.487.934-.243 1.908-.203 2.395-.487.284-.162.487-1.339.527-11.159 0-.568-.04-.933-.284-1.055-.446-.244-1.46-.284-6.98-.284-5.518 0-6.533.04-6.979.284-.284.122-.284.487-.284 1.055.04 9.86.243 10.997.527 11.16.487.283 1.461.283 2.395.486.284.082.243.487.04.487-1.055-.121-2.516-.162-4.545-.162-1.988 0-3.57.04-4.585.162-.244 0-.284-.405.04-.487.893-.243 1.989-.203 2.476-.487.284-.203.527-1.176.527-12.498 0-11.362-.243-12.336-.527-12.54-.487-.283-1.583-.283-2.476-.486-.324-.081-.243-.487 0-.487 1.015.122 2.597.203 4.586.203 1.988 0 3.49-.081 4.545-.203.203 0 .284.406-.04.487-.934.243-1.908.243-2.395.487-.284.162-.528 1.298-.528 10.388 0 .528.041.893.285 1.055.446.244 1.46.284 6.98.284 5.518 0 6.533-.04 6.979-.284.284-.162.284-.527.284-1.055-.04-9.09-.243-10.226-.528-10.388-.486-.284-1.46-.284-2.394-.487-.324-.081-.243-.487-.04-.487 1.055.122 2.516.203 4.545.203 1.988 0 3.57-.081 4.626-.203.203 0 .284.406-.081.487-.893.243-1.989.243-2.476.487-.284.203-.527 1.177-.527 12.539 0 11.322.243 12.295.527 12.498.487.284 1.583.284 2.476.487.324.082.284.487.08.487-1.054-.121-2.637-.162-4.666-.162zm34.33.203c-2.15-.122-5.275-.203-9.495-.203-4.18 0-7.873 0-10.023.203-.203 0-.284-.406.04-.487.934-.244 2.03-.244 2.476-.487.324-.203.527-1.177.527-12.54 0-11.32-.203-12.335-.527-12.498-.447-.284-1.542-.284-2.476-.487-.284-.08-.243-.487-.04-.487C80.51.568 82.093.61 84.08.61c2.11 0 3.571-.081 4.545-.163.244 0 .284.406-.04.487-.893.244-1.908.203-2.395.487-.284.163-.487 1.177-.487 12.499 0 11.362.203 11.85.487 12.052.487.284 2.313.446 4.383.446 4.342 0 5.519-.324 6.452-1.055.812-.649 2.03-3.368 2.475-5.072.041-.122.65-.081.569.122-.244.69-.771 6.858-1.056 7.02zm21.548-.041c-.933 0-3.936-.162-5.965-.162-1.988 0-5.194.04-6.25.162-.202 0-.283-.405.082-.487.893-.243 1.988-.203 2.475-.487.284-.203.487-1.176.487-12.498 0-11.362-.203-12.336-.487-12.54-.487-.283-1.582-.283-2.475-.486-.365-.081-.284-.487-.122-.487 1.055.122 4.018.203 6.006.203 2.029 0 4.626-.203 5.681-.203 9.942 0 14.568 6.25 14.568 13.716 0 7.264-6.087 13.27-14 13.27zM119.061 1.3c-1.989 0-3.53.243-4.018.487-.284.202-.527.77-.527 12.092 0 9.415.487 11.16 1.096 11.687.69.609 1.258.852 5.275.852 6.127 0 10.145-4.666 10.145-12.458 0-8.318-4.626-12.66-11.971-12.66zm50.846-.407c-.893.243-2.475.324-2.962.608-.69.366-.812 1.096-.852 12.418-.081 8.4.04 11.16.243 13.838.04.284-.73.284-.811.121-6.128-7.548-14.65-17.49-18.748-22.197-.122-.122-.284-.162-.284.04-.04 2.273-.122 4.627-.163 8.198-.04 11.362.325 12.174.65 12.377.487.284 1.46.365 2.394.608.284.082.284.487.081.487-1.055-.121-1.948-.162-3.977-.162s-3.084.04-4.139.162c-.203 0-.284-.405.04-.487.934-.243 2.151-.324 2.638-.608.974-.568 1.218-1.137 1.218-12.377 0-9.171-.528-10.713-1.258-11.525-.568-.65-1.542-1.258-2.76-1.38-.324-.04-.284-.486-.08-.486.81.08 1.42.121 2.962.08 1.339-.08 2.07-.121 2.394-.202.121-.04.324.081.365.162 3.368 4.22 13.229 15.948 17.652 21.02.162.163.325.163.325 0 .04-2.313.122-4.26.162-7.67.081-11.443-.446-12.214-.77-12.417-.488-.284-1.827-.365-2.76-.608-.325-.081-.284-.487-.081-.487 1.014.122 2.434.203 4.463.203 1.989 0 3.084-.081 4.099-.203.203 0 .324.406-.04.487zM16.922 12.296v-.366c0-9.414.243-9.901.527-10.104.447-.284.447-.487 2.435-.487 4.058 0 6.168 2.03 6.168 5.6 0 2.8-2.029 5.032-5.275 5.357h.122c.08 0 .162.04.243.04.162 0 .406-.04.609-.04.162 0 1.298-.04 1.623 0h1.136c3.084-.934 5.073-2.882 5.073-5.52 0-3.895-3.774-6.37-8.969-6.37-1.055 0-1.866.203-3.895.203-2.03 0-4.95-.081-6.006-.203-.203 0-.284.406.04.487.934.243 2.03.243 2.517.487.324.203.487 1.055.527 10.632v1.866c0 11.322-.203 12.296-.487 12.499-.487.284-1.582.284-2.516.487-.284.08-.243.487-.04.487 1.055-.122 4.26-.163 6.249-.163 1.988 0 3.49.163 4.383.163 5.762 0 10.063-2.922 10.063-7.589 0-2.921-2.15-5.68-6.817-6.695-.325 0-1.055.04-1.786-.04a.692.692 0 0 1-.405 0c-.406.08-.73.04-1.177.04h-1.218c5.357 0 7.873 3.287 7.873 7.304 0 3.612-2.435 6.046-6.168 6.046-2.679 0-3.328-.162-4.018-.77-.608-.528-.77-2.395-.77-11.647v-.893l-.041-.811z"/><path d="M10.55 12.62c-.243.081-1.257-.04-1.5-.04-.122 0-.325-.04-.407 0-.202.04-.608-.04-.608-.04h-.447c-.608.04-1.136-.041-1.745.04-.121.04-.324 0-.446 0H4.261c-.081 0-.893.08-.974.08-.284 0-1.096.041-1.096.041s.04-.284.163-.284h.568c.162 0 1.745-.121 2.07-.08.162 0 .324.04.446 0 .121-.041.284.04.446.04.04 0 .122-.04.162-.04.325-.041 2.516.121 2.76.08.203.041 2.475-.08 2.8.041.406-.04 1.177 0 1.217-.04h.974v-.163h-.203c-.162-.04-.527 0-.811-.04-.244-.041-2.11-.082-2.597-.122l-.163-.04-1.055-.853-.162-.081s-.812-.69-1.136-.893h-.041c-.162-.081-.365-.081-.568-.081.203.122.568.325.69.365.162.203.608.447.608.447l.934.77s.121.041.121.163c-.121-.04-.162 0-.162 0l-1.095-.812s-1.096-.811-1.299-.892h-.081c-.081 0-.284 0-.406-.041h.081c.406.162 1.299.73 1.461.933.162.122 1.015.771 1.055.771-.081 0-.122.04-.243 0 0-.08-.487-.446-.487-.446-.244-.162-.487-.203-.65-.446-.04 0-1.258-.771-1.42-.893-.04 0-.081 0-.162.04.081.122.122.122.203.163.284.284.933.649 1.014.69.163.08 1.218.973 1.218.973h-.325l-1.299-.973c0-.041-.649-.528-.811-.569-.163-.162-.528-.365-.528-.365h-.162s.568.487.812.568c.04.04.202.203.284.244.04-.04.527.446.608.446.04.162.771.487.73.609-.08-.04-.283 0-.364 0-.041-.081-.041-.04-.082-.081 0 0-.527-.568-.933-.852-.081-.041-.203-.163-.243-.163-.203-.243-.65-.487-.65-.487s-.284-.203-.446-.243c-.081 0-.162-.04-.203 0 .04.08.365.284.365.284l.487.406.284.243c.122.162.325.325.487.446.04 0 .162.163.244.163.04.081.405.324.243.365-.122.04-.203 0-.325 0 0-.122-.608-.446-.77-.69l-.041-.04a8.68 8.68 0 0 0-.487-.528c-.04-.04-.284-.243-.325-.284-.203-.162-.446-.243-.527-.487-.163 0-.284 0-.365.04.08.244.405.244.568.447 0-.04.608.568.933.73l.284.284c.162.203.487.406.487.528-.122-.04-.04.04-.162 0-.163-.243-1.218-1.096-1.38-1.136-.162-.244-.446-.325-.65-.568-.162 0-.243-.122-.324-.203-.081-.04-.203 0-.325 0 0 .04 0 .08.041.08.081.082.162.123.243.204.082 0 .447.243.65.446l.08.081c.326.284 1.259.974 1.462 1.137-.081.04-.284 0-.284 0s-1.218-.974-1.34-1.177a.849.849 0 0 0-.243-.163c0-.04-.243-.162-.325-.284-.162-.08-.446-.284-.527-.324-.081 0-.162.04-.244.04.041.203 1.015.65 1.056.73.324.204.608.447.892.731.04.122.163.244.284.365-.08-.04-.04.041-.08.041-.204 0-.488-.365-.528-.446-.04 0-.244-.163-.284-.244l-1.055-.77c-.203-.123-.528-.285-.69-.447h-.284c0 .04.162.122.121.162.406.122 1.299.852 1.502.974.122.162.243.325.446.406.122.203.365.324.447.487-.122-.04-.244-.203-.325-.122-.04-.081-.69-.609-.933-.893-.082 0-.447-.324-.447-.324s-.406-.203-.527-.244c-.04-.04-.244-.162-.284-.203-.082-.04-.163-.04-.244-.08-.122-.041-.203-.163-.324-.082a.517.517 0 0 0 .243.162c.122.163.325.244.528.365.202.163.608.406.608.406l.244.163s.77.568.77.892H4.1l-.082-.08a3.09 3.09 0 0 0-.487-.407c-.04-.162-.487-.365-.527-.446 0 0-.487-.365-.812-.568l-.446-.284s-.244-.162-.244-.203h-.487c-.08 0-.202-.04-.202.081.162.04.446.284.446.284s.325.203.528.365c.08.122.324.244.365.325.243.122 1.095.893 1.177.893.04.08.08.08.121.162-.04 0-.162-.04-.203-.04-.08-.203-.446-.366-.527-.366-.122-.162-.528-.446-.609-.487-.081-.324-.811-.811-.852-.811-.203-.244-.568-.325-.812-.528-.121.04-.203 0-.324.04.04.041.08.082.08.163.407.122.731.365 1.056.568.04.122 1.014.771 1.055.812.122.203.487.243.528.487-.082-.04-.244-.04-.244-.04-.609-.528-1.217-1.056-1.907-1.462-.04 0-.406-.284-.528-.243 0 0-.04.04 0 .04.244.122.69.487.69.487.365.284 1.096.853 1.096.893.122.04.203.122.284.203.081.122.081.081.04.162-.04-.04-.121 0-.202.04-.082.285-.163.366-.082.731 0 .082 0 .082.082.163.08.04.405.08.608 0-.08.243-.608.527-.649.527-.284.163-.446.406-.69.609h-.122c-.324.284-.73.527-1.217.69 0 0 .162.121.243.121.041 0 .082-.08.163-.121.081-.04.203-.081.324-.122.041-.04.163-.081.203-.122.122-.08.366-.243.406-.243.406-.365.852-.609 1.218-.974.04 0 .365-.203.486-.284 0-.081.082-.04.122-.04-.04.04 0 .04-.04.121 0 0-.163.081-.203.162-.447.325-.771.65-1.258.974l-.203.163c-.325.202-.771.486-.812.486-.121 0 .528 0 .73.041.082-.081.163-.081.204-.203.203-.081 2.231-1.582 2.475-1.826h.243c-.162.122-.365.244-.324.325-.244.162-.69.608-.73.608-.041 0-.893.569-.975.65a3.062 3.062 0 0 1-.486.284c-.041.08-.122.08-.163.121.244.122.081.163.284.041.203-.081 1.096-.609 1.096-.609l1.055-.852s.284-.243.406-.365c.04.04.162-.122.162-.162h.203l-.203.203-.812.73s-.77.528-.892.69c-.081-.081-.65.122-.65.284.082.04.122-.04.244 0 .122-.04.446-.244.487-.244.203-.121.365-.284.609-.405.243-.122.487-.366.77-.528.041-.04.61-.69.61-.69s.162-.08.283-.08c0 .04.04.04.04.08-.161.163-.405.487-.445.528-.325.243-1.015.852-1.137.852-.121.162-.77.446-.811.69.04 0 .162 0 .243.04l.04-.04c.041 0 2.598-2.07 2.598-2.07v-.04h.284c-.122.121-.284.162-.365.324-.203.081-2.03 1.542-2.435 1.867l.04.04c.366 0 .366-.324.69-.324.325-.325.73-.487 1.015-.852.243-.203.487-.365.77-.528 0-.04.326-.243.326-.243.121-.04.04 0 .121.08a.366.366 0 0 0-.243.244c-.04 0-1.218 1.015-1.258 1.015-.081.162-.609.406-.69.609 0 0 .203.04.203.08.162-.08 1.664-1.541 1.867-1.541.08-.203.405-.325.486-.325.041-.081.203-.162.244 0-.04.081-.528.487-.568.487-.244.081-1.502 1.177-1.704 1.38h.162c.122 0 1.704-1.34 1.988-1.542l.365-.284c.122-.163.406-.325.406-.325h.284l-.08-.081-.366.243c-.122-.08-1.136.852-1.136.852s-.73.61-.974.771c0 .122.162.082.162.082s.69-.609.974-.73c.162-.163.933-.61 1.096-.812.08 0 .365-.244.365-.244s.162-.122.365-.203c0 .04.081.04.162.081-.121.082-.324.284-.324.284l-.65.447s-.324.284-.446.324c-.04 0-1.258.69-1.217.853h.243c.203-.122.69-.487 1.258-.853.812-.568 1.42-1.014 1.583-1.095.162-.081.243.04.243.04-.04.041-.568.447-1.136.853-.122.08-.203.162-.325.243a27.2 27.2 0 0 1-1.217.852h.122c.162-.04.243-.04.324-.04a99.927 99.927 0 0 0 1.786-1.34c.04-.162.77-.649.77-.649h.244L8.4 14.122s-.162.04-.284.203c-.203.08-.65.446-.812.69.04 0 .325.04.447.04.162-.162.608-.69.811-.77 0-.042 1.299-1.015 1.34-1.137.04 0 .08-.04.121-.04.365 0 2.232.08 2.273.08.04 0 1.339-.04 1.501 0v-.527c-1.136-.04-3.003-.04-3.246-.04zm-7.263-.892s-.446-.325-.528-.487l-.933-.65c-.04-.04-.446-.203-.527-.405.162 0 .243.04.365.121.243.04 1.948 1.542 2.191 1.786h-.122c-.121-.122-.284-.284-.446-.365zm0 1.663c-.081.122-1.745 1.34-1.786 1.34-.04.04-.243.162-.243.162h-.162l-.082-.04s.366-.204.487-.325l.447-.244c.122-.04.324-.365.609-.446.04-.081.852-.69.933-.771h.122c-.041.04-.244.324-.325.324zm37.333-.851c-.203-.082-.121-.082-.406-.082-.527-.04-1.866-.365-1.947-.365-.203-.04-2.313-.65-2.395-.65-.08-.04-2.07-.73-2.07-.73s-.77-.568-.851-.568c-.081-.081-.447 0-.244.365.284.365.284.487.69.933.081.122.487.73.365.771-.446-.04-.77.041-1.258 0h-.243c-.162.041-2.232 0-2.232 0l-.812.041s-2.434-.04-2.597-.04c-.04.08-.243.04-.284.04-.203 0-1.055.081-1.136.081-.081 0-.365-.04-.69-.04h-1.136c-.284-.082-1.461 0-1.623 0-.203 0-.447.04-.609.04-.081 0-.162-.04-.243-.04h-.853c-.405 0-.852-.082-1.217-.082-.243.122-.771.082-.771.041-.244.04-.487-.04-.65.04-.04-.04-.243-.04-.446 0v.163c.122 0 .244.04.366 0 .121-.04.527 0 .568 0h.08c.488 0 2.354.081 2.557.04.203 0 2.354-.08 2.679 0 .162 0 .365 0 .568-.04h.568c.324-.04 1.785.04 1.907-.04.244.04 1.258.04 1.258.04s.406.081.609 0c.243.04.527.04.77 0 .407.122 1.178.081 1.178.081s.973-.04 1.176 0c.041 0 .082.081 0 .162-.04-.04-.405 0-.487 0-.121 0-.284.041-.405.041-.082 0-3.937-.04-4.22 0 0-.04-2.192 0-2.354.04h-.447c-.365-.04-.73-.04-1.055-.04-.203.04-.892.04-1.136.04-.122 0-.528-.04-.609-.04-.203.04-.365 0-.365 0h-.406c-.487.04-.892 0-1.38.04-.08 0-.202 0-.283.041-.122.04-.569 0-.69 0-.04 0-.203 0-.406-.04v.446c.325 0 .69-.04 1.014-.04h3.287c.447 0 .771.04 1.177-.041.081.04.325.04.406 0 .73.081 1.46.04 1.785.04h.082c.04 0 .04-.04.08-.04h3.532s.365 0 .487.04c.528-.08 2.719 0 3.165-.04h1.908c.04.04.324.04.121.324 0 0-1.176 1.38-1.38 1.542 0 .082 0 .244.204.203.162-.162.77-.284.933-.405l2.394-.853 1.583-.487c.284 0 2.434-.649 2.434-.649s.65-.203.406-.284zm-5.397.04c.203.04 1.177.04 1.461.04 0 .122 0-.04-.081.081-.365.041-1.217.163-1.542.163-.04-.122-.081-.244.162-.284zm-1.785.121c-.081-.04-.284 0-.325 0-.162-.04-1.014.041-1.136-.04a1.56 1.56 0 0 1-.609 0c.04-.04 0-.122 0-.162.162.04.284 0 .446 0 .285-.041 1.461.04 1.502 0 .04 0 .081 0 .122.04.08.04 0 .081 0 .162zm.324 0c-.04-.04 0-.121 0-.202.081-.041.366.04.406.08-.04.163-.284.082-.406.122zm4.87.163c-.081 0-.122.04-.203 0-.203.122-.487.122-.771.203-.162.04-.609.203-.69.203-.243.08-.527.162-.73.243-.04.04-.081.081-.163.081-.121.04-.203 0-.284.04-.04 0-.04.041-.121.082-.122.04-.244.04-.366.162-.162 0-.69.284-.892.284-.122 0-.244.203-.366.081.041-.121.203-.162.284-.284.406-.202.853-.324 1.258-.527a.42.42 0 0 0 .203-.081c.203 0 .406-.081.609-.163.081.041 1.907-.405 1.948-.405.081 0 .162.04.243.04.081 0 .203-.081.203.081-.04.04-.122 0-.162-.04z"/><path d="M.446 10.064h1.502l1.988-.04.528-.082 1.664.162 1.501.122 2.354 1.826 4.017.244 20.087.04 5.519.203-.73.487-5.398 1.664 1.096-1.786H9.942l-2.638 2.11-3.043.203h-.933l-1.542-.121-1.543-.082-.162-.202.406-.082.812-.487 1.744-1.339-.892-.04.04-.65.65-.121h-.406l-.284-.365-1.908-1.38-.08-.203z"/></svg>