<svg xmlns="http://www.w3.org/2000/svg" width="179" height="36"><path d="M108.791.534l1.734 5.7 1.94-.205L108.79.534m11.491 0l-1.734 5.7-1.94-.205 3.674-5.495m-4.907 6.935a.823.823 0 1 1-1.646 0 .823.823 0 0 1 1.646 0m2.586.235a.823.823 0 1 1-1.646 0 .823.823 0 0 1 1.646 0m-5.202 0a.823.823 0 1 1-1.646 0 .823.823 0 0 1 1.646 0m-1.288 1.589l.319 1.115s2.88-.353 5.377.058l.412-1.175s-3.345-.557-6.108.002M6.195 23.652c.786.046 1.485-.062 2.097-.324a4.317 4.317 0 0 0 1.573-1.142 6.92 6.92 0 0 0 1.033-1.638c.25-.568.41-1.17.475-1.807v-.068c0-.023.01-.046.033-.069V18.195c0-.591-.088-1.143-.263-1.654a5.063 5.063 0 0 0-.786-1.45 3.273 3.273 0 0 0-1.311-1.023c-.525-.227-1.137-.341-1.836-.341l1.311-.035h-.229l-.13.035H6.718l-2.327-.035v9.96h1.803zm3.375-11.29c1.093.046 2.049.188 2.868.427.82.238 1.491.585 2.016 1.04a4.245 4.245 0 0 1 1.18 1.688c.262.671.393 1.439.393 2.303v.102l.033.137v.272c0 1.047-.164 1.945-.492 2.695a5.083 5.083 0 0 1-1.442 1.91c-.634.5-1.3.921-2 1.262-.699.341-1.43.603-2.195.785-.284.068-.563.12-.836.153a17.3 17.3 0 0 0-.803.12 18.017 18.017 0 0 1-1.508.068l-1.31-.034a4.84 4.84 0 0 1-.558.034c-.175 0-.35-.011-.524-.034V36H3.08c-.131 0-.257-.005-.377-.017a3.039 3.039 0 0 1-.344-.051h-.164A5.278 5.278 0 0 1 1.31 36H0V12.362h9.57zm20.098 12.621l-2.727-6.686-2.727 6.686h5.454zm-3.126-12.894h2.095L38.88 36h-2.478a.318.318 0 0 1-.15-.034h-.299a.32.32 0 0 1-.15.034h-1.945L30.2 26.586h-6.784L20.024 36h-1.63l-.166-.034c-.023.023-.056.034-.1.034h-2.062l10.476-23.91zm18.143.273h2.913l14.563 16.51v-16.51h1.324a.32.32 0 0 0 .165.137l.199.068c.088-.022.166-.045.232-.068.066-.023.12-.046.165-.069l1.324-.034V36h-2.615l-14.86-17.02V36h-1.457a.217.217 0 0 1-.1-.017.147.147 0 0 0-.066-.017h-.115a.265.265 0 0 0-.116.034h-1.556V12.362M78.224 14v20.397c.269.046.532.08.79.102l.757.069h.336a.583.583 0 0 0 .185.034h.15c1.817-.046 3.397-.273 4.742-.683 1.345-.409 2.432-1 3.261-1.773.875-.819 1.564-1.933 2.068-3.343.505-1.41.812-3.104.925-5.082v-.137c0-.045.01-.09.034-.136v-.785c0-1.546-.197-2.853-.589-3.922-.392-1.069-.98-1.91-1.765-2.524a11.93 11.93 0 0 0-2.471-1.501 10.154 10.154 0 0 0-2.707-.785 3.43 3.43 0 0 0-.673-.068 6.148 6.148 0 0 0-.37-.051 3.391 3.391 0 0 0-.336-.017c-.067 0-.134-.005-.201-.017a1.05 1.05 0 0 0-.169-.017h-.806c-.09 0-.169.006-.236.017a1.163 1.163 0 0 1-.202.017c-.246.023-.482.04-.706.051-.224.012-.437.029-.639.051-.157.023-.302.04-.437.051a4.25 4.25 0 0 1-.37.017c-.112.023-.218.04-.32.052a2.22 2.22 0 0 1-.251.017v-.035zm7.666-1.638c1.928.046 3.558.347 4.892.904 1.334.558 2.382 1.382 3.144 2.473a12.316 12.316 0 0 1 1.715 3.565c.38 1.285.572 2.666.572 4.144 0 .364-.017.739-.05 1.125a18.108 18.108 0 0 1-.404 2.507c-.101.421-.23.848-.387 1.28-.336.91-.79 1.79-1.362 2.643a15.983 15.983 0 0 1-2.068 2.473c-.807.773-1.804 1.376-2.992 1.808-1.189.432-2.556.67-4.102.716H73.685V12.362H85.89zm20.057 11.324c0 1.774.214 3.338.64 4.69.427 1.354 1.078 2.508 1.954 3.463a8.684 8.684 0 0 0 2.676 2.012c.996.478 2.096.75 3.3.819a7.673 7.673 0 0 0 3.07-.819c.93-.477 1.768-1.148 2.512-2.012.832-.955 1.489-2.115 1.97-3.48.482-1.364.789-2.91.92-4.638v-.546c0-1.478-.213-2.842-.64-4.093a10.265 10.265 0 0 0-1.921-3.377c-.81-.91-1.724-1.614-2.742-2.115-1.018-.5-2.14-.784-3.366-.853-1.073.069-2.036.302-2.89.7a6.047 6.047 0 0 0-2.166 1.688 14.65 14.65 0 0 0-1.659 2.558 14.76 14.76 0 0 0-1.067 2.763c-.066.296-.131.58-.197.853-.065.273-.12.546-.164.818-.044.273-.082.546-.115.82-.033.272-.071.534-.115.784v-.035zm-4.695-.324v-.29a3.397 3.397 0 0 1 .065-.682 11.931 11.931 0 0 1 1.084-3.94c.59-1.261 1.412-2.472 2.462-3.632 1.029-1.16 2.3-2.03 3.81-2.61 1.51-.58 3.261-.87 5.253-.87l1.314-.033c2.014.091 3.737.375 5.171.853 1.434.477 2.589 1.182 3.465 2.114.875.91 1.592 1.865 2.15 2.866.559 1 .958 2.046 1.2 3.138.043.136.075.272.097.409.022.136.044.262.066.375l.066.41.066.409c.043.273.07.54.082.801.01.262.027.518.049.768v.41c0 1.91-.312 3.61-.936 5.098a10.016 10.016 0 0 1-2.84 3.838c-1.27 1.091-2.622 1.899-4.056 2.421-1.434.523-2.95.785-4.547.785H113.4c-.285 0-.564-.006-.837-.017a7.265 7.265 0 0 1-.838-.085 5.558 5.558 0 0 1-.854-.137l-.853-.204a10.53 10.53 0 0 1-3.153-1.296 15.129 15.129 0 0 1-2.89-2.32c-.919-.932-1.603-2.086-2.052-3.462-.448-1.376-.672-2.962-.672-4.758v-.359zm37.484.103c.07.012.14.017.21.017a14.487 14.487 0 0 0 2.385-.239c.701-.136 1.285-.34 1.753-.614a7.014 7.014 0 0 0 1.35-.938c.362-.33.649-.676.86-1.04.162-.25.297-.506.402-.768.106-.26.17-.505.193-.733a5.607 5.607 0 0 0 .106-1.091c0-.114-.013-.24-.036-.376a6.293 6.293 0 0 0-.105-.477 1.673 1.673 0 0 0-.175-.546 17.47 17.47 0 0 0-.316-.58 3.337 3.337 0 0 0-.7-.852 6.131 6.131 0 0 0-1.053-.75c-.398-.251-.877-.433-1.438-.547a9.989 9.989 0 0 0-1.963-.17l-1.648-.069v9.687a.313.313 0 0 0 .175.086zm-4.873-11.103h9.957c1.17.046 2.192.205 3.068.478.877.273 1.596.67 2.157 1.194a5.496 5.496 0 0 1 1.262 1.825c.28.67.42 1.404.42 2.2 0 .773-.11 1.472-.332 2.097a4.185 4.185 0 0 1-1.035 1.62 9.237 9.237 0 0 1-1.42 1.194 7.585 7.585 0 0 1-1.56.819 59.7 59.7 0 0 0-.754.273c-.245.09-.497.16-.754.204a5.08 5.08 0 0 1-.7.154c-.235.034-.445.063-.632.085L152.936 36h-1.665a1.09 1.09 0 0 1-.262-.034 1.87 1.87 0 0 1-.264-.017 1.284 1.284 0 0 1-.227-.051h-.526c-.024.023-.048.034-.07.034h-.106a8.105 8.105 0 0 1-1.052.068h-1.402l-8.8-10.949V36h-1.615a.667.667 0 0 1-.21-.034h-.088a.118.118 0 0 1-.087-.034.245.245 0 0 1-.106-.017.253.253 0 0 0-.105-.017h-.105c-.024.023-.047.034-.07.034h-.07a5.112 5.112 0 0 1-.842.068h-1.402V12.362zm35.249 12.621l-2.757-6.686-2.756 6.686h5.513zm-3.16-12.894h2.118L178.424 36h-2.505a.326.326 0 0 1-.151-.034h-.302a.326.326 0 0 1-.152.034h-1.966l-3.699-9.414h-6.858L159.362 36h-1.646l-.17-.034c-.022.023-.055.034-.099.034h-2.084l10.59-23.91z" fill="#1A1919" fill-rule="evenodd"/></svg>